<?xml version="1.0" encoding="UTF-8"?><svg id="b" xmlns="http://www.w3.org/2000/svg" viewBox="0 0 326.32 164.31"><defs><style>.f{fill:#220d0d;}</style></defs><g id="c"><g id="d"><path class="f" d="M67.99,26.28c3.9,4.12,3.59,8.84,2.49,13.67-1.17,5.1.14,7.35,5.29,6.49,7.85-1.31,15-.29,21.91,3.39.33.17.79.38,1.09.27,4.22-1.48,6.3,1.29,8.05,4.49,4.64-2.65,7.55-5.68,7.28-11.11-.17-3.37.46-6.78,1.5-10.33.37,3.1.08,6.49,1.29,9.22,1.33,2.98,4.04,5.35,6.46,8.37.23,0,1.02.18,1.68-.03,5.58-1.7,11.1-3.68,16.73-5.17,5-1.32,6.08-2.31,6.73-7.6.13-1.07.79-2.07,1.5-3.85,2.37,2.98,1.79,5.53,1.87,7.88.06,1.71.27,3.22,2.33,3.22,2.19,0,2.86-1.43,2.79-3.49-.22-6.71-.52-13.43-.43-20.15.04-2.59.97-5.18,1.68-7.72.13-.47,1.13-.7,2.43-1.44v32.6c3.51.22,6.23.17,9.29-1.1,3.35-1.38,7.32-1.31,11.02-1.79,5.83-.75,7.27-2.16,8.48-7.77.22-1.02,1.4-2.47,2.29-2.59,2.01-.26,2.44,1.34,2.24,3.09-.15,1.3-.25,2.61-.36,3.86,4.36,1.29,5,1.05,5.49-2.09.88-5.62,1.73-11.25,3.09-17,.54,3.68,1.09,7.37,1.69,11.45,6,.3,12.08,2.97,15.95-4.98,2.5,4.74,5.97,4.13,9.64,3.21,9.11-2.28,18.37-3.09,27.77-3.59,5.88-.32,11.95-1.29,17.77-2.69,1.83-.44,3.21-2.76,5.13-4.52,2.62,3.89,6.63,2.87,10.57,2.72,5.28-.2,10.58-.05,16.17-.05,1.88-2.57-2.45-5.16-.32-8.4,1.49-2.26,1.35-5.59,2.98-8.43.56,4.17,1.11,8.33,1.67,12.5q2.6-.12,3.11-3.87c1.51,1.52,2.71,3.43,4.43,4.26,1.93.94,4.33.91,7.56,1.48-1.67,2.63-2.63,4.65-4.03,6.28-4.84,5.62-10.34,10.69-12.27,18.35-.51,2.04-2.71,3.61-4.02,5.49-3.35,4.82-6.65,9.67-9.94,14.54-.64.95-1.54,1.94-1.67,2.99-1.08,8.6-7.83,13.8-12.22,20.37-.92,1.37-3.07,2.22-4.81,2.66-2.01.51-4.19.39-6.3.38-40.54-.2-81.07-.3-121.61-.72-10.14-.1-20.28-1.23-30.42-1.83-5.17-.31-10.35-.43-15.53-.72-15.31-.86-30.63-1.79-45.94-2.62-4.02-.22-8.08-.48-12.09-.21-4.4.29-8.41-.65-12.07-2.84-1.73-1.04-3.42-2.55-4.44-4.27-2.43-4.08.64-7.63,1.64-11.38,1.09-4.1,3.7-6.04,8.61-6.24.38-.02.92.23,1.12.05,5.04-4.5,13.68-3.07,17.05-10.42.49-1.07,1.96-2.14,3.13-2.37,4.29-.83,4.65-3.83,4.82-7.32.19-3.79.72-7.58,1.2-11.35.05-.39.79-.69,1.46-1.24ZM317.42.57c-.4,2.67-2.09,5.39.69,9.04,1.46-3.79.66-6.42-.69-9.04ZM158.64,44.96c.19-1.15.38-2.31.58-3.46M115.4,34.01v9.22M149.99,34.59v1.73M201.87,28.25c.19-2.69.42-5.38.5-8.07,0-.17-1.08-.38-1.65-.57M317.75,0v9.22M309.1,12.11c-.19-1.92-.38-3.84-.58-5.76M101.56,49.57v1.73"/></g><g id="e"><path class="f" d="M81.76,150.68l-.05.68-.63.73-.82.67h-.72l-.55.27-.62.05-.6.17-.88-.05-.9-.17-.67-.5-.48-.38-.48-.19v-.5l-.05-.55-.25-.94.13-.43-.25-.36.12-1.04-.18-.99.12-.68-.33-2.41-.2-.56.05-.46.32-.38-.17-.26-.08-.97-.07-.7-.17-.41-.37-.21-.47-.1-.25-.24-.05-.87.3-.17.35-.27.37-.29.35-.32.3-.29v-.21l.55-.41.22-.63.38-.73.25-.67.4-.38.32-.24h.17l.32.5.05.24-.25.12v.5l.25.31.05.5-.22.41-.08.32.37.17.9.07h1.03l.82-.07.15.27h.23l.1-.15.55-.12.2.32.45.12.05.32.2.22-.17.73-.08.21-.05.34-.4.07v.32l-.68.22h-1.68l-.33-.22h-.43l-.48.17-.32.26-.28.5-.05.36h.17v.75l-.05,1.23h-.2v.29l.48.55-.07.56-.17.31-.25.32v1.57l.12.27.36.29-.12,1.25.12,1.16.3.36.43.14h.43l.22-.19.67.5.25-.31h.6l.28-.38.6-.05.42-.5.43.24.32.38.05.62Z"/><path class="f" d="M93.21,140.29l-.12.87-.12.46-.52.6v.46l-.5.41-.4-.17-.57-.36-.4-.41-.35-.53-.62-.34-.35.34-.57.19-.52.22-.5.19-.35.58.07,3.5.17,2.79.33.12-.17.77.35.34.38.46.52.29.4.6-.23.75-.28.34-1.3-.17-.45.41-1.32-.05-.4-.24-.45-.05-.28.22-.85.17-.58-.1-.45-.19-.33-.39-.28-.53.17-.77.57-.34.45-.12.52-.24.28-.39.17-.29-.28-.31.07-.63.28-.41v-1.04l.05-.99-.05-1.59.12-1.4-.18-.63-.28-.53-.33-.34-.12-.36-.28-.22.23-.82.17-.24.28-.53.4-.39.33-.36.35-.12.45-.22h.73l.52.05.12.46.33.24.35.7.33.24.28-.31.47-.34.45-.29.57-.29.8-.12.73-.29.63.29.68.53.45.41.23.46Z"/><path class="f" d="M105.71,149.69c-.03.06-.05.15-.05.29v.55c0,.08,0,.14-.02.17s-.03.06-.07.09c-.09.07-.14.12-.17.15-.18.33-.31.58-.4.73-.17.3-.34.52-.53.67-.25.21-.42.32-.5.36-.08.03-.19.05-.33.05-.12,0-.28-.05-.46-.14-.19-.09-.33-.14-.43-.14h-.43c-.09.07-.16.1-.22.1-.01,0-.07-.03-.17-.09s-.24-.09-.43-.09c-.07-.07-.11-.12-.13-.15-.1-.11-.16-.18-.18-.19-.21-.11-.4-.3-.56-.55-.24-.38-.4-.6-.48-.68-.04.26-.27.51-.68.75-.32.18-.64.36-.96.53-.27.18-.53.36-.8.53s-.56.26-.88.26l-.65-.26c-.12-.05-.27-.09-.44-.14-.17-.05-.32-.08-.44-.11s-.21-.06-.25-.09c-.14-.09-.22-.14-.23-.15-.19-.14-.31-.28-.37-.44-.04-.35-.11-.66-.2-.92-.02-.08-.09-.22-.22-.44-.12-.21-.18-.4-.18-.56,0-.52.15-1.07.46-1.65.31-.57.67-.99,1.11-1.24l.65-.03c.05-.01.12-.05.21-.12.08-.07.17-.15.27-.24.24-.11.67-.19,1.28-.21.61-.03,1-.06,1.18-.09.18-.03.33-.08.47-.14.28-.14.45-.21.51-.23.06-.02.13-.05.22-.09.08-.05.14-.1.17-.15.03-.06.08-.1.15-.14s.09-.07.08-.12l-.05-2.02v-1.08c-.12-.33-.25-.54-.38-.62-.23-.08-.47-.17-.7-.27-.34-.15-.64-.22-.9-.22-.14,0-.28,0-.39.03-.12.02-.25.04-.39.06,0,.07-.05.12-.14.15-.25.08-.38.14-.41.18-.03.04-.06.07-.11.09-.05.02-.08.06-.1.1-.06.09-.1.23-.1.41,0,.08.01.2.03.36.02.16.03.29.03.38,0,.17-.03.3-.1.39-.16.24-.35.43-.57.57s-.47.21-.73.21c-.15,0-.26,0-.35-.02-.34-.05-.53-.07-.57-.07,0-.15-.07-.3-.2-.44-.13-.15-.2-.3-.2-.46,0-.39.09-.71.26-.98.17-.27.35-.53.52-.79.13-.25.31-.47.53-.67.31-.24.55-.43.72-.56.1-.08.19-.17.28-.27s.16-.18.22-.24c.11-.11.25-.18.42-.21.17-.02.35-.05.52-.07.08-.02.17-.09.27-.2.1-.11.19-.18.27-.21.04-.01.11-.01.21,0,.09.01.17.01.22,0,.14-.03.28-.06.4-.08.12-.02.24-.03.37-.03.21,0,.46.07.73.21s.54.27.8.39c.2.06.4.11.6.15.28.13.53.36.77.7.17.25.33.58.48.99v1.62c.02.1.08.31.17.62.09.31.14.54.14.7,0,.18-.04.46-.13.82-.09.36-.13.65-.13.85,0,.11.02.26.07.44.05.18.08.3.08.36l-.2.21c-.03.1-.05.19-.05.26.02.16.04.29.05.39v.96c-.08.1-.12.2-.12.29s.03.31.08.65c.02.14.03.28.03.43l.13.03c.09,0,.18,0,.28-.03.1-.02.16-.03.18-.03.1,0,.19.06.28.17l.02-.17h.47c.21,0,.34,0,.38-.03.04-.02.08-.1.12-.25h.15c.08.02.2.04.37.05.17.01.32.06.47.14ZM100.5,148.83v-1.9c-.07.01-.17.02-.3.02-.22-.01-.39-.02-.52-.02-.14,0-.3.03-.47.09-.51.18-.85.28-1.02.3-.17.02-.45.14-.82.37-.47.29-.7.58-.7.89s.08.64.22.98c.15.35.34.58.57.71.17.03.33.07.5.1.04.02.09.05.13.09s.09.06.13.06c.24,0,.44-.03.6-.1.2-.11.37-.21.5-.27.34-.16.6-.32.77-.5.23-.22.37-.49.4-.82Z"/><path class="f" d="M118.42,151.89l-.23.65-.4.22-.97.07-.4-.24h-.8l-.28.17h-.68l-.68-.17-.5.24-.47-.24-.4-.34-.17-.53.23-.46.4-.12.68-.17.22-.24-.05-.41.17-.29-.05-1.4v-.94l.12-.39-.07-2.75-.17-.34.17-.82-.12-.53-.28-.34-.33-.19-.52-.58-.63-.17-.73-.17-.45-.24-.52.24-.28.46-.52.36-.45.39-.28.31-.17.34.05,2.92-.17.29v2.85l.23.24-.07.92.28.36.35.22.73-.05.23.29.17.41-.35.7-.5.05-.63.29-.9-.05-.58.25-.85.05-.73-.12-.4-.12-.45-.17-.12-.58.12-.24.33-.75.28-.41.35-.24-.07-3.78.18-.19.05-.41-.23-.34-.05-.53.23-.29v-1.87l-.75-.82-.28-.46-.28-.24.05-.7.18-.29.28-.22.4-.19.4-.12.05-.22.4-.24.28-.12.52-.05.38-.24.47-.05.52.46.38.36.07.46.52.12.22-.36.47-.29.67-.29.52-.29.57-.12.47-.17h.5l.52.24.35-.19.33.41.52.48.28-.07.45.17.4.24.05.29.4.48.57.75.18.7-.23.34.28.48-.05,2.27-.35.87-.05,1.16.22.41.07.82-.28.46-.07.48.12.39.28.48.4.22.45.29.3.24v.58Z"/><path class="f" d="M128.52,148.34l-.22,1.28v.94l-.35.75-.57.75-.8.36-.57.12-.33.41-.8.05-1.3.17-.52-.17-1.25-.05-.57-.24-.52-.12-.45-.7-.23-.75-.23-.53-.05-.75.17-.65.35-.22.33-.31.17.12h.47l.45.58.28.36.23.46.22.53.47.05.5.48.68.1.47.36.62-.05.28-.82.28-.36.07-1.11.1-.29-.33-.34v-.41l-.4-.12-.92-.53-.78-.17-1.2-.53-.68-.46-.52-.41-.4-.29-.33-.7-.12-.58-.12-.53-.22-.29-.07-.7.12-.75.45-.82v-.41l.47-.34v-.36l.57-.58.33-.05.68-.46.4-.31.85-.05h.87l.62.24.68.05.52.07.17.22.52.41.45.36.23.75.28.75-.12.82-.52.53-.52.22-.62-.17-.57-.46-.45-.46-.18-.48-.5-.46-.63-.29-.33-.17-.35.17h-.33l-.23.53-.17.58.17.41.17.75.45.65.58.29.5.17.63.29,1.25.46.45.24.52.58.63.53.38,1.21.28.65Z"/><path class="f" d="M142.55,146.54l-.23.79-.52,1.5-.3,1.33-.65.77-.52.05-.43.51-.78.46-.82.41-.87.17-1.07.27-1.26-.07-.73-.12-.52-.17.07,1.63.23.69-.15.55.28,1-.52.46.28,1.58.1.77.05,1.73.85.62.57.28.45.23.12.39.05.79-.35.21-1.58.21-.3-.22-.9.05-.35.24-1.18-.17-.8.27-1.08.07-.68-.21-.45-.32v-.58l.18-.72.4-.6.45.14,1.08-.05-.05-1.16.12-.94.07-1.93.3-.41-.3-.7.19-1.4.17-.75-.37-2.39.19-1.57.11-1.19-.23-.56.18-.89-.32-.73.15-.53-.08-.7.11-.87.11-.78-.22-.56-.18-1.74-.68-.08-.57-.39-.28-.65.23-.62.42-.66.57-.21.62-.16.97-.17.34-.31h.67l.37.51.4.39.1.58.68-.22.23-.19.47-.67h.8l.45-.26.85-.09,1.65.07.35.36.6.36.42.21.17.36.73.55v.53l.45.77.3.27-.13.53.23.53-.25.53.42.51.17,2.05.2.44ZM139.82,146.53l-.07-1.39-.13-1.16-.47-.5-.15-.46-.3-.39-.4-.26-.73-.55-.52-.51-.65-.12h-1.58l-.55.45-.38.6-.18.94.07,1.18-.17.77-.1.82.27.81-.17.82.28.82-.23.41.22.41-.1.82.85.7.78.53.33.12.58.07,1.35-.22.37-.29-.02-.53.47-.05.28-.67.53-.86.15-.7v-1.16l.37-.46Z"/><path class="f" d="M157,148.1l-.35.77-.33.63-.23.53-.4.41-.97,1.11.07.17-.47.29v.29l-.33.24-.63.17-.73.05-.52.36-.45-.24-.35.12-.45.05-.45-.17h-.8l-.28.12-.85-.12-.4-.46-.68-.41-.4-.34-.52-.07v-.24l-.57-.39v-.36l-.45-.75-.35-.53-.05-.82-.28-.12.05-.99-.28-.29-.28-.46-.17-.46.05-.53.4-.46v-.48l-.12-.46.23-.41.05-.58.18-.46.1-.36.47-.51.33-.41.35-.07.05-.51.45-.41.12-.24.28-.36.4-.17.4-.34.45-.17.87-.19.4-.17.85.05.73-.05.57.29.75.07.62.29.4.22h.4l.4.53.45.46h.28l.23.41.45.53.12.53.28.51.35.58v.48l.28.58.22.82.07,2.91ZM154.04,147.17l-.28-.65v-1.04l-.12-.77-.28-.63-.12-1.16-.4-.41-.28-.48-.28.07-.22-.53-.52-.12-.45-.34-.57-.17-.47-.12-.5.12-.23.1-.12.36-.45.05-.35.41-.22.29-.35.41-.23.46-.05.36-.33.41.05.75-.28.36.12.63-.07,1.45.18.6.22.51.12.48v.22l.57.41.17.29.28.48.23.22.4.36.4.17.28.41h.28l.35.17h.62l.45-.24.4-.29.35-.41.4-.39.33-.41.12-.48.17-.51.17-.53.12-.65.4-.22Z"/><path class="f" d="M169.14,140.29l-.12.87-.12.46-.52.6v.46l-.5.41-.4-.17-.57-.36-.4-.41-.35-.53-.62-.34-.35.34-.57.19-.52.22-.5.19-.35.58.07,3.5.17,2.79.33.12-.17.77.35.34.38.46.52.29.4.6-.23.75-.28.34-1.3-.17-.45.41-1.32-.05-.4-.24-.45-.05-.28.22-.85.17-.58-.1-.45-.19-.33-.39-.28-.53.17-.77.57-.34.45-.12.52-.24.28-.39.17-.29-.28-.31.07-.63.28-.41v-1.04l.05-.99-.05-1.59.12-1.4-.18-.63-.28-.53-.33-.34-.12-.36-.28-.22.23-.82.17-.24.28-.53.4-.39.33-.36.35-.12.45-.22h.73l.52.05.12.46.33.24.35.7.33.24.28-.31.47-.34.45-.29.57-.29.8-.12.73-.29.63.29.68.53.45.41.23.46Z"/><path class="f" d="M179.16,150.68l-.05.68-.63.73-.82.67h-.72l-.55.27-.62.05-.6.17-.88-.05-.9-.17-.67-.5-.48-.38-.48-.19v-.5l-.05-.55-.25-.94.13-.43-.25-.36.12-1.04-.18-.99.12-.68-.33-2.41-.2-.56.05-.46.32-.38-.17-.26-.08-.97-.07-.7-.17-.41-.37-.21-.47-.1-.25-.24-.05-.87.3-.17.35-.27.37-.29.35-.32.3-.29v-.21l.55-.41.22-.63.38-.73.25-.67.4-.38.32-.24h.17l.32.5.05.24-.25.12v.5l.25.31.05.5-.22.41-.08.32.37.17.9.07h1.03l.82-.07.15.27h.23l.1-.15.55-.12.2.32.45.12.05.32.2.22-.17.73-.08.21-.05.34-.4.07v.32l-.68.22h-1.68l-.33-.22h-.43l-.48.17-.32.26-.28.5-.05.36h.17v.75l-.05,1.23h-.2v.29l.48.55-.07.56-.17.31-.25.32v1.57l.12.27.36.29-.12,1.25.12,1.16.3.36.43.14h.43l.22-.19.67.5.25-.31h.6l.28-.38.6-.05.42-.5.43.24.32.38.05.62Z"/><path class="f" d="M193.63,148.34l-.22,1.28v.94l-.35.75-.57.75-.8.36-.57.12-.33.41-.8.05-1.3.17-.52-.17-1.25-.05-.57-.24-.52-.12-.45-.7-.23-.75-.23-.53-.05-.75.17-.65.35-.22.33-.31.17.12h.47l.45.58.28.36.23.46.22.53.47.05.5.48.68.1.47.36.62-.05.28-.82.28-.36.07-1.11.1-.29-.33-.34v-.41l-.4-.12-.92-.53-.78-.17-1.2-.53-.68-.46-.52-.41-.4-.29-.33-.7-.12-.58-.12-.53-.22-.29-.07-.7.12-.75.45-.82v-.41l.47-.34v-.36l.57-.58.33-.05.68-.46.4-.31.85-.05h.87l.62.24.68.05.52.07.17.22.52.41.45.36.23.75.28.75-.12.82-.52.53-.52.22-.62-.17-.57-.46-.45-.46-.18-.48-.5-.46-.63-.29-.33-.17-.35.17h-.33l-.23.53-.17.58.17.41.17.75.45.65.58.29.5.17.63.29,1.25.46.45.24.52.58.63.53.38,1.21.28.65Z"/><path class="f" d="M206.88,149.86l.45.46h.23l.33.36.28.46v.41l.12.58-.17.46-.73.17-.75.07-.33.34-.23-.05-.4-.36-.23-.17h-1.42l-.62.12h-.75l-.4-.05-.17-.24-.28-.36-.12-.39.23-.36.28-.24.68-.05.4-.12.28-.29.17-.12.23-.29-.12-1.45-.12-.24v-.17l.23-.17-.07-1.47-.33-.87v-.34l.17-.12.05-.53-.17-.41v-2.15l-.45-.7-.4-.58-.05-.36h-.28l-.35-.17-.45-.17-.97-.05-.47.1-.85.6h-.28l-.12.29-.4.58.07.41-.12.17v.92l-.17.12v.7l.18.41.04,4.26.2,1.52.21.29.35.17.44.19.17.46.18.46-.23.58-.35.19-.5.17h-.75l-.22-.24-.75.12-.73-.12-1.13.07-.4-.19-.28-.34-.12-.41.17-.24-.12-.22.28-.36.47-.34.12-.53.1-.53.35-.12-.12-2.73-.12-.34.17-.31-.17-.34.17-.17-.05-1.81.28-.75-.23-.53-.05-1.06-.05-.46.22-.24-.05-1.45-.17-.99v-.82l-.4-1.5v-2.05l.22-.24-.05-.51-.73-.07-.68-.05-.23-.24-.12-.51.17-.6.35-.29.28-.22.45-.07.52-.12.4-.39.62-.19.63-.29.62-.12h.4l.63.7-.05.58-.18.19.18.17.05.82-.05,1.62-.35.53.05,2.1-.1,2.92h.4l.38-.19.18-.22.45-.12.45-.17,1.08-.48h.4l.73-.29.63-.12.28-.05.85.46.52.36.45.17.4.36.12.39.28.65-.05,1.16.1,1.81.28,1.11-.05,1.04-.17.19.17.22v.41l-.17.24.22.58.23.94.12,1.16.28.41-.17.29Z"/><path class="f" d="M214.92,151.92l-.27.7-.68.26-.77-.09-.77.09-.93-.34-.6.34-.6.36h-.85l-.6-.53-.25-.53.08-.79.77-.09.68-.7.17-1.04.08-1.06-.25-.79.33-.26v-.62l.35-.44-.35-.43-.25-1.49.08-1.06-.68-.26-.85-.44-.08-.79.42-.62.52-.17.6-.17.43-.79.68.09.68-.09.85-.27.5.27.18.62-.08.62-.35.87.25.34.1.7-.18.87-.08.79v2.46l-.08.96.35.62-.18.62.18.34.25.79.68.62.52.53ZM214.24,133.55l-.52.51-.52.44-.85-.09-.68-.44-.52-.62v-.79l.35-.7.85-.26.85.26.43.27v.34l.52.27.08.79Z"/><path class="f" d="M228.82,146.54l-.23.79-.52,1.5-.3,1.33-.65.77-.52.05-.43.51-.78.46-.82.41-.87.17-1.07.27-1.26-.07-.73-.12-.52-.17.07,1.63.23.69-.15.55.28,1-.52.46.28,1.58.1.77.05,1.73.85.62.57.28.45.23.12.39.05.79-.35.21-1.58.21-.3-.22-.9.05-.35.24-1.18-.17-.8.27-1.08.07-.68-.21-.45-.32v-.58l.18-.72.4-.6.45.14,1.08-.05-.05-1.16.12-.94.07-1.93.3-.41-.3-.7.19-1.4.17-.75-.37-2.39.19-1.57.11-1.19-.23-.56.18-.89-.32-.73.15-.53-.08-.7.11-.87.11-.78-.22-.56-.18-1.74-.68-.08-.57-.39-.28-.65.23-.62.42-.66.57-.21.62-.16.97-.17.34-.31h.67l.37.51.4.39.1.58.68-.22.23-.19.47-.67h.8l.45-.26.85-.09,1.65.07.35.36.6.36.42.21.17.36.73.55v.53l.45.77.3.27-.13.53.23.53-.25.53.42.51.17,2.05.2.44ZM226.09,146.53l-.07-1.39-.13-1.16-.47-.5-.15-.46-.3-.39-.4-.26-.73-.55-.52-.51-.65-.12h-1.58l-.55.45-.38.6-.18.94.07,1.18-.17.77-.1.82.27.81-.17.82.28.82-.23.41.22.41-.1.82.85.7.78.53.33.12.58.07,1.35-.22.37-.29-.02-.53.47-.05.28-.67.53-.86.15-.7v-1.16l.37-.46Z"/><path class="f" d="M239.11,148.34l-.22,1.28v.94l-.35.75-.57.75-.8.36-.57.12-.33.41-.8.05-1.3.17-.52-.17-1.25-.05-.57-.24-.52-.12-.45-.7-.23-.75-.23-.53-.05-.75.17-.65.35-.22.33-.31.17.12h.47l.45.58.28.36.23.46.22.53.47.05.5.48.68.1.47.36.62-.05.28-.82.28-.36.07-1.11.1-.29-.33-.34v-.41l-.4-.12-.92-.53-.78-.17-1.2-.53-.68-.46-.52-.41-.4-.29-.33-.7-.12-.58-.12-.53-.22-.29-.07-.7.12-.75.45-.82v-.41l.47-.34v-.36l.57-.58.33-.05.68-.46.4-.31.85-.05h.87l.62.24.68.05.52.07.17.22.52.41.45.36.23.75.28.75-.12.82-.52.53-.52.22-.62-.17-.57-.46-.45-.46-.18-.48-.5-.46-.63-.29-.33-.17-.35.17h-.33l-.23.53-.17.58.17.41.17.75.45.65.58.29.5.17.63.29,1.25.46.45.24.52.58.63.53.38,1.21.28.65Z"/></g></g></svg>