<?xml version="1.0" encoding="UTF-8"?><svg id="b" xmlns="http://www.w3.org/2000/svg" viewBox="0 0 326.63 194.56"><defs><style>.f{fill:#220d0d;}</style></defs><g id="c"><g id="d"><path class="f" d="M0,102.41c3.07-1.17,6-2.28,9.39-3.57.41-3.41,2.67-5.53,7.37-5.32,0-2.01-.09-3.78.03-5.53.07-1.05.45-2.08.79-3.09.03-.08,1.25,0,1.35.25.48,1.16.85,2.39,1.06,3.62.06.33-.79.75-.87,1.19-.16.93-.46,2.36,0,2.75.78.65,2.39,1.22,3.15.84,4.06-2.08,9.35-2.61,10.42-8.62.41-2.29,2.22-4.14,4.9-4.72,1.12-.24,2.15-.98,3.17-1.57,2.79-1.63,5.4-2.36,8.52-.3,1.72,1.14,4.12,1.24,6.29,1.83,4.17-7.29-.26-14.99,1.05-22.71,2.34,1.03,3.95,1.75,5.78,2.55.95-1.53,1.73-2.78,2.58-4.16,1.17-.09,2.35-.17,3.53-.27,1.8-.15,3.5-.54,3.67-2.76.15-1.88-1.1-2.66-2.72-3.18-3.56-1.15-7.11-2.37-10.64-3.62-1.07-.38-2.07-.97-3.68-1.74,3.19-1.83,6.04-2.06,8.77-1.25,3.22.96,6.22,1.29,9.46.02,1.63-.64,3.58-.46,5.62-.67-.43-2.77-2.38-3.17-4.09-3.67-1.96-.57-4.1-.67-5.95-1.46-1-.43-2.15-1.91-2.13-2.89.02-1.04,1.17-2.71,2.13-2.97,6.13-1.65,12.03-5.51,18.67-1.84.61-1.12,1.34-1.97,1.17-2.22-1.98-2.92.55-5.45.26-8.36,4.32-.52,5.43-3.28,5.42-7.13-.72-.48-1.62-.94-2.37-1.59-2.09-1.82-2.09-3.03-.36-5.11,1.26-1.52,2.34-3.19,3.76-5.15,3.26.26,1.87,4.04,3.14,5.36,3,.42,5.63.79,8.05,1.13.89,2.26,1.65,4.16,2.57,6.49-.93.36-2.05.59-2.93,1.18-.72.48-1.44,1.34-1.59,2.13-.08.43.95,1.34,1.63,1.58,1.09.38,2.32.38,3.63.56,1.46,4.36,3.81,7.22,8.96,5.18.38-.15,1.09.56,1.66.82,1.33.59,2.66,1.14,4.64,1.99.63,1.41.06,4.81,3.86,4.57,3.01-.19,6.5.7,7.07-4.16,2.68,3.54,2.79,7.85.37,12.08-1.19,2.09-1.91,3.98-.25,6.43,6.95-.87,10.06,3.63,12.34,10.07,1.36-.94,2.69-1.6,3.67-2.59,3.06-3.09,3.36-3.11,5.82.52.19.28.44.51.38.43,2.04.32,3.68.67,5.35.82,3.19.29,6.41,1.02,9.16-1.72,1.42-1.42,3.05-1.06,4.53,1.38-4.82,2.33-7.41,7.51-13.16,8.41-.93.14-2.22,1.85-2.23,2.85-.01.8,1.55,2.14,2.6,2.35,2.82.57,5.74.74,8.63.91.77.04,1.65-.38,2.35-.8,1.99-1.2,3.91-2.52,6.29-4.07-1.41-.82-2.72-1.57-3.88-2.24,1.05-3.53,2.05-6.9,3.25-10.94.29,4.43,2.76,5.17,6.31,5.06,3.24-.1,4.23,3.24,5.73,5.34,2.4,3.37,2.14,3.4,6.11,2.45,2.07-.49,4.28-.43,5.26-.52,2.91,3.11,5.01,5.35,7.81,8.34,1.04-2.48,1.88-3.91,2.24-5.46.46-1.97,1.24-3.31,3.43-2.67,2.12.62,1.32,2.37,1.23,3.86-.1,1.78-.02,3.56-.02,5.29,3.94.72,3.3-2.94,5.42-4.17,1.73.96,3.73,3.45,6.01,1.55,1.51-1.26,2.25-3.45,3.63-5.71,2.32,4.31,5.7,4.68,9.62,3.32.75-.26,1.69-.19,2.49-.04,3.41.65,6.08-.24,7.82-3.81,3.14,3.19,6.51,1.68,9.96.84,3.46-.84,7.03-1.9,10.51-1.77,5.07.18,9.84-.62,14.61-2.07,2.44-.74,4.96-1.26,7.47-1.76,4.87-.98,5.38-1.49,5.4-6.35.07-13.15.1-26.3.17-39.45,0-.3.26-.6.58-1.3,2.9.43,5.42,1.99,7.71,3.7,2.6,1.93,5.34,2.85,8.52,3.04,4.98.3,4.96.4,5.95,5.12.26,1.25.7,2.47,1.26,4.42-2.94-.46-5.41-.89-7.89-1.23-3.34-.46-6.68-.95-10.04-1.24-1.73-.15-3.04.74-3.05,2.67-.04,9.19-.02,18.38-.02,27.74,1.89.21,3.15.34,4.26.46,1.24,2.51-.25,3.83-1.63,5.1-1.86,1.72-3.64,3.64-5.78,4.94-4.41,2.68-6.93,6.86-9.66,10.95-.54.81-1.39,1.44-2.15,2.09-.76.66-1.72,1.13-2.35,1.88-2.48,2.99-4.78,6.14-7.33,9.06-1.49,1.71-2.24,3.54-2.97,5.7-.93,2.76-3.1,5.16-4.93,7.56-3.6,4.71-7.5,9.2-10.93,14.02-1.09,1.53-1.07,3.85-1.7,6.35-1.78.22-3.76.7-5.73.69-26.34-.2-52.68-.34-79.02-.81-7.66-.14-15.3-1.31-22.96-1.95-3.06-.25-6.14-.25-9.21-.51-11.55-.96-23.23-1.24-34.62-3.17-14.16-2.41-28.33-.82-42.46-1.73-8-.51-15.98-1.42-23.98-2.01-6.13-.45-12.29-.61-18.43-1.06-6.12-.45-12.24-1.02-18.34-1.75-1.12-.13-2.56-1.05-3.07-2.02-1.09-2.06-1.66-4.4-2.69-7.32ZM115.8,37.87c-1.69.02-3.67-.49-4,1.97-.26,1.97,1.61,3.95,3.71,3.99,1,.02,2.14-.03,2.98-.49.89-.49,2.06-1.49,2.08-2.29.02-.87-1-2-1.86-2.57-.78-.52-1.95-.44-2.91-.62ZM97.09,12.37c-.29,1.17-.69,1.86-.55,2.4.34,1.35.85,2.67,1.52,3.88.07.13,2.05-.32,2.46-.95,1.09-1.66.21-3.19-1.09-4.39-.44-.4-1.16-.49-2.33-.95ZM126.63,41.97c.93.4,1.51.82,2.12.87,1.91.16,2.94-1.06,2.8-2.72-.09-1.11-1.1-2.14-1.7-3.21-.84.87-1.77,1.68-2.5,2.64-.37.49-.39,1.24-.72,2.42ZM64.09,65.84c-1.48-1.09-2.68-2.45-3.16-2.23-1,.47-1.62,1.76-2.4,2.71.76.5,1.56,1.47,2.27,1.4.94-.09,1.81-.98,3.3-1.88ZM150.78,65.32c2.47-1.98,2.3-3.51.5-5.33-2.12,1.51-2.17,3.02-.5,5.33ZM80.76,24.6c.32.49,2.26.64,2.65.22,1.68-1.84.22-3.28-.89-5.05-1.86,1.45-3.09,2.84-1.76,4.83ZM304.13,11.42v1.54M219.95,64.8h-1.54M181.97,56.07c-.34-1.88-.68-3.76-1.03-5.65M95.74,11.42c-.34,2.22-.68,4.45-1.03,6.67M18.24,94.57c-.41-2.1-1.21-4.19.44-6.22.2-.24-.61-1.31-.95-1.99M57.76,57.61v1.54M225.08,67.88v1.54M59.3,69.93c-.51-1.71-1.03-3.42-1.54-5.13M245.61,66.85v1.54M254.85,62.75v3.59M136.8,26.82v1.54M104.47,8.86c1.2-.51,2.4-1.03,3.59-1.54M82.4,19.64v1.54M326.2,27.33c-.86-.68-1.71-1.37-2.57-2.05"/></g><g id="e"><path class="f" d="M86.63,183.22l-.45.41h-.85l-.4-.12-.68-.17-.47-.34h-.67l-.92-.07-1.03.07-.5-.12-.35-.36.12-.39.35-.41.73-.19.45-.22.28-.29-.12-.7-.1-1.64.17-.34v-.53l-.17-.46.1-.89-.1-1.86-.12-.92v-.65l-.4-.29v-.41l-.12-.24-.17-.29-.17-.34h-.8l-.52-.12-.57-.12-.28.29-.52-.05-.45.17h-.63l-.45.46-.12.41-.05.36v.92l-.17.82.17,1.93.12.22.05.53-.23.65.35.51-.17.31.1.39.07,1.81.12.41.4.12.45.29.4.53-.07.63-.73.12-1.02-.05h-.97l-.68-.12-1.08.17-.63.07-.52-.48-.22-.29v-.63l.33-.29.52-.12.28-.36.35-.05-.07-.41.12-.82-.17-.34.45-.82-.28-.41.17-.29v-.87l-.22-.7-.18-.36.12-.46.23-.36.05-.75-.17-.82.23-.51-.35-.6-.8-.63-.78-.41-.63-.12-.68.07-.96.17-.52.53-.22.75-.52,1.28.12,1.4.05.87-.05.77-.17.34.22.41v.99l-.22.29.38.7.07.99h.52l.28.41.45.58.23.82-.47.17-.85.29-1.2.12-.96-.24-1.65-.22-.62-.19-.28-.22v-.53l.45-.34.12-.6.23-.51.17-1.11.17-.58.23-.24-.23-.24v-.39l.4-1.01-.23-.34v-.87l.12-.29-.23-.24.12-1.33v-.36l-.4-.46-.33-.41-.17-.53-.07-.53-.12-.34v-.53l.28-.46.23-.36.4-.17.17-.29.63-.05h.62l.63-.41h.57l.35.41.17.34.28.36.45.17.45-.24.8-.29h1.13l.4-.29.63-.05.73.17.4.05.63.36.4.12.4.29.38.58.68.41.18-.24.45-.17.52-.36.4-.46.62-.12.57-.34.75-.07.45-.17h1.42l.92.24.62.58.58.34.67.94.23.58.12.46-.17.24-.12.94-.12.34.12.24v.46l.05,1.57.23.29.12.53v.7l-.17.46.17.36v1.16l.12,1.28.45.41.45.65.28.75.12.46Z"/><path class="f" d="M93.69,182.17l-.27.7-.68.26-.77-.09-.77.09-.93-.34-.6.34-.6.36h-.85l-.6-.53-.25-.53.08-.79.77-.09.68-.7.17-1.04.08-1.06-.25-.79.33-.26v-.62l.35-.44-.35-.43-.25-1.49.08-1.06-.68-.26-.85-.44-.08-.79.42-.62.52-.17.6-.17.43-.79.68.09.68-.09.85-.27.5.27.18.62-.08.62-.35.87.25.34.1.7-.18.87-.08.79v2.46l-.08.96.35.62-.18.62.18.34.25.79.68.62.52.53ZM93.01,163.8l-.52.51-.52.44-.85-.09-.68-.44-.52-.62v-.79l.35-.7.85-.26.85.26.43.27v.34l.52.27.08.79Z"/><path class="f" d="M103.73,178.58l-.22,1.28v.94l-.35.75-.57.75-.8.36-.57.12-.33.41-.8.05-1.3.17-.52-.17-1.25-.05-.57-.24-.52-.12-.45-.7-.23-.75-.23-.53-.05-.75.17-.65.35-.22.33-.31.17.12h.47l.45.58.28.36.23.46.22.53.47.05.5.48.68.1.47.36.62-.05.28-.82.28-.36.07-1.11.1-.29-.33-.34v-.41l-.4-.12-.92-.53-.78-.17-1.2-.53-.68-.46-.52-.41-.4-.29-.33-.7-.12-.58-.12-.53-.22-.29-.07-.7.12-.75.45-.82v-.41l.47-.34v-.36l.57-.58.33-.05.68-.46.4-.31.85-.05h.87l.62.24.68.05.52.07.17.22.52.41.45.36.23.75.28.75-.12.82-.52.53-.52.22-.62-.17-.57-.46-.45-.46-.18-.48-.5-.46-.63-.29-.33-.17-.35.17h-.33l-.23.53-.17.58.17.41.17.75.45.65.58.29.5.17.63.29,1.25.46.45.24.52.58.63.53.38,1.21.28.65Z"/><path class="f" d="M113.9,178.58l-.22,1.28v.94l-.35.75-.57.75-.8.36-.57.12-.33.41-.8.05-1.3.17-.52-.17-1.25-.05-.57-.24-.52-.12-.45-.7-.23-.75-.23-.53-.05-.75.17-.65.35-.22.33-.31.17.12h.47l.45.58.28.36.23.46.22.53.47.05.5.48.68.1.47.36.62-.05.28-.82.28-.36.07-1.11.1-.29-.33-.34v-.41l-.4-.12-.92-.53-.78-.17-1.2-.53-.68-.46-.52-.41-.4-.29-.33-.7-.12-.58-.12-.53-.22-.29-.07-.7.12-.75.45-.82v-.41l.47-.34v-.36l.57-.58.33-.05.68-.46.4-.31.85-.05h.87l.62.24.68.05.52.07.17.22.52.41.45.36.23.75.28.75-.12.82-.52.53-.52.22-.62-.17-.57-.46-.45-.46-.18-.48-.5-.46-.63-.29-.33-.17-.35.17h-.33l-.23.53-.17.58.17.41.17.75.45.65.58.29.5.17.63.29,1.25.46.45.24.52.58.63.53.38,1.21.28.65Z"/><path class="f" d="M121.36,182.17l-.27.7-.68.26-.77-.09-.77.09-.93-.34-.6.34-.6.36h-.85l-.6-.53-.25-.53.08-.79.77-.09.68-.7.17-1.04.08-1.06-.25-.79.33-.26v-.62l.35-.44-.35-.43-.25-1.49.08-1.06-.68-.26-.85-.44-.08-.79.42-.62.52-.17.6-.17.43-.79.68.09.68-.09.85-.27.5.27.18.62-.08.62-.35.87.25.34.1.7-.18.87-.08.79v2.46l-.08.96.35.62-.18.62.18.34.25.79.68.62.52.53ZM120.67,163.8l-.52.51-.52.44-.85-.09-.68-.44-.52-.62v-.79l.35-.7.85-.26.85.26.43.27v.34l.52.27.08.79Z"/><path class="f" d="M128,182.67l-.47.24-.57.05-.33-.24-.8.19-.12.05-.4.05-.28-.1-.22.05h-.92l-.4-.17-.23.12-.22.29h-.52l-.63-.12-.28-.36-.05-.41.45-.46.63-.29.62-.24-.1-4.02.17-.46-.12-.19v-2.44l.23-.24.05-.46-.57-1.04.23-.19-.18-.75v-.58l-.05-.46.28-.24-.17-.94-.28-.34.33-.41.07-.82-.18-.58-.05-.29.17-1.11.23-.24-.07-.7-.33-.58-.07-1.21-.38-.24v-.34h-.52l-.28-.31-.23-.29.07-.41.22-.34.52-.34.4-.31.45-.22.63-.17,1.08.17.45.17.28.41.17.7-.05.41-.18.17.23,1.4.17.34-.22.48.22.17-.22.34.17.19.05,1.21-.17.12-.12.7.23.24-.28.7v1.11l.33.7v.34l-.28.7v.94l.35.58v.46l-.17.29-.07.94.17.29-.17.58.12.53.12,2.44.12.46-.18.12-.05.65.4.82.12.68.17.24.33.17.52.36.4.17.23.46v.65Z"/><path class="f" d="M139.5,180.74l-.4.56.1.29-.48.29h-.23l-.23.34-.45.44-.45-.05-.27.29h-.22l-.38.36h-1.3l-1.37-.12-.72-.12-.45-.11-.28-.3-.55-.27-.62-.41-.12-.34-.33-.24-.08-.5-.32-.29v-.29l-.4-.32-.37-.58-.28-.55-.1-1.23.23-.26v-.29l-.13-.39-.1-.58.23-.55.15-1.61.28-.65.08-.84.42-.21.12-.38-.05-.29.42-.32.23-.36.03-.38.53-.55h.32l.23-.15.45-.14.37-.17.35-.31.4-.26.5-.09h1.71l.65.21.53.31.57.36.52.38.28.62.37.67.3.47.17.78.05.46-.05.65-.07.5-.22.21-.6-.07-.07.21h-1.25l-.13-.21-.72.07h-1.13l-1.17.09-.48-.15-1.61.07v.41l-.2.19-.07,1.33.27.57.28.41.33.5.27.47.08.59.37.5.22.17.12.33.57.16.27.09.32.22h.73l.12.22h.45l.4.27.32-.27h1.17l.33-.47.47-.18.78.56v.22ZM136.32,172.15l-.23-.32-.33-.37-.17-.47-.27-.05-.45-.2-.28-.12h-.88l-.33.26-.55.36-.17.38-.28.41v.46l.45.15h.77l.47.14.65-.05.77.05.32-.14.25-.24.28-.25Z"/><path class="f" d="M159.09,162.95l-.22.17-.23.36-.45.29-.17.29h-.58l-.28-.34h-.33l-.4-.41h-.28l-.4-.41-.23-.17-.4-.07-.17-.34-.4-.19-.28-.1h-1.53l-.45.1-.4.41-.17.36-.28.46-.07.29-.22.17v1.69l.1.24.18.82-.28.24-.23.39.12.99.28.29.45.31h1.03l.97-.07h1.18l.52.36.05.87-.28.34-.4.53-1.65-.05-.73.29-.92.17-.05.34-.33.24.33.7v2.85l.17.29-.12.29v2.22l-.17.41.28.24.07,1.86.22.34.8.24.63.24.4.46.17.41v.34l-.17.24-1.6-.12-1.08.12h-.85l-.35.17h-.38l-.3-.22-.45.22-.68.17h-.4l-.57-.17-.33-.17v-.58l-.12-.29.05-.29.23-.41.28-.46.52.05.33-.12.23-.34.23-.29.17-1.81-.28-.29.17-.24v-.34l-.17-.31v-1.16l.05-1.21.23-1.06-.28-.05.17-.36v-2.56l-.23.05-1.37-.05-.57-.24-.12-.41v-.63l.35-.24.45-.34.8-.17.17-.24v-.94l.35-.46.05-2.44.28-.41.23-.58-.07-.6.28-.58.35-.29v-.41h.23l.05-.34.68-.7.73-.29.58-.07.33-.34.52.05.28-.1.33.1.47-.19.45.26.85-.07.12-.1.28.22,1.42.07,1.03.1.4.12.22.36v.12l.47.34.1,1.57Z"/><path class="f" d="M167.75,170.54l-.12.87-.12.46-.52.6v.46l-.5.41-.4-.17-.57-.36-.4-.41-.35-.53-.62-.34-.35.34-.57.19-.52.22-.5.19-.35.58.07,3.5.17,2.79.33.12-.17.77.35.34.38.46.52.29.4.6-.23.75-.28.34-1.3-.17-.45.41-1.32-.05-.4-.24-.45-.05-.28.22-.85.17-.58-.1-.45-.19-.33-.39-.28-.53.17-.77.57-.34.45-.12.52-.24.28-.39.17-.29-.28-.31.07-.63.28-.41v-1.04l.05-.99-.05-1.59.12-1.4-.18-.63-.28-.53-.33-.34-.12-.36-.28-.22.23-.82.17-.24.28-.53.4-.39.33-.36.35-.12.45-.22h.73l.52.05.12.46.33.24.35.7.33.24.28-.31.47-.34.45-.29.57-.29.8-.12.73-.29.63.29.68.53.45.41.23.46Z"/><path class="f" d="M174.43,182.17l-.27.7-.68.26-.77-.09-.77.09-.93-.34-.6.34-.6.36h-.85l-.6-.53-.25-.53.08-.79.77-.09.68-.7.17-1.04.08-1.06-.25-.79.33-.26v-.62l.35-.44-.35-.43-.25-1.49.08-1.06-.68-.26-.85-.44-.08-.79.42-.62.52-.17.6-.17.43-.79.68.09.68-.09.85-.27.5.27.18.62-.08.62-.35.87.25.34.1.7-.18.87-.08.79v2.46l-.08.96.35.62-.18.62.18.34.25.79.68.62.52.53ZM173.74,163.8l-.52.51-.52.44-.85-.09-.68-.44-.52-.62v-.79l.35-.7.85-.26.85.26.43.27v.34l.52.27.08.79Z"/><path class="f" d="M189.36,171.53l-.23.34-.5.31-.18.22-.17-.12-.57-.05-.33.24-.4.34-.07.65-.28.17.23.29v.75l-.17.24v.41l.45.41v.46l-.23.94-.28.17.28.12-.28.34-.05.48h-.28l-.07.29-1.08,1.09-.57.36-.4.05-.78.19-.63.29-.92-.07-.62.41-.63.53-.5.22h-1.25l-.4.31-.52.51.17.41-.12.17v.48l.4.05.23.36.4.34.45.17.63-.22,1.42-.12.68-.29,1.2.17.9.36.92.1.33.29.28-.22.75.12.57.58.62.34.47,1.06.28.63.17.58.17.65.23.92.17.94-.12.87-.17.58-.17.7-.68.48-.68.46h-.57l-.75.65-.5.29-.75.17-1.18.05h-1.53l-.52-.34h-2l-.28-.24-.22-.05-.47-.19h-.62l-.4-.51-.45-.12-.47-.36-.33-.58-.57-.63-.4-.77-.23-.46-.17-.58.17-.46.23-.58v-.36l.45-.41.8-.7v-.17l.62-.46.58-.24v-.29l-.35-.12-.68-.24-.23-.22-.68-.24-.22-.34v-1.18l-.17-.46.17-.58-.28-.41.28-.65.52-.51.5-.41h1.48l.85-.12.28-.46-.22-.53-.4.12-.12-.46-.68-.19-.52-.22-.12-.48-.5-.63-.52-.07-.28-.29-.12-1.91.45-.41-.05-1.47.05-1.21.4-.29.07-.58h.45l.63-.6.62-.75.63-.05.33-.36,1.31-.17.57-.36h1.18l.68.36.58.17.57.24,1.02.29.17.58.57-.05.35-.48.52-.34.73-.36.57-.34.28.17.4.36.35.29.05,1.45ZM186.79,189.56l-.05-.58-.4-.36-.05-.87-.4-.12-.45-.41-1.65.07-.35-.41-.85-.12h-.85l-.35.17-.8.07-.4-.48-.57.41-.4.36-.45.29-.17.46-.4.12.05.63-.17.29.07.53.62.75.35.19.17.22.85.41.85.41h1.37l2.16-.58h1.3l.28-.53.35-.41.33-.51ZM184.36,175.66l-.18-.58-.22-1.33-.17-.77-.12-.46-.28-.05-.4-.53h-.35l-.4-.24-.17-.29-.68-.05-.52.29-.57.53-.17.34-.73.65v.58l-.12,1.04-.28.36-.12,1.21.28.41.28.7.12.58.57.36.73.12.63.46.57.12.28-.36.85-.51.28-.89.47-.8.4-.89Z"/><path class="f" d="M201.36,179.93c-.03.06-.05.15-.05.29v.55c0,.08,0,.14-.02.17s-.03.06-.07.09c-.09.07-.14.12-.17.15-.18.33-.31.58-.4.73-.17.3-.34.52-.53.67-.25.21-.42.32-.5.36-.08.03-.19.05-.33.05-.12,0-.28-.05-.46-.14-.19-.09-.33-.14-.43-.14h-.43c-.09.07-.16.1-.22.1-.01,0-.07-.03-.17-.09s-.24-.09-.43-.09c-.07-.07-.11-.12-.13-.15-.1-.11-.16-.18-.18-.19-.21-.11-.4-.3-.56-.55-.24-.38-.4-.6-.48-.68-.04.26-.27.51-.68.75-.32.18-.64.36-.96.53-.27.18-.53.36-.8.53s-.56.26-.88.26l-.65-.26c-.12-.05-.27-.09-.44-.14-.17-.05-.32-.08-.44-.11s-.21-.06-.25-.09c-.14-.09-.22-.14-.23-.15-.19-.14-.31-.28-.37-.44-.04-.35-.11-.66-.2-.92-.02-.08-.09-.22-.22-.44-.12-.21-.18-.4-.18-.56,0-.52.15-1.07.46-1.65.31-.57.67-.99,1.11-1.24l.65-.03c.05-.01.12-.05.21-.12.08-.07.17-.15.27-.24.24-.11.67-.19,1.28-.21.61-.03,1-.06,1.18-.09.18-.03.33-.08.47-.14.28-.14.45-.21.51-.23.06-.02.13-.05.22-.09.08-.05.14-.1.17-.15.03-.06.08-.1.15-.14s.09-.07.08-.12l-.05-2.02v-1.08c-.12-.33-.25-.54-.38-.62-.23-.08-.47-.17-.7-.27-.34-.15-.64-.22-.9-.22-.14,0-.28,0-.39.03-.12.02-.25.04-.39.06,0,.07-.05.12-.14.15-.25.08-.38.14-.41.18-.03.04-.06.07-.11.09-.05.02-.08.06-.1.1-.06.09-.1.23-.1.41,0,.08.01.2.03.36.02.16.03.29.03.38,0,.17-.03.3-.1.39-.16.24-.35.43-.57.57s-.47.21-.73.21c-.15,0-.26,0-.35-.02-.34-.05-.53-.07-.57-.07,0-.15-.07-.3-.2-.44-.13-.15-.2-.3-.2-.46,0-.39.09-.71.26-.98.17-.27.35-.53.52-.79.13-.25.31-.47.53-.67.31-.24.55-.43.72-.56.1-.08.19-.17.28-.27s.16-.18.22-.24c.11-.11.25-.18.42-.21.17-.02.35-.05.52-.07.08-.02.17-.09.27-.2.1-.11.19-.18.27-.21.04-.01.11-.01.21,0,.09.01.17.01.22,0,.14-.03.28-.06.4-.08.12-.02.24-.03.37-.03.21,0,.46.07.73.21s.54.27.8.39c.2.06.4.11.6.15.28.13.53.36.77.7.17.25.33.58.48.99v1.62c.02.1.08.31.17.62.09.31.14.54.14.7,0,.18-.04.46-.13.82-.09.36-.13.65-.13.85,0,.11.02.26.07.44.05.18.08.3.08.36l-.2.21c-.03.1-.05.19-.05.26.02.16.04.29.05.39v.96c-.08.1-.12.2-.12.29s.03.31.08.65c.02.14.03.28.03.43l.13.03c.09,0,.18,0,.28-.03.1-.02.16-.03.18-.03.1,0,.19.06.28.17l.02-.17h.47c.21,0,.34,0,.38-.03.04-.02.08-.1.12-.25h.15c.08.02.2.04.37.05.17.01.32.06.47.14ZM196.15,179.08v-1.9c-.07.01-.17.02-.3.02-.22-.01-.39-.02-.52-.02-.14,0-.3.03-.47.09-.51.18-.85.28-1.02.3-.17.02-.45.14-.82.37-.47.29-.7.58-.7.89s.08.64.22.98c.15.35.34.58.57.71.17.03.33.07.5.1.04.02.09.05.13.09s.09.06.13.06c.24,0,.44-.03.6-.1.2-.11.37-.21.5-.27.34-.16.6-.32.77-.5.23-.22.37-.49.4-.82Z"/><path class="f" d="M210.13,180.93l-.05.68-.63.73-.82.67h-.72l-.55.27-.62.05-.6.17-.88-.05-.9-.17-.67-.5-.48-.38-.48-.19v-.5l-.05-.55-.25-.94.13-.43-.25-.36.12-1.04-.18-.99.12-.68-.33-2.41-.2-.56.05-.46.32-.38-.17-.26-.08-.97-.07-.7-.17-.41-.37-.21-.47-.1-.25-.24-.05-.87.3-.17.35-.27.37-.29.35-.32.3-.29v-.21l.55-.41.22-.63.38-.73.25-.67.4-.38.32-.24h.17l.32.5.05.24-.25.12v.5l.25.31.05.5-.22.41-.08.32.37.17.9.07h1.03l.82-.07.15.27h.23l.1-.15.55-.12.2.32.45.12.05.32.2.22-.17.73-.08.21-.05.34-.4.07v.32l-.68.22h-1.68l-.33-.22h-.43l-.48.17-.32.26-.28.5-.05.36h.17v.75l-.05,1.23h-.2v.29l.48.55-.07.56-.17.31-.25.32v1.57l.12.27.36.29-.12,1.25.12,1.16.3.36.43.14h.43l.22-.19.67.5.25-.31h.6l.28-.38.6-.05.42-.5.43.24.32.38.05.62Z"/><path class="f" d="M221.24,180.74l-.4.56.1.29-.48.29h-.23l-.23.34-.45.44-.45-.05-.27.29h-.22l-.38.36h-1.3l-1.37-.12-.72-.12-.45-.11-.28-.3-.55-.27-.62-.41-.12-.34-.33-.24-.08-.5-.32-.29v-.29l-.4-.32-.37-.58-.28-.55-.1-1.23.23-.26v-.29l-.13-.39-.1-.58.23-.55.15-1.61.28-.65.08-.84.42-.21.12-.38-.05-.29.42-.32.23-.36.03-.38.53-.55h.32l.23-.15.45-.14.37-.17.35-.31.4-.26.5-.09h1.71l.65.21.53.31.57.36.52.38.28.62.37.67.3.47.17.78.05.46-.05.65-.07.5-.22.21-.6-.07-.07.21h-1.25l-.13-.21-.72.07h-1.13l-1.17.09-.48-.15-1.61.07v.41l-.2.19-.07,1.33.27.57.28.41.33.5.27.47.08.59.37.5.22.17.12.33.57.16.27.09.32.22h.73l.12.22h.45l.4.27.32-.27h1.17l.33-.47.47-.18.78.56v.22ZM218.06,172.15l-.23-.32-.33-.37-.17-.47-.27-.05-.45-.2-.28-.12h-.88l-.33.26-.55.36-.17.38-.28.41v.46l.45.15h.77l.47.14.65-.05.77.05.32-.14.25-.24.28-.25Z"/><path class="f" d="M231.73,178.58l-.22,1.28v.94l-.35.75-.57.75-.8.36-.57.12-.33.41-.8.05-1.3.17-.52-.17-1.25-.05-.57-.24-.52-.12-.45-.7-.23-.75-.23-.53-.05-.75.17-.65.35-.22.33-.31.17.12h.47l.45.58.28.36.23.46.22.53.47.05.5.48.68.1.47.36.62-.05.28-.82.28-.36.07-1.11.1-.29-.33-.34v-.41l-.4-.12-.92-.53-.78-.17-1.2-.53-.68-.46-.52-.41-.4-.29-.33-.7-.12-.58-.12-.53-.22-.29-.07-.7.12-.75.45-.82v-.41l.47-.34v-.36l.57-.58.33-.05.68-.46.4-.31.85-.05h.87l.62.24.68.05.52.07.17.22.52.41.45.36.23.75.28.75-.12.82-.52.53-.52.22-.62-.17-.57-.46-.45-.46-.18-.48-.5-.46-.63-.29-.33-.17-.35.17h-.33l-.23.53-.17.58.17.41.17.75.45.65.58.29.5.17.63.29,1.25.46.45.24.52.58.63.53.38,1.21.28.65Z"/></g></g></svg>