<?xml version="1.0" encoding="UTF-8"?><svg id="b" xmlns="http://www.w3.org/2000/svg" viewBox="0 0 171.14 92.24"><defs><style>.f{fill:#220d0d;}</style></defs><g id="c"><g id="d"><path class="f" d="M46.5,24.58c.71-2.13,1.77-4.22,1.99-6.4.39-3.8-1.47-4.85-4.92-3.15-3.61,1.78-7.22,3.42-11.42,3.17-1.22-.07-2.52.38-3.7.81-5.1,1.86-10.07,4.12-15.27,5.59-3.26.93-6.84.72-10.28,1.02-.87-2.9-2.01-5.74-2.57-8.7-.92-4.85-.11-5.99,4.89-6.8,6.64-1.08,13.32-1.94,20-2.74,1.36-.16,2.85.14,4.2.52,6.49,1.84,12.4-.97,18.5-2.24.27-.06.51-.39.72-.63,2.24-2.52,5.1-2.9,8.3-2.86,9.78.13,19.55.06,29.33.04,1.43,0,3.14.26,4.24-.41C93.92-.28,97.62.06,101.25.02c5.6-.07,11.21.08,16.82.19,2.4.05,4.96-.28,7.16.44,4.38,1.44,8.77,1.82,13.27,1.5,2.59-.19,4.59.69,6.46,2.5,1.08,1.04,2.68,2.1,4.07,2.13,3.63.08,7.3-.19,10.9-.72,2.97-.44,8.79.59,11.21,2.65-.55.38-1.02.97-1.52,1-4.54.24-9.01,1.22-13.65.74-3.45-.36-7,.37-10.51.55-1.27.07-2.57.12-3.8-.1-5.12-.91-10.11-1.22-15,1.23-1.35.68-3.11.71-4.68.75-9.61.22-19.23.35-28.84.53-1.69.03-3.38.15-5.23.24-.08,1.51-.44,2.58-.12,3.36,2.42,5.88,5.62,11.09,12.05,13.34,1.88.66,4.31,2.2,3.34,3.91-1.55,2.72-4.3,4.79-6.72,6.93-.37.33-1.83-.3-2.6-.79-5.34-3.36-9.25-8.3-13.21-13.04-2.38-2.85-3.7-6.6-5.63-10.19-.76.15-2.06.39-3.3.63-1.93-4.84-3.61-5.44-8.05-3.27-3.43,1.67-5.91,3.68-6.48,8.06-.33,2.52-1.31,5.91-4.22,7-2.31.86-5.02.9-7.81-1.15.52-1.47.96-2.66,1.36-3.86ZM169.71,8.75c-.96-.32-1.92-.65-2.89-.97"/></g><g id="e"><path class="f" d="M58.22,79.93l-.5.69-.62.27-.92-.27-1.93.19-.82-.13-.88-.06h-1.93l-.8.27-.37-.27-.75-.17-.3-.52.17-.54.28-.19.32.15.02-.26.95.03.42.22.52-.26.4-.48-.17-.41-.65-1.45.1-.26-.25-.41-.49-1.76-.33-.67-.07-.62-.54-1.04-.12-.96-.55-.21-.68-.21-3.42.05-.65-.05-.28.05-.32.21-.07.44-.3.22v.41l-.23.29.17.03-.68,1.54v.79l-.37-.09.03.53-.57,1.57.3.17-.1.39-.32.02.08.56.45.38.08.7.28-.03.47.38.57-.07,1.17.38.57.42-.18.41-.21.05-.08.4-1.22-.17-2.37.22-.57-.15-.48.29-.52-.39-.68.03-.87.22-.38-.22-.25.56-.65-.29-.83-.19-.45-.5-.23-.55.6-.75,1.04-.65,1.1-.29.44-.29.57-.56.49-.67.8-2.6.65-1.45.42-.53v-.7l.47-.41-.03-.84.25-.17.56-1.57.36-1.15.43-.26.03-.6.68-1.71.05-.53.23-.46.45-1.06.23-.22,1.04-2.89,2.35-1.47.87-.05.63.34.08.65-.2-.05.02.79h.23l.43,1.37.13.58.2.38-.13.48.73.72.28-.14.07,1.57-.15,1.37.37.67.12,1.14,1.76,2.19.2.46-.03.99-.13.24.02.58.52.24-.05.7.22.51.27,1.2v.5l.25.56.65,1.57.43.62.85.38.4.41.25.33h.4l.75.83ZM47.82,68.76v-.84l-.28-.75-.35-.41-.33-.77-.07-.63-.37-.41-.25-.65-.48-.22-.52.55-.37.86-.32.72-.05.7-.32.77.08.55-.42.24.42.38.74.22.69.15.72.26.4-.08.82-.38.24-.24Z"/><path class="f" d="M81.71,79.89c0,.39-.17.66-.5.8-.23.1-.58.15-1.04.15-.48,0-.94-.1-1.39-.29-.23-.1-.43-.15-.58-.15l-2.22.12c-.11-.06-.22-.11-.33-.15s-.25-.06-.4-.06c-.2,0-.34.02-.43.05-.09.06-.17.11-.25.15l-2.09.12s-.07.01-.12.03c-.13.08-.31.12-.52.12-.31,0-.62-.14-.93-.43-.31-.29-.47-.54-.49-.75-.01-.08.03-.2.12-.36.09-.16.13-.29.13-.39.17,0,.38-.06.63-.18.25-.12.49-.19.71-.21.22-.02.44-.05.67-.09.22-.03.38-.07.46-.12.08-.05.13-.11.13-.21,0-.06,0-.1-.02-.14-.01,0-.02,0-.02-.02,0-.12-.09-.24-.27-.33-.18-.1-.38-.2-.58-.32-.08-.05-.17-.13-.27-.25-.11-.12-.2-.23-.29-.33-.18-.23-.34-.52-.48-.87-.04-.07-.08-.14-.12-.22-.06-.08-.16-.17-.32-.26-.02-.02-.12-.07-.28-.14-.17-.07-.27-.12-.31-.17-.04-.04-.05-.12-.04-.21.01-.1,0-.16-.02-.18l-.82-1.04c-.33-.48-.61-.88-.83-1.21-.41-.6-.69-.97-.85-1.09-.07-.04-.14-.07-.22-.07s-.15-.02-.22-.07c-.08-.1-.14-.19-.19-.26s-.1-.12-.14-.15c-.33-.26-.62-.49-.87-.68-.38-.3-.64-.5-.78-.6h-.48v.41c0,.22-.04.39-.12.51l.05,1.47.28.46-.13,1.4.13.41-.28,1.28.15,1.04c.04.34.13.66.27.94.13.29.36.54.67.75.11.08.26.12.45.12.01,0,.11.09.28.26.12.12.23.18.32.2.09.02.17.03.25.03.12,0,.28-.01.47-.04.19-.03.3-.04.33-.03.18.1.28.17.31.21.03.04.04.12.04.23,0,.75-.36,1.23-1.07,1.42-.38.06-.77.11-1.15.15h-.12s-.11,0-.17.02c-.15,0-.29-.02-.41-.05-.1-.08-.2-.17-.3-.26l-2.43.1s-.08.04-.17.13-.17.15-.25.19-.17.07-.29.1c-.11.03-.27.04-.47.04h-.42c-.16,0-.35-.02-.57-.05-.16-.05-.31-.09-.47-.12-.13-.05-.29-.11-.47-.19-.18-.08-.31-.16-.39-.24-.11-.12-.17-.26-.17-.43-.02-.18.02-.39.13-.61.11-.22.22-.36.32-.4.1-.05.24-.09.43-.14.19-.05.37-.09.54-.14.17-.05.3-.09.38-.14.17-.09.3-.21.42-.36l.28-.7c.04-.15.09-.32.12-.5.04-.19.06-.31.08-.37v-.57c0-.18.02-.36.07-.55,0-.3-.02-.51-.06-.65s-.08-.24-.12-.3c-.04-.06-.08-.12-.13-.16,0-.01.04-.06.13-.15.09-.09.17-.23.23-.43.02-.07.04-.23.05-.47.01-.25.02-.41.03-.49-.03-.18-.06-.38-.07-.59-.01-.21-.02-.41-.02-.61l.07-.7c-.04-.27-.08-.55-.12-.82,0-.03.01-.09.03-.17.02-.08.03-.14.02-.17-.04-.14-.08-.27-.12-.41,0-.13.02-.32.07-.58.04-.26.06-.44.05-.53-.03-.09-.08-.17-.14-.23-.06-.06-.1-.11-.11-.14s-.02-.09-.02-.2c0-.18,0-.34.02-.48.06-.66.08-1.11.08-1.35.02-.16.03-.32.04-.5,0-.17.01-.38.01-.62,0-.08.05-.23.14-.46.05-.14.08-.23.09-.29.02-.15,0-.36-.04-.64-.05-.28-.08-.48-.08-.59,0-.05-.04-.14-.11-.27s-.11-.22-.11-.26c.07-.15.1-.29.1-.41-.08-.1-.12-.21-.15-.31s-.04-.22-.04-.34c0-.32-.04-.54-.12-.66-.08-.12-.24-.25-.48-.4-.1-.08-.27-.13-.51-.16-.24-.03-.39-.07-.46-.11-.12-.04-.21-.14-.25-.28-.04-.14-.07-.34-.07-.59,0-.3.24-.57.72-.82.06-.04.1-.09.14-.14.04-.04.09-.08.17-.1s.18-.05.33-.09c.14-.04.26-.06.35-.06.24,0,.42.01.54.04.12.02.32.08.62.18.27.05.44.08.52.1s.23.05.44.1c.13.07.27.13.4.19h.68c.23-.01.41-.02.54-.03.13,0,.23-.02.31-.04.18-.06.37-.16.58-.31.21-.15.4-.22.58-.22.16.06.29.1.4.14.33.12.68.28,1.05.46v.98c-.14.05-.25.13-.32.25-.07.12-.15.21-.25.27-.04.02-.25.06-.62.11s-.6.11-.67.16c-.31.17-.53.37-.67.58-.07.1-.17.35-.3.74-.14.3-.23.49-.27.58-.08.22-.12.46-.12.72l.07,1.97s-.06.3-.2.84c-.08.32-.12.5-.12.53,0,.12.08.34.24.65.16.31.35.46.56.46.07,0,.16-.01.27-.04.11-.03.23-.07.35-.11.33-.37.75-.77,1.27-1.21.17-.14.28-.23.33-.29.06-.15.11-.3.17-.45.12-.18.22-.32.28-.43.02-.03.05-.08.08-.15.03-.01.14-.04.33-.09.19-.05.33-.13.42-.23.21-.31.35-.57.43-.79.04-.15.09-.3.13-.44.01-.01.09-.06.23-.15.3-.18.55-.4.77-.65v-.48s.13-.1.29-.2.26-.17.31-.23c.12-.18.2-.36.24-.53.04-.17.06-.32.06-.46,0-.16-.2-.36-.61-.61s-.61-.44-.61-.59c0-.12.08-.3.25-.53.13-.18.27-.36.4-.55.53-.04,1.03-.07,1.48-.07h.51c.11,0,.22,0,.34-.02.09,0,.17,0,.25,0,.08,0,.24.03.48.08.07.04.15.05.25.05.06,0,.19-.01.42-.04s.36-.05.42-.08c.12-.06.25-.08.38-.08.01,0,.13-.01.37-.03.23-.02.46-.03.68-.03.34,0,.75.03,1.22.1.25,0,.55.01.88.04s.59.07.77.14c.18.06.34.16.46.3s.18.29.18.44-.02.32-.07.49c-.05.17-.11.3-.19.4-.08.1-.16.17-.26.21-.09.04-.25.07-.46.09-.02,0-.09-.06-.22-.17s-.31-.17-.57-.17c-.08,0-.19.04-.35.12-.04.02-.21.12-.5.29l-.73.34c-.08.03-.22.07-.44.1-.22.03-.37.08-.47.14-.12.05-.24.14-.37.29-.17.19-.28.31-.33.34-.42.32-.89.71-1.4,1.18-.04.02-.08.09-.12.19-.09.24-.15.38-.19.42s-.14.08-.29.13c-.16.05-.28.11-.37.19-.01.01-.11.14-.3.38-.09.11-.18.21-.27.27-.21.12-.47.21-.77.26-.12.01-.2.04-.23.07l-.32.55-.57.53h-.17c-.06,0-.12,0-.2-.02-.12,0-.19,0-.2.02-.14.1-.22.23-.23.38-.01.15-.08.26-.2.34-.1.09-.27.18-.52.27-.24.09-.38.14-.41.15s-.11.1-.23.26c-.13.17-.27.33-.42.49.03.09.07.18.1.27.04.07.13.15.27.24.18.07.33.13.45.18.12.05.22.1.28.15.27.23.53.45.8.67.27.18.54.36.82.55.09.06.21.13.35.22.03.14.07.28.11.44.04.15.12.34.26.57.08.14.28.31.59.52.32.21.64.42.97.62.05.02.11.06.17.1.11.09.24.24.38.44.01.01.04.12.09.33.05.21.11.36.19.44.01.01.13.06.37.14.11.03.19.08.23.13.04.05.11.16.21.32.09.16.2.29.31.39s.26.27.45.5c.11.14.19.23.25.27.16.16.39.37.7.62.28.22.46.38.55.5.09.08.21.22.37.43.16.21.26.34.32.39.19.24.35.41.47.52.13.11.25.19.36.23.21.14.37.24.47.31.2.13.43.22.69.29.26.07.56.14.91.22.16.1.27.18.36.22.08.04.23.08.45.09.22.02.35.05.39.09.17.16.3.34.41.54.1.2.16.43.16.69Z"/><path class="f" d="M98.23,68.21l-.12.87-.12.46-.52.6v.46l-.5.41-.4-.17-.57-.36-.4-.41-.35-.53-.62-.34-.35.34-.57.19-.52.22-.5.19-.35.58.07,3.5.17,2.79.33.12-.17.77.35.34.38.46.52.29.4.6-.23.75-.28.34-1.3-.17-.45.41-1.32-.05-.4-.24-.45-.05-.28.22-.85.17-.58-.1-.45-.19-.33-.39-.28-.53.17-.77.57-.34.45-.12.52-.24.28-.39.17-.29-.28-.31.07-.63.28-.41v-1.04l.05-.99-.05-1.59.12-1.4-.18-.63-.28-.53-.33-.34-.12-.36-.28-.22.23-.82.17-.24.28-.53.4-.39.33-.36.35-.12.45-.22h.73l.52.05.12.46.33.24.35.7.33.24.28-.31.47-.34.45-.29.57-.29.8-.12.73-.29.63.29.68.53.45.41.23.46Z"/><path class="f" d="M104.9,79.85l-.27.7-.68.26-.77-.08-.77.08-.93-.34-.6.34-.6.36h-.85l-.6-.53-.25-.53.08-.79.77-.08.68-.7.17-1.04.08-1.06-.25-.79.33-.26v-.62l.35-.45-.35-.43-.25-1.49.08-1.06-.68-.26-.85-.44-.08-.79.42-.62.52-.17.6-.17.43-.79.68.09.68-.09.85-.27.5.27.18.62-.08.62-.35.87.25.34.1.7-.18.87-.08.79v2.46l-.08.96.35.62-.18.62.18.34.25.79.68.62.52.53ZM104.22,61.48l-.52.51-.52.44-.85-.08-.68-.44-.52-.62v-.79l.35-.7.85-.26.85.26.43.27v.34l.52.27.08.79Z"/><path class="f" d="M118.92,60.63l-.22.17-.23.36-.45.29-.17.29h-.58l-.28-.34h-.33l-.4-.41h-.28l-.4-.41-.23-.17-.4-.07-.17-.34-.4-.19-.28-.1h-1.53l-.45.1-.4.41-.17.36-.28.46-.07.29-.22.17v1.69l.1.24.18.82-.28.24-.23.39.12.99.28.29.45.31h1.03l.97-.07h1.18l.52.36.05.87-.28.34-.4.53-1.65-.05-.73.29-.92.17-.05.34-.33.24.33.7v2.85l.17.29-.12.29v2.22l-.17.41.28.24.07,1.86.22.34.8.24.63.24.4.46.17.41v.34l-.17.24-1.6-.12-1.08.12h-.85l-.35.17h-.38l-.3-.22-.45.22-.68.17h-.4l-.57-.17-.33-.17v-.58l-.12-.29.05-.29.23-.41.28-.46.52.05.33-.12.23-.34.23-.29.17-1.81-.28-.29.17-.24v-.34l-.17-.31v-1.16l.05-1.21.23-1.06-.28-.05.17-.36v-2.56l-.23.05-1.37-.05-.57-.24-.12-.41v-.63l.35-.24.45-.34.8-.17.17-.24v-.94l.35-.46.05-2.44.28-.41.23-.58-.07-.6.28-.58.35-.29v-.41h.23l.05-.34.68-.7.73-.29.58-.07.33-.34.52.05.28-.1.33.1.47-.19.45.26.85-.07.12-.1.28.22,1.42.07,1.03.1.4.12.22.36v.12l.47.34.1,1.57Z"/><path class="f" d="M122.06,80.35l-.47.24-.57.05-.33-.24-.8.19-.12.05-.4.05-.28-.1-.22.05h-.92l-.4-.17-.23.12-.22.29h-.52l-.63-.12-.28-.36-.05-.41.45-.46.63-.29.62-.24-.1-4.02.17-.46-.12-.19v-2.44l.23-.24.05-.46-.57-1.04.23-.19-.18-.75v-.58l-.05-.46.28-.24-.17-.94-.28-.34.33-.41.07-.82-.18-.58-.05-.29.17-1.11.23-.24-.07-.7-.33-.58-.07-1.21-.38-.24v-.34h-.52l-.28-.31-.23-.29.07-.41.22-.34.52-.34.4-.31.45-.22.63-.17,1.08.17.45.17.28.41.17.7-.05.41-.18.17.23,1.4.17.34-.22.48.22.17-.22.34.17.19.05,1.21-.17.12-.12.7.23.24-.28.7v1.11l.33.7v.34l-.28.7v.94l.35.58v.46l-.17.29-.07.94.17.29-.17.58.12.53.12,2.44.12.46-.18.12-.05.65.4.82.12.68.17.24.33.17.52.36.4.17.23.46v.65Z"/><path class="f" d="M133.57,78.42l-.4.56.1.29-.48.29h-.23l-.23.34-.45.44-.45-.05-.27.29h-.22l-.38.36h-1.3l-1.37-.12-.72-.12-.45-.11-.28-.3-.55-.27-.62-.41-.12-.34-.33-.24-.08-.5-.32-.29v-.29l-.4-.32-.37-.58-.28-.55-.1-1.23.23-.26v-.29l-.13-.39-.1-.58.23-.55.15-1.61.28-.65.08-.84.42-.21.12-.38-.05-.29.42-.33.23-.36.03-.38.53-.55h.32l.23-.15.45-.14.37-.17.35-.31.4-.26.5-.08h1.71l.65.21.53.31.57.36.52.38.28.62.37.67.3.47.17.78.05.46-.05.65-.07.5-.22.21-.6-.07-.07.21h-1.25l-.13-.21-.72.07h-1.13l-1.17.08-.48-.15-1.61.07v.41l-.2.19-.07,1.33.27.57.28.41.33.5.27.47.08.59.37.5.22.17.12.33.57.16.27.09.32.22h.73l.12.22h.45l.4.27.32-.27h1.17l.33-.47.47-.18.78.56v.22ZM130.39,69.83l-.23-.32-.33-.37-.17-.47-.27-.05-.45-.2-.28-.12h-.88l-.33.26-.55.36-.17.38-.28.41v.46l.45.15h.77l.47.14.65-.05.77.05.32-.14.25-.24.28-.25Z"/><path class="f" d="M144.06,76.26l-.22,1.28v.94l-.35.75-.57.75-.8.36-.57.12-.33.41-.8.05-1.3.17-.52-.17-1.25-.05-.57-.24-.52-.12-.45-.7-.23-.75-.23-.53-.05-.75.17-.65.35-.22.33-.31.17.12h.47l.45.58.28.36.23.46.22.53.47.05.5.48.68.1.47.36.62-.05.28-.82.28-.36.07-1.11.1-.29-.33-.34v-.41l-.4-.12-.92-.53-.78-.17-1.2-.53-.68-.46-.52-.41-.4-.29-.33-.7-.12-.58-.12-.53-.22-.29-.07-.7.12-.75.45-.82v-.41l.47-.34v-.36l.57-.58.33-.05.68-.46.4-.31.85-.05h.87l.62.24.68.05.52.07.17.22.52.41.45.36.23.75.28.75-.12.82-.52.53-.52.22-.62-.17-.57-.46-.45-.46-.18-.48-.5-.46-.63-.29-.33-.17-.35.17h-.33l-.23.53-.17.58.17.41.17.75.45.65.58.29.5.17.63.29,1.25.46.45.24.52.58.63.53.38,1.21.28.65Z"/></g></g></svg>