<?xml version="1.0" encoding="UTF-8"?><svg id="b" xmlns="http://www.w3.org/2000/svg" viewBox="0 0 226.69 84.4"><defs><style>.f{fill:#220d0d;}</style></defs><g id="c"><g id="d"><path class="f" d="M95.69,2.55c.52-.41,1.66-1.11,1.49.25-.14,1.14-2.09.63-.25,2.22,1.05-1.58,1.44-.15,2.5-.02,1.49.19,4.14-.47,4.21,1.51l1.76-1.47.73.64.48-1.15c1,.2,2.82,0,3.97,0-.21,1.75.58.66,1.39.64.98-.03,6.08-.08,6.58.06,1.18.32,1.26,1.58,1.8,1.77.63.22,2.46-.92,3.36-1,6.57-.56,17.47-.42,24.11.02.52.03,1.76.57,2.48.5.03.07.5.09.49.24-.13,1.15-3.99.68-4.96.75-7.43-.55-16.13.05-23.6.49-1.41.08-.52,1.24-.73,1.99-2.2-.63-1.88.91-1.99.99-.53.38-11.09-.45-12.91-.5,2.06-.48,6.79-2.17,7.69,0,1.26-1.62,3.42-.85,5.22-.99v-2.49s-20.86,0-20.86,0v2.98c-.14-.02-.43-.03-.49,0v-2.98c-1.2.41-1.96.21-2.98-.5.05-.32-.05-.68,0-.99.12-.82.37-1.35.5-1.99.06-.29-.03-.67,0-.99ZM150.31,9.99c-.18.5-.21.44-.72.51-2.48.32-6.06-.04-8.72-.01l-1.74,1.5c-.42-1.6-.93-.48-2.46-.48-2.82,0-5.68.06-8.49-.03-.96-.03-1.99.51-1.72-.99-1.28.08-1.05-.04-1,1.49-1.03.17-.05-1.41-.77-1.49-.2-.02-3.74.56-3.93.63-.42.16-.29,1.19-1.25.86-.05.08-.61.06-.49.49,1.12-.12,1.14.53.99,1.5.95-.09,1.57.03,1.99,0,.97-.08,2.2-.4,3.48-.5,4.34-.34,8.48-.43,12.91-.5.49,0,1.77.51,2.98.5.02-.33-.03-.66,0-.99,3.56.49,7.29-.48,10.68-.54,4.35-.08,9.29.17,13.16.04.06-.28-.09-.9,0-.99-.85.19-2.13-.94-2.48-.99-2.79-.4-6.6-.14-9.43,0-.49.03-1-.02-1.49,0l.49,1.48h-1.49s-.04-3.2-.04-3.2l-.45-.28c-.11.57.16,1.54,0,1.99ZM54.48,6.52c.09.33.46.72.5.99,3.63-.1,7.3.13,10.92,0,8.67-.32,17.24-.98,25.99-.81,1.02.02,2.35.43,3.31.81.05-.31-.05-.68,0-.99s-.05-.68,0-.99c-1.63.73-1.99-1.04-2.71-1.05-2.15-.02-5.27,1.08-7.47,1.09-5.95.03-12.06-.66-18.12-.54-2.11.78-7.55,1.94-9.63,1.36-.52-.15-.62-.41-.8-.86-.2-.5.46-1.43-1.19-1-.32.08-.59.94-.8,1,.05.31-.08.73,0,.99ZM160.73,5.03c-.33.02-.67-.04-.99,0,.13.78-1.24,1.45.26,1.48,1.94.04,3.82-.63,5.7-.98-1.64,1.66-.48,2.39,0,3.97h.5c-1.48-1.55,3.21-1.95,3.8-1.97,1.52-.05,1.35.78,2.15,1.47v-.99l11.23-1.44,2.67.45s.3-.39.76-.47c1.52-.27,3.56.41,4.2-1.02-.06-.09.63-1.81-.32-2.02-2.2.75-5.35.12-7.28.54-.38.08-.4.74-.71.96-1.95,1.35-1.52-.47-1.9-.49-.47-.03-3.13.44-4.19.52-5.92.45-10.44-.37-15.89,0ZM98.67,9.99c-.14-.02-.44-.03-.5,0-.84.49-1.1,1.83-2.98.5-.04.29-.02.69,0,.99.05.71.09,1.37.5,1.99.57-.14,2.47.5,2.73.42.37-.11-.33-.86,1.97-.93.93-.03,2.05-.43,1.75,1.01,1.41-.07,3.06-.08,4.47,0-.28-1.5.76-.96,1.72-.99,3.29-.13,8.44-.64,11.19.99.16-.02.33.02.5,0,.15-.97.13-1.62-.99-1.5-.12-.43.44-.4.49-.49.15-.26.3-.51.48-.75l-.48-.25c-.53.38-11.09-.45-12.91-.5-2.97-.08-5.06-.12-7.94-.5ZM105.81,22.57c-.07-1.42.85-3.14.07-4.68l-4.19.1.44,4.42c-1.66-.74-.82-3.06-.99-4.47-.84-.13-.46.93-.49,1.49-.14,2.86-.33,7.5-.03,10.23.08.69.04.7.52,1.19,1.53-1.37,3.41-1.23,4.22-2.97l-.25,1.97h1.49c-.06-.97.1-2.01,0-2.97-.12-1.16-.73-2.88-.8-4.31ZM35.89,12.94c-.85-.03-1.44-1.23-1.27.53.23.02.46.25.5.5,13.74-.33,24.92.33,38.48,1,6.48.32,18.99-1.05,24.19.53.59.18.76.93.89.96-.15-.26.11-1.34-.46-1.77-.23-.17-1.1.25-1.55.05-.49-.22-.87-.73-.97-.76-3.24-1.06-19.44.25-24.6.02-2.18-.1-15.46-1.99-16.12-1.51-.04.03.13,1-.25,1.02-.97.05-1.44-.94-1.74-1.02-1.72-.42-13.73.57-17.1.46ZM207.9,9.99c-1.75,1.81-3.06,1.53-4.97,1.99-2.24.54-3.67.25-4.72,2.48-.45-1.46-1.01-.92-2.23-.99-2.5-.14-4.29.28-6.7-1l.73,1.5-3.97-.5,1.48-1.48c-1.14.14-2.59-.24-3.65-.01-.52.11.02,1.48-1.31,1l.49-1.48c-1.44-.08-.9,1.36-2.81,1.32s-5.57-1.29-7.88-1.35-5.04.45-7.18.52c-3.87.13-8.81-.13-13.16-.04-3.38.07-7.12,1.03-10.68.54-.02.33.02.66,0,.99,6.57-.05,13.43-.88,20.13-.52,1.4.08,2.68.97,3.36.91.8-.06,2.26-1.14,3.61-1.34,6.19-.89,13.23,1.94,19.33,2.43,8.9.71,13.04-1.29,21.09-2.97l-1.49-.25c.66-.33.99-.75,1.49-1.24-.24-.41-.66-.36-.99-.5ZM197.97,2.55c-.23.03-.71.67-1.24.72-3.45.37-4.8-1.1-4.22,3.74,1.24.43,4.94-.13,6.45-.5.09.97-.11,2.04,0,2.98.32.03.68-.05.99,0-.06-1.74-.31-1.37,1.22-1.49,4.57-.36,9.56.26,14.17,0l-1.49.99c2.4,0,4.82-.08,7.22,0,.96.03,1.99-.51,1.72.99.16-.02.34.02.5,0,0-.33.01-.66,0-.99-.03-.88.04-1.71-.5-2.48-2.14-.07-4.32.13-6.45,0-4.33-.26-9.09-1.26-13.41-1.99l1.49,1.98h-3.47c0,1.35-.22.86-1.48,1.49.36-1.33-.73-2.39-.92-3.37-.13-.68.42-1,.42-1.1.01-.21-.41-.7-.5-.99-.16.02-.33-.02-.5,0ZM132.43,24.89c-1.86.89-3.96.38-5.95.5-.03,2.29-2.09,8.69-1.05,10.14.4.56,5.76.55,6.51-.21-.64-1.73-2.13-.08-3.48-.5-.13-1.75,1.82-2.11,1.99-2.48l-2.98-.74c1.15-.86,1.91-2.31,2.98-.25.14-1.79-.43-3.24-.49-4.97,1.74,1.27,1.63,1.61,2.48-.5-.03-.33.02-.67,0-.99ZM112.5,1.35c0,1.43-.85,1.63-1.92,2.19l3.98.74c0,.44-3.29.25-3.98.25-.21,1.75.58.66,1.39.64.98-.03,6.08-.08,6.58.06,1.18.32,1.26,1.58,1.8,1.77.63.22,2.46-.92,3.36-1,6.57-.56,17.47-.42,24.11.02v-.5l-26.05-.02c-1.01-1.44-5.03-1.28-5.23-1.47-.12-.12.07-3-.57-3.4-1.16-.72-3.43.43-3.9.43l.43.3ZM63.91,5.03c.99-.04,1.99.02,2.98,0,6.06-.12,12.17.57,18.12.54,2.19-.01,5.32-1.11,7.47-1.09.72,0,1.08,1.78,2.71,1.05.12-.82.37-1.35.5-1.99-10.57.31-21.45-.94-31.78,1.49ZM16.74,5.52c1.11.05,2.98.99,4.47.5.15.78-1.22.49-1.49,1.48,2.56.1,6.87.17,9.17.51.65.1,1.1.51,1.5.98l.25-1.49,2.98.5c.01-.14.45-.34.5-.5.12-.39-.09-1.05.25-1.49l.74-.5c.08-4.81-2.43-.54-3.28-.05-2.3,1.33-9.37-.47-12.61-.45-.8,0-2.07-.29-2.48.5ZM35.11,5.52l-.74.5c-.34.44-.13,1.1-.25,1.49,6.01.85,12.84.79,18.87,0v-.99c-5.38-.83-10.5-.37-15.92-.23-.76.02-1.16.18-1.46-.76-.16.02-.33-.01-.5,0ZM159.41,2.13c-1.02-.35-9.46-.23-9.88.38-.84,1.24.93,3.64-1.71,3.01v.5c.52.03,1.76.57,2.48.5-.22-.5-.69-.76-.49-1.49,2.67.29,5.95-.64,8.44.49.58-.07,1.15-.46,1.49-.5s.67.02.99,0c0-1-.33-2.56-1.32-2.9ZM98.67,16.45c.58,1.01,1.47,1.91,1.99,2.98.03-.55-.34-1.62.49-1.49.18,1.41-.66,3.73.99,4.47l-.44-4.42,4.19-.1c.77,1.53-.15,3.26-.07,4.68s.68,3.15.8,4.31l.5.5c0-.09.49-.56.51-1.2.12-2.73-.12-5.5-.02-8.23-.24.34-.68.53-.53,1.19l.02,7.25c-.87.12-.47-1.13-.49-1.73-.11-2.79-.9-7.37,1.99-8.69-1.19-.97-4.03-.4-5.75-.48-.65-.03-1.13-.51-1.2-.52-.17,0-.33,0-.5,0-1.54-.09-2.19,1.56-2.48,1.49ZM25.43,12.98c-5.4.3-12.53,2.14-17.63,1.98-.42.6.09,2.15-.2,2.5-.43.5-1.08.32-1.47.49-.88.37,1.54,1.24-1.3.49-.67-.18-1.32-.51-1.99,0,4.47,3.72,5.97-1.96,8.41-2.76,2.55-.84,13.16-2.11,16.14-2.23,2.73-.1,5.06.58,7.72.51-.04-.24-.27-.47-.5-.5-1-.11-2-.45-2.48-.5-.8-.08-1.67.02-2.48,0-1.39-.03-2.83-.07-4.22,0ZM208.4,9l1.49.5c.03.59-.7.71-.99.99-.51.49-.83.91-1.49,1.24l1.49.25c4.65-.97,9.33-1.45,13.9-1.99.28-1.5-.76-.96-1.72-.99-2.4-.08-4.83,0-7.22,0-1.81,0-3.65-.05-5.46,0ZM191.28,2.06c-4.89.44-9.85,2.01-14.66,2.97,1.06-.08,3.72-.55,4.19-.52.38.02-.05,1.85,1.9.49.31-.22.33-.88.71-.96,1.93-.42,5.08.21,7.28-.54.95.21.25,1.93.32,2.02.02.03.58-.11.81.19.28.36.26,1.16.68,1.3-.58-4.84.77-3.37,4.22-3.74.53-.06,1.01-.69,1.24-.72-1.76-.8-4.79-.66-6.7-.49ZM132.92,19.43c-.93-.16-.23.92-.59,1.37-.07.09-2.02.92-2.14.92-1.14,0-1.12-1.31-4.22-.3-.63.2-1.86,1.87-2.48.5-.03.02-.38-.09-.49.25v.74c1.84-.13,3.14-.08,3.47,1.99,1.25-.73,2.91.06,3.67,0,.39-.03.57-1.5,1.77-1.77.62-.14,1.22,1.07,2.01.28-.03-.16.05-.35,0-.5-.06-.21-.36-.55-.5-.99-.23-.74-.86-1.38-.5-2.48ZM108.33,12.97c-.96.04-1.99-.51-1.72.99.94.06,2.33-.55,1.98.99-2.23.22-4.89-1.41-6.95,0,.07,0,.55.49,1.2.52,1.72.07,4.56-.5,5.75.48.18.15.31.35.5.5.38-.6.32-1.89.8-2.02,1.65-.46,6.23.23,8.43.06.69-.05,1.13-.51,1.2-.52-2.76-1.63-7.9-1.12-11.19-.99ZM132.43,25.88c-.85,2.11-.73,1.77-2.48.5.06,1.72.63,3.18.49,4.97-.02.31.08.82,0,.99-.17.37-2.11.72-1.99,2.48,1.34.43,2.83-1.23,3.48.5.88-.89.52-4.87.5-6.45-.01-.98.08-2.01,0-2.98ZM2.34,1.06c2.59.1,3.65,2.48,5.95,3.24,2.14.71,4.92.29,6.96,1.23.49.03,1-.02,1.49,0,.42-.79,1.69-.49,2.48-.5-2.25-1.01-5.46-.72-7.94-.99-2.02-.22-4.16-.46-3.48-2.98C5.95-.17,4.11-.52,2.34,1.06ZM8.29,4.29c-2.3-.76-3.36-3.14-5.95-3.24-1.28,1.14-.6,1.03-.99,1.99l.99,1.49c1.58-3.12,4.23.43,6.72.95,2.03.42,4.7-.04,6.19.05-2.03-.94-4.82-.53-6.96-1.23ZM1.35,3.04C-.35,7.23-.36,10.07.85,14.46l.99-1.99c-.16-1.57-.17-4.4,0-5.96.05-.46.31-1.61.5-1.99l-.99-1.49ZM122,13.97c1.36,1.49,1.27,2.49,0,3.97,1.43-.07,2.35.79,2.98,1.99.18-.9.45-1.16.5-2.48s-.03-2.65,0-3.97c-1.28.1-2.5.42-3.48.5ZM.85,14.46c.33,1.18.28,1.77.99,2.98l1-2.48,2.97,1.49c.47-.3.9-1.18,1.49-1.49-1.86-.17-2.3-.33-3.23-1.99l-1.73,1.49c-.07-.68-.44-1.3-.5-1.98l-.99,1.99ZM198.47,2.55c.09.29.51.78.5.99v.5c1.35-.57,2.47.24,3.97.5,4.31.72,9.08,1.73,13.41,1.99l-17.87-3.97ZM106.61,26.88c.1.96-.06,2.01,0,2.98h-1.49s.25-1.98.25-1.98c-.81,1.74-2.69,1.6-4.22,2.97.75.75,4.6.77,5.46.25,1.63-.98.43-2.85.49-3.73l-.5-.5ZM104.56,3.72c-.41,1.32-6.2,1.44-6.86-.58-.15-.47.08-1.44-.04-1.57-.07-.07-1.89-.07-1.97,0-.07.05.02.77,0,.99.52-.41,1.66-1.11,1.49.25-.14,1.14-2.09.63-.25,2.22,1.05-1.58,1.44-.15,2.5-.02,1.49.19,4.14-.47,4.21,1.51l1.76-1.47.73.64.48-1.15c-.18-.04-.34-.4-.5-.5-2.03-1.24-1.08-2.29.99-2.48-.2-.24-.3-.71-.5-.99-3.15.42-1.47,1.27-2.05,3.16ZM35.61,5.52c.3.94.7.78,1.46.76,5.41-.14,10.54-.6,15.92.23.47.07,1.01-.05,1.49,0-.08-.26.05-.68,0-.99-3.94,1.08-13.94-.6-18.87,0ZM131.91,23.12c-1.2.27-1.38,1.75-1.77,1.77-.76.06-2.42-.73-3.67,0,.02.15,0,.34,0,.5,1.99-.11,4.1.4,5.95-.5.03.33-.02.66,0,.99.08.97-.01,2,0,2.98,1.3-2.08-.51-2.98,1.49-4.97v-.5c-.79.79-1.38-.43-2.01-.28ZM56.46,5.52c.18.45.27.71.8.86,2.08.58,7.52-.58,9.63-1.36-.99.02-1.99-.04-2.98,0-2.51.09-4.93.57-7.45.5ZM140.38,15.95c.88,4.73-1.48,6.47-5.96,6.45,0,.03-.51.18-.5.5.05.15-.03.34,0,.5v.5c1.65-1.64,1.63-.62,3.51-1.21,4.13-1.29,3.6-2.88,3.94-6.74-.29-.07-.83.1-.99,0ZM106.61.56c.2.29.29.75.5.99.67.79,1.32,1.12,1.49,2.48.49-.07,1.25-.72,1.99-.5,1.07-.55,1.91-.75,1.92-2.19l-.43-.3c-.17,0-.33,0-.5,0-.35,2.75-3.12,1.4-3.97-.5-.33.01-.68-.04-.99,0ZM223.29,9c1.89.11,2.36.39,2.98-1.49-.1-.25.3-.87-.31-1.01-.76-.18-2.21.05-3.16.02.54.77.47,1.6.5,2.48ZM108.6,15.95c-2.88,1.32-2.1,5.91-1.99,8.69.02.6-.37,1.85.49,1.73l-.02-7.25c-.16-.66.29-.85.53-1.19s.95-.63,1.49-1.49c-.18-.14-.32-.35-.5-.5ZM138.39,12.97v2.48c2.13-.75,1.19.03,1.99.5.17.1.7-.07.99,0,.07-.82-.04-1.66,0-2.48-1.21,0-2.49-.5-2.98-.5ZM2.84,14.96l-1,2.48c.34.58.56.63.99.99.66-.51,1.31-.18,1.99,0,.14-2.74.09-1.39.99-1.99l-2.97-1.49ZM107.6.56c.86,1.89,3.62,3.24,3.97.5-.98-.01-2.35-.56-3.97-.5ZM226.27,7.51c-.62,1.88-1.09,1.6-2.98,1.49.01.33,0,.66,0,.99,2.16-.33,4.32.82,2.98-2.48ZM125.48,17.44c-.05,1.32-.32,1.58-.5,2.48-.02.09.56.65.27,1.01-.31.38-1.21.5-1.76.98.62,1.37,1.85-.29,2.48-.5-.16-1.24.5-3.11-.5-3.97ZM7.8,1.06c-.69,2.52,1.46,2.76,3.48,2.98-1.7-.6-2.09-2.06-3.48-2.98ZM122.23,8c-1.41.08-.52,1.24-.73,1.99h28.8c.16-.45-.11-1.42,0-1.99-1.53.49-3.44-.42-4.47-.5-7.43-.55-16.13.05-23.6.49ZM106.61,10.49c2.06-.48,6.79-2.17,7.69,0,1.26-1.62,3.42-.85,5.22-.99v-2.49s-20.86,0-20.86,0v2.98c2.89.37,4.97.41,7.95.5ZM149.81,5.03c-.2.72.27.99.49,1.49.03.07.5.09.49.24-.13,1.15-3.99.68-4.96.75,1.02.08,2.93.98,4.47.5l.45.28.04,3.2h1.49s-.49-1.49-.49-1.49c.49-.03,1,.02,1.49,0l-.24-1.99c3.37.07,6.46.15,9.68-.49h-9.43c-1.73-1.32,4.65-1.04,4.96-1l-2.97-.98c.96-.1,2.04.11,2.98,0-2.49-1.13-5.76-.21-8.44-.49ZM121.51,9.99c-2.2-.63-1.88.91-1.99.99l.48.25c-.18.24-.34.49-.48.75.97.33.83-.71,1.25-.86.19-.07,3.73-.65,3.93-.63.72.08-.25,1.66.77,1.49-.05-1.53-.29-1.41,1-1.49,4.73-.29,9.66.04,14.4,0,2.66-.02,6.23.33,8.72.01.51-.07.54-.01.72-.51h-28.8ZM95.19,7.51c-.03.16.03.34,0,.5l.31.34,1.18-.35c.39,2.63-1.17.37-1.49,2.49,1.87,1.34,2.14,0,2.98-.5v-2.98c-1.2.41-1.96.21-2.98-.5-.05.32.05.68,0,.99ZM108.6,4.04c-.78.11-1.68-.07-2.48,0,.16.1.32.46.5.5,1,.2,2.82,0,3.97,0,.69,0,3.98.19,3.98-.25l-3.98-.74c-.74-.22-1.49.43-1.99.5ZM125.48,13.47c-.03,1.32.05,2.65,0,3.97.99.86.34,2.73.5,3.97,3.1-1.01,3.08.3,4.22.3.12,0,2.06-.83,2.14-.92.36-.45-.33-1.53.59-1.37-.35,1.1.28,1.74.5,2.48,0-1.49-.22-3.9.99-4.97.16-.14.75-.41.99-.5.35-.12,1.14.19,1.62-.01.42-.18.1-.54,1.36-.98v-2.48c-4.43.06-8.57.16-12.91.5ZM166.19,9.5h-.5c.75,2.46-.06,1.04-.5,1.49-.09.09.06.72,0,.99,2.14-.07,4.85-.58,7.18-.52s5.91,1.31,7.88,1.35,1.37-1.41,2.81-1.32l-.49,1.48c1.33.48.79-.89,1.31-1,1.05-.23,2.51.15,3.65.01l-1.48,1.48,3.97.5-.73-1.5c2.4,1.29,4.19.86,6.7,1l-.5-1.99c-3.78-.28-7.62-.81-11.42-.99-1.49-.07-1.95-.11-3.48,0-3.04.21-3.86-.97-6.45-.99-.17,0-.33,0-.5,0-1.78-.02-5.56,1.13-7.45,0ZM158.25,5.52c-.93.12-2.02-.09-2.98,0l2.97.98c-.31-.04-6.69-.32-4.96,1h9.43c.29-.06.67.03.99,0-.13,1.18.65,2.85-.99,2.48.35.05,1.64,1.19,2.48.99.43-.45,1.25.97.5-1.49-.48-1.58-1.64-2.3,0-3.97-1.88.35-3.76,1.03-5.7.98-1.5-.03-.13-.71-.26-1.48-.34.04-.91.42-1.49.5ZM153.04,8l.24,1.99c2.83-.14,6.64-.4,9.43,0,1.64.36.86-1.3.99-2.48-.32.03-.7-.06-.99,0-3.21.64-6.31.56-9.68.49ZM126.47,10.49c-.28,1.5.76.96,1.72.99,2.81.09,5.67.03,8.49.03,1.52,0,2.04-1.13,2.46.48l1.74-1.5c-4.74.04-9.67-.29-14.4,0ZM91.88,6.7c-8.74-.17-17.31.49-25.99.81-1.58,1.62,4.3,3.06,4.67,3.01s-.17-.92,1.49-1.06c.75-.06,3.22-.49,2.78,1.03,2.82.03,5.56-.23,8.18-.25,1.61-.02,11.29.69,11.68.25-.39-1.01.4-1.91.5-2.48.03-.16-.03-.33,0-.5-.96-.38-2.29-.79-3.31-.81ZM54.97,7.51c.11.77-.08,1.68,0,2.48.73.02,2.76.4,3.97.5,3.31-1.79,7.78.36,10.72.45,1.43.04,3.33-.48,5.17-.45.44-1.52-2.03-1.09-2.78-1.03-1.66.14-1.13,1.01-1.49,1.06s-6.24-1.39-4.67-3.01c-3.63.13-7.3-.1-10.92,0ZM52.99,6.52v3.48c.5,0,.99-.01,1.49,0,.17,0,.33,0,.5,0-.08-.8.11-1.71,0-2.48-.04-.28-.4-.67-.5-.99-.48-.05-1.02.07-1.49,0ZM186.82,6.55c-.46.08-.72.46-.76.47-.04,0-.24.44-.75.49h-8.18c-.08.82-.1,1.14.5,1.74,1.41,1.4,3.18-.74,2.97,1.24,1.52-.11,1.99-.07,3.48,0,1.6-1.29,3.9-.04,5.69.02,1.24.04,8.85-.53,9.21-.02-.06-.3.04-.67,0-.99-.12-.94.09-2.01,0-2.98-1.51.37-5.21.93-6.45.5-.42-.15-.4-.94-.68-1.3-.23-.3-.78-.15-.81-.19-.64,1.43-2.68.75-4.2,1.02ZM183.38,6.57l-11.23,1.44h3.97c.44,2.33-2.29-.84-1.98,1.49,2.6.02,3.42,1.2,6.45.99.2-1.98-1.56.15-2.97-1.24-.6-.6-.58-.93-.5-1.73h8.18c.51-.06.71-.49.75-.5l-2.67-.45ZM170,7.53c-.6.02-5.28.42-3.8,1.97,1.88,1.13,5.67-.02,7.45,0-.75.14-.97-.05-1.49-.5-.81-.69-.64-1.52-2.15-1.47ZM172.15,9c.52.44.74.64,1.49.5.17,0,.33,0,.5,0-.31-2.32,2.42.84,1.98-1.49h-3.97s0,.99,0,.99ZM54.97,9.99c-.17,0-.33,0-.5,0v.5l.5,1.99c.65-.48,13.93,1.41,16.12,1.51,5.15.23,21.36-1.08,24.6-.02v-.5c-.41-.62-.45-1.27-.5-1.99-2.23.09-4.49-.12-6.72-.02-10.39.48-19.43-.13-29.52-.97-1.21-.1-3.25-.47-3.97-.5ZM94.69,10.49c-.39.44-10.07-.27-11.68-.25-2.61.03-5.35.29-8.18.25-1.84-.02-3.74.5-5.17.45-2.94-.09-7.41-2.24-10.72-.45,10.09.84,19.13,1.45,29.52.97,2.23-.1,4.5.11,6.72.02-.02-.3-.04-.7,0-.99.31-2.11,1.88.15,1.49-2.49l-1.18.35-.31-.34c-.1.57-.89,1.47-.5,2.48ZM95.69,13.97c.1.03.48.55.97.76.45.2,1.32-.23,1.55-.05.58.43.31,1.51.46,1.77.29.07.94-1.58,2.48-1.49l-.5-.99c.49-.03.99.02,1.49,0,.3-1.44-.82-1.04-1.75-1.01-2.3.08-1.6.82-1.97.93-.26.08-2.16-.56-2.73-.42v.5ZM100.65,13.97l.5.99c.16,0,.33,0,.5,0,2.06-1.41,4.72.21,6.95,0,.35-1.54-1.04-.93-1.98-.99-1.4-.08-3.06-.07-4.47,0-.49.02-1-.02-1.49,0ZM48.79,10.96c-4.3.04-8.8-.17-12.9,0-.22,0-.23,1.91-2.26.52v1.5s-1.49,0-1.49,0c.49.05,1.48.39,2.48.5-.17-1.76.42-.56,1.27-.53,3.37.11,15.38-.88,17.1-.46v-.99c-.78.24-2.94-.53-4.2-.52ZM52.99,11.48v.99c.29.07.76,1.07,1.74,1.02.38-.02.21-.98.25-1.02l-.5-1.99c-.83-.25-1.4.97-1.49.99ZM198.96,11.48c-1.15-.05-2.33.09-3.47,0l.5,1.99c1.22.07,1.79-.47,2.23.99,1.05-2.23,2.48-1.94,4.72-2.48v-.5c-1.72.77-3.58,1.16-3.97-.99.08.11-.04.69,0,.99ZM208.4,9c1.81-.05,3.65,0,5.46,0l1.49-.99c-4.62.26-9.6-.37-14.17,0-1.52.12-1.28-.25-1.22,1.49,2.18.33,5.86-.42,8.44-.5ZM198.96,4.04l1,1.49c.85.21.32-.75.54-.93.19-.15.92.59,1.43.44.14.76-.87.53-1.28.98-.38.42.29.41.29.5h3.47s-1.49-1.99-1.49-1.99c-1.5-.25-2.62-1.07-3.97-.5ZM198.96,3.54c0,.1-.55.41-.42,1.1.19.98,1.29,2.04.92,3.37,1.27-.63,1.49-.14,1.48-1.49,0-.08-.67-.08-.29-.5.41-.46,1.42-.22,1.28-.98-.51.15-1.25-.59-1.43-.44-.23.18.31,1.14-.54.93l-1-1.49v-.5ZM130.44,31.34c-1.08-2.05-1.84-.61-2.98.25l2.98.74c.08-.17-.02-.68,0-.99ZM5.82,7.51c-.86.88,1.07,3.01,1.99,3.47,4.97.34,10-1.44,14.9,0,3.6-.18,6.56-.52,10.29-.37,1.35.06-.03.38.64.86,2.03,1.39,2.04-.51,2.26-.52,4.11-.17,8.6.04,12.9,0,1.26-.01,3.41.76,4.2.52.09-.03.66-1.24,1.49-.99v-.5c-.5-.01-.99,0-1.49,0-.3,0-1.26.52-2.2.52-5.32-.05-10.6-.12-15.93-.02-1.37-.09-1.36-1.35-1.24-2.48l-2.98-.5-.25,1.49c-.41-.47-.85-.88-1.5-.98-2.31-.34-6.62-.41-9.17-.51-.17,0-.33,0-.5,0-1.74-.06-12.94-.48-13.41,0ZM9.06,5.48c-2.49-.51-5.15-4.07-6.72-.95-.19.37-.45,1.52-.5,1.99l2.48.5c.48,1.33-.92.8-1.02,1.31-.72,3.68,1.61,2.74,2.4,3.26.06.04.38,1.01.6,1.39.39-.74.14-1.41,1.22-1.53,3.63-.41,8.16.26,11.96.06,1.12-.06,2.13-.46,3.21-.52-4.9-1.44-9.93.34-14.9,0-2.29-.16-3.9-.23-2.91-3.16.2-.59,4-1.73,4.68-1.77.22-.01.16.87.54.96,2.55.6,6.59-.84,9.11.5.17,0,.33,0,.5,0,.27-1,1.64-.7,1.49-1.48-1.49.48-3.36-.45-4.47-.5-.49-.02-1,.03-1.49,0-1.49-.09-4.16.37-6.19-.05ZM34.12,7.51c-.05.15-.48.36-.5.5-.12,1.13-.13,2.39,1.24,2.48,5.33-.1,10.61-.04,15.93.02.94,0,1.9-.52,2.2-.52v-2.48c-6.02.79-12.86.85-18.87,0ZM19.49,11.5c-3.79.2-8.32-.47-11.96-.06-1.08.12-.83.79-1.22,1.53.26.44.45,1.44.51,1.49.25.19,5.07-.89,6.19-.99,3.06-.26,6.33-.25,9.37-.56,1.95-.2,3.9-1.01,5.88-1.12,1.17-.07,1.29-.18,1.38,1.18.81.02,1.69-.08,2.48,0h1.49s0-1.49,0-1.49c-.66-.48.72-.81-.64-.86-3.73-.15-6.68.18-10.29.37-1.08.05-2.08.46-3.21.52ZM1.85,12.48c.07.68.43,1.3.5,1.98l1.73-1.49c.93,1.65,1.38,1.82,3.23,1.99.16.01.33,0,.5,0,5.1.16,12.23-1.68,17.63-1.98,1.39-.08,2.83-.03,4.22,0-.09-1.36-.21-1.25-1.38-1.18-1.98.11-3.93.92-5.88,1.12-3.04.31-6.31.29-9.37.56-1.13.1-5.94,1.18-6.19.99-.06-.05-.25-1.05-.51-1.49-.22-.38-.53-1.34-.6-1.39-.79-.52-3.12.42-2.4-3.26.1-.51,1.5.02,1.02-1.31l-2.48-.5c-.17,1.56-.16,4.39,0,5.96ZM7.31,14.96c-.59.31-1.02,1.18-1.49,1.49-.91.59-.85-.75-.99,1.99,2.84.75.42-.12,1.3-.49.39-.17,1.04.01,1.47-.49.3-.35-.21-1.9.2-2.5-.16,0-.33.01-.5,0ZM199.96,9.5c-.31-.05-.67.03-.99,0,.04.32-.06.69,0,.99.4,2.15,2.25,1.77,3.97.99l.99-.25c-.53-1.27-2.68-.13-2.97-1.24l4.75.44c.57-1.73,1.15-.86,2.2-.45.34.13.76.09.99.5.29-.28,1.02-.4.99-.99l-1.49-.5c-2.58.07-6.26.83-8.44.5ZM134.42,16.94c-1.21,1.06-1,3.48-.99,4.97.13.44.43.78.5.99-.02-.31.49-.46.5-.5.03-.35-.03-1.3,0-1.99.05-1.15-.04-2.32,0-3.48ZM205.7,10.44l-4.75-.44c.29,1.11,2.44-.04,2.97,1.24l-.99.25v.5c1.91-.46,3.21-.18,4.97-1.99-1.05-.42-1.63-1.29-2.2.45ZM106.12,4.04c.8-.07,1.7.11,2.48,0-.17-1.36-.81-1.69-1.49-2.48-2.07.19-3.03,1.24-.99,2.48ZM134.42,16.94c-.04,1.15.05,2.32,0,3.48l2.48.99c-.67-1.86-2.08-2.61-1.49-4.96-.24.08-.83.36-.99.5ZM189.76,10.51c-1.79-.06-4.09-1.31-5.69-.02,3.8.18,7.64.72,11.42.99,1.14.08,2.33-.06,3.47,0-.04-.3.08-.88,0-.99-.35-.51-7.97.06-9.21.02ZM5.82,7.51c.47-.48,11.67-.06,13.41,0-2.52-1.34-6.55.1-9.11-.5-.39-.09-.33-.97-.54-.96-.68.04-4.48,1.18-4.68,1.77-.99,2.93.62,3.01,2.91,3.16-.92-.46-2.84-2.59-1.99-3.47Z"/></g><g id="e"><path class="f" d="M97.24,65.4l-.12,1.5-.17.87-.47.53-.28.58.12.7-1.25,1.23-.57.24-.07.29-.33.17-.45.53-.63.17-.05-.41-.57.34-1.37.07-.23-.17-.63-.07v.17l-1.42.07-1.02.17h-2.11l-.68.29-.78.07-.23-.19-.12.19h-1.81l-.57.29h-.68l-.68-.58-.4-.89.12-.7.85-.7.45-.34,1.37-.17.23-.29.05-1.35-.28-.29v-.46l-.57-.7.17-.53.47-.94-.23-.34v-1.86l-.17-.48-.12-.99.33-.7-.17-.63-.12-.58.47-1.86.05-1.69-.12-1.4.17-.6-.05-.8.28-.12.35-.29-.47-.41-.28.12-.45.51-.45-.05-.28-.17-.07.29-.52-.12-.62-.46-.4-.53.05-.87v-.77l.35-.22.57-.18,1.2-.07,1.02.19.28.19h1.53l.47.22.4-.34h2.26l.8-.13.97-.05,1.02-.07.68.19.75-.19.85.46.62.24.63.12.73.58.07.36.4.17.28.53.4,1.21.22.58v.48l-.33,1.04.05,1.23-.62.87-.63.34-.17.48-.4.05-.05.7.1.36.35-.24.17.29.28-.12.57.87.52.99.12-.17.52,1.23.28.92-.07,1.47.35.53ZM92.79,55.06l-.22-.1-.07-.6-.28-.58-.17-.63-.52-.77h-.4l-.73-.34-.45-.24-.52-.17-.63.05v.19l-.5.17-.63-.07-.52-.05-.17.41-.45.41-.05,1.86-.12.17v.77l.22.34-.28.29.4.7-.12.53-.22.17-.12.87.17.58.52.6.62.22h2.11l.97-.63.05.17.45-.29.92-.99.12-.77.52-.63.1-1.64ZM94.11,65.28l-.4-.36.12-.82-.45-.39-.23-.31-.28-.1-.4-.41-.68-.53-.05-.46h-.97l-.52-.36-1.53-.05-.35.29-.22.12-.35-.19-.17.19-.92.05-.05.29-.28.36-.07.58.23.29.12.75.22,2.1-.33.75.17.65.35.05.05.53.4.53.4.41.33-.07v.36l.87.7.57.05.5-.05.52-.36.85-.29.28-.51h.18l.4-.31.62-.22.28-.36-.05-.46.33-.17.07-.48.33-.46.12-1.33Z"/><path class="f" d="M115.2,71.18c0,.18-.08.57-.23,1.17-.19.71-.36,1.12-.52,1.24-.07.02-.16.04-.28.06s-.27.03-.45.03c-.24,0-.51-.06-.8-.19-.16-.07-.36-.1-.62-.1-.33,0-.63.08-.89.25s-.39.36-.39.57c0,.71,0,1.14-.02,1.29-.02.15-.06.29-.14.4v2.82s.03.1.08.24.08.23.08.29v1.55c-.25.22-.51.43-.77.65-.28.21-.59.31-.95.31-.25,0-.5-.07-.77-.22-.28-.18-.55-.36-.82-.53,0-.23-.01-.36-.04-.38-.03-.03-.04-.11-.04-.23.06-.09.1-.3.14-.63.04-.33.06-.74.06-1.23v-1.3s.06-.21.18-.5.18-.49.18-.6v-2.31c-.14-.14-.22-.23-.22-.27,0-.02.02-.05.06-.09.04-.03.04-.08,0-.14-.39-.11-.69-.2-.91-.26-.66-.18-1.06-.27-1.19-.27h-1.99c-.06,0-.19-.04-.41-.12s-.33-.12-.34-.12l-.25.17h-.22c-.11,0-.24,0-.41-.02-.21,0-.32,0-.33.02-.33.09-.58.15-.75.19-.51.12-.81.19-.9.19-.25,0-.49-.26-.7-.77-.07-.17-.14-.43-.23-.77,0-.17.04-.36.13-.58s.14-.34.15-.36c0-.06,0-.12,0-.18s0-.14,0-.23c0-.12,0-.19.02-.21.08-.21.3-.5.67-.87.42-.41.84-.82,1.26-1.23.5-.54.91-1.14,1.22-1.82s.71-1.27,1.19-1.79c.09-.09.2-.27.33-.53.21-.4.32-.6.32-.62,0-.01.07-.07.19-.19.29-.26.5-.48.63-.65.04-.07.35-.33.92-.78s.91-.77,1.02-.95c.11-.18.21-.36.28-.53.04-.1.08-.21.1-.33.22-.32.39-.56.52-.72.37-.49.59-.76.67-.82.1-.02.21-.05.32-.09.12-.03.23-.09.34-.17h1.17c.17,0,.36.16.57.48s.32.63.32.94l-.82,3.04s0,.2.03.5c.03.3.05.52.05.67v.34s-.03.09-.08.17-.08.15-.08.22v1.11c-.05.06-.08.12-.11.17-.07.17-.11.38-.11.63s.04.48.11.65l.11.21v1.57c-.11.08-.17.14-.19.19-.02.05-.03.15-.03.31v.27c0,.07.07.11.22.14,0,.22,0,.39.02.51.01.13.03.25.05.36,0,.05-.02.13-.07.26h.33c.12-.07.25-.12.4-.15s.28-.05.42-.05c.14,0,.3,0,.47.02s.27,0,.31-.02c.03-.01.09-.07.17-.17.08-.1.16-.15.25-.15h1.17c.1,0,.21.06.32.18.28.29.42.44.43.44,0,.2,0,.31.02.34.02.04.04.06.06.09ZM108.43,70.87v-.34s-.14-.15-.28-.34c-.14-.19-.21-.32-.21-.39.06-.09.11-.14.13-.14l-.02-.91c-.14-.08-.25-.23-.31-.46-.06-.23-.09-.53-.09-.91,0-.32.03-.56.1-.72.07-.16.1-.29.1-.39,0-.18-.02-.35-.07-.51-.04-.16-.09-.33-.13-.51.07-.23.13-.47.19-.73.06-.26.09-.49.09-.71v-.51c0-.19-.02-.29-.07-.29-.11.1-.19.18-.25.23s-.14.1-.25.14c-.01.1-.04.16-.09.18-.05.02-.15.15-.29.4-.08.08-.14.18-.18.29-.14.39-.23.61-.27.68-.1.24-.17.47-.22.7-.05.23-.2.44-.44.63-.24.19-.43.3-.56.33-.13.03-.29.19-.49.49s-.38.45-.55.45c-.02.16-.08.33-.18.5-.1.17-.19.27-.28.3v.17c-.2,0-.4.17-.6.5-.07.1-.15.27-.25.5,0,.24.04.36.12.36.18,0,.32.02.43.05.26.09.46.14.62.18s.28.05.38.05.21-.03.32-.08c.11-.05.22-.08.32-.08.03,0,.15.02.35.04.2.03.35.08.47.14s.22.11.33.16c.03.01.15.01.34,0,.19-.01.3-.01.31,0,.02.01.03.04.03.09s.01.08.04.1c.03.02.11.03.26.04.14.01.23.02.25.02h.42l.25.29h.25Z"/><path class="f" d="M131.42,65.5c-.02.1-.06.21-.1.32-.04.11-.11.24-.18.38-.02.17-.04.31-.05.4-.01.1-.02.16-.03.18-.01.08,0,.19.02.32.03.14.04.23.03.27,0,.12-.03.23-.08.35-.05.12-.09.23-.12.32-.03.09-.11.22-.22.39-.11.17-.18.31-.22.41-.03.1-.09.22-.18.35s-.14.22-.17.27c-.03.18-.06.33-.07.44-.02.11-.05.2-.1.26s-.1.1-.16.1c-.18,0-.27,0-.27.02-.01.02.02.06.08.1.07.05.09.09.08.14-.08.12-.22.24-.43.38-.07.12-.13.23-.2.31-.07.08-.21.24-.42.48l-.57.41c-.16.12-.35.2-.58.25-.23.05-.41.09-.53.11-.12.02-.22.05-.28.09l-.73.26c-.27.09-.49.16-.68.2-.19.04-.44.06-.77.06h-1.56l-.88-.21c-.33-.07-.67-.14-1-.21-.04-.02-.13-.1-.25-.22-.07-.07-.14-.12-.23-.16-.09-.03-.23-.07-.41-.12-.18-.05-.33-.08-.44-.09-.11-.01-.23-.02-.35-.04s-.22-.04-.31-.08-.15-.1-.21-.18c-.12-.2-.23-.3-.33-.32-.09-.02-.21-.1-.34-.25-.29-.23-.43-.41-.43-.55-.03-.07-.01-.15.06-.25.07-.1.08-.16,0-.2-.07-.02-.15-.01-.26.03-.11.05-.18.06-.23.05-.1-.04-.18-.08-.23-.13-.06-.05-.17-.17-.34-.37s-.34-.39-.51-.58c-.02-.05-.03-.14-.03-.27s-.01-.23-.03-.29-.08-.18-.17-.36c-.09-.18-.15-.3-.17-.37s-.06-.13-.12-.21c-.06-.08-.09-.19-.09-.33,0-.02-.02-.09-.05-.21-.07-.23-.09-.39-.07-.5.08-.14.16-.27.23-.41l-.05-.41c0-.09-.03-.21-.1-.35-.07-.14-.09-.25-.08-.32.01-.16.08-.38.2-.65.09-.19.14-.32.15-.38l.22-.67.23-.6c.04-.14.08-.25.11-.33.03-.08.08-.15.14-.22.01-.04.08-.09.2-.15s.2-.12.23-.17c.06-.07.06-.17.02-.32-.04-.14-.05-.24-.02-.3.07-.06.18-.1.33-.15.16-.04.26-.08.3-.11.14-.16.29-.32.45-.5.04-.03.11-.07.2-.12.2-.1.32-.17.38-.21.05-.03.1-.08.14-.15.11-.16.19-.25.25-.27.06-.05.14-.09.26-.15.12-.05.23-.1.34-.14.23-.09.47-.19.7-.29.04-.03.13-.11.27-.23.13-.12.24-.18.32-.18.12-.03.29-.06.52-.07.22-.01.43-.02.62-.02.16-.01.34-.04.57-.07s.36-.05.4-.05h.62c.21,0,.42.01.62.03.2.02.39.07.57.13s.3.11.37.13c.2,0,.32,0,.36,0s.15.04.32.11l1.07.31c.07.03.16.09.27.17.28.22.44.34.48.36.04.02.14.06.28.12s.24.1.28.14c.14.06.26.11.34.17.08.06.17.13.28.22.04.09.09.18.12.27.04.08.1.15.17.2.1.15.21.25.33.29.27.22.44.37.52.45.08.08.15.19.22.32.07.13.12.22.15.26.04.07.05.15.02.23-.03.08-.04.16-.02.23.02.06.07.11.15.15.16.09.24.15.25.17.12.12.2.29.22.5s.05.35.06.42l.2.33v.5c0,.29.06.48.17.58ZM127.8,66.6c0-.08-.03-.19-.08-.33-.06-.14-.08-.23-.08-.29-.02-.04-.03-.07-.02-.12,0-.05.01-.1.02-.17,0-.03.02-.12.05-.27.03-.15.04-.25.02-.31-.02-.08-.06-.15-.1-.22-.12-.19-.19-.31-.2-.36-.03-.08,0-.15.09-.22.09-.07.14-.12.14-.15,0-.07-.02-.13-.07-.19-.1-.12-.16-.2-.17-.22l-.13-.38-.43-.15s.01-.08.11-.14c.09-.06.14-.11.12-.15-.03-.02-.1-.11-.19-.26-.09-.15-.19-.26-.29-.32-.17-.04-.33-.1-.48-.15-.03-.03-.06-.1-.07-.21-.01-.11-.03-.18-.05-.21-.1-.09-.17-.15-.22-.19-.08-.07-.17-.12-.27-.17-.04-.04-.13-.08-.25-.14-.12-.06-.21-.1-.26-.12-.05-.02-.11-.06-.17-.12l-.2-.17c-.1-.04-.22-.06-.36-.09-.14-.02-.27-.04-.4-.07-.13-.02-.28-.06-.47-.12-.18-.06-.3-.09-.36-.09-.04,0-.17.04-.39.13-.22.09-.38.13-.49.15-.11.01-.22.02-.32.03-.11,0-.22.03-.34.06-.07.03-.14.09-.23.18-.09.09-.15.15-.18.2-.06.01-.09.05-.12.1-.06.11-.08.18-.08.19l-.52.56c-.06.08-.11.15-.17.22s-.13.15-.23.24c-.02.07-.12.19-.3.38-.02.02-.06.06-.12.12-.1.18-.16.34-.19.46-.03.12-.04.22-.04.29,0,.09-.01.18-.03.27,0,.07-.03.16-.08.27-.06.11-.08.21-.08.27-.06.16-.03.31.07.46.02.1.09.21.2.32.11.12.17.19.17.24,0,.03-.04.08-.13.14s-.15.11-.18.13c-.03.02-.08.04-.13.07-.12.08-.17.17-.15.27,0,.03.07.05.21.05s.23.01.28.03.08.07.08.15.01.16.03.26c.01.1.04.19.08.26.09.14.15.24.18.31.08.14.13.24.15.31.07.08.14.16.21.24.07.08.11.14.11.17,0,.17-.02.31-.07.43-.04.11-.07.19-.07.24,0,.11.07.22.22.32.02.01.04.05.07.13s.04.13.05.16c.13.15.27.3.4.44.2.16.48.3.85.43.07.07.13.13.18.18.06.05.13.09.22.11l.88.24.8.03c.09,0,.27-.03.56-.09.28-.06.45-.09.49-.09.2.02.33.03.38.03s.1-.01.15-.03c.04-.02.08-.05.1-.07.1-.15.16-.22.17-.22.01-.04.05-.11.13-.19.01-.01.09-.07.23-.19.04-.11.17-.23.37-.34.03-.03.14-.09.31-.17s.29-.15.37-.22.12-.16.14-.26.04-.22.07-.33c.24-.12.37-.3.37-.53v-.53c-.04-.09-.07-.16-.07-.21s.02-.11.07-.21c0-.05.03-.12.08-.24.05-.11.08-.2.08-.26Z"/></g></g></svg>