<?xml version="1.0" encoding="UTF-8"?><svg id="b" xmlns="http://www.w3.org/2000/svg" viewBox="0 0 244.88 113.61"><defs><style>.f{fill:#220d0d;}</style></defs><g id="c"><g id="d"><path class="f" d="M11.38,33.47c1.94-3.06,1.92-3.29,3.8-3.43,3.5-.27,6.7-4.08,10.56-.9.37.3,1.5-.36,2.28-.53,5.19-1.12,10.38-2.28,15.59-3.34,4.22-.86,8.15-2.92,12.67-2.65,1.77.1,2.84-1.57,2.63-3.41-.22-1.97-1.92-1.86-3.38-1.89-2.05-.03-4.11,0-6.06,0q-2.11-4.08-5.99-2.03c-1.72.91-3.15.36-3.68-1.6-.42-1.55-.73-3.16-.81-4.76-.09-1.65.28-3.24,3.03-3.81.43,1.35.68,2.85,1.38,4.11.44.8,1.53,1.24,2.33,1.84.48-.87,1.29-1.72,1.35-2.62.07-1.03-.51-2.1-.67-2.64,2.24-2.16,4.12-3.97,6-5.79,4.16.45,6.7,4.84,11.4,4.38,4.32-.43,8.71-.09,13.07-.09.97,0,1.94-.01,2.91,0,2.76.04,5.42.2,7.14-2.83.99-1.74,2.7-1.49,4,.08.52.62,1.13,1.22,1.44,1.93,1.25,2.84,3.5,3.1,6.31,3.2,5.87.21,11.95-1.45,17.58,1.61.52.28,1.27.18,1.91.19,4.98.13,9.97.37,14.95.33,17.76-.15,35.51-.39,53.27-.59.96-.01,2.08-.17,2.84.26.85.48,1.88,1.55,1.87,2.35-.01.78-1.11,1.96-1.96,2.22-1.34.4-2.87.23-4.32.21-7.58-.09-15.16-.27-22.74-.3-10.33-.05-20.67-.02-31,.05-1.79.01-3.93-.56-5.09,2.24,3.45,2.43,7.49.24,11.03,1.32-.56,2.21-2.1,1.5-3.21,1.39-4.32-.4-9.01-.06-12.83-1.7-3.21-1.37-5.75-2.22-9-.97-1,.38-2.24.15-3.36.15-4.04.02-8.07-.04-12.11.06-.98.02-1.95.53-3.59,1.02,1.23,1.47,1.82,2.88,2.81,3.26,3.22,1.23,6.54,2.59,9.91,2.92,2.58.25,4.33,1.02,5.48,3.1.47.84.8,2.44.35,2.95-.74.83-2.37,1.69-3.27,1.4-1.54-.49-2.89-1.75-4.15-2.88-.8-.72-1.1-2.01-1.93-2.66-1.46-1.13-3.94-.05-3.53,1.54.72,2.82-.75,6.13,2.01,8.55.91.8,1.48,2.13,1.89,3.33.62,1.8,1.53,2.99,3.47,3.62,2.2.72,3.3,2.53,3.03,4.92-.45,3.86.6,6.71,4.84,7.26.11,8.6-1.33,9.47-5.52,10.26-3.93.74-7.31-3.67-7.86-9.87,1.01-.73,2.13-1.54,3.79-2.74-1.41-1.6-2.6-2.95-3.72-4.22-.32-1.49-.39-3.12-1.03-4.48-1.85-3.88-4.01-7.61-5.91-11.47-1.14-2.31-3.19-2.55-5.27-2.59-1.05-.02-2.12.57-3.45.96-1.71-3.7-4.62-3.68-8.09-3.1-4.23.71-8.57.78-12.91,1.13-.28,1.12-.5,1.88-.67,2.65-.31,1.35,0,3.17-1.98,3.41-2.35.28-1.59-1.89-2.14-3.03-.13-.28-.39-.5-1.03-1.3-9.97-.04-20.33-.88-30.67,1.77-4.34,1.11-8.11,2.17-9.02,7.71-4.02-.57-4.91-3.72-6.96-5.45ZM23.46,30.24c.97.16,2.39.81,2.83.4,2.44-2.23,5.59-1.48,8.32-2.34M103.94,24.42c-1.13-.65-2.26-1.29-3.39-1.94M123.82,15.21c4.27,2.85,8.93,2.12,13.57,1.45M43.83,12.79c1.13-.32,2.26-.65,3.39-.97M88.91.18v1.45"/></g><g id="e"><path class="f" d="M7.79,89.38c-.06.08-.12.16-.19.25-.07.08-.14.16-.19.21l-.37.21c-.04.06-.09.19-.12.4-.04.21-.07.35-.09.43s-.07.17-.13.29c-.07.12-.12.24-.15.35-.09.29-.13.48-.13.6,0,.05.01.13.03.24.02.11.03.23.03.34v.39c0,.15-.01.35-.04.61-.02.26-.05.45-.09.57-.04.12-.08.2-.13.22-.05.02-.1.04-.15.05,0,.12.04.23.08.32.05.05.11.09.17.14l.15.73c.05.13.09.26.13.39s.07.27.09.41.03.27.03.41v.38c0,.24-.02.46-.06.67s-.08.43-.12.68c-.04.24-.07.45-.07.61s.02.28.05.35.09.16.16.26.12.17.14.21.04.12.06.23c.02.11.03.19.04.22.01.03.08.15.22.36.09.14.13.24.13.31v.24c0,.08-.05.15-.15.21-.1.1-.19.2-.28.29-.52.03-.93.06-1.23.08-.3.02-.54.05-.73.11-.19.06-.38.1-.57.12s-.35.04-.48.06c-.13.02-.26.03-.38.03-.06-.04-.11-.09-.15-.13-.04-.01-.1-.02-.17-.02h-.15c-.11,0-.22,0-.32,0-.1,0-.22-.03-.37-.08-.14-.05-.3-.1-.48-.15l-.28-.21c-.11-.06-.22-.12-.33-.19-.18-.14-.31-.3-.39-.5-.08-.19-.12-.4-.12-.63,0-.08.01-.14.04-.19.03-.05.06-.09.09-.14.1-.14.16-.22.2-.24l.2-.08c.18-.03.34-.06.46-.08l.16.07h.28c.12,0,.2-.01.25-.04.04-.02.1-.13.18-.32.03-.1.02-.24-.04-.4-.06-.17-.1-.29-.11-.38,0-.1.02-.29.07-.56.05-.27.08-.41.08-.44.01-.06.01-.16,0-.3s-.01-.25,0-.32c0-.03.02-.12.06-.26.04-.14.06-.25.06-.33,0-.07,0-.2-.02-.39-.02-.19-.03-.36-.03-.51l.05-.41c0-.1-.02-.21-.06-.32-.04-.11-.06-.21-.06-.3v-.46c.04-.11.07-.2.07-.26v-1.95c0-.24,0-.41-.02-.52s-.05-.2-.11-.28c-.14-.15-.24-.25-.3-.31l-.12-.1c-.08-.08-.15-.14-.22-.17s-.14-.07-.23-.12c-.25-.11-.4-.18-.44-.21-.04-.02-.1-.08-.19-.17-.22-.19-.33-.47-.33-.84,0-.1.04-.23.13-.39l.17-.05c.04-.09.09-.16.15-.21.06-.05.13-.1.22-.15.09-.05.22-.11.39-.17s.33-.09.46-.09h.38s.09-.05.15-.07c.06-.02.14-.04.25-.04.02,0,.04.02.05.05.01.04.03.05.07.05.18,0,.5,0,.96-.02.47-.01.72-.02.77-.02l.22.05c.06.01.14.02.25.02.18-.01.3-.02.38-.02l.23-.02c.1,0,.32.04.66.12.19.05.33.07.41.07.15-.07.24-.1.29-.1.19,0,.35.1.47.29.09.14.14.26.14.38v.39c0,.09-.01.15-.03.19Z"/><path class="f" d="M21.14,98.33l-.5,1.28-.67,1.45c-.11.2-.2.36-.27.46-.22.32-.44.48-.65.48h-.85c0,.1-.06.15-.18.15-.08,0-.19-.02-.35-.05-.41-.09-.68-.13-.82-.13-.1,0-.2.01-.3.03l-1.62-.12c-.07-.01-.1-.05-.1-.12.02-.11.04-.2.06-.27.02-.07,0-.11-.06-.13-.2-.04-.3-.02-.3.08.08.18.12.3.12.34-.04.01-.08.02-.12.02l-3.21.07c-.18.03-.32.04-.43.05-.4.04-.71.07-.92.07-.23,0-.4,0-.49-.02-.09-.02-.19-.06-.29-.12-.01-.08-.01-.16,0-.24,0-.08.01-.15.02-.21l.12-.74-.02-.55c.02-.14.1-.25.24-.35.14-.1.27-.19.41-.27.02-.02.18-.15.48-.39.2-.16.32-.3.37-.43.1-.07.43-.27,1-.62.4-.24.69-.48.88-.72.13-.21.36-.41.68-.62.41-.26.64-.42.7-.47.05-.05.11-.15.15-.29s.08-.23.11-.26c.03-.03.09-.04.19-.03s.16,0,.18-.03l.6-.7c.1-.15.15-.33.15-.55,0-.1,0-.24-.03-.41s-.03-.26-.03-.27c-.04-.07-.04-.17.02-.29.17-.38.25-.59.25-.63,0-.03,0-.08-.02-.13s-.1-.15-.26-.3c-.11-.1-.12-.19-.03-.27-.18-.29-.29-.46-.33-.51-.11-.15-.24-.27-.4-.36-.29-.13-.5-.19-.65-.19-.08,0-.14,0-.19.03-.05.02-.1.04-.14.06-.06,0-.13-.04-.22-.1-.11-.01-.29.05-.53.19s-.41.21-.48.22c-.19-.14-.42-.21-.68-.21h-.15s-.08.04-.11.04c-.03,0-.1.06-.22.15-.12.1-.21.16-.27.18l-1.1.44c-.06.02-.11.04-.17.05-.06.01-.11.02-.17.02-.18,0-.31-.06-.4-.19s-.13-.29-.13-.48c0-.26.08-.49.23-.69.07-.09.12-.17.17-.22.13-.16.29-.33.48-.52.08-.06.19-.17.33-.35.14-.17.27-.3.38-.38.1-.08.27-.2.51-.35.23-.16.55-.35.95-.58.08-.03.2-.08.36-.14.16-.06.32-.09.47-.09h.22c.21,0,.32.07.32.21,0,.06-.02.14-.07.25-.04.11-.07.18-.07.21,0,.02.01.03.04.03s.09-.02.17-.07c.07,0,.13-.11.2-.32.07-.21.12-.32.17-.32h1c.11,0,.21,0,.3,0,.09,0,.22.02.38.04.17.02.38.04.64.07s.51.08.76.15c.4.15.7.26.9.33.36.14.62.29.8.45.13.13.25.38.36.77s.17.62.21.69c.18.32.29.53.33.62.04.09.09.22.15.38.11.34.17.66.17.94,0,.24-.04.43-.11.58s-.2.25-.37.29c-.2.47-.31.72-.33.75-.16.27-.33.41-.52.41-.23.33-.41.58-.53.74-.22.3-.44.54-.65.72-.42.49-.84.98-1.27,1.47-.17.11-.44.21-.82.27-.38.07-.63.15-.77.24-.37.35-.73.71-1.08,1.06-.2.13-.58.31-1.13.55-.56.24-.92.41-1.08.5l2.1-.09,1.36-.17c.43-.27.89-.43,1.37-.49.1-.01.24-.02.42-.02.22,0,.5.05.83.15l1-.15.72-.56.45-.63.68-.41.45.22.55.36Z"/><path class="f" d="M27.78,98.68l-.18.89-.33.7-.4.58-.62.46-.52.17-.75.24-.9-.05-.63-.31-.5-.1-.12-.77-.52-.7-.23-.51.12-1.18.17-.58.58-.34.45-.48.45-.46.68.05.52-.1.62.17.4.24.4.29.52.22.73.65.07.92Z"/><path class="f" d="M42.5,89.04c0,.18-.07.47-.22.85-.07.18-.1.3-.1.34.03.08.07.16.1.23s.05.15.05.23c0,.26-.17.53-.52.8-.4.32-.65.71-.77,1.18-.3.39-.52.68-.67.89-.44.62-.67.97-.67,1.06-.03.16-.08.29-.13.38-.1.16-.16.27-.19.33-.03.06-.06.22-.08.5-.03.28-.05.46-.08.55-.02.08-.1.2-.23.33-.13.14-.2.21-.2.22-.38,1-.58,1.53-.6,1.59-.13.27-.28.44-.45.51l.08.33c-.14,0-.28.1-.4.31-.29.63-.57,1.21-.85,1.76-.2.37-.4.72-.6,1.08-.3.58-.45.98-.45,1.2-.14,0-.33.15-.55.46-.22.31-.44.5-.67.59-.22.08-.42.23-.58.44-.17.21-.25.42-.25.65,0,.01.02.05.07.12.12.18.18.39.18.63,0,.33-.16.6-.48.82-.32.22-.48.59-.48,1.11v.14c0,.31-.13.64-.4.99-.31.41-.65.62-1.02.62-.22,0-.45-.12-.69-.35-.24-.23-.36-.48-.36-.73,0-.17.04-.34.12-.5.12-.23.24-.45.37-.67.01-.03,0-.15,0-.36s-.01-.32,0-.34c.1-.14.2-.31.3-.53.1-.29.21-.57.32-.85.03-.06.17-.21.42-.45s.43-.47.55-.67c.24-.39.43-.72.57-1.01.08-.21.16-.41.23-.6.1-.16.24-.33.41-.5.17-.18.36-.36.56-.54.08-.13.13-.23.16-.31.03-.08.04-.16.04-.24-.02-.11-.03-.2-.03-.26.11-.23.2-.37.27-.43.11-.09.19-.19.25-.29s.07-.17.04-.21c-.03-.04-.03-.08,0-.11.19-.24.32-.48.4-.74.04-.24.09-.48.13-.72.37-.65.62-1.1.75-1.35.22-.43.45-.87.68-1.32l1.07-2.24s.28-.47.8-1.28c.23-.36.35-.63.35-.79-.03-.11-.06-.19-.07-.24-.04-.17-.09-.27-.13-.3s-.17-.07-.37-.11c-.21-.04-.34-.08-.39-.11-.06-.03-.18-.09-.38-.2-.2-.1-.33-.15-.38-.15h-1.45c-.1,0-.23.04-.39.13-.16.08-.26.16-.29.21h-2.33c-.42,0-.85.16-1.3.48-.49.37-.98.72-1.46,1.08-.3,0-.5-.13-.59-.39-.09-.26-.14-.58-.14-.96,0-.02.03-.05.08-.08s.09-.07.12-.13c.04-.26.11-.53.19-.8s.22-.6.42-.97c.38-.65.65-1.08.81-1.3.16-.22.31-.32.44-.32.06-.01.12-.04.18-.09h3.5c.07,0,.19.03.38.08.19.05.32.11.38.18h4.03c.07.05.12.07.15.08.12.06.24.09.37.09.06,0,.29-.06.72-.19.42-.13.66-.19.7-.19.22,0,.39.12.51.35.12.23.17.57.17,1Z"/><path class="f" d="M65.37,102.27l-.45.41h-.85l-.4-.12-.68-.17-.47-.34h-.67l-.92-.07-1.03.07-.5-.12-.35-.36.12-.39.35-.41.73-.19.45-.22.28-.29-.12-.7-.1-1.64.17-.34v-.53l-.17-.46.1-.89-.1-1.86-.12-.92v-.65l-.4-.29v-.41l-.12-.24-.17-.29-.17-.34h-.8l-.52-.12-.57-.12-.28.29-.52-.05-.45.17h-.63l-.45.46-.12.41-.05.36v.92l-.17.82.17,1.93.12.22.05.53-.23.65.35.51-.17.31.1.39.07,1.81.12.41.4.12.45.29.4.53-.07.63-.73.12-1.02-.05h-.97l-.68-.12-1.08.17-.63.07-.52-.48-.22-.29v-.63l.33-.29.52-.12.28-.36.35-.05-.07-.41.12-.82-.17-.34.45-.82-.28-.41.17-.29v-.87l-.22-.7-.18-.36.12-.46.23-.36.05-.75-.17-.82.23-.51-.35-.6-.8-.63-.78-.41-.63-.12-.68.07-.96.17-.52.53-.22.75-.52,1.28.12,1.4.05.87-.05.77-.17.34.22.41v.99l-.22.29.38.7.07.99h.52l.28.41.45.58.23.82-.47.17-.85.29-1.2.12-.96-.24-1.65-.22-.62-.19-.28-.22v-.53l.45-.34.12-.6.23-.51.17-1.11.17-.58.23-.24-.23-.24v-.39l.4-1.01-.23-.34v-.87l.12-.29-.23-.24.12-1.33v-.36l-.4-.46-.33-.41-.17-.53-.07-.53-.12-.34v-.53l.28-.46.23-.36.4-.17.17-.29.63-.05h.62l.63-.41h.57l.35.41.17.34.28.36.45.17.45-.24.8-.29h1.13l.4-.29.63-.05.73.17.4.05.63.36.4.12.4.29.38.58.68.41.18-.24.45-.17.52-.36.4-.46.62-.12.57-.34.75-.07.45-.17h1.42l.92.24.62.58.58.34.67.94.23.58.12.46-.17.24-.12.94-.12.34.12.24v.46l.05,1.57.23.29.12.53v.7l-.17.46.17.36v1.16l.12,1.28.45.41.45.65.28.75.12.46Z"/><path class="f" d="M88.16,102.27l-.45.41h-.85l-.4-.12-.68-.17-.47-.34h-.67l-.92-.07-1.03.07-.5-.12-.35-.36.12-.39.35-.41.73-.19.45-.22.28-.29-.12-.7-.1-1.64.17-.34v-.53l-.17-.46.1-.89-.1-1.86-.12-.92v-.65l-.4-.29v-.41l-.12-.24-.17-.29-.17-.34h-.8l-.52-.12-.57-.12-.28.29-.52-.05-.45.17h-.63l-.45.46-.12.41-.05.36v.92l-.17.82.17,1.93.12.22.05.53-.23.65.35.51-.17.31.1.39.07,1.81.12.41.4.12.45.29.4.53-.07.63-.73.12-1.02-.05h-.97l-.68-.12-1.08.17-.63.07-.52-.48-.22-.29v-.63l.33-.29.52-.12.28-.36.35-.05-.07-.41.12-.82-.17-.34.45-.82-.28-.41.17-.29v-.87l-.22-.7-.18-.36.12-.46.23-.36.05-.75-.17-.82.23-.51-.35-.6-.8-.63-.78-.41-.63-.12-.68.07-.96.17-.52.53-.22.75-.52,1.28.12,1.4.05.87-.05.77-.17.34.22.41v.99l-.22.29.38.7.07.99h.52l.28.41.45.58.23.82-.47.17-.85.29-1.2.12-.96-.24-1.65-.22-.62-.19-.28-.22v-.53l.45-.34.12-.6.23-.51.17-1.11.17-.58.23-.24-.23-.24v-.39l.4-1.01-.23-.34v-.87l.12-.29-.23-.24.12-1.33v-.36l-.4-.46-.33-.41-.17-.53-.07-.53-.12-.34v-.53l.28-.46.23-.36.4-.17.17-.29.63-.05h.62l.63-.41h.57l.35.41.17.34.28.36.45.17.45-.24.8-.29h1.13l.4-.29.63-.05.73.17.4.05.63.36.4.12.4.29.38.58.68.41.18-.24.45-.17.52-.36.4-.46.62-.12.57-.34.75-.07.45-.17h1.42l.92.24.62.58.58.34.67.94.23.58.12.46-.17.24-.12.94-.12.34.12.24v.46l.05,1.57.23.29.12.53v.7l-.17.46.17.36v1.16l.12,1.28.45.41.45.65.28.75.12.46Z"/><path class="f" d="M116.08,102.27l-.45.41h-.85l-.4-.12-.68-.17-.47-.34h-.67l-.92-.07-1.03.07-.5-.12-.35-.36.12-.39.35-.41.73-.19.45-.22.28-.29-.12-.7-.1-1.64.17-.34v-.53l-.17-.46.1-.89-.1-1.86-.12-.92v-.65l-.4-.29v-.41l-.12-.24-.17-.29-.17-.34h-.8l-.52-.12-.57-.12-.28.29-.52-.05-.45.17h-.63l-.45.46-.12.41-.05.36v.92l-.17.82.17,1.93.12.22.05.53-.23.65.35.51-.17.31.1.39.07,1.81.12.41.4.12.45.29.4.53-.07.63-.73.12-1.02-.05h-.97l-.68-.12-1.08.17-.63.07-.52-.48-.22-.29v-.63l.33-.29.52-.12.28-.36.35-.05-.07-.41.12-.82-.17-.34.45-.82-.28-.41.17-.29v-.87l-.22-.7-.18-.36.12-.46.23-.36.05-.75-.17-.82.23-.51-.35-.6-.8-.63-.78-.41-.63-.12-.68.07-.96.17-.52.53-.22.75-.52,1.28.12,1.4.05.87-.05.77-.17.34.22.41v.99l-.22.29.38.7.07.99h.52l.28.41.45.58.23.82-.47.17-.85.29-1.2.12-.96-.24-1.65-.22-.62-.19-.28-.22v-.53l.45-.34.12-.6.23-.51.17-1.11.17-.58.23-.24-.23-.24v-.39l.4-1.01-.23-.34v-.87l.12-.29-.23-.24.12-1.33v-.36l-.4-.46-.33-.41-.17-.53-.07-.53-.12-.34v-.53l.28-.46.23-.36.4-.17.17-.29.63-.05h.62l.63-.41h.57l.35.41.17.34.28.36.45.17.45-.24.8-.29h1.13l.4-.29.63-.05.73.17.4.05.63.36.4.12.4.29.38.58.68.41.18-.24.45-.17.52-.36.4-.46.62-.12.57-.34.75-.07.45-.17h1.42l.92.24.62.58.58.34.67.94.23.58.12.46-.17.24-.12.94-.12.34.12.24v.46l.05,1.57.23.29.12.53v.7l-.17.46.17.36v1.16l.12,1.28.45.41.45.65.28.75.12.46Z"/><path class="f" d="M128.96,98.99c-.03.06-.05.15-.05.29v.55c0,.08,0,.14-.02.17s-.03.06-.07.08c-.09.07-.14.12-.17.15-.18.33-.31.58-.4.73-.17.3-.34.52-.53.67-.25.21-.42.33-.5.36-.08.04-.19.05-.33.05-.12,0-.28-.04-.46-.14-.19-.09-.33-.14-.43-.14h-.43c-.09.07-.16.1-.22.1-.01,0-.07-.03-.17-.09s-.24-.09-.43-.09c-.07-.07-.11-.12-.13-.15-.1-.11-.16-.18-.18-.19-.21-.11-.4-.3-.56-.55-.24-.38-.4-.6-.48-.68-.04.26-.27.51-.68.75-.32.18-.64.36-.96.53-.27.18-.53.36-.8.53-.27.17-.56.26-.88.26l-.65-.26c-.12-.04-.27-.09-.44-.14-.17-.04-.32-.08-.44-.11s-.21-.06-.25-.09c-.14-.09-.22-.14-.23-.15-.19-.14-.31-.28-.37-.44-.04-.35-.11-.66-.2-.92-.02-.08-.09-.22-.22-.44-.12-.21-.18-.4-.18-.56,0-.52.15-1.07.46-1.65.31-.58.67-.99,1.11-1.24l.65-.03c.05-.01.12-.05.21-.12.08-.07.17-.15.27-.24.24-.11.67-.18,1.28-.21.61-.03,1-.06,1.18-.09.18-.03.33-.08.47-.14.28-.14.45-.21.51-.23.06-.02.13-.05.22-.09.08-.04.14-.1.17-.15.03-.06.08-.1.15-.14s.09-.07.08-.12l-.05-2.02v-1.08c-.12-.33-.25-.54-.38-.62-.23-.08-.47-.17-.7-.27-.34-.15-.64-.22-.9-.22-.14,0-.28,0-.39.03-.12.02-.25.04-.39.06,0,.07-.05.12-.14.15-.25.08-.38.14-.41.18-.03.04-.06.07-.11.09-.05.02-.08.06-.1.1-.06.09-.1.23-.1.41,0,.08.01.2.03.36.02.16.03.29.03.38,0,.17-.03.3-.1.39-.16.24-.35.43-.57.57s-.47.21-.73.21c-.15,0-.26,0-.35-.02-.34-.04-.53-.07-.57-.07,0-.15-.07-.3-.2-.44-.13-.15-.2-.3-.2-.46,0-.39.09-.71.26-.98.17-.27.35-.53.52-.79.13-.25.31-.47.53-.67.31-.24.55-.43.72-.56.1-.08.19-.17.28-.27.09-.1.16-.18.22-.24.11-.11.25-.18.42-.21.17-.02.35-.05.52-.07.08-.02.17-.09.27-.2.1-.11.19-.18.27-.21.04-.01.11-.01.21,0,.09.01.17.01.22,0,.14-.04.28-.06.4-.08.12-.02.24-.03.37-.03.21,0,.46.07.73.21s.54.27.8.39c.2.06.4.11.6.15.28.13.53.36.77.7.17.25.33.58.48.99v1.62c.02.1.08.31.17.62.09.31.14.54.14.7,0,.18-.04.46-.13.82-.09.37-.13.65-.13.85,0,.11.02.26.07.44.05.18.08.3.08.36l-.2.21c-.03.1-.05.19-.05.26.02.16.04.29.05.39v.96c-.08.1-.12.2-.12.29s.03.31.08.65c.02.14.03.28.03.43l.13.03c.09,0,.18,0,.28-.03.1-.02.16-.03.18-.03.1,0,.19.06.28.17l.02-.17h.47c.21,0,.34,0,.38-.03.04-.02.08-.1.12-.25h.15c.08.02.2.04.37.05.17.01.32.06.47.14ZM123.75,98.13v-1.9c-.07.01-.17.02-.3.02-.22-.01-.39-.02-.52-.02-.14,0-.3.03-.47.08-.51.18-.85.28-1.02.3-.17.02-.45.14-.82.37-.47.29-.7.58-.7.89s.08.64.22.98c.15.35.34.58.57.71.17.03.33.07.5.1.04.02.09.05.13.09s.09.06.13.06c.24,0,.44-.03.6-.1.2-.11.37-.21.5-.27.34-.16.6-.33.77-.5.23-.22.37-.49.4-.82Z"/><path class="f" d="M138.59,90.63c0,.35-.07.64-.2.85-.13.22-.37.32-.7.32-.47,0-.92-.17-1.36-.51-.52-.4-.91-.63-1.15-.69l-.33-.03c-.1-.03-.18-.06-.23-.07-.22-.06-.4-.08-.53-.08l-.25.28c-.31,0-.59.07-.83.22-.04.02-.09.06-.15.12-.48,0-.84.09-1.08.27-.3.23-.45.6-.45,1.13,0,.19-.03.44-.08.73-.13.72-.2,1.2-.2,1.44,0,.31.01.58.04.8.03.23.09.43.18.62.06.1.12.15.19.15h.08s.03.14.03.31v.57c0,.15.09.37.28.65.14.21.23.33.25.38.07.08.16.21.27.38s.22.31.32.41c.21.21.58.36,1.11.47s.99.16,1.39.16c.66,0,1.2-.12,1.65-.35.54-.29.86-.71.95-1.28.24.09.43.18.57.27.13.09.2.17.2.27,0,.03-.03.09-.08.18-.06.09-.08.15-.08.18l-.27,1.25c-.61.57-1.22,1.14-1.83,1.7-.61.39-1.3.58-2.08.58s-1.41-.15-2.01-.46c-.59-.31-1.13-.76-1.61-1.35-.11-.14-.23-.33-.35-.57-.12-.25-.23-.43-.33-.56-.37-.47-.56-.72-.58-.77-.08-.13-.17-.33-.27-.62-.06-.15-.11-.3-.17-.46-.06-.22-.14-.39-.24-.51-.11-.13-.16-.3-.16-.53,0-.12,0-.24.02-.33.02-.1.03-.2.03-.32l-.05-1.4c0-.19.1-.41.31-.65.21-.24.33-.43.38-.56.14-.51.45-1.18.93-2,.34-.59.56-.98.65-1.16.09-.06.23-.17.42-.32.19-.16.36-.29.49-.38.24-.16.61-.34,1.1-.53.72-.29,1.12-.44,1.19-.48s.19-.05.34-.05c.11,0,.31.02.6.07.29.05.52.07.68.07.84,0,1.53.15,2.05.46.64.38.97.96.97,1.74Z"/><path class="f" d="M151,99.16l.45.46h.23l.33.36.28.46v.41l.12.58-.17.46-.73.17-.75.07-.33.34-.23-.05-.4-.36-.23-.17h-1.42l-.62.12h-.75l-.4-.05-.17-.24-.28-.36-.12-.39.23-.36.28-.24.68-.05.4-.12.28-.29.17-.12.23-.29-.12-1.45-.12-.24v-.17l.23-.17-.07-1.47-.33-.87v-.34l.17-.12.05-.53-.17-.41v-2.15l-.45-.7-.4-.58-.05-.36h-.28l-.35-.17-.45-.17-.97-.05-.47.1-.85.6h-.28l-.12.29-.4.58.07.41-.12.17v.92l-.17.12v.7l.18.41.04,4.25.2,1.52.21.29.35.17.44.19.17.46.18.46-.23.58-.35.19-.5.17h-.75l-.22-.24-.75.12-.73-.12-1.13.07-.4-.19-.28-.34-.12-.41.17-.24-.12-.22.28-.36.47-.34.12-.53.1-.53.35-.12-.12-2.73-.12-.34.17-.31-.17-.34.17-.17-.05-1.81.28-.75-.23-.53-.05-1.06-.05-.46.22-.24-.05-1.45-.17-.99v-.82l-.4-1.5v-2.05l.22-.24-.05-.51-.73-.07-.68-.05-.23-.24-.12-.51.17-.6.35-.29.28-.22.45-.07.52-.12.4-.39.62-.19.63-.29.62-.12h.4l.63.7-.05.58-.18.19.18.17.05.82-.05,1.62-.35.53.05,2.1-.1,2.92h.4l.38-.19.18-.22.45-.12.45-.17,1.08-.48h.4l.73-.29.63-.12.28-.05.85.46.52.36.45.17.4.36.12.39.28.65-.05,1.16.1,1.81.28,1.11-.05,1.04-.17.19.17.22v.41l-.17.24.22.58.23.94.12,1.16.28.41-.17.29Z"/><path class="f" d="M159.05,101.22l-.27.7-.68.26-.77-.08-.77.08-.93-.34-.6.34-.6.36h-.85l-.6-.53-.25-.53.08-.79.77-.08.68-.7.17-1.04.08-1.06-.25-.79.33-.26v-.62l.35-.45-.35-.43-.25-1.49.08-1.06-.68-.26-.85-.44-.08-.79.42-.62.52-.17.6-.17.43-.79.68.09.68-.09.85-.27.5.27.18.62-.08.62-.35.87.25.34.1.7-.18.87-.08.79v2.46l-.08.96.35.62-.18.62.18.34.25.79.68.62.52.53ZM158.36,82.85l-.52.51-.52.44-.85-.08-.68-.44-.52-.62v-.79l.35-.7.85-.26.85.26.43.27v.34l.52.27.08.79Z"/><path class="f" d="M173.65,101.19l-.23.65-.4.22-.97.07-.4-.24h-.8l-.28.17h-.68l-.68-.17-.5.24-.47-.24-.4-.34-.17-.53.23-.46.4-.12.68-.17.22-.24-.05-.41.17-.29-.05-1.4v-.94l.12-.39-.07-2.75-.17-.34.17-.82-.12-.53-.28-.34-.33-.19-.52-.58-.63-.17-.73-.17-.45-.24-.52.24-.28.46-.52.36-.45.39-.28.31-.17.34.05,2.92-.17.29v2.85l.23.24-.07.92.28.36.35.22.73-.05.23.29.17.41-.35.7-.5.05-.63.29-.9-.05-.58.25-.85.05-.73-.12-.4-.12-.45-.17-.12-.58.12-.24.33-.75.28-.41.35-.24-.07-3.78.18-.19.05-.41-.23-.34-.05-.53.23-.29v-1.87l-.75-.82-.28-.46-.28-.24.05-.7.18-.29.28-.22.4-.19.4-.12.05-.22.4-.24.28-.12.52-.05.38-.24.47-.05.52.46.38.36.07.46.52.12.22-.36.47-.29.67-.29.52-.29.57-.12.47-.17h.5l.52.24.35-.19.33.41.52.48.28-.07.45.17.4.24.05.29.4.48.57.75.18.7-.23.34.28.48-.05,2.27-.35.87-.05,1.16.22.41.07.82-.28.46-.07.48.12.39.28.48.4.22.45.29.3.24v.58Z"/><path class="f" d="M185.51,99.79l-.4.56.1.29-.48.29h-.23l-.23.34-.45.44-.45-.05-.27.29h-.22l-.38.36h-1.3l-1.37-.12-.72-.12-.45-.11-.28-.3-.55-.27-.62-.41-.12-.34-.33-.24-.08-.5-.32-.29v-.29l-.4-.32-.37-.58-.28-.55-.1-1.23.23-.26v-.29l-.13-.39-.1-.58.23-.55.15-1.61.28-.65.08-.84.42-.21.12-.38-.05-.29.42-.33.23-.36.03-.38.53-.55h.32l.23-.15.45-.14.37-.17.35-.31.4-.26.5-.08h1.71l.65.21.53.31.57.36.52.38.28.62.37.67.3.46.17.78.05.46-.05.65-.07.5-.22.21-.6-.07-.07.21h-1.25l-.13-.21-.72.07h-1.13l-1.17.08-.48-.15-1.61.07v.41l-.2.19-.07,1.33.27.57.28.41.33.5.27.47.08.59.37.5.22.17.12.33.57.16.27.09.32.22h.73l.12.22h.45l.4.27.32-.27h1.17l.33-.47.47-.18.78.56v.22ZM182.33,91.2l-.23-.32-.33-.37-.17-.47-.27-.05-.45-.2-.28-.12h-.88l-.33.26-.55.36-.17.38-.28.41v.46l.45.15h.77l.47.14.65-.05.77.05.32-.14.25-.24.28-.25Z"/><path class="f" d="M206.02,90.58l-.23.34-.5.31-.18.22-.17-.12-.57-.05-.33.24-.4.34-.07.65-.28.17.23.29v.75l-.17.24v.41l.45.41v.46l-.23.94-.28.17.28.12-.28.34-.05.48h-.28l-.07.29-1.08,1.09-.57.36-.4.05-.78.19-.63.29-.92-.07-.62.41-.63.53-.5.22h-1.25l-.4.31-.52.51.17.41-.12.17v.48l.4.05.23.36.4.34.45.17.63-.22,1.42-.12.68-.29,1.2.17.9.36.92.1.33.29.28-.22.75.12.57.58.62.34.47,1.06.28.63.17.58.17.65.23.92.17.94-.12.87-.17.58-.17.7-.68.48-.68.46h-.57l-.75.65-.5.29-.75.17-1.18.05h-1.53l-.52-.34h-2l-.28-.24-.22-.05-.47-.19h-.62l-.4-.51-.45-.12-.47-.36-.33-.58-.57-.63-.4-.77-.23-.46-.17-.58.17-.46.23-.58v-.36l.45-.41.8-.7v-.17l.62-.46.58-.24v-.29l-.35-.12-.68-.24-.23-.22-.68-.24-.22-.34v-1.18l-.17-.46.17-.58-.28-.41.28-.65.52-.51.5-.41h1.48l.85-.12.28-.46-.22-.53-.4.12-.12-.46-.68-.19-.52-.22-.12-.48-.5-.63-.52-.07-.28-.29-.12-1.91.45-.41-.05-1.47.05-1.21.4-.29.07-.58h.45l.63-.6.62-.75.63-.05.33-.36,1.31-.17.57-.36h1.18l.68.36.58.17.57.24,1.02.29.17.58.57-.05.35-.48.52-.34.73-.36.57-.34.28.17.4.36.35.29.05,1.45ZM203.46,108.61l-.05-.58-.4-.36-.05-.87-.4-.12-.45-.41-1.65.07-.35-.41-.85-.12h-.85l-.35.17-.8.07-.4-.48-.57.41-.4.36-.45.29-.17.46-.4.12.05.63-.17.29.07.53.62.75.35.19.17.22.85.41.85.41h1.37l2.16-.58h1.3l.28-.53.35-.41.33-.51ZM201.03,94.71l-.18-.58-.22-1.33-.17-.77-.12-.46-.28-.05-.4-.53h-.35l-.4-.24-.17-.29-.68-.05-.52.29-.57.53-.17.34-.73.65v.58l-.12,1.04-.28.36-.12,1.21.28.41.28.7.12.58.57.36.73.12.63.46.57.12.28-.36.85-.51.28-.89.47-.8.4-.89Z"/><path class="f" d="M219.01,100.37l-.28.89-.28.34-.62.17-.47.25-.45.12-.73.18h-.52l-.35-.42-.1-.59-.18-.29-.28-.29-.5.34-.23.41-.85.29h-.57l-.63.41-.33-.22-.23.22h-.68l-.57-.12-.92-.34-.52-.24-.38-.05.05-.36-.4-.29-.33-.29-.35-.63v-1.18l-.23-.22.07-.94.12-.17.05-.7-.05-.58-.12-.46.17-.36-.23-.24.12-2.44-.17-.7-.12-1.04-.28-.36-.52-.29-.62-.29.05-.41.12-.58.4-.29,1.42-.05.52-.19.4-.12h.8l.57.24.57.53.05.34-.1.77-.23.12-.05.63.17.94-.28.17v.75l.22.36.12.82-.28.75-.05.82-.23.34.05.58.07,1.47.33.29v.58l.18.46.57.29.4.24.5-.07.92.12.62-.22.8.1.75-.87v-.34l.33-.24.12-.41-.17-.46.17-.53-.17-.41.17-.34v-.29l-.12-.7v-.77l.17-.63.07-.58-.07-1.81-.1-.29-.47-.41-.5-.12-.18.17-.5-.17-.3-.29-.38-.29-.07-.46-.22-.48.38-.39.63-.31.12.31.45-.07.63.24.33-.24.52-.05.73.05.17-.24.63-.1.28.46.23.17.33.29v.7l-.12,1.35-.17.22.07.53.17.17-.23.36v2.56l-.12.34.18.31v1.04l-.12.34.12.31-.18.51.18.29v.89l.22.17.17.41h.35l.28.22v.36l.17.22Z"/><path class="f" d="M233.46,101.19l-.23.65-.4.22-.97.07-.4-.24h-.8l-.28.17h-.68l-.68-.17-.5.24-.47-.24-.4-.34-.17-.53.23-.46.4-.12.68-.17.22-.24-.05-.41.17-.29-.05-1.4v-.94l.12-.39-.07-2.75-.17-.34.17-.82-.12-.53-.28-.34-.33-.19-.52-.58-.63-.17-.73-.17-.45-.24-.52.24-.28.46-.52.36-.45.39-.28.31-.17.34.05,2.92-.17.29v2.85l.23.24-.07.92.28.36.35.22.73-.05.23.29.17.41-.35.7-.5.05-.63.29-.9-.05-.58.25-.85.05-.73-.12-.4-.12-.45-.17-.12-.58.12-.24.33-.75.28-.41.35-.24-.07-3.78.18-.19.05-.41-.23-.34-.05-.53.23-.29v-1.87l-.75-.82-.28-.46-.28-.24.05-.7.18-.29.28-.22.4-.19.4-.12.05-.22.4-.24.28-.12.52-.05.38-.24.47-.05.52.46.38.36.07.46.52.12.22-.36.47-.29.67-.29.52-.29.57-.12.47-.17h.5l.52.24.35-.19.33.41.52.48.28-.07.45.17.4.24.05.29.4.48.57.75.18.7-.23.34.28.48-.05,2.27-.35.87-.05,1.16.22.41.07.82-.28.46-.07.48.12.39.28.48.4.22.45.29.3.24v.58Z"/><path class="f" d="M243.56,97.64l-.22,1.28v.94l-.35.75-.57.75-.8.36-.57.12-.33.41-.8.05-1.3.17-.52-.17-1.25-.05-.57-.24-.52-.12-.45-.7-.23-.75-.23-.53-.05-.75.17-.65.35-.22.33-.31.17.12h.47l.45.58.28.36.23.46.22.53.47.05.5.48.68.1.47.36.62-.05.28-.82.28-.36.07-1.11.1-.29-.33-.34v-.41l-.4-.12-.92-.53-.78-.17-1.2-.53-.68-.46-.52-.41-.4-.29-.33-.7-.12-.58-.12-.53-.22-.29-.07-.7.12-.75.45-.82v-.41l.47-.34v-.36l.57-.58.33-.05.68-.46.4-.31.85-.05h.87l.62.24.68.05.52.07.17.22.52.41.45.36.23.75.28.75-.12.82-.52.53-.52.22-.62-.17-.57-.46-.45-.46-.18-.48-.5-.46-.63-.29-.33-.17-.35.17h-.33l-.23.53-.17.58.17.41.17.75.45.65.58.29.5.17.63.29,1.25.46.45.24.52.58.63.53.38,1.21.28.65Z"/></g></g></svg>