<?xml version="1.0" encoding="UTF-8"?><svg id="b" xmlns="http://www.w3.org/2000/svg" viewBox="0 0 193.21 125.99"><defs><style>.f{fill:#220d0d;}</style></defs><g id="c"><g id="d"><path class="f" d="M62.47,61.82c-5.6,1.28-10.58,2.35-15.52,3.59-1.23.31-2.36,1.07-3.5,1.7-2.89,1.6-5.71,3.32-8.63,4.86-2.74,1.44-5.12.07-7.37-1.28-1.05.57-2,1.09-3.35,1.82-.19-1.03-.59-1.84-.35-2.14,2.47-3.06,4.47-7.17,7.7-8.77,5.86-2.9,7.71-8.35,10.81-13.09.36-.55.59-1.18.96-1.71.17-.25.53-.37.81-.55.33.04.69,0,.97.14,1.84.92,3,3.61,5.5,2.68,2.59-.96,5.56-1.93,7.33-3.84,3.6-3.88,8.54-5.31,12.67-8.15.81-.55,1.99-.71,2.58-1.41,4.49-5.27,10.79-7.68,16.65-10.83.81-.44,1.23-1.55,1.98-2.16,1.8-1.45,3.51-3.54,5.57-4.01,6.37-1.45,10.89-5.91,16.07-9.22,4.91-3.14,4.69-3.47,4.57-9.25,2.63-.97,3.53,2.04,5.48,2.43,1.92.39,3.89.51,5.32.69,1.76,3.08,3.26,5.71,4.88,8.55-1.87,1.94-4.37,1.24-6.29.51-3.41-1.3-5.64.02-8.07,2.09-1.56,1.33-3.59,2.12-5.39,3.18-1.69,1-4.03,1.66-4.88,3.15-1.94,3.4-5.41,4.65-8.14,6.89-1.19.98-3,1.19-4.45,1.89-1.75.85-4.27,1.44-4.99,2.88-2.65,5.3-8.42,5.79-12.47,8.85-.76.58-2.09.69-2.5,1.4-3.2,5.59-9.37,7.12-14.2,10.43-3.23,2.21-3.61,2.58-1.31,5.99.53.79.96,1.65,1.56,2.69ZM24.63,72.01c.66-1.16,1.33-2.32,1.99-3.49M44.07,46.11v1.49"/></g><g id="e"><path class="f" d="M11.97,111.36c-.03.06-.05.15-.05.29v.55c0,.08,0,.14-.02.17s-.03.06-.07.08c-.09.07-.14.12-.17.15-.18.33-.31.58-.4.73-.17.3-.34.52-.53.67-.25.21-.42.33-.5.36-.08.04-.19.05-.33.05-.12,0-.28-.04-.46-.14-.19-.09-.33-.14-.43-.14h-.43c-.09.07-.16.1-.22.1-.01,0-.07-.03-.17-.09s-.24-.09-.43-.09c-.07-.07-.11-.12-.13-.15-.1-.11-.16-.18-.18-.19-.21-.11-.4-.3-.56-.55-.24-.38-.4-.6-.48-.68-.04.26-.27.51-.68.75-.32.18-.64.36-.96.53-.27.18-.53.36-.8.53-.27.17-.56.26-.88.26l-.65-.26c-.12-.04-.27-.09-.44-.14-.17-.04-.32-.08-.44-.11s-.21-.06-.25-.09c-.14-.09-.22-.14-.23-.15-.19-.14-.31-.28-.37-.44-.04-.35-.11-.66-.2-.92-.02-.08-.09-.22-.22-.44-.12-.21-.18-.4-.18-.56,0-.52.15-1.07.46-1.65.31-.58.67-.99,1.11-1.24l.65-.03c.05-.01.12-.05.21-.12.08-.07.17-.15.27-.24.24-.11.67-.18,1.28-.21.61-.03,1-.06,1.18-.09.18-.03.33-.08.47-.14.28-.14.45-.21.51-.23.06-.02.13-.05.22-.09.08-.04.14-.1.17-.15.03-.06.08-.1.15-.14s.09-.07.08-.12l-.05-2.02v-1.08c-.12-.33-.25-.54-.38-.62-.23-.08-.47-.17-.7-.27-.34-.15-.64-.22-.9-.22-.14,0-.28,0-.39.03-.12.02-.25.04-.39.06,0,.07-.05.12-.14.15-.25.08-.38.14-.41.18-.03.04-.06.07-.11.09-.05.02-.08.06-.1.1-.06.09-.1.23-.1.41,0,.08.01.2.03.36.02.16.03.29.03.38,0,.17-.03.3-.1.39-.16.24-.35.43-.57.57s-.47.21-.73.21c-.15,0-.26,0-.35-.02-.34-.04-.53-.07-.57-.07,0-.15-.07-.3-.2-.44-.13-.15-.2-.3-.2-.46,0-.39.09-.71.26-.98.17-.27.35-.53.52-.79.13-.25.31-.47.53-.67.31-.24.55-.43.72-.56.1-.08.19-.17.28-.27.09-.1.16-.18.22-.24.11-.11.25-.18.42-.21.17-.02.35-.05.52-.07.08-.02.17-.09.27-.2.1-.11.19-.18.27-.21.04-.01.11-.01.21,0,.09.01.17.01.22,0,.14-.04.28-.06.4-.08.12-.02.24-.03.37-.03.21,0,.46.07.73.21s.54.27.8.39c.2.06.4.11.6.15.28.13.53.36.77.7.17.25.33.58.48.99v1.62c.02.1.08.31.17.62.09.31.14.54.14.7,0,.18-.04.46-.13.82-.09.37-.13.65-.13.85,0,.11.02.26.07.44.05.18.08.3.08.36l-.2.21c-.03.1-.05.19-.05.26.02.16.04.29.05.39v.96c-.08.1-.12.2-.12.29s.03.31.08.65c.02.14.03.28.03.43l.13.03c.09,0,.18,0,.28-.03.1-.02.16-.03.18-.03.1,0,.19.06.28.17l.02-.17h.47c.21,0,.34,0,.38-.03.04-.02.08-.1.12-.25h.15c.08.02.2.04.37.05.17.01.32.06.47.14ZM6.76,110.51v-1.9c-.07.01-.17.02-.3.02-.22-.01-.39-.02-.52-.02-.14,0-.3.03-.47.08-.51.18-.85.28-1.02.3-.17.02-.45.14-.82.37-.47.29-.7.58-.7.89s.08.64.22.98c.15.35.34.58.57.71.17.03.33.07.5.1.04.02.09.05.13.09s.09.06.13.06c.24,0,.44-.03.6-.1.2-.11.37-.21.5-.27.34-.16.6-.33.77-.5.23-.22.37-.49.4-.82Z"/><path class="f" d="M24.67,113.57l-.23.65-.4.22-.97.07-.4-.24h-.8l-.28.17h-.68l-.68-.17-.5.24-.47-.24-.4-.34-.17-.53.23-.46.4-.12.68-.17.22-.24-.05-.41.17-.29-.05-1.4v-.94l.12-.39-.07-2.75-.17-.34.17-.82-.12-.53-.28-.34-.33-.19-.52-.58-.63-.17-.73-.17-.45-.24-.52.24-.28.46-.52.36-.45.39-.28.31-.17.34.05,2.92-.17.29v2.85l.23.24-.07.92.28.36.35.22.73-.05.23.29.17.41-.35.7-.5.05-.63.29-.9-.05-.58.25-.85.05-.73-.12-.4-.12-.45-.17-.12-.58.12-.24.33-.75.28-.41.35-.24-.07-3.78.18-.19.05-.41-.23-.34-.05-.53.23-.29v-1.87l-.75-.82-.28-.46-.28-.24.05-.7.18-.29.28-.22.4-.19.4-.12.05-.22.4-.24.28-.12.52-.05.38-.24.47-.05.52.46.38.36.07.46.52.12.22-.36.47-.29.67-.29.52-.29.57-.12.47-.17h.5l.52.24.35-.19.33.41.52.48.28-.07.45.17.4.24.05.29.4.48.57.75.18.7-.23.34.28.48-.05,2.27-.35.87-.05,1.16.22.41.07.82-.28.46-.07.48.12.39.28.48.4.22.45.29.3.24v.58Z"/><path class="f" d="M35.41,112.35l-.05.68-.63.73-.82.67h-.72l-.55.27-.62.05-.6.17-.88-.05-.9-.17-.67-.5-.48-.38-.48-.19v-.5l-.05-.55-.25-.94.13-.43-.25-.36.12-1.04-.18-.99.12-.68-.33-2.41-.2-.56.05-.46.32-.38-.17-.26-.08-.97-.07-.7-.17-.41-.37-.21-.47-.1-.25-.24-.05-.87.3-.17.35-.27.37-.29.35-.33.3-.29v-.21l.55-.41.22-.63.38-.74.25-.67.4-.38.32-.24h.17l.32.5.05.24-.25.12v.5l.25.31.05.5-.22.41-.08.32.37.17.9.07h1.03l.82-.07.15.27h.23l.1-.15.55-.12.2.33.45.12.05.32.2.22-.17.73-.08.21-.05.34-.4.07v.33l-.68.22h-1.68l-.33-.22h-.43l-.48.17-.32.26-.28.5-.05.36h.17v.75l-.05,1.23h-.2v.29l.48.55-.07.56-.17.31-.25.32v1.57l.12.27.36.29-.12,1.25.12,1.16.3.36.43.14h.43l.22-.19.67.5.25-.31h.6l.28-.38.6-.05.42-.5.43.24.32.38.05.62Z"/><path class="f" d="M42.03,113.6l-.27.7-.68.26-.77-.08-.77.08-.93-.34-.6.34-.6.36h-.85l-.6-.53-.25-.53.08-.79.77-.08.68-.7.17-1.04.08-1.06-.25-.79.33-.26v-.62l.35-.45-.35-.43-.25-1.49.08-1.06-.68-.26-.85-.44-.08-.79.42-.62.52-.17.6-.17.43-.79.68.09.68-.09.85-.27.5.27.18.62-.08.62-.35.87.25.34.1.7-.18.87-.08.79v2.46l-.08.96.35.62-.18.62.18.34.25.79.68.62.52.53ZM41.35,95.23l-.52.51-.52.44-.85-.08-.68-.44-.52-.62v-.79l.35-.7.85-.26.85.26.43.27v.34l.52.27.08.79Z"/><path class="f" d="M54.84,106.51l-.23.82-.5.17-.47.17-.45.07h-1.25l-.35.12-.57.22-.5.24-.4.12-.52.34-.63-.12-.5.31-.57.17-.47.17-.5.24-.63.22-.73-.05-.57-.05-.47-.12-.22-.24-.18-.41-.17-.41.12-.46.17-.36.23-.46.33-.41.28-.29h.75l.45-.17.63-.05.45-.19.33-.29.4-.12.57-.22.35-.41.62-.17.52-.07.57-.12.47-.05.5-.24.4-.17.75.05.78-.05.47.29.33.36.4.51v1.11Z"/><path class="f" d="M64.91,110.01l-.22,1.28v.94l-.35.75-.57.75-.8.36-.57.12-.33.41-.8.05-1.3.17-.52-.17-1.25-.05-.57-.24-.52-.12-.45-.7-.23-.75-.23-.53-.05-.75.17-.65.35-.22.33-.31.17.12h.47l.45.58.28.36.23.46.22.53.47.05.5.48.68.1.47.36.62-.05.28-.82.28-.36.07-1.11.1-.29-.33-.34v-.41l-.4-.12-.92-.53-.78-.17-1.2-.53-.68-.46-.52-.41-.4-.29-.33-.7-.12-.58-.12-.53-.22-.29-.07-.7.12-.75.45-.82v-.41l.47-.34v-.36l.57-.58.33-.05.68-.46.4-.31.85-.05h.87l.62.24.68.05.52.07.17.22.52.41.45.36.23.75.28.75-.12.82-.52.53-.52.22-.62-.17-.57-.46-.45-.46-.18-.48-.5-.46-.63-.29-.33-.17-.35.17h-.33l-.23.53-.17.58.17.41.17.75.45.65.58.29.5.17.63.29,1.25.46.45.24.52.58.63.53.38,1.21.28.65Z"/><path class="f" d="M78.16,111.53l.45.46h.23l.33.36.28.46v.41l.12.58-.17.46-.73.17-.75.07-.33.34-.23-.05-.4-.36-.23-.17h-1.42l-.62.12h-.75l-.4-.05-.17-.24-.28-.36-.12-.39.23-.36.28-.24.68-.05.4-.12.28-.29.17-.12.23-.29-.12-1.45-.12-.24v-.17l.23-.17-.07-1.47-.33-.87v-.34l.17-.12.05-.53-.17-.41v-2.15l-.45-.7-.4-.58-.05-.36h-.28l-.35-.17-.45-.17-.97-.05-.47.1-.85.6h-.28l-.12.29-.4.58.07.41-.12.17v.92l-.17.12v.7l.18.41.04,4.25.2,1.52.21.29.35.17.44.19.17.46.18.46-.23.58-.35.19-.5.17h-.75l-.22-.24-.75.12-.73-.12-1.13.07-.4-.19-.28-.34-.12-.41.17-.24-.12-.22.28-.36.47-.34.12-.53.1-.53.35-.12-.12-2.73-.12-.34.17-.31-.17-.34.17-.17-.05-1.81.28-.75-.23-.53-.05-1.06-.05-.46.22-.24-.05-1.45-.17-.99v-.82l-.4-1.5v-2.05l.22-.24-.05-.51-.73-.07-.68-.05-.23-.24-.12-.51.17-.6.35-.29.28-.22.45-.07.52-.12.4-.39.62-.19.63-.29.62-.12h.4l.63.7-.05.58-.18.19.18.17.05.82-.05,1.62-.35.53.05,2.1-.1,2.92h.4l.38-.19.18-.22.45-.12.45-.17,1.08-.48h.4l.73-.29.63-.12.28-.05.85.46.52.36.45.17.4.36.12.39.28.65-.05,1.16.1,1.81.28,1.11-.05,1.04-.17.19.17.22v.41l-.17.24.22.58.23.94.12,1.16.28.41-.17.29Z"/><path class="f" d="M86.2,113.6l-.27.7-.68.26-.77-.08-.77.08-.93-.34-.6.34-.6.36h-.85l-.6-.53-.25-.53.08-.79.77-.08.68-.7.17-1.04.08-1.06-.25-.79.33-.26v-.62l.35-.45-.35-.43-.25-1.49.08-1.06-.68-.26-.85-.44-.08-.79.42-.62.52-.17.6-.17.43-.79.68.09.68-.09.85-.27.5.27.18.62-.08.62-.35.87.25.34.1.7-.18.87-.08.79v2.46l-.08.96.35.62-.18.62.18.34.25.79.68.62.52.53ZM85.52,95.23l-.52.51-.52.44-.85-.08-.68-.44-.52-.62v-.79l.35-.7.85-.26.85.26.43.27v.34l.52.27.08.79Z"/><path class="f" d="M100.1,108.22l-.23.79-.52,1.5-.3,1.33-.65.77-.52.05-.43.51-.78.46-.82.41-.87.17-1.07.27-1.26-.07-.73-.12-.52-.17.07,1.63.23.69-.15.55.28,1-.52.46.28,1.58.1.77.05,1.73.85.62.57.28.45.23.12.39.05.79-.35.21-1.58.21-.3-.22-.9.05-.35.24-1.18-.17-.8.27-1.08.07-.68-.21-.45-.33v-.58l.18-.72.4-.6.45.14,1.08-.05-.05-1.16.12-.94.07-1.93.3-.41-.3-.7.19-1.4.17-.75-.37-2.39.19-1.57.11-1.19-.23-.56.18-.89-.32-.73.15-.53-.08-.7.11-.87.11-.78-.22-.56-.18-1.74-.68-.08-.57-.39-.28-.65.23-.62.42-.66.57-.21.62-.16.97-.17.34-.31h.67l.37.51.4.39.1.58.68-.22.23-.19.47-.67h.8l.45-.26.85-.09,1.65.07.35.36.6.36.42.21.17.36.73.55v.53l.45.77.3.27-.13.53.23.53-.25.53.42.51.17,2.05.2.44ZM97.37,108.21l-.07-1.39-.13-1.16-.47-.5-.15-.46-.3-.39-.4-.26-.73-.55-.52-.51-.65-.12h-1.58l-.55.45-.38.6-.18.94.07,1.18-.17.77-.1.82.27.81-.17.82.28.82-.23.41.22.41-.1.82.85.7.78.53.33.12.58.07,1.35-.22.37-.29-.02-.53.47-.05.28-.67.53-.86.15-.7v-1.16l.37-.46Z"/><path class="f" d="M128.53,114.64l-.45.41h-.85l-.4-.12-.68-.17-.47-.34h-.67l-.92-.07-1.03.07-.5-.12-.35-.36.12-.39.35-.41.73-.19.45-.22.28-.29-.12-.7-.1-1.64.17-.34v-.53l-.17-.46.1-.89-.1-1.86-.12-.92v-.65l-.4-.29v-.41l-.12-.24-.17-.29-.17-.34h-.8l-.52-.12-.57-.12-.28.29-.52-.05-.45.17h-.63l-.45.46-.12.41-.05.36v.92l-.17.82.17,1.93.12.22.05.53-.23.65.35.51-.17.31.1.39.07,1.81.12.41.4.12.45.29.4.53-.07.63-.73.12-1.02-.05h-.97l-.68-.12-1.08.17-.63.07-.52-.48-.22-.29v-.63l.33-.29.52-.12.28-.36.35-.05-.07-.41.12-.82-.17-.34.45-.82-.28-.41.17-.29v-.87l-.22-.7-.18-.36.12-.46.23-.36.05-.75-.17-.82.23-.51-.35-.6-.8-.63-.78-.41-.63-.12-.68.07-.96.17-.52.53-.22.75-.52,1.28.12,1.4.05.87-.05.77-.17.34.22.41v.99l-.22.29.38.7.07.99h.52l.28.41.45.58.23.82-.47.17-.85.29-1.2.12-.96-.24-1.65-.22-.62-.19-.28-.22v-.53l.45-.34.12-.6.23-.51.17-1.11.17-.58.23-.24-.23-.24v-.39l.4-1.01-.23-.34v-.87l.12-.29-.23-.24.12-1.33v-.36l-.4-.46-.33-.41-.17-.53-.07-.53-.12-.34v-.53l.28-.46.23-.36.4-.17.17-.29.63-.05h.62l.63-.41h.57l.35.41.17.34.28.36.45.17.45-.24.8-.29h1.13l.4-.29.63-.05.73.17.4.05.63.36.4.12.4.29.38.58.68.41.18-.24.45-.17.52-.36.4-.46.62-.12.57-.34.75-.07.45-.17h1.42l.92.24.62.58.58.34.67.94.23.58.12.46-.17.24-.12.94-.12.34.12.24v.46l.05,1.57.23.29.12.53v.7l-.17.46.17.36v1.16l.12,1.28.45.41.45.65.28.75.12.46Z"/><path class="f" d="M135.59,113.6l-.27.7-.68.26-.77-.08-.77.08-.93-.34-.6.34-.6.36h-.85l-.6-.53-.25-.53.08-.79.77-.08.68-.7.17-1.04.08-1.06-.25-.79.33-.26v-.62l.35-.45-.35-.43-.25-1.49.08-1.06-.68-.26-.85-.44-.08-.79.42-.62.52-.17.6-.17.43-.79.68.09.68-.09.85-.27.5.27.18.62-.08.62-.35.87.25.34.1.7-.18.87-.08.79v2.46l-.08.96.35.62-.18.62.18.34.25.79.68.62.52.53ZM134.91,95.23l-.52.51-.52.44-.85-.08-.68-.44-.52-.62v-.79l.35-.7.85-.26.85.26.43.27v.34l.52.27.08.79Z"/><path class="f" d="M145.63,110.01l-.22,1.28v.94l-.35.75-.57.75-.8.36-.57.12-.33.41-.8.05-1.3.17-.52-.17-1.25-.05-.57-.24-.52-.12-.45-.7-.23-.75-.23-.53-.05-.75.17-.65.35-.22.33-.31.17.12h.47l.45.58.28.36.23.46.22.53.47.05.5.48.68.1.47.36.62-.05.28-.82.28-.36.07-1.11.1-.29-.33-.34v-.41l-.4-.12-.92-.53-.78-.17-1.2-.53-.68-.46-.52-.41-.4-.29-.33-.7-.12-.58-.12-.53-.22-.29-.07-.7.12-.75.45-.82v-.41l.47-.34v-.36l.57-.58.33-.05.68-.46.4-.31.85-.05h.87l.62.24.68.05.52.07.17.22.52.41.45.36.23.75.28.75-.12.82-.52.53-.52.22-.62-.17-.57-.46-.45-.46-.18-.48-.5-.46-.63-.29-.33-.17-.35.17h-.33l-.23.53-.17.58.17.41.17.75.45.65.58.29.5.17.63.29,1.25.46.45.24.52.58.63.53.38,1.21.28.65Z"/><path class="f" d="M155.8,110.01l-.22,1.28v.94l-.35.75-.57.75-.8.36-.57.12-.33.41-.8.05-1.3.17-.52-.17-1.25-.05-.57-.24-.52-.12-.45-.7-.23-.75-.23-.53-.05-.75.17-.65.35-.22.33-.31.17.12h.47l.45.58.28.36.23.46.22.53.47.05.5.48.68.1.47.36.62-.05.28-.82.28-.36.07-1.11.1-.29-.33-.34v-.41l-.4-.12-.92-.53-.78-.17-1.2-.53-.68-.46-.52-.41-.4-.29-.33-.7-.12-.58-.12-.53-.22-.29-.07-.7.12-.75.45-.82v-.41l.47-.34v-.36l.57-.58.33-.05.68-.46.4-.31.85-.05h.87l.62.24.68.05.52.07.17.22.52.41.45.36.23.75.28.75-.12.82-.52.53-.52.22-.62-.17-.57-.46-.45-.46-.18-.48-.5-.46-.63-.29-.33-.17-.35.17h-.33l-.23.53-.17.58.17.41.17.75.45.65.58.29.5.17.63.29,1.25.46.45.24.52.58.63.53.38,1.21.28.65Z"/><path class="f" d="M163.26,113.6l-.27.7-.68.26-.77-.08-.77.08-.93-.34-.6.34-.6.36h-.85l-.6-.53-.25-.53.08-.79.77-.08.68-.7.17-1.04.08-1.06-.25-.79.33-.26v-.62l.35-.45-.35-.43-.25-1.49.08-1.06-.68-.26-.85-.44-.08-.79.42-.62.52-.17.6-.17.43-.79.68.09.68-.09.85-.27.5.27.18.62-.08.62-.35.87.25.34.1.7-.18.87-.08.79v2.46l-.08.96.35.62-.18.62.18.34.25.79.68.62.52.53ZM162.57,95.23l-.52.51-.52.44-.85-.08-.68-.44-.52-.62v-.79l.35-.7.85-.26.85.26.43.27v.34l.52.27.08.79Z"/><path class="f" d="M169.9,114.09l-.47.24-.57.05-.33-.24-.8.19-.12.05-.4.05-.28-.1-.22.05h-.92l-.4-.17-.23.12-.22.29h-.52l-.63-.12-.28-.36-.05-.41.45-.46.63-.29.62-.24-.1-4.02.17-.46-.12-.19v-2.44l.23-.24.05-.46-.57-1.04.23-.19-.18-.75v-.58l-.05-.46.28-.24-.17-.94-.28-.34.33-.41.07-.82-.18-.58-.05-.29.17-1.11.23-.24-.07-.7-.33-.58-.07-1.21-.38-.24v-.34h-.52l-.28-.31-.23-.29.07-.41.22-.34.52-.34.4-.31.45-.22.63-.17,1.08.17.45.17.28.41.17.7-.05.41-.18.17.23,1.4.17.34-.22.48.22.17-.22.34.17.19.05,1.21-.17.12-.12.7.23.24-.28.7v1.11l.33.7v.34l-.28.7v.94l.35.58v.46l-.17.29-.07.94.17.29-.17.58.12.53.12,2.44.12.46-.18.12-.05.65.4.82.12.68.17.24.33.17.52.36.4.17.23.46v.65Z"/><path class="f" d="M181.4,112.16l-.4.56.1.29-.48.29h-.23l-.23.34-.45.44-.45-.05-.27.29h-.22l-.38.36h-1.3l-1.37-.12-.72-.12-.45-.11-.28-.3-.55-.27-.62-.41-.12-.34-.33-.24-.08-.5-.32-.29v-.29l-.4-.32-.37-.58-.28-.55-.1-1.23.23-.26v-.29l-.13-.39-.1-.58.23-.55.15-1.61.28-.65.08-.84.42-.21.12-.38-.05-.29.42-.33.23-.36.03-.38.53-.55h.32l.23-.15.45-.14.37-.17.35-.31.4-.26.5-.08h1.71l.65.21.53.31.57.36.52.38.28.62.37.67.3.46.17.78.05.46-.05.65-.07.5-.22.21-.6-.07-.07.21h-1.25l-.13-.21-.72.07h-1.13l-1.17.08-.48-.15-1.61.07v.41l-.2.19-.07,1.33.27.57.28.41.33.5.27.47.08.59.37.5.22.17.12.33.57.16.27.09.32.22h.73l.12.22h.45l.4.27.32-.27h1.17l.33-.47.47-.18.78.56v.22ZM178.22,103.58l-.23-.32-.33-.37-.17-.47-.27-.05-.45-.2-.28-.12h-.88l-.33.26-.55.36-.17.38-.28.41v.46l.45.15h.77l.47.14.65-.05.77.05.32-.14.25-.24.28-.25Z"/><path class="f" d="M191.89,110.01l-.22,1.28v.94l-.35.75-.57.75-.8.36-.57.12-.33.41-.8.05-1.3.17-.52-.17-1.25-.05-.57-.24-.52-.12-.45-.7-.23-.75-.23-.53-.05-.75.17-.65.35-.22.33-.31.17.12h.47l.45.58.28.36.23.46.22.53.47.05.5.48.68.1.47.36.62-.05.28-.82.28-.36.07-1.11.1-.29-.33-.34v-.41l-.4-.12-.92-.53-.78-.17-1.2-.53-.68-.46-.52-.41-.4-.29-.33-.7-.12-.58-.12-.53-.22-.29-.07-.7.12-.75.45-.82v-.41l.47-.34v-.36l.57-.58.33-.05.68-.46.4-.31.85-.05h.87l.62.24.68.05.52.07.17.22.52.41.45.36.23.75.28.75-.12.82-.52.53-.52.22-.62-.17-.57-.46-.45-.46-.18-.48-.5-.46-.63-.29-.33-.17-.35.17h-.33l-.23.53-.17.58.17.41.17.75.45.65.58.29.5.17.63.29,1.25.46.45.24.52.58.63.53.38,1.21.28.65Z"/></g></g></svg>