<?xml version="1.0" encoding="UTF-8"?><svg id="b" xmlns="http://www.w3.org/2000/svg" viewBox="0 0 174.48 175.75"><defs><style>.f{fill:#220d0d;}</style></defs><g id="c"><g id="d"><path class="f" d="M34.52,28.4c.34-4.62-2.6-7.74-4.45-11.33-1.45-2.82-1.39-3.59,1.36-5.21,1.36-.8,3.07-1.47,4.6-1.43,6.16.18,12.48-.31,18.01-2.43,8.55-3.28,17.29-2.25,25.92-3.26,1.29-.15,2.55-.6,3.83-.91,1.75-.42,3.49-.86,5.24-1.23,1.12-.24,2.59,0,3.35-.64,3.19-2.69,6.94-1.7,10.5-1.95,1.86-.13,2.99.61,3.6,2.61.76,2.5,1.94,4.88,3.11,7.23,1.18,2.38.9,3.91-1.63,4.56-3.95,1.02-7.69,3.19-12.03,2.46-1.12-.19-2.32.02-3.48.12-3.63.33-4.26.93-4.41,4.58-.1,2.48-.04,4.98.03,7.46.06,2.17,1.25,3.45,3.43,3.42,3.21-.03,6.36.66,9.2-2.35,1.27-1.35,4.6-.99,7-.97,1.78.02,3.53.96,5.33,1.1,2.39.19,4.77-.13,5.5-3.06.65-2.6,2.68-2.62,4.71-2.6,1.83.02,3.76-.08,4.31,2.37.14.62.42,1.57.86,1.71,4.15,1.35,3.32,4.75,3.32,7.8,0,4.15-.05,8.29-.04,12.44,0,2.51-1.22,3.59-3.7,3.51-3.15-.1-6.3-.09-9.46-.14-2.51-.04-5.05-.19-6.33,3.05-.97-.81-1.51-1.41-2.18-1.81-2.92-1.75-4.02-1.24-4.87,1.99-.5,1.91-1.22,3.76-1.84,5.63-.11.31-.18.72-.4.9-3.91,3.1-7.78,6.36-12.72,7.6-2.03.51-4.32.28-6.44.01-1.53-.19-3.06-.86-4.46-1.57-1.32-.67-2.35-1.97-3.7-2.48-2.81-1.06-4.75-2.71-5.9-5.56-.41-1.02-1.85-1.62-2.81-2.41-.73.98-1.72,1.87-2.15,2.97-2.49,6.35-7.2,9.29-13.88,9.09-3.72-.11-7.56.8-11.01-1.87-2.56-1.99-5.97-2.87-6.33-6.98-.26-2.99-1.1-5.93-1.8-9.48-1.19.65-3,1.33-4.39,2.5-1.43,1.2-2.48,2.79-4.68.44,3.56-2.5,4.06-7.48,8.6-9.17,1.13-.42,1.74-2.33,2.49-3.62,1.66-2.85,3-5.88,6.16-7.6.73-.4,1.4-2.19,1.09-2.89-.42-.95-1.73-1.67-2.82-2.12-1-.41-2.2-.33-3.62-.5ZM103.36,2.69c1-.17,1.99-.33,2.99-.5"/></g><g id="e"><path class="f" d="M22.04,122.4l-.45.41h-.85l-.4-.12-.68-.17-.47-.34h-.67l-.92-.07-1.03.07-.5-.12-.35-.36.12-.39.35-.41.73-.19.45-.22.28-.29-.12-.7-.1-1.64.17-.34v-.53l-.17-.46.1-.89-.1-1.86-.12-.92v-.65l-.4-.29v-.41l-.12-.24-.17-.29-.17-.34h-.8l-.52-.12-.57-.12-.28.29-.52-.05-.45.17h-.63l-.45.46-.12.41-.05.36v.92l-.17.82.17,1.93.12.22.05.53-.23.65.35.51-.17.31.1.39.07,1.81.12.41.4.12.45.29.4.53-.07.63-.73.12-1.02-.05h-.97l-.68-.12-1.08.17-.63.07-.52-.48-.22-.29v-.63l.33-.29.52-.12.28-.36.35-.05-.07-.41.12-.82-.17-.34.45-.82-.28-.41.17-.29v-.87l-.22-.7-.18-.36.12-.46.23-.36.05-.75-.17-.82.23-.51-.35-.6-.8-.63-.78-.41-.63-.12-.68.07-.96.17-.52.53-.22.75-.52,1.28.12,1.4.05.87-.05.77-.17.34.22.41v.99l-.22.29.38.7.07.99h.52l.28.41.45.58.23.82-.47.17-.85.29-1.2.12-.96-.24-1.65-.22-.62-.19-.28-.22v-.53l.45-.34.12-.6.23-.51.17-1.11.17-.58.23-.24-.23-.24v-.39l.4-1.01-.23-.34v-.87l.12-.29-.23-.24.12-1.33v-.36l-.4-.46-.33-.41-.17-.53-.07-.53-.12-.34v-.53l.28-.46.23-.36.4-.17.17-.29.63-.05h.62l.63-.41h.57l.35.41.17.34.28.36.45.17.45-.24.8-.29h1.13l.4-.29.63-.05.73.17.4.05.63.36.4.12.4.29.38.58.68.41.18-.24.45-.17.52-.36.4-.46.62-.12.57-.34.75-.07.45-.17h1.42l.92.24.62.58.58.34.67.94.23.58.12.46-.17.24-.12.94-.12.34.12.24v.46l.05,1.57.23.29.12.53v.7l-.17.46.17.36v1.16l.12,1.28.45.41.45.65.28.75.12.46Z"/><path class="f" d="M35.91,120.5l-.28.89-.28.34-.62.17-.47.25-.45.12-.73.18h-.52l-.35-.42-.1-.59-.18-.29-.28-.29-.5.34-.23.41-.85.29h-.57l-.63.41-.33-.22-.23.22h-.68l-.57-.12-.92-.34-.52-.24-.38-.05.05-.36-.4-.29-.33-.29-.35-.63v-1.18l-.23-.22.07-.94.12-.17.05-.7-.05-.58-.12-.46.17-.36-.23-.24.12-2.44-.17-.7-.12-1.04-.28-.36-.52-.29-.62-.29.05-.41.12-.58.4-.29,1.42-.05.52-.19.4-.12h.8l.57.24.57.53.05.34-.1.77-.23.12-.05.63.17.94-.28.17v.75l.22.36.12.82-.28.75-.05.82-.23.34.05.58.07,1.47.33.29v.58l.18.46.57.29.4.24.5-.07.92.12.62-.22.8.1.75-.87v-.34l.33-.24.12-.41-.17-.46.17-.53-.17-.41.17-.34v-.29l-.12-.7v-.77l.17-.63.07-.58-.07-1.81-.1-.29-.47-.41-.5-.12-.18.17-.5-.17-.3-.29-.38-.29-.07-.46-.22-.48.38-.39.63-.31.12.31.45-.07.63.24.33-.24.52-.05.73.05.17-.24.63-.1.28.46.23.17.33.29v.7l-.12,1.35-.17.22.07.53.17.17-.23.36v2.56l-.12.34.18.31v1.04l-.12.34.12.31-.18.51.18.29v.89l.22.17.17.41h.35l.28.22v.36l.17.22Z"/><path class="f" d="M42.4,121.85l-.47.24-.57.05-.33-.24-.8.19-.12.05-.4.05-.28-.1-.22.05h-.92l-.4-.17-.23.12-.22.29h-.52l-.63-.12-.28-.36-.05-.41.45-.46.63-.29.62-.24-.1-4.02.17-.46-.12-.19v-2.44l.23-.24.05-.46-.57-1.04.23-.19-.18-.75v-.58l-.05-.46.28-.24-.17-.94-.28-.34.33-.41.07-.82-.18-.58-.05-.29.17-1.11.23-.24-.07-.7-.33-.58-.07-1.21-.38-.24v-.34h-.52l-.28-.31-.23-.29.07-.41.22-.34.52-.34.4-.31.45-.22.63-.17,1.08.17.45.17.28.41.17.7-.05.41-.18.17.23,1.4.17.34-.22.48.22.17-.22.34.17.19.05,1.21-.17.12-.12.7.23.24-.28.7v1.11l.33.7v.34l-.28.7v.94l.35.58v.46l-.17.29-.07.94.17.29-.17.58.12.53.12,2.44.12.46-.18.12-.05.65.4.82.12.68.17.24.33.17.52.36.4.17.23.46v.65Z"/><path class="f" d="M52.78,120.11l-.05.68-.63.73-.82.67h-.72l-.55.27-.62.05-.6.17-.88-.05-.9-.17-.67-.5-.48-.38-.48-.19v-.5l-.05-.55-.25-.94.13-.43-.25-.36.12-1.04-.18-.99.12-.68-.33-2.41-.2-.56.05-.46.32-.38-.17-.26-.08-.97-.07-.7-.17-.41-.37-.21-.47-.1-.25-.24-.05-.87.3-.17.35-.27.37-.29.35-.33.3-.29v-.21l.55-.41.22-.63.38-.74.25-.67.4-.38.32-.24h.17l.32.5.05.24-.25.12v.5l.25.31.05.5-.22.41-.08.32.37.17.9.07h1.03l.82-.07.15.27h.23l.1-.15.55-.12.2.33.45.12.05.32.2.22-.17.73-.08.21-.05.34-.4.07v.33l-.68.22h-1.68l-.33-.22h-.43l-.48.17-.32.26-.28.5-.05.36h.17v.75l-.05,1.23h-.2v.29l.48.55-.07.56-.17.31-.25.32v1.57l.12.27.36.29-.12,1.25.12,1.16.3.36.43.14h.43l.22-.19.67.5.25-.31h.6l.28-.38.6-.05.42-.5.43.24.32.38.05.62Z"/><path class="f" d="M59.4,121.36l-.27.7-.68.26-.77-.08-.77.08-.93-.34-.6.34-.6.36h-.85l-.6-.53-.25-.53.08-.79.77-.08.68-.7.17-1.04.08-1.06-.25-.79.33-.26v-.62l.35-.45-.35-.43-.25-1.49.08-1.06-.68-.26-.85-.44-.08-.79.42-.62.52-.17.6-.17.43-.79.68.09.68-.09.85-.27.5.27.18.62-.08.62-.35.87.25.34.1.7-.18.87-.08.79v2.46l-.08.96.35.62-.18.62.18.34.25.79.68.62.52.53ZM58.72,102.98l-.52.51-.52.44-.85-.08-.68-.44-.52-.62v-.79l.35-.7.85-.26.85.26.43.27v.34l.52.27.08.79Z"/><path class="f" d="M73.3,115.97l-.23.79-.52,1.5-.3,1.33-.65.77-.52.05-.43.51-.78.46-.82.41-.87.17-1.07.27-1.26-.07-.73-.12-.52-.17.07,1.63.23.69-.15.55.28,1-.52.46.28,1.58.1.77.05,1.73.85.62.57.28.45.23.12.39.05.79-.35.21-1.58.21-.3-.22-.9.05-.35.24-1.18-.17-.8.27-1.08.07-.68-.21-.45-.33v-.58l.18-.72.4-.6.45.14,1.08-.05-.05-1.16.12-.94.07-1.93.3-.41-.3-.7.19-1.4.17-.75-.37-2.39.19-1.57.11-1.19-.23-.56.18-.89-.32-.73.15-.53-.08-.7.11-.87.11-.78-.22-.56-.18-1.74-.68-.08-.57-.39-.28-.65.23-.62.42-.66.57-.21.62-.16.97-.17.34-.31h.67l.37.51.4.39.1.58.68-.22.23-.19.47-.67h.8l.45-.26.85-.09,1.65.07.35.36.6.36.42.21.17.36.73.55v.53l.45.77.3.27-.13.53.23.53-.25.53.42.51.17,2.05.2.44ZM70.57,115.96l-.07-1.39-.13-1.16-.47-.5-.15-.46-.3-.39-.4-.26-.73-.55-.52-.51-.65-.12h-1.58l-.55.45-.38.6-.18.94.07,1.18-.17.77-.1.82.27.81-.17.82.28.82-.23.41.22.41-.1.82.85.7.78.53.33.12.58.07,1.35-.22.37-.29-.02-.53.47-.05.28-.67.53-.86.15-.7v-1.16l.37-.46Z"/><path class="f" d="M80.19,121.85l-.47.24-.57.05-.33-.24-.8.19-.12.05-.4.05-.28-.1-.22.05h-.92l-.4-.17-.23.12-.22.29h-.52l-.63-.12-.28-.36-.05-.41.45-.46.63-.29.62-.24-.1-4.02.17-.46-.12-.19v-2.44l.23-.24.05-.46-.57-1.04.23-.19-.18-.75v-.58l-.05-.46.28-.24-.17-.94-.28-.34.33-.41.07-.82-.18-.58-.05-.29.17-1.11.23-.24-.07-.7-.33-.58-.07-1.21-.38-.24v-.34h-.52l-.28-.31-.23-.29.07-.41.22-.34.52-.34.4-.31.45-.22.63-.17,1.08.17.45.17.28.41.17.7-.05.41-.18.17.23,1.4.17.34-.22.48.22.17-.22.34.17.19.05,1.21-.17.12-.12.7.23.24-.28.7v1.11l.33.7v.34l-.28.7v.94l.35.58v.46l-.17.29-.07.94.17.29-.17.58.12.53.12,2.44.12.46-.18.12-.05.65.4.82.12.68.17.24.33.17.52.36.4.17.23.46v.65Z"/><path class="f" d="M91.7,119.92l-.4.56.1.29-.48.29h-.23l-.23.34-.45.44-.45-.05-.27.29h-.22l-.38.36h-1.3l-1.37-.12-.72-.12-.45-.11-.28-.3-.55-.27-.62-.41-.12-.34-.33-.24-.08-.5-.32-.29v-.29l-.4-.32-.37-.58-.28-.55-.1-1.23.23-.26v-.29l-.13-.39-.1-.58.23-.55.15-1.61.28-.65.08-.84.42-.21.12-.38-.05-.29.42-.33.23-.36.03-.38.53-.55h.32l.23-.15.45-.14.37-.17.35-.31.4-.26.5-.08h1.71l.65.21.53.31.57.36.52.38.28.62.37.67.3.46.17.78.05.46-.05.65-.07.5-.22.21-.6-.07-.07.21h-1.25l-.13-.21-.72.07h-1.13l-1.17.08-.48-.15-1.61.07v.41l-.2.19-.07,1.33.27.57.28.41.33.5.27.47.08.59.37.5.22.17.12.33.57.16.27.09.32.22h.73l.12.22h.45l.4.27.32-.27h1.17l.33-.47.47-.18.78.56v.22ZM88.52,111.33l-.23-.32-.33-.37-.17-.47-.27-.05-.45-.2-.28-.12h-.88l-.33.26-.55.36-.17.38-.28.41v.46l.45.15h.77l.47.14.65-.05.77.05.32-.14.25-.24.28-.25Z"/><path class="f" d="M103.91,121.85l-.47.24-.57.05-.33-.24-.8.19-.12.05-.4.05-.28-.1-.22.05h-.92l-.4-.17-.23.12-.22.29h-.52l-.63-.12-.28-.36-.05-.41.45-.46.63-.29.62-.24-.1-4.02.17-.46-.12-.19v-2.44l.23-.24.05-.46-.57-1.04.23-.19-.18-.75v-.58l-.05-.46.28-.24-.17-.94-.28-.34.33-.41.07-.82-.18-.58-.05-.29.17-1.11.23-.24-.07-.7-.33-.58-.07-1.21-.38-.24v-.34h-.52l-.28-.31-.23-.29.07-.41.22-.34.52-.34.4-.31.45-.22.63-.17,1.08.17.45.17.28.41.17.7-.05.41-.18.17.23,1.4.17.34-.22.48.22.17-.22.34.17.19.05,1.21-.17.12-.12.7.23.24-.28.7v1.11l.33.7v.34l-.28.7v.94l.35.58v.46l-.17.29-.07.94.17.29-.17.58.12.53.12,2.44.12.46-.18.12-.05.65.4.82.12.68.17.24.33.17.52.36.4.17.23.46v.65Z"/><path class="f" d="M116.77,119.12c-.03.06-.05.15-.05.29v.55c0,.08,0,.14-.02.17s-.03.06-.07.08c-.09.07-.14.12-.17.15-.18.33-.31.58-.4.73-.17.3-.34.52-.53.67-.25.21-.42.33-.5.36-.08.04-.19.05-.33.05-.12,0-.28-.04-.46-.14-.19-.09-.33-.14-.43-.14h-.43c-.09.07-.16.1-.22.1-.01,0-.07-.03-.17-.09s-.24-.09-.43-.09c-.07-.07-.11-.12-.13-.15-.1-.11-.16-.18-.18-.19-.21-.11-.4-.3-.56-.55-.24-.38-.4-.6-.48-.68-.04.26-.27.51-.68.75-.32.18-.64.36-.96.53-.27.18-.53.36-.8.53-.27.17-.56.26-.88.26l-.65-.26c-.12-.04-.27-.09-.44-.14-.17-.04-.32-.08-.44-.11s-.21-.06-.25-.09c-.14-.09-.22-.14-.23-.15-.19-.14-.31-.28-.37-.44-.04-.35-.11-.66-.2-.92-.02-.08-.09-.22-.22-.44-.12-.21-.18-.4-.18-.56,0-.52.15-1.07.46-1.65.31-.58.67-.99,1.11-1.24l.65-.03c.05-.01.12-.05.21-.12.08-.07.17-.15.27-.24.24-.11.67-.18,1.28-.21.61-.03,1-.06,1.18-.09.18-.03.33-.08.47-.14.28-.14.45-.21.51-.23.06-.02.13-.05.22-.09.08-.04.14-.1.17-.15.03-.06.08-.1.15-.14s.09-.07.08-.12l-.05-2.02v-1.08c-.12-.33-.25-.54-.38-.62-.23-.08-.47-.17-.7-.27-.34-.15-.64-.22-.9-.22-.14,0-.28,0-.39.03-.12.02-.25.04-.39.06,0,.07-.05.12-.14.15-.25.08-.38.14-.41.18-.03.04-.06.07-.11.09-.05.02-.08.06-.1.1-.06.09-.1.23-.1.41,0,.08.01.2.03.36.02.16.03.29.03.38,0,.17-.03.3-.1.39-.16.24-.35.43-.57.57s-.47.21-.73.21c-.15,0-.26,0-.35-.02-.34-.04-.53-.07-.57-.07,0-.15-.07-.3-.2-.44-.13-.15-.2-.3-.2-.46,0-.39.09-.71.26-.98.17-.27.35-.53.52-.79.13-.25.31-.47.53-.67.31-.24.55-.43.72-.56.1-.08.19-.17.28-.27.09-.1.16-.18.22-.24.11-.11.25-.18.42-.21.17-.02.35-.05.52-.07.08-.02.17-.09.27-.2.1-.11.19-.18.27-.21.04-.01.11-.01.21,0,.09.01.17.01.22,0,.14-.04.28-.06.4-.08.12-.02.24-.03.37-.03.21,0,.46.07.73.21s.54.27.8.39c.2.06.4.11.6.15.28.13.53.36.77.7.17.25.33.58.48.99v1.62c.02.1.08.31.17.62.09.31.14.54.14.7,0,.18-.04.46-.13.82-.09.37-.13.65-.13.85,0,.11.02.26.07.44.05.18.08.3.08.36l-.2.21c-.03.1-.05.19-.05.26.02.16.04.29.05.39v.96c-.08.1-.12.2-.12.29s.03.31.08.65c.02.14.03.28.03.43l.13.03c.09,0,.18,0,.28-.03.1-.02.16-.03.18-.03.1,0,.19.06.28.17l.02-.17h.47c.21,0,.34,0,.38-.03.04-.02.08-.1.12-.25h.15c.08.02.2.04.37.05.17.01.32.06.47.14ZM111.56,118.26v-1.9c-.07.01-.17.02-.3.02-.22-.01-.39-.02-.52-.02-.14,0-.3.03-.47.08-.51.18-.85.28-1.02.3-.17.02-.45.14-.82.37-.47.29-.7.58-.7.89s.08.64.22.98c.15.35.34.58.57.71.17.03.33.07.5.1.04.02.09.05.13.09s.09.06.13.06c.24,0,.44-.03.6-.1.2-.11.37-.21.5-.27.34-.16.6-.33.77-.5.23-.22.37-.49.4-.82Z"/><path class="f" d="M129,120.5l-.28.89-.28.34-.62.17-.47.25-.45.12-.73.18h-.52l-.35-.42-.1-.59-.18-.29-.28-.29-.5.34-.23.41-.85.29h-.57l-.63.41-.33-.22-.23.22h-.68l-.57-.12-.92-.34-.52-.24-.38-.05.05-.36-.4-.29-.33-.29-.35-.63v-1.18l-.23-.22.07-.94.12-.17.05-.7-.05-.58-.12-.46.17-.36-.23-.24.12-2.44-.17-.7-.12-1.04-.28-.36-.52-.29-.62-.29.05-.41.12-.58.4-.29,1.42-.05.52-.19.4-.12h.8l.57.24.57.53.05.34-.1.77-.23.12-.05.63.17.94-.28.17v.75l.22.36.12.82-.28.75-.05.82-.23.34.05.58.07,1.47.33.29v.58l.18.46.57.29.4.24.5-.07.92.12.62-.22.8.1.75-.87v-.34l.33-.24.12-.41-.17-.46.17-.53-.17-.41.17-.34v-.29l-.12-.7v-.77l.17-.63.07-.58-.07-1.81-.1-.29-.47-.41-.5-.12-.18.17-.5-.17-.3-.29-.38-.29-.07-.46-.22-.48.38-.39.63-.31.12.31.45-.07.63.24.33-.24.52-.05.73.05.17-.24.63-.1.28.46.23.17.33.29v.7l-.12,1.35-.17.22.07.53.17.17-.23.36v2.56l-.12.34.18.31v1.04l-.12.34.12.31-.18.51.18.29v.89l.22.17.17.41h.35l.28.22v.36l.17.22Z"/><path class="f" d="M143.45,121.32l-.23.65-.4.22-.97.07-.4-.24h-.8l-.28.17h-.68l-.68-.17-.5.24-.47-.24-.4-.34-.17-.53.23-.46.4-.12.68-.17.22-.24-.05-.41.17-.29-.05-1.4v-.94l.12-.39-.07-2.75-.17-.34.17-.82-.12-.53-.28-.34-.33-.19-.52-.58-.63-.17-.73-.17-.45-.24-.52.24-.28.46-.52.36-.45.39-.28.31-.17.34.05,2.92-.17.29v2.85l.23.24-.07.92.28.36.35.22.73-.05.23.29.17.41-.35.7-.5.05-.63.29-.9-.05-.58.25-.85.05-.73-.12-.4-.12-.45-.17-.12-.58.12-.24.33-.75.28-.41.35-.24-.07-3.78.18-.19.05-.41-.23-.34-.05-.53.23-.29v-1.87l-.75-.82-.28-.46-.28-.24.05-.7.18-.29.28-.22.4-.19.4-.12.05-.22.4-.24.28-.12.52-.05.38-.24.47-.05.52.46.38.36.07.46.52.12.22-.36.47-.29.67-.29.52-.29.57-.12.47-.17h.5l.52.24.35-.19.33.41.52.48.28-.07.45.17.4.24.05.29.4.48.57.75.18.7-.23.34.28.48-.05,2.27-.35.87-.05,1.16.22.41.07.82-.28.46-.07.48.12.39.28.48.4.22.45.29.3.24v.58Z"/><path class="f" d="M155.04,110.76c0,.35-.07.64-.2.85-.13.22-.37.32-.7.32-.47,0-.92-.17-1.36-.51-.52-.4-.91-.63-1.15-.69l-.33-.03c-.1-.03-.18-.06-.23-.07-.22-.06-.4-.08-.53-.08l-.25.28c-.31,0-.59.07-.83.22-.04.02-.09.06-.15.12-.48,0-.84.09-1.08.27-.3.23-.45.6-.45,1.13,0,.19-.03.44-.08.73-.13.72-.2,1.2-.2,1.44,0,.31.01.58.04.8.03.23.09.43.18.62.06.1.12.15.19.15h.08s.03.14.03.31v.57c0,.15.09.37.28.65.14.21.23.33.25.38.07.08.16.21.27.38s.22.31.32.41c.21.21.58.36,1.11.47s.99.16,1.39.16c.66,0,1.2-.12,1.65-.35.54-.29.86-.71.95-1.28.24.09.43.18.57.27.13.09.2.17.2.27,0,.03-.03.09-.08.18-.06.09-.08.15-.08.18l-.27,1.25c-.61.57-1.22,1.14-1.83,1.7-.61.39-1.3.58-2.08.58s-1.41-.15-2.01-.46c-.59-.31-1.13-.76-1.61-1.35-.11-.14-.23-.33-.35-.57-.12-.25-.23-.43-.33-.56-.37-.47-.56-.72-.58-.77-.08-.13-.17-.33-.27-.62-.06-.15-.11-.3-.17-.46-.06-.22-.14-.39-.24-.51-.11-.13-.16-.3-.16-.53,0-.12,0-.24.02-.33.02-.1.03-.2.03-.32l-.05-1.4c0-.19.1-.41.31-.65.21-.24.33-.43.38-.56.14-.51.45-1.18.93-2,.34-.59.56-.98.65-1.16.09-.06.23-.17.42-.32.19-.16.36-.29.49-.38.24-.16.61-.34,1.1-.53.72-.29,1.12-.44,1.19-.48s.19-.05.34-.05c.11,0,.31.02.6.07.29.05.52.07.68.07.84,0,1.53.15,2.05.46.64.38.97.96.97,1.74Z"/><path class="f" d="M167.46,119.29l.45.46h.23l.33.36.28.46v.41l.12.58-.17.46-.73.17-.75.07-.33.34-.23-.05-.4-.36-.23-.17h-1.42l-.62.12h-.75l-.4-.05-.17-.24-.28-.36-.12-.39.23-.36.28-.24.68-.05.4-.12.28-.29.17-.12.23-.29-.12-1.45-.12-.24v-.17l.23-.17-.07-1.47-.33-.87v-.34l.17-.12.05-.53-.17-.41v-2.15l-.45-.7-.4-.58-.05-.36h-.28l-.35-.17-.45-.17-.97-.05-.47.1-.85.6h-.28l-.12.29-.4.58.07.41-.12.17v.92l-.17.12v.7l.18.41.04,4.25.2,1.52.21.29.35.17.44.19.17.46.18.46-.23.58-.35.19-.5.17h-.75l-.22-.24-.75.12-.73-.12-1.13.07-.4-.19-.28-.34-.12-.41.17-.24-.12-.22.28-.36.47-.34.12-.53.1-.53.35-.12-.12-2.73-.12-.34.17-.31-.17-.34.17-.17-.05-1.81.28-.75-.23-.53-.05-1.06-.05-.46.22-.24-.05-1.45-.17-.99v-.82l-.4-1.5v-2.05l.22-.24-.05-.51-.73-.07-.68-.05-.23-.24-.12-.51.17-.6.35-.29.28-.22.45-.07.52-.12.4-.39.62-.19.63-.29.62-.12h.4l.63.7-.05.58-.18.19.18.17.05.82-.05,1.62-.35.53.05,2.1-.1,2.92h.4l.38-.19.18-.22.45-.12.45-.17,1.08-.48h.4l.73-.29.63-.12.28-.05.85.46.52.36.45.17.4.36.12.39.28.65-.05,1.16.1,1.81.28,1.11-.05,1.04-.17.19.17.22v.41l-.17.24.22.58.23.94.12,1.16.28.41-.17.29Z"/><path class="f" d="M11.14,151.72l-.12.87-.12.46-.52.6v.46l-.5.41-.4-.17-.57-.36-.4-.41-.35-.53-.62-.34-.35.34-.57.19-.52.22-.5.19-.35.58.07,3.5.17,2.79.33.12-.17.77.35.34.38.46.52.29.4.6-.23.75-.28.34-1.3-.17-.45.41-1.32-.05-.4-.24-.45-.05-.28.22-.85.17-.58-.1-.45-.19-.33-.39-.28-.53.17-.77.57-.34.45-.12.52-.24.28-.39.17-.29-.28-.31.07-.63.28-.41v-1.04l.05-.99-.05-1.59.12-1.4-.18-.63-.28-.53-.33-.34-.12-.36-.28-.22.23-.82.17-.24.28-.53.4-.39.33-.36.35-.12.45-.22h.73l.52.05.12.46.33.24.35.7.33.24.28-.31.47-.34.45-.29.57-.29.8-.12.73-.29.63.29.68.53.45.41.23.46Z"/><path class="f" d="M24.69,159.53l-.35.77-.33.63-.23.53-.4.41-.97,1.11.07.17-.47.29v.29l-.33.24-.63.17-.73.05-.52.36-.45-.24-.35.12-.45.05-.45-.17h-.8l-.28.12-.85-.12-.4-.46-.68-.41-.4-.34-.52-.07v-.24l-.57-.39v-.36l-.45-.75-.35-.53-.05-.82-.28-.12.05-.99-.28-.29-.28-.46-.17-.46.05-.53.4-.46v-.48l-.12-.46.23-.41.05-.58.18-.46.1-.36.47-.51.33-.41.35-.07.05-.51.45-.41.12-.24.28-.36.4-.17.4-.34.45-.17.87-.19.4-.17.85.05.73-.05.57.29.75.07.62.29.4.22h.4l.4.53.45.46h.28l.23.41.45.53.12.53.28.51.35.58v.48l.28.58.22.82.07,2.91ZM21.73,158.61l-.28-.65v-1.04l-.12-.77-.28-.63-.12-1.16-.4-.41-.28-.48-.28.07-.22-.53-.52-.12-.45-.34-.57-.17-.47-.12-.5.12-.23.1-.12.36-.45.05-.35.41-.22.29-.35.41-.23.46-.05.36-.33.41.05.75-.28.36.12.63-.07,1.45.18.6.22.51.12.48v.22l.57.41.17.29.28.48.23.22.4.36.4.17.28.41h.28l.35.17h.62l.45-.24.4-.29.35-.41.4-.39.33-.41.12-.48.17-.51.17-.53.12-.65.4-.22Z"/><path class="f" d="M36.19,152.76c0,.35-.07.64-.2.85-.13.22-.37.32-.7.32-.47,0-.92-.17-1.36-.51-.52-.4-.91-.63-1.15-.69l-.33-.03c-.1-.03-.18-.06-.23-.07-.22-.06-.4-.08-.53-.08l-.25.28c-.31,0-.59.07-.83.22-.04.02-.09.06-.15.12-.48,0-.84.09-1.08.27-.3.23-.45.6-.45,1.13,0,.19-.03.44-.08.73-.13.72-.2,1.2-.2,1.44,0,.31.01.58.04.8.03.23.09.43.18.62.06.1.12.15.19.15h.08s.03.14.03.31v.57c0,.15.09.37.28.65.14.21.23.33.25.38.07.08.16.21.27.38s.22.31.32.41c.21.21.58.36,1.11.47s.99.16,1.39.16c.66,0,1.2-.12,1.65-.35.54-.29.86-.71.95-1.28.24.09.43.18.57.27.13.09.2.17.2.27,0,.03-.03.09-.08.18-.06.09-.08.15-.08.18l-.27,1.25c-.61.57-1.22,1.14-1.83,1.7-.61.39-1.3.58-2.08.58s-1.41-.15-2.01-.46c-.59-.31-1.13-.76-1.61-1.35-.11-.14-.23-.33-.35-.57-.12-.25-.23-.43-.33-.56-.37-.47-.56-.72-.58-.77-.08-.13-.17-.33-.27-.62-.06-.15-.11-.3-.17-.46-.06-.22-.14-.39-.24-.51-.11-.13-.16-.3-.16-.53,0-.12,0-.24.02-.33.02-.1.03-.2.03-.32l-.05-1.4c0-.19.1-.41.31-.65.21-.24.33-.43.38-.56.14-.51.45-1.18.93-2,.34-.59.56-.98.65-1.16.09-.06.23-.17.42-.32.19-.16.36-.29.49-.38.24-.16.61-.34,1.1-.53.72-.29,1.12-.44,1.19-.48s.19-.05.34-.05c.11,0,.31.02.6.07.29.05.52.07.68.07.84,0,1.53.15,2.05.46.64.38.97.96.97,1.74Z"/><path class="f" d="M48.95,150.97l-.17.39h-.33l-.3.36-.9.05-.23-.17-.17.17-.57-.05.05.29-.68.36-.22.39-.47.24-.5.41.1.12-.22.29-.28.41-.28.12-.35.39-.28.6-.05.63.28.41.57.46.23.36.22.87.57.75.4.29.12.36.35.58.28.29.33.58.45.29.4.29.75.89.33.05.35.34.17.31-.17.63-.4.41-.57.12-.35-.24-.4-.05-.45.29-.63-.17-.4-.24-.45-.17-.8.17h-1.02l-.35-.12-.45-.46v-.48l.4-.22.4-.29.12-.77-.35-.46v-.58l-.28-.29-.45-.36v-.1l-.23-.53-.4-.53-.28-.41-.33-.22-.4-.24-.52-.24-.22.29-.12,1.11-.18.17.23.31-.17.22v1.06l.28.41.17.46.17.75.3.07.33.39.17.41-.22.41-.4.48-.57-.12-.4-.29-.87.29-.97.05-.78.12-.28.05-.28-.39-.23-.31.12-.7.4-.34.57-.46.17-.99.17-.36v-.41l-.12-.22-.05-.36-.17-.34.22-.19-.05-.58-.12-.29.07-.87.28-.99-.07-.41-.22-.7-.07-.41.17-.75.12-.29v-.58l-.4-.29.12-.82-.33-.17-.12-.24.22-.17-.1-.29v-.48l.1-.22-.1-.19-.07-.92.17-.07v-.75l-.17-.17v-.46l.17-.31-.17-.29-.05-2.79-.52-.19-.52-.17-.5-.58.05-.24.23-.46.5-.29.47-.17.73-.12.28-.17.63-.36.73-.24.4-.05.52.58.22.36.07,1.16-.28,1.04-.07,1.93.18.75.28.6v1.04l-.18.94-.1.34v2.56l-.18.53-.12.58v.53l.23.46.17.58.52-.12.45-.34.28-.41h.8l.52-.53.4-.46-.12-.46-.28-1.11-.4-.53-.33-.46.1-.41.23-.53.4-.17.52-.05,1.08.17.5-.24.75.07.28-.12.85-.07.52.36.28.12.22-.12.47-.12h.45l.45.34v.6Z"/><path class="f" d="M60.13,161.92l-.4.56.1.29-.48.29h-.23l-.23.34-.45.44-.45-.05-.27.29h-.22l-.38.36h-1.3l-1.37-.12-.72-.12-.45-.11-.28-.3-.55-.27-.62-.41-.12-.34-.33-.24-.08-.5-.32-.29v-.29l-.4-.32-.37-.58-.28-.55-.1-1.23.23-.26v-.29l-.13-.39-.1-.58.23-.55.15-1.61.28-.65.08-.84.42-.21.12-.38-.05-.29.42-.33.23-.36.03-.38.53-.55h.32l.23-.15.45-.14.37-.17.35-.31.4-.26.5-.08h1.71l.65.21.53.31.57.36.52.38.28.62.37.67.3.46.17.78.05.46-.05.65-.07.5-.22.21-.6-.07-.07.21h-1.25l-.13-.21-.72.07h-1.13l-1.17.08-.48-.15-1.61.07v.41l-.2.19-.07,1.33.27.57.28.41.33.5.27.47.08.59.37.5.22.17.12.33.57.16.27.09.32.22h.73l.12.22h.45l.4.27.32-.27h1.17l.33-.47.47-.18.78.56v.22ZM56.95,153.33l-.23-.32-.33-.37-.17-.47-.27-.05-.45-.2-.28-.12h-.88l-.33.26-.55.36-.17.38-.28.41v.46l.45.15h.77l.47.14.65-.05.77.05.32-.14.25-.24.28-.25Z"/><path class="f" d="M71.25,162.11l-.05.68-.63.73-.82.67h-.72l-.55.27-.62.05-.6.17-.88-.05-.9-.17-.67-.5-.48-.38-.48-.19v-.5l-.05-.55-.25-.94.13-.43-.25-.36.12-1.04-.18-.99.12-.68-.33-2.41-.2-.56.05-.46.32-.38-.17-.26-.08-.97-.07-.7-.17-.41-.37-.21-.47-.1-.25-.24-.05-.87.3-.17.35-.27.37-.29.35-.33.3-.29v-.21l.55-.41.22-.63.38-.74.25-.67.4-.38.32-.24h.17l.32.5.05.24-.25.12v.5l.25.31.05.5-.22.41-.08.32.37.17.9.07h1.03l.82-.07.15.27h.23l.1-.15.55-.12.2.33.45.12.05.32.2.22-.17.73-.08.21-.05.34-.4.07v.33l-.68.22h-1.68l-.33-.22h-.43l-.48.17-.32.26-.28.5-.05.36h.17v.75l-.05,1.23h-.2v.29l.48.55-.07.56-.17.31-.25.32v1.57l.12.27.36.29-.12,1.25.12,1.16.3.36.43.14h.43l.22-.19.67.5.25-.31h.6l.28-.38.6-.05.42-.5.43.24.32.38.05.62Z"/><path class="f" d="M85.72,159.77l-.22,1.28v.94l-.35.75-.57.75-.8.36-.57.12-.33.41-.8.05-1.3.17-.52-.17-1.25-.05-.57-.24-.52-.12-.45-.7-.23-.75-.23-.53-.05-.75.17-.65.35-.22.33-.31.17.12h.47l.45.58.28.36.23.46.22.53.47.05.5.48.68.1.47.36.62-.05.28-.82.28-.36.07-1.11.1-.29-.33-.34v-.41l-.4-.12-.92-.53-.78-.17-1.2-.53-.68-.46-.52-.41-.4-.29-.33-.7-.12-.58-.12-.53-.22-.29-.07-.7.12-.75.45-.82v-.41l.47-.34v-.36l.57-.58.33-.05.68-.46.4-.31.85-.05h.87l.62.24.68.05.52.07.17.22.52.41.45.36.23.75.28.75-.12.82-.52.53-.52.22-.62-.17-.57-.46-.45-.46-.18-.48-.5-.46-.63-.29-.33-.17-.35.17h-.33l-.23.53-.17.58.17.41.17.75.45.65.58.29.5.17.63.29,1.25.46.45.24.52.58.63.53.38,1.21.28.65Z"/><path class="f" d="M101.07,150.61l-.05.53-.23.53-.57.39-.28.31-.8.99-.23.58-.28.46v.65l-.4.63-.33.41v.58l-.35.94-.28.51-.1.48-.18,1.45-.33.53-.07.53-.28.39-.22.7-.28.99-.12.65-.35.63-.28.6-.5.46.17.82-.52.46-.12.41-.17.17-.17.46-.57.41v.48l-.12.51-.57.53-.07.41-.4.12v.29l-.17.34-.45.53v.53l-.45.53-.23.17-.52.17-.85.34-.8.19-.8-.12-.62-.24-.63-.29-.28-.53-.12-.58.12-.41.12-.46.4-.41.33-.12.28-.17.58-.05.33.29.4.17.68-.12.28-.34.05-.24.28-.24-.1-.29.4-.29.1-.51.23-.19.23-.41.28-.34.12-.41.1-.63.18-.41.4-.19.05-.51.28-.12.35-.36.05-.63.33-.17v-.77l-.22-.46-.28-.46-.07-.48-.22-.58-.07-.7-.12-.53-.17-.29-.28-.29-.23-.41v-.63l-.22-.41-.23-.29-.12-.53-.57-.58-.05-.53-.35-.41v-.58l-.17-.34-.52-.77-.12-.58-.28-.51-.38-.07-.47-.17-.28-.34-.28-.6v-.63l.4-.29.33-.48.52-.05.4.24.57.05.4.24.28-.24.8.24,1.08.05.4.17.28.36-.17.29-.35.53v.92l.28.41.12.87.17.77.17.58.47.58.4.29.22.65.17.7.4.46.4.05.23-.22v-.65l.17-.63.35-.41.05-.65.23-.41v-.58l-.07-.46.35-.77.28-.29v-.87l-.23-.29-.8-.05-.57-.19-.17-.46.05-.58.52-.29.52-.29.68.24h.62l.96-.12.4-.19.52-.29h1.25l.4.29.28.24Z"/><path class="f" d="M109.89,159.77l-.22,1.28v.94l-.35.75-.57.75-.8.36-.57.12-.33.41-.8.05-1.3.17-.52-.17-1.25-.05-.57-.24-.52-.12-.45-.7-.23-.75-.23-.53-.05-.75.17-.65.35-.22.33-.31.17.12h.47l.45.58.28.36.23.46.22.53.47.05.5.48.68.1.47.36.62-.05.28-.82.28-.36.07-1.11.1-.29-.33-.34v-.41l-.4-.12-.92-.53-.78-.17-1.2-.53-.68-.46-.52-.41-.4-.29-.33-.7-.12-.58-.12-.53-.22-.29-.07-.7.12-.75.45-.82v-.41l.47-.34v-.36l.57-.58.33-.05.68-.46.4-.31.85-.05h.87l.62.24.68.05.52.07.17.22.52.41.45.36.23.75.28.75-.12.82-.52.53-.52.22-.62-.17-.57-.46-.45-.46-.18-.48-.5-.46-.63-.29-.33-.17-.35.17h-.33l-.23.53-.17.58.17.41.17.75.45.65.58.29.5.17.63.29,1.25.46.45.24.52.58.63.53.38,1.21.28.65Z"/><path class="f" d="M120.7,162.11l-.05.68-.63.73-.82.67h-.72l-.55.27-.62.05-.6.17-.88-.05-.9-.17-.67-.5-.48-.38-.48-.19v-.5l-.05-.55-.25-.94.13-.43-.25-.36.12-1.04-.18-.99.12-.68-.33-2.41-.2-.56.05-.46.32-.38-.17-.26-.08-.97-.07-.7-.17-.41-.37-.21-.47-.1-.25-.24-.05-.87.3-.17.35-.27.37-.29.35-.33.3-.29v-.21l.55-.41.22-.63.38-.74.25-.67.4-.38.32-.24h.17l.32.5.05.24-.25.12v.5l.25.31.05.5-.22.41-.08.32.37.17.9.07h1.03l.82-.07.15.27h.23l.1-.15.55-.12.2.33.45.12.05.32.2.22-.17.73-.08.21-.05.34-.4.07v.33l-.68.22h-1.68l-.33-.22h-.43l-.48.17-.32.26-.28.5-.05.36h.17v.75l-.05,1.23h-.2v.29l.48.55-.07.56-.17.31-.25.32v1.57l.12.27.36.29-.12,1.25.12,1.16.3.36.43.14h.43l.22-.19.67.5.25-.31h.6l.28-.38.6-.05.42-.5.43.24.32.38.05.62Z"/><path class="f" d="M131.8,161.92l-.4.56.1.29-.48.29h-.23l-.23.34-.45.44-.45-.05-.27.29h-.22l-.38.36h-1.3l-1.37-.12-.72-.12-.45-.11-.28-.3-.55-.27-.62-.41-.12-.34-.33-.24-.08-.5-.32-.29v-.29l-.4-.32-.37-.58-.28-.55-.1-1.23.23-.26v-.29l-.13-.39-.1-.58.23-.55.15-1.61.28-.65.08-.84.42-.21.12-.38-.05-.29.42-.33.23-.36.03-.38.53-.55h.32l.23-.15.45-.14.37-.17.35-.31.4-.26.5-.08h1.71l.65.21.53.31.57.36.52.38.28.62.37.67.3.46.17.78.05.46-.05.65-.07.5-.22.21-.6-.07-.07.21h-1.25l-.13-.21-.72.07h-1.13l-1.17.08-.48-.15-1.61.07v.41l-.2.19-.07,1.33.27.57.28.41.33.5.27.47.08.59.37.5.22.17.12.33.57.16.27.09.32.22h.73l.12.22h.45l.4.27.32-.27h1.17l.33-.47.47-.18.78.56v.22ZM128.62,153.33l-.23-.32-.33-.37-.17-.47-.27-.05-.45-.2-.28-.12h-.88l-.33.26-.55.36-.17.38-.28.41v.46l.45.15h.77l.47.14.65-.05.77.05.32-.14.25-.24.28-.25Z"/><path class="f" d="M155.3,164.4l-.45.41h-.85l-.4-.12-.68-.17-.47-.34h-.67l-.92-.07-1.03.07-.5-.12-.35-.36.12-.39.35-.41.73-.19.45-.22.28-.29-.12-.7-.1-1.64.17-.34v-.53l-.17-.46.1-.89-.1-1.86-.12-.92v-.65l-.4-.29v-.41l-.12-.24-.17-.29-.17-.34h-.8l-.52-.12-.57-.12-.28.29-.52-.05-.45.17h-.63l-.45.46-.12.41-.05.36v.92l-.17.82.17,1.93.12.22.05.53-.23.65.35.51-.17.31.1.39.07,1.81.12.41.4.12.45.29.4.53-.07.63-.73.12-1.02-.05h-.97l-.68-.12-1.08.17-.63.07-.52-.48-.22-.29v-.63l.33-.29.52-.12.28-.36.35-.05-.07-.41.12-.82-.17-.34.45-.82-.28-.41.17-.29v-.87l-.22-.7-.18-.36.12-.46.23-.36.05-.75-.17-.82.23-.51-.35-.6-.8-.63-.78-.41-.63-.12-.68.07-.96.17-.52.53-.22.75-.52,1.28.12,1.4.05.87-.05.77-.17.34.22.41v.99l-.22.29.38.7.07.99h.52l.28.41.45.58.23.82-.47.17-.85.29-1.2.12-.96-.24-1.65-.22-.62-.19-.28-.22v-.53l.45-.34.12-.6.23-.51.17-1.11.17-.58.23-.24-.23-.24v-.39l.4-1.01-.23-.34v-.87l.12-.29-.23-.24.12-1.33v-.36l-.4-.46-.33-.41-.17-.53-.07-.53-.12-.34v-.53l.28-.46.23-.36.4-.17.17-.29.63-.05h.62l.63-.41h.57l.35.41.17.34.28.36.45.17.45-.24.8-.29h1.13l.4-.29.63-.05.73.17.4.05.63.36.4.12.4.29.38.58.68.41.18-.24.45-.17.52-.36.4-.46.62-.12.57-.34.75-.07.45-.17h1.42l.92.24.62.58.58.34.67.94.23.58.12.46-.17.24-.12.94-.12.34.12.24v.46l.05,1.57.23.29.12.53v.7l-.17.46.17.36v1.16l.12,1.28.45.41.45.65.28.75.12.46Z"/></g></g></svg>