<?xml version="1.0" encoding="UTF-8"?><svg id="b" xmlns="http://www.w3.org/2000/svg" viewBox="0 0 209.67 138.47"><defs><style>.f{fill:#220d0d;}</style></defs><g id="c"><g id="d"><path class="f" d="M32.96,18.88c.32,5.39.46,11.67,1.19,17.89.22,1.89,2.04,3.59,3.45,5.91-.68,1.14-1.51,2.73-2.52,4.19-2.58,3.74-5.34,7.35-7.86,11.13-2.57,3.86-1.71,6.77,2.4,8.78.73.36,1.92.34,2.24.89,2.49,4.19,6.6,3.58,10.55,4.09,4.39.57,8.65,2.05,12.99,2.99,11.63,2.49,23.43,2.46,35.19,1.71,3.51-.22,6.88-2.21,10.39-3.1,3.19-.81,6.45-1.52,9.72-1.74,7.09-.48,11.84-4.41,15.53-9.98.56-.85.8-2.34.46-3.28-1.43-3.97-2.68-8.04-5.94-11.1-1.62-1.52-2.85-3.45-4.41-5.4,2.7-1.43,4.83-2.57,6.97-3.7,3.74-1.96,5.34-6.3,3.44-9.99-3.14-6.1-7.35-11.37-13.24-15.02-1.46-.91-3.46-1.25-5.23-1.3-5.09-.14-9.21-2.32-13.08-5.38-1.06-.84-2.59-1.68-3.83-1.58-4.2.33-7.86-.96-11.35-3-4.47-2.62-8.73-2.61-12.94.61-1.3,1-2.99,1.51-4.24,2.56-2.76,2.32-5.83,2.91-9.29,2.38-2.23-.34-4.1.4-5.99,1.76-4.39,3.16-9,6.01-14.6,9.68ZM50.39,53.93c3.72-1.79,7.42-1.76,11.13-.91,2.86.65,5.71,1.32,8.52,2.13.74.21,1.33.95,2.69,1.97-8.51,1.75-15.27-1.83-22.34-3.19ZM87.7,12.89c1.74-.97,3.51-1.93,5.13.75-2.02,1.45-3.63,1.3-5.13-.75ZM133.12,36.6c.69-.24,1.4-.73,2.07-.68,7.51.56,15.11.58,22.03,4.39,1.46.8,3.5.68,5.28.75,2.98.11,5.96,0,8.94.07,1.45.04,2.67.61,2.5,2.38-.16,1.68-1.39,2.26-2.84,2.07-2.45-.33-5.11-.39-7.23-1.47-2.34-1.19-4.23.42-6.09.06-2.1-.42-3.93-2.96-5.91-3.01-4.64-.11-9.19.39-13.1-2.93-.62-.53-1.93-.21-2.92-.36-.9-.13-1.78-.35-2.67-.54-.02-.24-.05-.48-.07-.72ZM132.27,37.25h8.47M155.7,41.24c-.83-.66-1.66-1.33-2.49-1.99M159.19,42.23h3.49M116.03,31.94c.69-.24,1.4-.73,2.07-.68,7.51.56,15.11.58,22.03,4.39,1.46.8,3.5.68,5.28.75,2.98.11,5.96,0,8.94.07,1.45.04,2.67.61,2.5,2.38-.16,1.68-1.39,2.26-2.84,2.07-2.45-.33-5.11-.39-7.23-1.47-2.34-1.19-4.23.42-6.09.06-2.1-.42-3.93-2.96-5.91-3.01-4.64-.11-9.19.39-13.1-2.93-.62-.53-1.93-.21-2.92-.36-.9-.13-1.78-.35-2.67-.54-.02-.24-.05-.48-.07-.72Z"/></g><g id="e"><path class="f" d="M7.79,114.24c-.06.08-.12.16-.19.25-.07.08-.14.16-.19.21l-.37.21c-.04.06-.09.19-.12.4-.04.21-.07.35-.09.43s-.07.17-.13.29c-.07.12-.12.24-.15.35-.09.29-.13.48-.13.6,0,.05.01.13.03.24.02.11.03.23.03.34v.39c0,.15-.01.35-.04.61-.02.26-.05.45-.09.57-.04.12-.08.2-.13.22-.05.02-.1.04-.15.05,0,.12.04.23.08.32.05.05.11.09.17.14l.15.73c.05.13.09.26.13.39s.07.27.09.41.03.27.03.41v.38c0,.24-.02.46-.06.67s-.08.43-.12.68c-.04.24-.07.45-.07.61s.02.28.05.35.09.16.16.26.12.17.14.21.04.12.06.23c.02.11.03.19.04.22.01.03.08.15.22.36.09.14.13.24.13.31v.24c0,.08-.05.15-.15.21-.1.1-.19.2-.28.29-.52.03-.93.06-1.23.08-.3.02-.54.05-.73.11-.19.06-.38.1-.57.12s-.35.04-.48.06c-.13.02-.26.03-.38.03-.06-.04-.11-.09-.15-.13-.04-.01-.1-.02-.17-.02h-.15c-.11,0-.22,0-.32,0-.1,0-.22-.03-.37-.08-.14-.05-.3-.1-.48-.15l-.28-.21c-.11-.06-.22-.12-.33-.19-.18-.14-.31-.3-.39-.5-.08-.19-.12-.4-.12-.63,0-.08.01-.14.04-.19.03-.05.06-.09.09-.14.1-.14.16-.22.2-.24l.2-.08c.18-.03.34-.06.46-.08l.16.07h.28c.12,0,.2-.01.25-.04.04-.02.1-.13.18-.32.03-.1.02-.24-.04-.4-.06-.17-.1-.29-.11-.38,0-.1.02-.29.07-.56.05-.27.08-.41.08-.44.01-.06.01-.16,0-.3s-.01-.25,0-.32c0-.03.02-.12.06-.26.04-.14.06-.25.06-.33,0-.07,0-.2-.02-.39-.02-.19-.03-.36-.03-.51l.05-.41c0-.1-.02-.21-.06-.32-.04-.11-.06-.21-.06-.3v-.46c.04-.11.07-.2.07-.26v-1.95c0-.24,0-.41-.02-.52s-.05-.2-.11-.28c-.14-.15-.24-.25-.3-.31l-.12-.1c-.08-.08-.15-.14-.22-.17s-.14-.07-.23-.12c-.25-.11-.4-.18-.44-.21-.04-.02-.1-.08-.19-.17-.22-.19-.33-.47-.33-.84,0-.1.04-.23.13-.39l.17-.05c.04-.09.09-.16.15-.21.06-.05.13-.1.22-.15.09-.05.22-.11.39-.17s.33-.09.46-.09h.38s.09-.05.15-.07c.06-.02.14-.04.25-.04.02,0,.04.02.05.05.01.04.03.05.07.05.18,0,.5,0,.96-.02.47-.01.72-.02.77-.02l.22.05c.06.01.14.02.25.02.18-.01.3-.02.38-.02l.23-.02c.1,0,.32.04.66.12.19.05.33.07.41.07.15-.07.24-.1.29-.1.19,0,.35.1.47.29.09.14.14.26.14.38v.39c0,.09-.01.15-.03.19Z"/><path class="f" d="M24.85,119.57c-.02.1-.06.21-.1.32-.04.11-.11.24-.18.38-.02.17-.04.3-.05.4-.01.1-.02.16-.03.18-.01.08,0,.19.02.32.03.14.04.23.03.27,0,.11-.03.23-.08.35-.05.12-.09.23-.12.32-.03.09-.11.22-.22.39-.11.17-.18.31-.22.41-.03.1-.09.22-.18.35-.09.13-.14.22-.17.27-.03.18-.06.33-.07.44-.02.11-.05.2-.1.26s-.1.1-.16.1c-.18,0-.27,0-.27.02-.01.02.02.06.08.1.07.05.09.09.08.14-.08.11-.22.24-.43.38-.07.12-.13.23-.2.31-.07.08-.21.24-.42.48l-.57.41c-.16.11-.35.2-.58.25-.23.05-.41.09-.53.11-.12.02-.22.05-.28.09l-.73.26c-.27.09-.49.16-.68.2-.19.04-.44.06-.77.06h-1.56l-.88-.21c-.33-.07-.67-.14-1-.21-.04-.02-.13-.1-.25-.22-.07-.07-.14-.12-.23-.15-.09-.03-.23-.07-.41-.12-.18-.05-.33-.08-.44-.09-.11-.01-.23-.02-.35-.03s-.22-.04-.31-.08-.15-.1-.21-.18c-.12-.19-.23-.3-.33-.32-.09-.02-.21-.1-.34-.25-.29-.23-.43-.41-.43-.55-.03-.07-.01-.15.06-.25.07-.1.08-.16,0-.2-.07-.02-.15-.01-.26.03-.11.05-.18.06-.23.05-.1-.04-.18-.08-.23-.13-.06-.05-.17-.17-.34-.37-.17-.19-.34-.39-.51-.58-.02-.04-.03-.14-.03-.27s-.01-.23-.03-.29c-.02-.06-.08-.18-.17-.36-.09-.18-.15-.3-.17-.37s-.06-.13-.12-.21c-.06-.08-.09-.19-.09-.33,0-.02-.02-.09-.05-.21-.07-.23-.09-.39-.07-.5.08-.14.16-.27.23-.41l-.05-.41c0-.09-.03-.21-.1-.35-.07-.14-.09-.25-.08-.32.01-.16.08-.38.2-.65.09-.19.14-.32.15-.38l.22-.67.23-.6c.04-.14.08-.25.11-.33.03-.08.08-.15.14-.22.01-.04.08-.09.2-.15s.2-.12.23-.17c.06-.07.06-.17.02-.32-.04-.14-.05-.24-.02-.3.07-.06.18-.11.33-.15.16-.04.26-.08.3-.11.14-.16.29-.32.45-.5.04-.03.11-.07.2-.12.2-.1.32-.17.38-.21.05-.03.1-.08.14-.15.11-.16.19-.25.25-.27.06-.04.14-.09.26-.15.12-.05.23-.1.34-.14.23-.09.47-.19.7-.29.04-.03.13-.11.27-.23.13-.12.24-.18.32-.18.12-.03.29-.06.52-.07.22-.01.43-.02.62-.02.16-.01.34-.04.57-.07s.36-.05.4-.05h.62c.21,0,.42.01.62.03.2.02.39.07.57.13.18.06.3.11.37.13.2,0,.32,0,.36,0,.04,0,.15.04.32.11l1.07.31c.07.03.16.09.27.17.28.22.44.34.48.36.04.02.14.06.28.12.14.06.24.1.28.14.14.06.26.11.34.17.08.06.17.13.28.22.04.09.09.18.12.27.04.08.1.15.17.2.1.15.21.25.33.29.27.22.44.37.52.45.08.08.15.18.22.32.07.13.12.22.15.26.04.07.05.15.02.23-.03.08-.04.16-.02.23.02.06.07.11.15.15.16.09.24.15.25.17.12.12.2.29.22.5s.05.35.06.42l.2.33v.5c0,.29.06.48.17.58ZM21.24,120.67c0-.08-.03-.19-.08-.33-.06-.14-.08-.23-.08-.29-.02-.04-.03-.07-.02-.12,0-.04.01-.1.02-.17,0-.03.02-.12.05-.27.03-.15.04-.25.02-.31-.02-.08-.06-.15-.1-.22-.12-.19-.19-.31-.2-.36-.03-.08,0-.15.09-.22.09-.07.14-.12.14-.15,0-.07-.02-.13-.07-.19-.1-.12-.16-.2-.17-.22l-.13-.38-.43-.15s.01-.08.11-.14c.09-.06.14-.11.12-.15-.03-.02-.1-.11-.19-.26-.09-.15-.19-.26-.29-.32-.17-.04-.33-.1-.48-.15-.03-.03-.06-.1-.07-.21-.01-.11-.03-.18-.05-.21-.1-.09-.17-.15-.22-.19-.08-.07-.17-.12-.27-.17-.04-.04-.13-.08-.25-.14-.12-.06-.21-.1-.26-.12-.05-.02-.11-.06-.17-.12l-.2-.17c-.1-.04-.22-.06-.36-.09-.14-.02-.27-.04-.4-.07-.13-.02-.28-.06-.47-.12-.18-.06-.3-.09-.36-.09-.04,0-.17.04-.39.13-.22.09-.38.13-.49.15-.11.01-.22.02-.32.03-.11,0-.22.03-.34.06-.07.03-.14.09-.23.18-.09.09-.15.15-.18.2-.06.01-.09.05-.12.1-.06.11-.08.18-.08.19l-.52.56c-.06.08-.11.15-.17.22s-.13.15-.23.24c-.02.07-.12.19-.3.38-.02.02-.06.06-.12.12-.1.18-.16.34-.19.46-.03.13-.04.22-.04.29,0,.09-.01.18-.03.27,0,.07-.03.16-.08.27-.06.11-.08.21-.08.27-.06.16-.03.31.07.46.02.1.09.21.2.32.11.11.17.19.17.24,0,.03-.04.08-.13.14-.09.06-.15.11-.18.13-.03.02-.08.04-.13.07-.12.08-.17.17-.15.27,0,.03.07.05.21.05s.23.01.28.03c.05.02.08.07.08.15s.01.16.03.26c.01.1.04.19.08.26.09.14.15.24.18.31.08.14.13.24.15.31.07.08.14.16.21.24.07.08.11.14.11.17,0,.17-.02.31-.07.43-.04.11-.07.19-.07.24,0,.11.07.22.22.32.02.01.04.05.07.13s.04.13.05.16c.13.15.27.3.4.44.2.16.48.3.85.43.07.07.13.13.18.18.06.05.13.09.22.11l.88.24.8.03c.09,0,.27-.03.56-.09.28-.06.45-.09.49-.09.2.02.33.03.38.03s.1-.01.15-.03c.04-.02.08-.05.1-.07.1-.15.16-.22.17-.22.01-.04.05-.11.13-.19.01-.01.09-.07.23-.19.04-.11.17-.23.37-.34.03-.03.14-.09.31-.17.17-.08.29-.15.37-.22s.12-.16.14-.26c.02-.11.04-.22.07-.33.24-.12.37-.3.37-.53v-.53c-.04-.09-.07-.16-.07-.21s.02-.11.07-.21c0-.04.03-.12.08-.24.05-.11.08-.2.08-.26Z"/><path class="f" d="M41.37,119.57c-.02.1-.06.21-.1.32-.04.11-.11.24-.18.38-.02.17-.04.3-.05.4-.01.1-.02.16-.03.18-.01.08,0,.19.02.32.03.14.04.23.03.27,0,.11-.03.23-.08.35-.05.12-.09.23-.12.32-.03.09-.11.22-.22.39-.11.17-.18.31-.22.41-.03.1-.09.22-.18.35-.09.13-.14.22-.17.27-.03.18-.06.33-.07.44-.02.11-.05.2-.1.26s-.1.1-.16.1c-.18,0-.27,0-.27.02-.01.02.02.06.08.1.07.05.09.09.08.14-.08.11-.22.24-.43.38-.07.12-.13.23-.2.31-.07.08-.21.24-.42.48l-.57.41c-.16.11-.35.2-.58.25-.23.05-.41.09-.53.11-.12.02-.22.05-.28.09l-.73.26c-.27.09-.49.16-.68.2-.19.04-.44.06-.77.06h-1.56l-.88-.21c-.33-.07-.67-.14-1-.21-.04-.02-.13-.1-.25-.22-.07-.07-.14-.12-.23-.15-.09-.03-.23-.07-.41-.12-.18-.05-.33-.08-.44-.09-.11-.01-.23-.02-.35-.03s-.22-.04-.31-.08-.15-.1-.21-.18c-.12-.19-.23-.3-.33-.32-.09-.02-.21-.1-.34-.25-.29-.23-.43-.41-.43-.55-.03-.07-.01-.15.06-.25.07-.1.08-.16,0-.2-.07-.02-.15-.01-.26.03-.11.05-.18.06-.23.05-.1-.04-.18-.08-.23-.13-.06-.05-.17-.17-.34-.37-.17-.19-.34-.39-.51-.58-.02-.04-.03-.14-.03-.27s-.01-.23-.03-.29c-.02-.06-.08-.18-.17-.36-.09-.18-.15-.3-.17-.37s-.06-.13-.12-.21c-.06-.08-.09-.19-.09-.33,0-.02-.02-.09-.05-.21-.07-.23-.09-.39-.07-.5.08-.14.16-.27.23-.41l-.05-.41c0-.09-.03-.21-.1-.35-.07-.14-.09-.25-.08-.32.01-.16.08-.38.2-.65.09-.19.14-.32.15-.38l.22-.67.23-.6c.04-.14.08-.25.11-.33.03-.08.08-.15.14-.22.01-.04.08-.09.2-.15s.2-.12.23-.17c.06-.07.06-.17.02-.32-.04-.14-.05-.24-.02-.3.07-.06.18-.11.33-.15.16-.04.26-.08.3-.11.14-.16.29-.32.45-.5.04-.03.11-.07.2-.12.2-.1.32-.17.38-.21.05-.03.1-.08.14-.15.11-.16.19-.25.25-.27.06-.04.14-.09.26-.15.12-.05.23-.1.34-.14.23-.09.47-.19.7-.29.04-.03.13-.11.27-.23.13-.12.24-.18.32-.18.12-.03.29-.06.52-.07.22-.01.43-.02.62-.02.16-.01.34-.04.57-.07s.36-.05.4-.05h.62c.21,0,.42.01.62.03.2.02.39.07.57.13.18.06.3.11.37.13.2,0,.32,0,.36,0,.04,0,.15.04.32.11l1.07.31c.07.03.16.09.27.17.28.22.44.34.48.36.04.02.14.06.28.12.14.06.24.1.28.14.14.06.26.11.34.17.08.06.17.13.28.22.04.09.09.18.12.27.04.08.1.15.17.2.1.15.21.25.33.29.27.22.44.37.52.45.08.08.15.18.22.32.07.13.12.22.15.26.04.07.05.15.02.23-.03.08-.04.16-.02.23.02.06.07.11.15.15.16.09.24.15.25.17.12.12.2.29.22.5s.05.35.06.42l.2.33v.5c0,.29.06.48.17.58ZM37.76,120.67c0-.08-.03-.19-.08-.33-.06-.14-.08-.23-.08-.29-.02-.04-.03-.07-.02-.12,0-.04.01-.1.02-.17,0-.03.02-.12.05-.27.03-.15.04-.25.02-.31-.02-.08-.06-.15-.1-.22-.12-.19-.19-.31-.2-.36-.03-.08,0-.15.09-.22.09-.07.14-.12.14-.15,0-.07-.02-.13-.07-.19-.1-.12-.16-.2-.17-.22l-.13-.38-.43-.15s.01-.08.11-.14c.09-.06.14-.11.12-.15-.03-.02-.1-.11-.19-.26-.09-.15-.19-.26-.29-.32-.17-.04-.33-.1-.48-.15-.03-.03-.06-.1-.07-.21-.01-.11-.03-.18-.05-.21-.1-.09-.17-.15-.22-.19-.08-.07-.17-.12-.27-.17-.04-.04-.13-.08-.25-.14-.12-.06-.21-.1-.26-.12-.05-.02-.11-.06-.17-.12l-.2-.17c-.1-.04-.22-.06-.36-.09-.14-.02-.27-.04-.4-.07-.13-.02-.28-.06-.47-.12-.18-.06-.3-.09-.36-.09-.04,0-.17.04-.39.13-.22.09-.38.13-.49.15-.11.01-.22.02-.32.03-.11,0-.22.03-.34.06-.07.03-.14.09-.23.18-.09.09-.15.15-.18.2-.06.01-.09.05-.12.1-.06.11-.08.18-.08.19l-.52.56c-.06.08-.11.15-.17.22s-.13.15-.23.24c-.02.07-.12.19-.3.38-.02.02-.06.06-.12.12-.1.18-.16.34-.19.46-.03.13-.04.22-.04.29,0,.09-.01.18-.03.27,0,.07-.03.16-.08.27-.06.11-.08.21-.08.27-.06.16-.03.31.07.46.02.1.09.21.2.32.11.11.17.19.17.24,0,.03-.04.08-.13.14-.09.06-.15.11-.18.13-.03.02-.08.04-.13.07-.12.08-.17.17-.15.27,0,.03.07.05.21.05s.23.01.28.03c.05.02.08.07.08.15s.01.16.03.26c.01.1.04.19.08.26.09.14.15.24.18.31.08.14.13.24.15.31.07.08.14.16.21.24.07.08.11.14.11.17,0,.17-.02.31-.07.43-.04.11-.07.19-.07.24,0,.11.07.22.22.32.02.01.04.05.07.13s.04.13.05.16c.13.15.27.3.4.44.2.16.48.3.85.43.07.07.13.13.18.18.06.05.13.09.22.11l.88.24.8.03c.09,0,.27-.03.56-.09.28-.06.45-.09.49-.09.2.02.33.03.38.03s.1-.01.15-.03c.04-.02.08-.05.1-.07.1-.15.16-.22.17-.22.01-.04.05-.11.13-.19.01-.01.09-.07.23-.19.04-.11.17-.23.37-.34.03-.03.14-.09.31-.17.17-.08.29-.15.37-.22s.12-.16.14-.26c.02-.11.04-.22.07-.33.24-.12.37-.3.37-.53v-.53c-.04-.09-.07-.16-.07-.21s.02-.11.07-.21c0-.04.03-.12.08-.24.05-.11.08-.2.08-.26Z"/><path class="f" d="M64.07,127.12l-.45.41h-.85l-.4-.12-.68-.17-.47-.34h-.67l-.92-.07-1.03.07-.5-.12-.35-.36.12-.39.35-.41.73-.19.45-.22.28-.29-.12-.7-.1-1.64.17-.34v-.53l-.17-.46.1-.89-.1-1.86-.12-.92v-.65l-.4-.29v-.41l-.12-.24-.17-.29-.17-.34h-.8l-.52-.12-.57-.12-.28.29-.52-.05-.45.17h-.63l-.45.46-.12.41-.05.36v.92l-.17.82.17,1.93.12.22.05.53-.23.65.35.51-.17.31.1.39.07,1.81.12.41.4.12.45.29.4.53-.07.63-.73.12-1.02-.05h-.97l-.68-.12-1.08.17-.63.07-.52-.48-.22-.29v-.63l.33-.29.52-.12.28-.36.35-.05-.07-.41.12-.82-.17-.34.45-.82-.28-.41.17-.29v-.87l-.22-.7-.18-.36.12-.46.23-.36.05-.75-.17-.82.23-.51-.35-.6-.8-.63-.78-.41-.63-.12-.68.07-.96.17-.52.53-.22.75-.52,1.28.12,1.4.05.87-.05.77-.17.34.22.41v.99l-.22.29.38.7.07.99h.52l.28.41.45.58.23.82-.47.17-.85.29-1.2.12-.96-.24-1.65-.22-.62-.19-.28-.22v-.53l.45-.34.12-.6.23-.51.17-1.11.17-.58.23-.24-.23-.24v-.39l.4-1.01-.23-.34v-.87l.12-.29-.23-.24.12-1.33v-.36l-.4-.46-.33-.41-.17-.53-.07-.53-.12-.34v-.53l.28-.46.23-.36.4-.17.17-.29.63-.05h.62l.63-.41h.57l.35.41.17.34.28.36.45.17.45-.24.8-.29h1.13l.4-.29.63-.05.73.17.4.05.63.36.4.12.4.29.38.58.68.41.18-.24.45-.17.52-.36.4-.46.62-.12.57-.34.75-.07.45-.17h1.42l.92.24.62.58.58.34.67.94.23.58.12.46-.17.24-.12.94-.12.34.12.24v.46l.05,1.57.23.29.12.53v.7l-.17.46.17.36v1.16l.12,1.28.45.41.45.65.28.75.12.46Z"/><path class="f" d="M86.86,127.12l-.45.41h-.85l-.4-.12-.68-.17-.47-.34h-.67l-.92-.07-1.03.07-.5-.12-.35-.36.12-.39.35-.41.73-.19.45-.22.28-.29-.12-.7-.1-1.64.17-.34v-.53l-.17-.46.1-.89-.1-1.86-.12-.92v-.65l-.4-.29v-.41l-.12-.24-.17-.29-.17-.34h-.8l-.52-.12-.57-.12-.28.29-.52-.05-.45.17h-.63l-.45.46-.12.41-.05.36v.92l-.17.82.17,1.93.12.22.05.53-.23.65.35.51-.17.31.1.39.07,1.81.12.41.4.12.45.29.4.53-.07.63-.73.12-1.02-.05h-.97l-.68-.12-1.08.17-.63.07-.52-.48-.22-.29v-.63l.33-.29.52-.12.28-.36.35-.05-.07-.41.12-.82-.17-.34.45-.82-.28-.41.17-.29v-.87l-.22-.7-.18-.36.12-.46.23-.36.05-.75-.17-.82.23-.51-.35-.6-.8-.63-.78-.41-.63-.12-.68.07-.96.17-.52.53-.22.75-.52,1.28.12,1.4.05.87-.05.77-.17.34.22.41v.99l-.22.29.38.7.07.99h.52l.28.41.45.58.23.82-.47.17-.85.29-1.2.12-.96-.24-1.65-.22-.62-.19-.28-.22v-.53l.45-.34.12-.6.23-.51.17-1.11.17-.58.23-.24-.23-.24v-.39l.4-1.01-.23-.34v-.87l.12-.29-.23-.24.12-1.33v-.36l-.4-.46-.33-.41-.17-.53-.07-.53-.12-.34v-.53l.28-.46.23-.36.4-.17.17-.29.63-.05h.62l.63-.41h.57l.35.41.17.34.28.36.45.17.45-.24.8-.29h1.13l.4-.29.63-.05.73.17.4.05.63.36.4.12.4.29.38.58.68.41.18-.24.45-.17.52-.36.4-.46.62-.12.57-.34.75-.07.45-.17h1.42l.92.24.62.58.58.34.67.94.23.58.12.46-.17.24-.12.94-.12.34.12.24v.46l.05,1.57.23.29.12.53v.7l-.17.46.17.36v1.16l.12,1.28.45.41.45.65.28.75.12.46Z"/><path class="f" d="M106.33,126.05l-.23.65-.4.22-.97.07-.4-.24h-.8l-.28.17h-.68l-.68-.17-.5.24-.47-.24-.4-.34-.17-.53.23-.46.4-.12.68-.17.22-.24-.05-.41.17-.29-.05-1.4v-.94l.12-.39-.07-2.75-.17-.34.17-.82-.12-.53-.28-.34-.33-.19-.52-.58-.63-.17-.73-.17-.45-.24-.52.24-.28.46-.52.36-.45.39-.28.31-.17.34.05,2.92-.17.29v2.85l.23.24-.07.92.28.36.35.22.73-.05.23.29.17.41-.35.7-.5.05-.63.29-.9-.05-.58.25-.85.05-.73-.12-.4-.12-.45-.17-.12-.58.12-.24.33-.75.28-.41.35-.24-.07-3.78.18-.19.05-.41-.23-.34-.05-.53.23-.29v-1.87l-.75-.82-.28-.46-.28-.24.05-.7.18-.29.28-.22.4-.19.4-.12.05-.22.4-.24.28-.12.52-.05.38-.24.47-.05.52.46.38.36.07.46.52.12.22-.36.47-.29.67-.29.52-.29.57-.12.47-.17h.5l.52.24.35-.19.33.41.52.48.28-.07.45.17.4.24.05.29.4.48.57.75.18.7-.23.34.28.48-.05,2.27-.35.87-.05,1.16.22.41.07.82-.28.46-.07.48.12.39.28.48.4.22.45.29.3.24v.58Z"/><path class="f" d="M119.54,123.84c-.03.06-.05.15-.05.29v.55c0,.08,0,.14-.02.17s-.03.06-.07.08c-.09.07-.14.12-.17.15-.18.33-.31.58-.4.73-.17.3-.34.52-.53.67-.25.21-.42.33-.5.36-.08.04-.19.05-.33.05-.12,0-.28-.04-.46-.14-.19-.09-.33-.14-.43-.14h-.43c-.09.07-.16.1-.22.1-.01,0-.07-.03-.17-.09s-.24-.09-.43-.09c-.07-.07-.11-.12-.13-.15-.1-.11-.16-.18-.18-.19-.21-.11-.4-.3-.56-.55-.24-.38-.4-.6-.48-.68-.04.26-.27.51-.68.75-.32.18-.64.36-.96.53-.27.18-.53.36-.8.53-.27.17-.56.26-.88.26l-.65-.26c-.12-.04-.27-.09-.44-.14-.17-.04-.32-.08-.44-.11s-.21-.06-.25-.09c-.14-.09-.22-.14-.23-.15-.19-.14-.31-.28-.37-.44-.04-.35-.11-.66-.2-.92-.02-.08-.09-.22-.22-.44-.12-.21-.18-.4-.18-.56,0-.52.15-1.07.46-1.65.31-.58.67-.99,1.11-1.24l.65-.03c.05-.01.12-.05.21-.12.08-.07.17-.15.27-.24.24-.11.67-.18,1.28-.21.61-.03,1-.06,1.18-.09.18-.03.33-.08.47-.14.28-.14.45-.21.51-.23.06-.02.13-.05.22-.09.08-.04.14-.1.17-.15.03-.06.08-.1.15-.14s.09-.07.08-.12l-.05-2.02v-1.08c-.12-.33-.25-.54-.38-.62-.23-.08-.47-.17-.7-.27-.34-.15-.64-.22-.9-.22-.14,0-.28,0-.39.03-.12.02-.25.04-.39.06,0,.07-.05.12-.14.15-.25.08-.38.14-.41.18-.03.04-.06.07-.11.09-.05.02-.08.06-.1.1-.06.09-.1.23-.1.41,0,.08.01.2.03.36.02.16.03.29.03.38,0,.17-.03.3-.1.39-.16.24-.35.43-.57.57s-.47.21-.73.21c-.15,0-.26,0-.35-.02-.34-.04-.53-.07-.57-.07,0-.15-.07-.3-.2-.44-.13-.15-.2-.3-.2-.46,0-.39.09-.71.26-.98.17-.27.35-.53.52-.79.13-.25.31-.47.53-.67.31-.24.55-.43.72-.56.1-.08.19-.17.28-.27.09-.1.16-.18.22-.24.11-.11.25-.18.42-.21.17-.02.35-.05.52-.07.08-.02.17-.09.27-.2.1-.11.19-.18.27-.21.04-.01.11-.01.21,0,.09.01.17.01.22,0,.14-.04.28-.06.4-.08.12-.02.24-.03.37-.03.21,0,.46.07.73.21s.54.27.8.39c.2.06.4.11.6.15.28.13.53.36.77.7.17.25.33.58.48.99v1.62c.02.1.08.31.17.62.09.31.14.54.14.7,0,.18-.04.46-.13.82-.09.37-.13.65-.13.85,0,.11.02.26.07.44.05.18.08.3.08.36l-.2.21c-.03.1-.05.19-.05.26.02.16.04.29.05.39v.96c-.08.1-.12.2-.12.29s.03.31.08.65c.02.14.03.28.03.43l.13.03c.09,0,.18,0,.28-.03.1-.02.16-.03.18-.03.1,0,.19.06.28.17l.02-.17h.47c.21,0,.34,0,.38-.03.04-.02.08-.1.12-.25h.15c.08.02.2.04.37.05.17.01.32.06.47.14ZM114.33,122.99v-1.9c-.07.01-.17.02-.3.02-.22-.01-.39-.02-.52-.02-.14,0-.3.03-.47.08-.51.18-.85.28-1.02.3-.17.02-.45.14-.82.37-.47.29-.7.58-.7.89s.08.64.22.98c.15.35.34.58.57.71.17.03.33.07.5.1.04.02.09.05.13.09s.09.06.13.06c.24,0,.44-.03.6-.1.2-.11.37-.21.5-.27.34-.16.6-.33.77-.5.23-.22.37-.49.4-.82Z"/><path class="f" d="M133.78,113.98l-.12.46-.4.41-.45-.12-.23.41-.52.05v.36l-.45.46-.28.58-.23.58-.62.82-.4.77-.17.39-.35.65-.4.65-.22.99-.47.75v1.28l-.22.65-.18.39-.57.41.07.65-.35.7-.45.7-.57.34-.4-.22-.35-.53v-.53l-.17-.53-.12-.68v-1.4l-.17-.48-.33-.46-.28.05-.47-.39-.05-.36-.23-.53-.17-.41-.17-.7-.23-.51-.4-.53-.17-.58-.28-.36-.17-1.04-.52-.46-.07-.41-.57-.58-.4-.29-.45-.24-.45-.29-.47-.12-.22-.75v-.41l.22-.24.23-.34.45-.29.58-.07.73.29.33.24.87-.07.5.12.63.07.62-.24h.63l.63.12.33.12.28.22.05.36-.38.29-.28.24-.47.1-.22.29.05.89.17.34.12.53.12.7.23.82.33.63.23.12.22.53.4.41.07.58.22.41.4.34.57.05.18-.51.45-.7.23-.53v-.34l.5-.6.23-.63.23-.75.33-.6v-.58l-.17-.51-.4-.29-.28-.41-.45-.48-.12-.63.33-.53.52-.12.23-.29.33.12.92.12.45.29.4-.29.28.22h.62l.63-.05.23.41.28.53Z"/><path class="f" d="M146.31,123.84c-.03.06-.05.15-.05.29v.55c0,.08,0,.14-.02.17s-.03.06-.07.08c-.09.07-.14.12-.17.15-.18.33-.31.58-.4.73-.17.3-.34.52-.53.67-.25.21-.42.33-.5.36-.08.04-.19.05-.33.05-.12,0-.28-.04-.46-.14-.19-.09-.33-.14-.43-.14h-.43c-.09.07-.16.1-.22.1-.01,0-.07-.03-.17-.09s-.24-.09-.43-.09c-.07-.07-.11-.12-.13-.15-.1-.11-.16-.18-.18-.19-.21-.11-.4-.3-.56-.55-.24-.38-.4-.6-.48-.68-.04.26-.27.51-.68.75-.32.18-.64.36-.96.53-.27.18-.53.36-.8.53-.27.17-.56.26-.88.26l-.65-.26c-.12-.04-.27-.09-.44-.14-.17-.04-.32-.08-.44-.11s-.21-.06-.25-.09c-.14-.09-.22-.14-.23-.15-.19-.14-.31-.28-.37-.44-.04-.35-.11-.66-.2-.92-.02-.08-.09-.22-.22-.44-.12-.21-.18-.4-.18-.56,0-.52.15-1.07.46-1.65.31-.58.67-.99,1.11-1.24l.65-.03c.05-.01.12-.05.21-.12.08-.07.17-.15.27-.24.24-.11.67-.18,1.28-.21.61-.03,1-.06,1.18-.09.18-.03.33-.08.47-.14.28-.14.45-.21.51-.23.06-.02.13-.05.22-.09.08-.04.14-.1.17-.15.03-.06.08-.1.15-.14s.09-.07.08-.12l-.05-2.02v-1.08c-.12-.33-.25-.54-.38-.62-.23-.08-.47-.17-.7-.27-.34-.15-.64-.22-.9-.22-.14,0-.28,0-.39.03-.12.02-.25.04-.39.06,0,.07-.05.12-.14.15-.25.08-.38.14-.41.18-.03.04-.06.07-.11.09-.05.02-.08.06-.1.1-.06.09-.1.23-.1.41,0,.08.01.2.03.36.02.16.03.29.03.38,0,.17-.03.3-.1.39-.16.24-.35.43-.57.57s-.47.21-.73.21c-.15,0-.26,0-.35-.02-.34-.04-.53-.07-.57-.07,0-.15-.07-.3-.2-.44-.13-.15-.2-.3-.2-.46,0-.39.09-.71.26-.98.17-.27.35-.53.52-.79.13-.25.31-.47.53-.67.31-.24.55-.43.72-.56.1-.08.19-.17.28-.27.09-.1.16-.18.22-.24.11-.11.25-.18.42-.21.17-.02.35-.05.52-.07.08-.02.17-.09.27-.2.1-.11.19-.18.27-.21.04-.01.11-.01.21,0,.09.01.17.01.22,0,.14-.04.28-.06.4-.08.12-.02.24-.03.37-.03.21,0,.46.07.73.21s.54.27.8.39c.2.06.4.11.6.15.28.13.53.36.77.7.17.25.33.58.48.99v1.62c.02.1.08.31.17.62.09.31.14.54.14.7,0,.18-.04.46-.13.82-.09.37-.13.65-.13.85,0,.11.02.26.07.44.05.18.08.3.08.36l-.2.21c-.03.1-.05.19-.05.26.02.16.04.29.05.39v.96c-.08.1-.12.2-.12.29s.03.31.08.65c.02.14.03.28.03.43l.13.03c.09,0,.18,0,.28-.03.1-.02.16-.03.18-.03.1,0,.19.06.28.17l.02-.17h.47c.21,0,.34,0,.38-.03.04-.02.08-.1.12-.25h.15c.08.02.2.04.37.05.17.01.32.06.47.14ZM141.1,122.99v-1.9c-.07.01-.17.02-.3.02-.22-.01-.39-.02-.52-.02-.14,0-.3.03-.47.08-.51.18-.85.28-1.02.3-.17.02-.45.14-.82.37-.47.29-.7.58-.7.89s.08.64.22.98c.15.35.34.58.57.71.17.03.33.07.5.1.04.02.09.05.13.09s.09.06.13.06c.24,0,.44-.03.6-.1.2-.11.37-.21.5-.27.34-.16.6-.33.77-.5.23-.22.37-.49.4-.82Z"/><path class="f" d="M151.05,126.58l-.47.24-.57.05-.33-.24-.8.19-.12.05-.4.05-.28-.1-.22.05h-.92l-.4-.17-.23.12-.22.29h-.52l-.63-.12-.28-.36-.05-.41.45-.46.63-.29.62-.24-.1-4.02.17-.46-.12-.19v-2.44l.23-.24.05-.46-.57-1.04.23-.19-.18-.75v-.58l-.05-.46.28-.24-.17-.94-.28-.34.33-.41.07-.82-.18-.58-.05-.29.17-1.11.23-.24-.07-.7-.33-.58-.07-1.21-.38-.24v-.34h-.52l-.28-.31-.23-.29.07-.41.22-.34.52-.34.4-.31.45-.22.63-.17,1.08.17.45.17.28.41.17.7-.05.41-.18.17.23,1.4.17.34-.22.48.22.17-.22.34.17.19.05,1.21-.17.12-.12.7.23.24-.28.7v1.11l.33.7v.34l-.28.7v.94l.35.58v.46l-.17.29-.07.94.17.29-.17.58.12.53.12,2.44.12.46-.18.12-.05.65.4.82.12.68.17.24.33.17.52.36.4.17.23.46v.65Z"/><path class="f" d="M170.81,115.44l-.23.34-.5.31-.18.22-.17-.12-.57-.05-.33.24-.4.34-.07.65-.28.17.23.29v.75l-.17.24v.41l.45.41v.46l-.23.94-.28.17.28.12-.28.34-.05.48h-.28l-.07.29-1.08,1.09-.57.36-.4.05-.78.19-.63.29-.92-.07-.62.41-.63.53-.5.22h-1.25l-.4.31-.52.51.17.41-.12.17v.48l.4.05.23.36.4.34.45.17.63-.22,1.42-.12.68-.29,1.2.17.9.36.92.1.33.29.28-.22.75.12.57.58.62.34.47,1.06.28.63.17.58.17.65.23.92.17.94-.12.87-.17.58-.17.7-.68.48-.68.46h-.57l-.75.65-.5.29-.75.17-1.18.05h-1.53l-.52-.34h-2l-.28-.24-.22-.05-.47-.19h-.62l-.4-.51-.45-.12-.47-.36-.33-.58-.57-.63-.4-.77-.23-.46-.17-.58.17-.46.23-.58v-.36l.45-.41.8-.7v-.17l.62-.46.58-.24v-.29l-.35-.12-.68-.24-.23-.22-.68-.24-.22-.34v-1.18l-.17-.46.17-.58-.28-.41.28-.65.52-.51.5-.41h1.48l.85-.12.28-.46-.22-.53-.4.12-.12-.46-.68-.19-.52-.22-.12-.48-.5-.63-.52-.07-.28-.29-.12-1.91.45-.41-.05-1.47.05-1.21.4-.29.07-.58h.45l.63-.6.62-.75.63-.05.33-.36,1.31-.17.57-.36h1.18l.68.36.58.17.57.24,1.02.29.17.58.57-.05.35-.48.52-.34.73-.36.57-.34.28.17.4.36.35.29.05,1.45ZM168.25,133.47l-.05-.58-.4-.36-.05-.87-.4-.12-.45-.41-1.65.07-.35-.41-.85-.12h-.85l-.35.17-.8.07-.4-.48-.57.41-.4.36-.45.29-.17.46-.4.12.05.63-.17.29.07.53.62.75.35.19.17.22.85.41.85.41h1.37l2.16-.58h1.3l.28-.53.35-.41.33-.51ZM165.82,119.57l-.18-.58-.22-1.33-.17-.77-.12-.46-.28-.05-.4-.53h-.35l-.4-.24-.17-.29-.68-.05-.52.29-.57.53-.17.34-.73.65v.58l-.12,1.04-.28.36-.12,1.21.28.41.28.7.12.58.57.36.73.12.63.46.57.12.28-.36.85-.51.28-.89.47-.8.4-.89Z"/><path class="f" d="M183.8,125.23l-.28.89-.28.34-.62.17-.47.25-.45.12-.73.18h-.52l-.35-.42-.1-.59-.18-.29-.28-.29-.5.34-.23.41-.85.29h-.57l-.63.41-.33-.22-.23.22h-.68l-.57-.12-.92-.34-.52-.24-.38-.05.05-.36-.4-.29-.33-.29-.35-.63v-1.18l-.23-.22.07-.94.12-.17.05-.7-.05-.58-.12-.46.17-.36-.23-.24.12-2.44-.17-.7-.12-1.04-.28-.36-.52-.29-.62-.29.05-.41.12-.58.4-.29,1.42-.05.52-.19.4-.12h.8l.57.24.57.53.05.34-.1.77-.23.12-.05.63.17.94-.28.17v.75l.22.36.12.82-.28.75-.05.82-.23.34.05.58.07,1.47.33.29v.58l.18.46.57.29.4.24.5-.07.92.12.62-.22.8.1.75-.87v-.34l.33-.24.12-.41-.17-.46.17-.53-.17-.41.17-.34v-.29l-.12-.7v-.77l.17-.63.07-.58-.07-1.81-.1-.29-.47-.41-.5-.12-.18.17-.5-.17-.3-.29-.38-.29-.07-.46-.22-.48.38-.39.63-.31.12.31.45-.07.63.24.33-.24.52-.05.73.05.17-.24.63-.1.28.46.23.17.33.29v.7l-.12,1.35-.17.22.07.53.17.17-.23.36v2.56l-.12.34.18.31v1.04l-.12.34.12.31-.18.51.18.29v.89l.22.17.17.41h.35l.28.22v.36l.17.22Z"/><path class="f" d="M198.25,126.05l-.23.65-.4.22-.97.07-.4-.24h-.8l-.28.17h-.68l-.68-.17-.5.24-.47-.24-.4-.34-.17-.53.23-.46.4-.12.68-.17.22-.24-.05-.41.17-.29-.05-1.4v-.94l.12-.39-.07-2.75-.17-.34.17-.82-.12-.53-.28-.34-.33-.19-.52-.58-.63-.17-.73-.17-.45-.24-.52.24-.28.46-.52.36-.45.39-.28.31-.17.34.05,2.92-.17.29v2.85l.23.24-.07.92.28.36.35.22.73-.05.23.29.17.41-.35.7-.5.05-.63.29-.9-.05-.58.25-.85.05-.73-.12-.4-.12-.45-.17-.12-.58.12-.24.33-.75.28-.41.35-.24-.07-3.78.18-.19.05-.41-.23-.34-.05-.53.23-.29v-1.87l-.75-.82-.28-.46-.28-.24.05-.7.18-.29.28-.22.4-.19.4-.12.05-.22.4-.24.28-.12.52-.05.38-.24.47-.05.52.46.38.36.07.46.52.12.22-.36.47-.29.67-.29.52-.29.57-.12.47-.17h.5l.52.24.35-.19.33.41.52.48.28-.07.45.17.4.24.05.29.4.48.57.75.18.7-.23.34.28.48-.05,2.27-.35.87-.05,1.16.22.41.07.82-.28.46-.07.48.12.39.28.48.4.22.45.29.3.24v.58Z"/><path class="f" d="M208.35,122.49l-.22,1.28v.94l-.35.75-.57.75-.8.36-.57.12-.33.41-.8.05-1.3.17-.52-.17-1.25-.05-.57-.24-.52-.12-.45-.7-.23-.75-.23-.53-.05-.75.17-.65.35-.22.33-.31.17.12h.47l.45.58.28.36.23.46.22.53.47.05.5.48.68.1.47.36.62-.05.28-.82.28-.36.07-1.11.1-.29-.33-.34v-.41l-.4-.12-.92-.53-.78-.17-1.2-.53-.68-.46-.52-.41-.4-.29-.33-.7-.12-.58-.12-.53-.22-.29-.07-.7.12-.75.45-.82v-.41l.47-.34v-.36l.57-.58.33-.05.68-.46.4-.31.85-.05h.87l.62.24.68.05.52.07.17.22.52.41.45.36.23.75.28.75-.12.82-.52.53-.52.22-.62-.17-.57-.46-.45-.46-.18-.48-.5-.46-.63-.29-.33-.17-.35.17h-.33l-.23.53-.17.58.17.41.17.75.45.65.58.29.5.17.63.29,1.25.46.45.24.52.58.63.53.38,1.21.28.65Z"/></g></g></svg>