<?xml version="1.0" encoding="UTF-8"?><svg id="b" xmlns="http://www.w3.org/2000/svg" viewBox="0 0 197.93 148.02"><defs><style>.f{fill:#220d0d;}</style></defs><g id="c"><g id="d"><path class="f" d="M69.99,83.99c.08.36.12.69.12.97,0,.25-.03.44-.08.57-.05.13-.15.22-.29.26-.1.25-.19.5-.28.75-.12.27-.25.41-.4.41-.19.33-.33.58-.43.74-.18.3-.35.53-.52.7-.17.17-.39.38-.67.63-.28.25-.51.46-.7.62-.11.1-.21.29-.28.56-.08.27-.18.45-.32.56.14.04.26.08.35.12.23.09.5.23.8.41.09.06.23.17.42.32.14.13.29.25.43.38.11.09.26.29.45.6.09.15.17.26.23.32.17.17.25.31.25.43,0,.06-.11.14-.33.26,0,.05,0,.09.02.14.09.05.19,0,.3-.12.07-.08.12-.12.17-.12.07,0,.14.06.22.19.07.15.11.3.14.45.03.15.04.33.04.52,0,.15,0,.3-.03.46s-.03.28-.04.36c0,.08-.07.19-.22.34-.14.15-.22.25-.23.31-.06.43-.1.76-.14.97-.04.21-.11.4-.21.56-.06.1-.13.19-.22.26-.27.21-.42.33-.45.38-.27.37-.53.74-.8,1.11-.34.35-.69.71-1.03,1.06-.18.11-.43.25-.77.39-.28.11-.55.23-.82.36-.29.19-.57.39-.85.58-.32.11-.66.19-1.01.23-.36.04-.74.06-1.15.06h-.22c-.36,0-.53-.15-.53-.44,0-.17.06-.33.19-.48.13-.15.29-.23.49-.26.13-.06.27-.14.4-.24.13-.1.26-.16.37-.18.11-.02.23-.03.35-.04.24-.05.46-.13.65-.24.1-.06.21-.14.32-.26.3-.31.46-.47.48-.5.1-.08.3-.18.6-.3.3-.12.5-.28.6-.47.04-.09.08-.21.1-.34s.05-.26.09-.38c.04-.11.19-.34.46-.67.21-.27.32-.53.32-.77,0-.11-.03-.25-.08-.4-.06-.15-.09-.25-.1-.3-.01-.18.01-.42.07-.73s.07-.53.05-.67c-.02-.24-.09-.45-.21-.62-.12-.18-.29-.32-.52-.42-.03-.02-.13-.02-.29.02-.16.03-.25.05-.27.03-.12-.07-.3-.22-.54-.45-.24-.23-.41-.38-.52-.44-.11-.06-.22-.15-.33-.27-.03-.03-.08-.1-.13-.19-.2.06-.36.09-.47.09-.24,0-.37-.11-.37-.32,0-.19.09-.45.27-.75.1-.09.37-.3.8-.62.32-.24.55-.48.7-.72.09-.16.19-.31.3-.44.03-.05.2-.23.5-.55.02-.04.12-.08.28-.14.17-.06.27-.11.32-.15l.22-.41c.11-.16.19-.27.25-.34.1-.14.18-.26.23-.36.1-.19.21-.39.32-.58.11-.24.17-.46.17-.65-.04-.08-.12-.27-.23-.58-.03-.09-.09-.23-.17-.43-.03-.11-.06-.22-.08-.32-.02-.1-.03-.18-.03-.25,0-.1.02-.18.07-.24-.08-.18-.16-.32-.25-.41-.14-.13-.25-.22-.32-.27-.23-.13-.41-.19-.53-.19-.12.03-.21.05-.27.05-.04,0-.1-.04-.17-.1-.2-.07-.36-.13-.48-.17-.24-.09-.42-.13-.52-.12-.07-.06-.16,0-.27.2-.11.19-.2.3-.27.33-.23.08-.44.17-.61.27s-.41.27-.71.51c-.06.04-.11.05-.15.05-.12,0-.23-.09-.33-.27-.1-.18-.15-.38-.15-.6,0-.18.04-.34.12-.46.03-.18.06-.33.08-.43.09-.3.21-.54.35-.73.14-.19.26-.34.33-.44.08-.11.17-.21.27-.3.14-.15.33-.29.55-.43.13-.09.27-.18.42-.27.08-.05.18-.07.3-.07.09,0,.21.01.35.04.14.02.24.04.28.04.26-.05.43-.07.52-.07,0,.02,0,.05.02.07h1.07c.1,0,.25.01.44.03.19.02.4.05.61.08.21.03.41.08.6.14.2.11.39.24.58.39.18.15.37.33.56.54.12.15.25.35.38.6.1.19.2.42.3.68.06.1.13.25.22.45.09.2.15.38.18.54Z"/><path class="f" d="M84.67,81.44c0,.18-.07.47-.22.85-.07.18-.1.3-.1.34.03.08.07.16.1.23s.05.15.05.23c0,.26-.17.53-.52.8-.4.32-.65.71-.77,1.18-.3.39-.52.68-.67.89-.44.62-.67.97-.67,1.06-.03.16-.08.29-.13.38-.1.16-.16.27-.19.33-.03.06-.06.22-.08.5-.03.28-.05.46-.08.55-.02.08-.1.2-.23.33-.13.14-.2.21-.2.22-.38,1-.58,1.53-.6,1.59-.13.27-.28.44-.45.51l.08.33c-.14,0-.28.1-.4.31-.29.63-.57,1.21-.85,1.76-.2.37-.4.72-.6,1.08-.3.58-.45.98-.45,1.2-.14,0-.33.15-.55.46-.22.31-.44.5-.67.59-.22.08-.42.23-.58.44-.17.21-.25.42-.25.65,0,.01.02.05.07.12.12.18.18.39.18.63,0,.33-.16.6-.48.82-.32.22-.48.59-.48,1.11v.14c0,.31-.13.64-.4.99-.31.41-.65.62-1.02.62-.22,0-.45-.12-.69-.35-.24-.23-.36-.48-.36-.73,0-.17.04-.34.12-.5.12-.23.24-.45.37-.67.01-.03,0-.15,0-.36s-.01-.32,0-.34c.1-.14.2-.31.3-.53.1-.29.21-.57.32-.85.03-.06.17-.21.42-.45s.43-.47.55-.67c.24-.39.43-.72.57-1.01.08-.21.16-.41.23-.6.1-.16.24-.33.41-.5.17-.18.36-.36.56-.54.08-.13.13-.23.16-.31.03-.08.04-.16.04-.24-.02-.11-.03-.2-.03-.26.11-.23.2-.37.27-.43.11-.09.19-.19.25-.29s.07-.17.04-.21c-.03-.04-.03-.08,0-.11.19-.24.32-.48.4-.74.04-.24.09-.48.13-.72.37-.65.62-1.1.75-1.35.22-.43.45-.87.68-1.32l1.07-2.24s.28-.47.8-1.28c.23-.36.35-.63.35-.79-.03-.11-.06-.19-.07-.24-.04-.17-.09-.27-.13-.3s-.17-.07-.37-.11c-.21-.04-.34-.08-.39-.11-.06-.03-.18-.09-.38-.2-.2-.1-.33-.15-.38-.15h-1.45c-.1,0-.23.04-.39.13-.16.08-.26.16-.29.21h-2.33c-.42,0-.85.16-1.3.48-.49.37-.98.72-1.46,1.08-.3,0-.5-.13-.59-.39-.09-.26-.14-.58-.14-.96,0-.02.03-.05.08-.08s.09-.07.12-.13c.04-.26.11-.53.19-.8s.22-.6.42-.97c.38-.65.65-1.08.81-1.3.16-.22.31-.32.44-.32.06-.01.12-.04.18-.09h3.5c.07,0,.19.03.38.08.19.05.32.11.38.18h4.03c.07.05.12.07.15.08.12.06.24.09.37.09.06,0,.29-.06.72-.19.42-.13.66-.19.7-.19.22,0,.39.12.51.35.12.23.17.57.17,1Z"/><path class="f" d="M107.55,94.67l-.45.41h-.85l-.4-.12-.68-.17-.47-.34h-.67l-.92-.07-1.03.07-.5-.12-.35-.36.12-.39.35-.41.73-.19.45-.22.28-.29-.12-.7-.1-1.64.17-.34v-.53l-.17-.46.1-.89-.1-1.86-.12-.92v-.65l-.4-.29v-.41l-.12-.24-.17-.29-.17-.34h-.8l-.52-.12-.57-.12-.28.29-.52-.05-.45.17h-.63l-.45.46-.12.41-.05.36v.92l-.17.82.17,1.93.12.22.05.53-.23.65.35.51-.17.31.1.39.07,1.81.12.41.4.12.45.29.4.53-.07.63-.73.12-1.02-.05h-.97l-.68-.12-1.08.17-.63.07-.52-.48-.22-.29v-.63l.33-.29.52-.12.28-.36.35-.05-.07-.41.12-.82-.17-.34.45-.82-.28-.41.17-.29v-.87l-.22-.7-.18-.36.12-.46.23-.36.05-.75-.17-.82.23-.51-.35-.6-.8-.63-.78-.41-.63-.12-.68.07-.96.17-.52.53-.22.75-.52,1.28.12,1.4.05.87-.05.77-.17.34.22.41v.99l-.22.29.38.7.07.99h.52l.28.41.45.58.23.82-.47.17-.85.29-1.2.12-.96-.24-1.65-.22-.62-.19-.28-.22v-.53l.45-.34.12-.6.23-.51.17-1.11.17-.58.23-.24-.23-.24v-.39l.4-1.01-.23-.34v-.87l.12-.29-.23-.24.12-1.33v-.36l-.4-.46-.33-.41-.17-.53-.07-.53-.12-.34v-.53l.28-.46.23-.36.4-.17.17-.29.63-.05h.62l.63-.41h.57l.35.41.17.34.28.36.45.17.45-.24.8-.29h1.13l.4-.29.63-.05.73.17.4.05.63.36.4.12.4.29.38.58.68.41.18-.24.45-.17.52-.36.4-.46.62-.12.57-.34.75-.07.45-.17h1.42l.92.24.62.58.58.34.67.94.23.58.12.46-.17.24-.12.94-.12.34.12.24v.46l.05,1.57.23.29.12.53v.7l-.17.46.17.36v1.16l.12,1.28.45.41.45.65.28.75.12.46Z"/><path class="f" d="M130.34,94.67l-.45.41h-.85l-.4-.12-.68-.17-.47-.34h-.67l-.92-.07-1.03.07-.5-.12-.35-.36.12-.39.35-.41.73-.19.45-.22.28-.29-.12-.7-.1-1.64.17-.34v-.53l-.17-.46.1-.89-.1-1.86-.12-.92v-.65l-.4-.29v-.41l-.12-.24-.17-.29-.17-.34h-.8l-.52-.12-.57-.12-.28.29-.52-.05-.45.17h-.63l-.45.46-.12.41-.05.36v.92l-.17.82.17,1.93.12.22.05.53-.23.65.35.51-.17.31.1.39.07,1.81.12.41.4.12.45.29.4.53-.07.63-.73.12-1.02-.05h-.97l-.68-.12-1.08.17-.63.07-.52-.48-.22-.29v-.63l.33-.29.52-.12.28-.36.35-.05-.07-.41.12-.82-.17-.34.45-.82-.28-.41.17-.29v-.87l-.22-.7-.18-.36.12-.46.23-.36.05-.75-.17-.82.23-.51-.35-.6-.8-.63-.78-.41-.63-.12-.68.07-.96.17-.52.53-.22.75-.52,1.28.12,1.4.05.87-.05.77-.17.34.22.41v.99l-.22.29.38.7.07.99h.52l.28.41.45.58.23.82-.47.17-.85.29-1.2.12-.96-.24-1.65-.22-.62-.19-.28-.22v-.53l.45-.34.12-.6.23-.51.17-1.11.17-.58.23-.24-.23-.24v-.39l.4-1.01-.23-.34v-.87l.12-.29-.23-.24.12-1.33v-.36l-.4-.46-.33-.41-.17-.53-.07-.53-.12-.34v-.53l.28-.46.23-.36.4-.17.17-.29.63-.05h.62l.63-.41h.57l.35.41.17.34.28.36.45.17.45-.24.8-.29h1.13l.4-.29.63-.05.73.17.4.05.63.36.4.12.4.29.38.58.68.41.18-.24.45-.17.52-.36.4-.46.62-.12.57-.34.75-.07.45-.17h1.42l.92.24.62.58.58.34.67.94.23.58.12.46-.17.24-.12.94-.12.34.12.24v.46l.05,1.57.23.29.12.53v.7l-.17.46.17.36v1.16l.12,1.28.45.41.45.65.28.75.12.46Z"/><path class="f" d="M11.97,133.39c-.03.06-.05.15-.05.29v.55c0,.08,0,.14-.02.17s-.03.06-.07.08c-.09.07-.14.12-.17.15-.18.33-.31.58-.4.73-.17.3-.34.52-.53.67-.25.21-.42.33-.5.36-.08.04-.19.05-.33.05-.12,0-.28-.04-.46-.14-.19-.09-.33-.14-.43-.14h-.43c-.09.07-.16.1-.22.1-.01,0-.07-.03-.17-.09s-.24-.09-.43-.09c-.07-.07-.11-.12-.13-.15-.1-.11-.16-.18-.18-.19-.21-.11-.4-.3-.56-.55-.24-.38-.4-.6-.48-.68-.04.26-.27.51-.68.75-.32.18-.64.36-.96.53-.27.18-.53.36-.8.53-.27.17-.56.26-.88.26l-.65-.26c-.12-.04-.27-.09-.44-.14-.17-.04-.32-.08-.44-.11s-.21-.06-.25-.09c-.14-.09-.22-.14-.23-.15-.19-.14-.31-.28-.37-.44-.04-.35-.11-.66-.2-.92-.02-.08-.09-.22-.22-.44-.12-.21-.18-.4-.18-.56,0-.52.15-1.07.46-1.65.31-.58.67-.99,1.11-1.24l.65-.03c.05-.01.12-.05.21-.12.08-.07.17-.15.27-.24.24-.11.67-.18,1.28-.21.61-.03,1-.06,1.18-.09.18-.03.33-.08.47-.14.28-.14.45-.21.51-.23.06-.02.13-.05.22-.09.08-.04.14-.1.17-.15.03-.06.08-.1.15-.14s.09-.07.08-.12l-.05-2.02v-1.08c-.12-.33-.25-.54-.38-.62-.23-.08-.47-.17-.7-.27-.34-.15-.64-.22-.9-.22-.14,0-.28,0-.39.03-.12.02-.25.04-.39.06,0,.07-.05.12-.14.15-.25.08-.38.14-.41.18-.03.04-.06.07-.11.09-.05.02-.08.06-.1.1-.06.09-.1.23-.1.41,0,.08.01.2.03.36.02.16.03.29.03.38,0,.17-.03.3-.1.39-.16.24-.35.43-.57.57s-.47.21-.73.21c-.15,0-.26,0-.35-.02-.34-.04-.53-.07-.57-.07,0-.15-.07-.3-.2-.44-.13-.15-.2-.3-.2-.46,0-.39.09-.71.26-.98.17-.27.35-.53.52-.79.13-.25.31-.47.53-.67.31-.24.55-.43.72-.56.1-.08.19-.17.28-.27.09-.1.16-.18.22-.24.11-.11.25-.18.42-.21.17-.02.35-.05.52-.07.08-.02.17-.09.27-.2.1-.11.19-.18.27-.21.04-.01.11-.01.21,0,.09.01.17.01.22,0,.14-.04.28-.06.4-.08.12-.02.24-.03.37-.03.21,0,.46.07.73.21s.54.27.8.39c.2.06.4.11.6.15.28.13.53.36.77.7.17.25.33.58.48.99v1.62c.02.1.08.31.17.62.09.31.14.54.14.7,0,.18-.04.46-.13.82-.09.37-.13.65-.13.85,0,.11.02.26.07.44.05.18.08.3.08.36l-.2.21c-.03.1-.05.19-.05.26.02.16.04.29.05.39v.96c-.08.1-.12.2-.12.29s.03.31.08.65c.02.14.03.28.03.43l.13.03c.09,0,.18,0,.28-.03.1-.02.16-.03.18-.03.1,0,.19.06.28.17l.02-.17h.47c.21,0,.34,0,.38-.03.04-.02.08-.1.12-.25h.15c.08.02.2.04.37.05.17.01.32.06.47.14ZM6.76,132.53v-1.9c-.07.01-.17.02-.3.02-.22-.01-.39-.02-.52-.02-.14,0-.3.03-.47.08-.51.18-.85.28-1.02.3-.17.02-.45.14-.82.37-.47.29-.7.58-.7.89s.08.64.22.98c.15.35.34.58.57.71.17.03.33.07.5.1.04.02.09.05.13.09s.09.06.13.06c.24,0,.44-.03.6-.1.2-.11.37-.21.5-.27.34-.16.6-.33.77-.5.23-.22.37-.49.4-.82Z"/><path class="f" d="M24.67,135.59l-.23.65-.4.22-.97.07-.4-.24h-.8l-.28.17h-.68l-.68-.17-.5.24-.47-.24-.4-.34-.17-.53.23-.46.4-.12.68-.17.22-.24-.05-.41.17-.29-.05-1.4v-.94l.12-.39-.07-2.75-.17-.34.17-.82-.12-.53-.28-.34-.33-.19-.52-.58-.63-.17-.73-.17-.45-.24-.52.24-.28.46-.52.36-.45.39-.28.31-.17.34.05,2.92-.17.29v2.85l.23.24-.07.92.28.36.35.22.73-.05.23.29.17.41-.35.7-.5.05-.63.29-.9-.05-.58.25-.85.05-.73-.12-.4-.12-.45-.17-.12-.58.12-.24.33-.75.28-.41.35-.24-.07-3.78.18-.19.05-.41-.23-.34-.05-.53.23-.29v-1.87l-.75-.82-.28-.46-.28-.24.05-.7.18-.29.28-.22.4-.19.4-.12.05-.22.4-.24.28-.12.52-.05.38-.24.47-.05.52.46.38.36.07.46.52.12.22-.36.47-.29.67-.29.52-.29.57-.12.47-.17h.5l.52.24.35-.19.33.41.52.48.28-.07.45.17.4.24.05.29.4.48.57.75.18.7-.23.34.28.48-.05,2.27-.35.87-.05,1.16.22.41.07.82-.28.46-.07.48.12.39.28.48.4.22.45.29.3.24v.58Z"/><path class="f" d="M35.41,134.38l-.05.68-.63.73-.82.67h-.72l-.55.27-.62.05-.6.17-.88-.05-.9-.17-.67-.5-.48-.38-.48-.19v-.5l-.05-.55-.25-.94.13-.43-.25-.36.12-1.04-.18-.99.12-.68-.33-2.41-.2-.56.05-.46.32-.38-.17-.26-.08-.97-.07-.7-.17-.41-.37-.21-.47-.1-.25-.24-.05-.87.3-.17.35-.27.37-.29.35-.33.3-.29v-.21l.55-.41.22-.63.38-.74.25-.67.4-.38.32-.24h.17l.32.5.05.24-.25.12v.5l.25.31.05.5-.22.41-.08.32.37.17.9.07h1.03l.82-.07.15.27h.23l.1-.15.55-.12.2.33.45.12.05.32.2.22-.17.73-.08.21-.05.34-.4.07v.33l-.68.22h-1.68l-.33-.22h-.43l-.48.17-.32.26-.28.5-.05.36h.17v.75l-.05,1.23h-.2v.29l.48.55-.07.56-.17.31-.25.32v1.57l.12.27.36.29-.12,1.25.12,1.16.3.36.43.14h.43l.22-.19.67.5.25-.31h.6l.28-.38.6-.05.42-.5.43.24.32.38.05.62Z"/><path class="f" d="M42.03,135.63l-.27.7-.68.26-.77-.08-.77.08-.93-.34-.6.34-.6.36h-.85l-.6-.53-.25-.53.08-.79.77-.08.68-.7.17-1.04.08-1.06-.25-.79.33-.26v-.62l.35-.45-.35-.43-.25-1.49.08-1.06-.68-.26-.85-.44-.08-.79.42-.62.52-.17.6-.17.43-.79.68.09.68-.09.85-.27.5.27.18.62-.08.62-.35.87.25.34.1.7-.18.87-.08.79v2.46l-.08.96.35.62-.18.62.18.34.25.79.68.62.52.53ZM41.35,117.26l-.52.51-.52.44-.85-.08-.68-.44-.52-.62v-.79l.35-.7.85-.26.85.26.43.27v.34l.52.27.08.79Z"/><path class="f" d="M54.84,128.53l-.23.82-.5.17-.47.17-.45.07h-1.25l-.35.12-.57.22-.5.24-.4.12-.52.34-.63-.12-.5.31-.57.17-.47.17-.5.24-.63.22-.73-.05-.57-.05-.47-.12-.22-.24-.18-.41-.17-.41.12-.46.17-.36.23-.46.33-.41.28-.29h.75l.45-.17.63-.05.45-.19.33-.29.4-.12.57-.22.35-.41.62-.17.52-.07.57-.12.47-.05.5-.24.4-.17.75.05.78-.05.47.29.33.36.4.51v1.11Z"/><path class="f" d="M68.02,133.39c-.03.06-.05.15-.05.29v.55c0,.08,0,.14-.02.17s-.03.06-.07.08c-.09.07-.14.12-.17.15-.18.33-.31.58-.4.73-.17.3-.34.52-.53.67-.25.21-.42.33-.5.36-.08.04-.19.05-.33.05-.12,0-.28-.04-.46-.14-.19-.09-.33-.14-.43-.14h-.43c-.09.07-.16.1-.22.1-.01,0-.07-.03-.17-.09s-.24-.09-.43-.09c-.07-.07-.11-.12-.13-.15-.1-.11-.16-.18-.18-.19-.21-.11-.4-.3-.56-.55-.24-.38-.4-.6-.48-.68-.04.26-.27.51-.68.75-.32.18-.64.36-.96.53-.27.18-.53.36-.8.53-.27.17-.56.26-.88.26l-.65-.26c-.12-.04-.27-.09-.44-.14-.17-.04-.32-.08-.44-.11s-.21-.06-.25-.09c-.14-.09-.22-.14-.23-.15-.19-.14-.31-.28-.37-.44-.04-.35-.11-.66-.2-.92-.02-.08-.09-.22-.22-.44-.12-.21-.18-.4-.18-.56,0-.52.15-1.07.46-1.65.31-.58.67-.99,1.11-1.24l.65-.03c.05-.01.12-.05.21-.12.08-.07.17-.15.27-.24.24-.11.67-.18,1.28-.21.61-.03,1-.06,1.18-.09.18-.03.33-.08.47-.14.28-.14.45-.21.51-.23.06-.02.13-.05.22-.09.08-.04.14-.1.17-.15.03-.06.08-.1.15-.14s.09-.07.08-.12l-.05-2.02v-1.08c-.12-.33-.25-.54-.38-.62-.23-.08-.47-.17-.7-.27-.34-.15-.64-.22-.9-.22-.14,0-.28,0-.39.03-.12.02-.25.04-.39.06,0,.07-.05.12-.14.15-.25.08-.38.14-.41.18-.03.04-.06.07-.11.09-.05.02-.08.06-.1.1-.06.09-.1.23-.1.41,0,.08.01.2.03.36.02.16.03.29.03.38,0,.17-.03.3-.1.39-.16.24-.35.43-.57.57s-.47.21-.73.21c-.15,0-.26,0-.35-.02-.34-.04-.53-.07-.57-.07,0-.15-.07-.3-.2-.44-.13-.15-.2-.3-.2-.46,0-.39.09-.71.26-.98.17-.27.35-.53.52-.79.13-.25.31-.47.53-.67.31-.24.55-.43.72-.56.1-.08.19-.17.28-.27.09-.1.16-.18.22-.24.11-.11.25-.18.42-.21.17-.02.35-.05.52-.07.08-.02.17-.09.27-.2.1-.11.19-.18.27-.21.04-.01.11-.01.21,0,.09.01.17.01.22,0,.14-.04.28-.06.4-.08.12-.02.24-.03.37-.03.21,0,.46.07.73.21s.54.27.8.39c.2.06.4.11.6.15.28.13.53.36.77.7.17.25.33.58.48.99v1.62c.02.1.08.31.17.62.09.31.14.54.14.7,0,.18-.04.46-.13.82-.09.37-.13.65-.13.85,0,.11.02.26.07.44.05.18.08.3.08.36l-.2.21c-.03.1-.05.19-.05.26.02.16.04.29.05.39v.96c-.08.1-.12.2-.12.29s.03.31.08.65c.02.14.03.28.03.43l.13.03c.09,0,.18,0,.28-.03.1-.02.16-.03.18-.03.1,0,.19.06.28.17l.02-.17h.47c.21,0,.34,0,.38-.03.04-.02.08-.1.12-.25h.15c.08.02.2.04.37.05.17.01.32.06.47.14ZM62.81,132.53v-1.9c-.07.01-.17.02-.3.02-.22-.01-.39-.02-.52-.02-.14,0-.3.03-.47.08-.51.18-.85.28-1.02.3-.17.02-.45.14-.82.37-.47.29-.7.58-.7.89s.08.64.22.98c.15.35.34.58.57.71.17.03.33.07.5.1.04.02.09.05.13.09s.09.06.13.06c.24,0,.44-.03.6-.1.2-.11.37-.21.5-.27.34-.16.6-.33.77-.5.23-.22.37-.49.4-.82Z"/><path class="f" d="M73.45,135.63l-.27.7-.68.26-.77-.08-.77.08-.93-.34-.6.34-.6.36h-.85l-.6-.53-.25-.53.08-.79.77-.08.68-.7.17-1.04.08-1.06-.25-.79.33-.26v-.62l.35-.45-.35-.43-.25-1.49.08-1.06-.68-.26-.85-.44-.08-.79.42-.62.52-.17.6-.17.43-.79.68.09.68-.09.85-.27.5.27.18.62-.08.62-.35.87.25.34.1.7-.18.87-.08.79v2.46l-.08.96.35.62-.18.62.18.34.25.79.68.62.52.53ZM72.76,117.26l-.52.51-.52.44-.85-.08-.68-.44-.52-.62v-.79l.35-.7.85-.26.85.26.43.27v.34l.52.27.08.79Z"/><path class="f" d="M85.6,123.99l-.12.87-.12.46-.52.6v.46l-.5.41-.4-.17-.57-.36-.4-.41-.35-.53-.62-.34-.35.34-.57.19-.52.22-.5.19-.35.58.07,3.5.17,2.79.33.12-.17.77.35.34.38.46.52.29.4.6-.23.75-.28.34-1.3-.17-.45.41-1.32-.05-.4-.24-.45-.05-.28.22-.85.17-.58-.1-.45-.19-.33-.39-.28-.53.17-.77.57-.34.45-.12.52-.24.28-.39.17-.29-.28-.31.07-.63.28-.41v-1.04l.05-.99-.05-1.59.12-1.4-.18-.63-.28-.53-.33-.34-.12-.36-.28-.22.23-.82.17-.24.28-.53.4-.39.33-.36.35-.12.45-.22h.73l.52.05.12.46.33.24.35.7.33.24.28-.31.47-.34.45-.29.57-.29.8-.12.73-.29.63.29.68.53.45.41.23.46Z"/><path class="f" d="M96.47,125.03c0,.35-.07.64-.2.85-.13.22-.37.32-.7.32-.47,0-.92-.17-1.36-.51-.52-.4-.91-.63-1.15-.69l-.33-.03c-.1-.03-.18-.06-.23-.07-.22-.06-.4-.08-.53-.08l-.25.28c-.31,0-.59.07-.83.22-.04.02-.09.06-.15.12-.48,0-.84.09-1.08.27-.3.23-.45.6-.45,1.13,0,.19-.03.44-.08.73-.13.72-.2,1.2-.2,1.44,0,.31.01.58.04.8.03.23.09.43.18.62.06.1.12.15.19.15h.08s.03.14.03.31v.57c0,.15.09.37.28.65.14.21.23.33.25.38.07.08.16.21.27.38s.22.31.32.41c.21.21.58.36,1.11.47s.99.16,1.39.16c.66,0,1.2-.12,1.65-.35.54-.29.86-.71.95-1.28.24.09.43.18.57.27.13.09.2.17.2.27,0,.03-.03.09-.08.18-.06.09-.08.15-.08.18l-.27,1.25c-.61.57-1.22,1.14-1.83,1.7-.61.39-1.3.58-2.08.58s-1.41-.15-2.01-.46c-.59-.31-1.13-.76-1.61-1.35-.11-.14-.23-.33-.35-.57-.12-.25-.23-.43-.33-.56-.37-.47-.56-.72-.58-.77-.08-.13-.17-.33-.27-.62-.06-.15-.11-.3-.17-.46-.06-.22-.14-.39-.24-.51-.11-.13-.16-.3-.16-.53,0-.12,0-.24.02-.33.02-.1.03-.2.03-.32l-.05-1.4c0-.19.1-.41.31-.65.21-.24.33-.43.38-.56.14-.51.45-1.18.93-2,.34-.59.56-.98.65-1.16.09-.06.23-.17.42-.32.19-.16.36-.29.49-.38.24-.16.61-.34,1.1-.53.72-.29,1.12-.44,1.19-.48s.19-.05.34-.05c.11,0,.31.02.6.07.29.05.52.07.68.07.84,0,1.53.15,2.05.46.64.38.97.96.97,1.74Z"/><path class="f" d="M107.92,123.99l-.12.87-.12.46-.52.6v.46l-.5.41-.4-.17-.57-.36-.4-.41-.35-.53-.62-.34-.35.34-.57.19-.52.22-.5.19-.35.58.07,3.5.17,2.79.33.12-.17.77.35.34.38.46.52.29.4.6-.23.75-.28.34-1.3-.17-.45.41-1.32-.05-.4-.24-.45-.05-.28.22-.85.17-.58-.1-.45-.19-.33-.39-.28-.53.17-.77.57-.34.45-.12.52-.24.28-.39.17-.29-.28-.31.07-.63.28-.41v-1.04l.05-.99-.05-1.59.12-1.4-.18-.63-.28-.53-.33-.34-.12-.36-.28-.22.23-.82.17-.24.28-.53.4-.39.33-.36.35-.12.45-.22h.73l.52.05.12.46.33.24.35.7.33.24.28-.31.47-.34.45-.29.57-.29.8-.12.73-.29.63.29.68.53.45.41.23.46Z"/><path class="f" d="M120.42,133.39c-.03.06-.05.15-.05.29v.55c0,.08,0,.14-.02.17s-.03.06-.07.08c-.09.07-.14.12-.17.15-.18.33-.31.58-.4.73-.17.3-.34.52-.53.67-.25.21-.42.33-.5.36-.08.04-.19.05-.33.05-.12,0-.28-.04-.46-.14-.19-.09-.33-.14-.43-.14h-.43c-.09.07-.16.1-.22.1-.01,0-.07-.03-.17-.09s-.24-.09-.43-.09c-.07-.07-.11-.12-.13-.15-.1-.11-.16-.18-.18-.19-.21-.11-.4-.3-.56-.55-.24-.38-.4-.6-.48-.68-.04.26-.27.51-.68.75-.32.18-.64.36-.96.53-.27.18-.53.36-.8.53-.27.17-.56.26-.88.26l-.65-.26c-.12-.04-.27-.09-.44-.14-.17-.04-.32-.08-.44-.11s-.21-.06-.25-.09c-.14-.09-.22-.14-.23-.15-.19-.14-.31-.28-.37-.44-.04-.35-.11-.66-.2-.92-.02-.08-.09-.22-.22-.44-.12-.21-.18-.4-.18-.56,0-.52.15-1.07.46-1.65.31-.58.67-.99,1.11-1.24l.65-.03c.05-.01.12-.05.21-.12.08-.07.17-.15.27-.24.24-.11.67-.18,1.28-.21.61-.03,1-.06,1.18-.09.18-.03.33-.08.47-.14.28-.14.45-.21.51-.23.06-.02.13-.05.22-.09.08-.04.14-.1.17-.15.03-.06.08-.1.15-.14s.09-.07.08-.12l-.05-2.02v-1.08c-.12-.33-.25-.54-.38-.62-.23-.08-.47-.17-.7-.27-.34-.15-.64-.22-.9-.22-.14,0-.28,0-.39.03-.12.02-.25.04-.39.06,0,.07-.05.12-.14.15-.25.08-.38.14-.41.18-.03.04-.06.07-.11.09-.05.02-.08.06-.1.1-.06.09-.1.23-.1.41,0,.08.01.2.03.36.02.16.03.29.03.38,0,.17-.03.3-.1.39-.16.24-.35.43-.57.57s-.47.21-.73.21c-.15,0-.26,0-.35-.02-.34-.04-.53-.07-.57-.07,0-.15-.07-.3-.2-.44-.13-.15-.2-.3-.2-.46,0-.39.09-.71.26-.98.17-.27.35-.53.52-.79.13-.25.31-.47.53-.67.31-.24.55-.43.72-.56.1-.08.19-.17.28-.27.09-.1.16-.18.22-.24.11-.11.25-.18.42-.21.17-.02.35-.05.52-.07.08-.02.17-.09.27-.2.1-.11.19-.18.27-.21.04-.01.11-.01.21,0,.09.01.17.01.22,0,.14-.04.28-.06.4-.08.12-.02.24-.03.37-.03.21,0,.46.07.73.21s.54.27.8.39c.2.06.4.11.6.15.28.13.53.36.77.7.17.25.33.58.48.99v1.62c.02.1.08.31.17.62.09.31.14.54.14.7,0,.18-.04.46-.13.82-.09.37-.13.65-.13.85,0,.11.02.26.07.44.05.18.08.3.08.36l-.2.21c-.03.1-.05.19-.05.26.02.16.04.29.05.39v.96c-.08.1-.12.2-.12.29s.03.31.08.65c.02.14.03.28.03.43l.13.03c.09,0,.18,0,.28-.03.1-.02.16-.03.18-.03.1,0,.19.06.28.17l.02-.17h.47c.21,0,.34,0,.38-.03.04-.02.08-.1.12-.25h.15c.08.02.2.04.37.05.17.01.32.06.47.14ZM115.21,132.53v-1.9c-.07.01-.17.02-.3.02-.22-.01-.39-.02-.52-.02-.14,0-.3.03-.47.08-.51.18-.85.28-1.02.3-.17.02-.45.14-.82.37-.47.29-.7.58-.7.89s.08.64.22.98c.15.35.34.58.57.71.17.03.33.07.5.1.04.02.09.05.13.09s.09.06.13.06c.24,0,.44-.03.6-.1.2-.11.37-.21.5-.27.34-.16.6-.33.77-.5.23-.22.37-.49.4-.82Z"/><path class="f" d="M132.54,116.4l-.22.17-.23.36-.45.29-.17.29h-.58l-.28-.34h-.33l-.4-.41h-.28l-.4-.41-.23-.17-.4-.07-.17-.34-.4-.19-.28-.1h-1.53l-.45.1-.4.41-.17.36-.28.46-.07.29-.22.17v1.69l.1.24.18.82-.28.24-.23.39.12.99.28.29.45.31h1.03l.97-.07h1.18l.52.36.05.87-.28.34-.4.53-1.65-.05-.73.29-.92.17-.05.34-.33.24.33.7v2.85l.17.29-.12.29v2.22l-.17.41.28.24.07,1.86.22.34.8.24.63.24.4.46.17.41v.34l-.17.24-1.6-.12-1.08.12h-.85l-.35.17h-.38l-.3-.22-.45.22-.68.17h-.4l-.57-.17-.33-.17v-.58l-.12-.29.05-.29.23-.41.28-.46.52.05.33-.12.23-.34.23-.29.17-1.81-.28-.29.17-.24v-.34l-.17-.31v-1.16l.05-1.21.23-1.06-.28-.05.17-.36v-2.56l-.23.05-1.37-.05-.57-.24-.12-.41v-.63l.35-.24.45-.34.8-.17.17-.24v-.94l.35-.46.05-2.44.28-.41.23-.58-.07-.6.28-.58.35-.29v-.41h.23l.05-.34.68-.7.73-.29.58-.07.33-.34.52.05.28-.1.33.1.47-.19.45.26.85-.07.12-.1.28.22,1.42.07,1.03.1.4.12.22.36v.12l.47.34.1,1.57Z"/><path class="f" d="M139.72,134.38l-.05.68-.63.73-.82.67h-.72l-.55.27-.62.05-.6.17-.88-.05-.9-.17-.67-.5-.48-.38-.48-.19v-.5l-.05-.55-.25-.94.13-.43-.25-.36.12-1.04-.18-.99.12-.68-.33-2.41-.2-.56.05-.46.32-.38-.17-.26-.08-.97-.07-.7-.17-.41-.37-.21-.47-.1-.25-.24-.05-.87.3-.17.35-.27.37-.29.35-.33.3-.29v-.21l.55-.41.22-.63.38-.74.25-.67.4-.38.32-.24h.17l.32.5.05.24-.25.12v.5l.25.31.05.5-.22.41-.08.32.37.17.9.07h1.03l.82-.07.15.27h.23l.1-.15.55-.12.2.33.45.12.05.32.2.22-.17.73-.08.21-.05.34-.4.07v.33l-.68.22h-1.68l-.33-.22h-.43l-.48.17-.32.26-.28.5-.05.36h.17v.75l-.05,1.23h-.2v.29l.48.55-.07.56-.17.31-.25.32v1.57l.12.27.36.29-.12,1.25.12,1.16.3.36.43.14h.43l.22-.19.67.5.25-.31h.6l.28-.38.6-.05.42-.5.43.24.32.38.05.62Z"/><path class="f" d="M159.08,124.98l-.23.34-.5.31-.18.22-.17-.12-.57-.05-.33.24-.4.34-.07.65-.28.17.23.29v.75l-.17.24v.41l.45.41v.46l-.23.94-.28.17.28.12-.28.34-.05.48h-.28l-.07.29-1.08,1.09-.57.36-.4.05-.78.19-.63.29-.92-.07-.62.41-.63.53-.5.22h-1.25l-.4.31-.52.51.17.41-.12.17v.48l.4.05.23.36.4.34.45.17.63-.22,1.42-.12.68-.29,1.2.17.9.36.92.1.33.29.28-.22.75.12.57.58.62.34.47,1.06.28.63.17.58.17.65.23.92.17.94-.12.87-.17.58-.17.7-.68.48-.68.46h-.57l-.75.65-.5.29-.75.17-1.18.05h-1.53l-.52-.34h-2l-.28-.24-.22-.05-.47-.19h-.62l-.4-.51-.45-.12-.47-.36-.33-.58-.57-.63-.4-.77-.23-.46-.17-.58.17-.46.23-.58v-.36l.45-.41.8-.7v-.17l.62-.46.58-.24v-.29l-.35-.12-.68-.24-.23-.22-.68-.24-.22-.34v-1.18l-.17-.46.17-.58-.28-.41.28-.65.52-.51.5-.41h1.48l.85-.12.28-.46-.22-.53-.4.12-.12-.46-.68-.19-.52-.22-.12-.48-.5-.63-.52-.07-.28-.29-.12-1.91.45-.41-.05-1.47.05-1.21.4-.29.07-.58h.45l.63-.6.62-.75.63-.05.33-.36,1.31-.17.57-.36h1.18l.68.36.58.17.57.24,1.02.29.17.58.57-.05.35-.48.52-.34.73-.36.57-.34.28.17.4.36.35.29.05,1.45ZM156.52,143.01l-.05-.58-.4-.36-.05-.87-.4-.12-.45-.41-1.65.07-.35-.41-.85-.12h-.85l-.35.17-.8.07-.4-.48-.57.41-.4.36-.45.29-.17.46-.4.12.05.63-.17.29.07.53.62.75.35.19.17.22.85.41.85.41h1.37l2.16-.58h1.3l.28-.53.35-.41.33-.51ZM154.08,129.12l-.18-.58-.22-1.33-.17-.77-.12-.46-.28-.05-.4-.53h-.35l-.4-.24-.17-.29-.68-.05-.52.29-.57.53-.17.34-.73.65v.58l-.12,1.04-.28.36-.12,1.21.28.41.28.7.12.58.57.36.73.12.63.46.57.12.28-.36.85-.51.28-.89.47-.8.4-.89Z"/><path class="f" d="M172.06,134.77l-.28.89-.28.34-.62.17-.47.25-.45.12-.73.18h-.52l-.35-.42-.1-.59-.18-.29-.28-.29-.5.34-.23.41-.85.29h-.57l-.63.41-.33-.22-.23.22h-.68l-.57-.12-.92-.34-.52-.24-.38-.05.05-.36-.4-.29-.33-.29-.35-.63v-1.18l-.23-.22.07-.94.12-.17.05-.7-.05-.58-.12-.46.17-.36-.23-.24.12-2.44-.17-.7-.12-1.04-.28-.36-.52-.29-.62-.29.05-.41.12-.58.4-.29,1.42-.05.52-.19.4-.12h.8l.57.24.57.53.05.34-.1.77-.23.12-.05.63.17.94-.28.17v.75l.22.36.12.82-.28.75-.05.82-.23.34.05.58.07,1.47.33.29v.58l.18.46.57.29.4.24.5-.07.92.12.62-.22.8.1.75-.87v-.34l.33-.24.12-.41-.17-.46.17-.53-.17-.41.17-.34v-.29l-.12-.7v-.77l.17-.63.07-.58-.07-1.81-.1-.29-.47-.41-.5-.12-.18.17-.5-.17-.3-.29-.38-.29-.07-.46-.22-.48.38-.39.63-.31.12.31.45-.07.63.24.33-.24.52-.05.73.05.17-.24.63-.1.28.46.23.17.33.29v.7l-.12,1.35-.17.22.07.53.17.17-.23.36v2.56l-.12.34.18.31v1.04l-.12.34.12.31-.18.51.18.29v.89l.22.17.17.41h.35l.28.22v.36l.17.22Z"/><path class="f" d="M186.51,135.59l-.23.65-.4.22-.97.07-.4-.24h-.8l-.28.17h-.68l-.68-.17-.5.24-.47-.24-.4-.34-.17-.53.23-.46.4-.12.68-.17.22-.24-.05-.41.17-.29-.05-1.4v-.94l.12-.39-.07-2.75-.17-.34.17-.82-.12-.53-.28-.34-.33-.19-.52-.58-.63-.17-.73-.17-.45-.24-.52.24-.28.46-.52.36-.45.39-.28.31-.17.34.05,2.92-.17.29v2.85l.23.24-.07.92.28.36.35.22.73-.05.23.29.17.41-.35.7-.5.05-.63.29-.9-.05-.58.25-.85.05-.73-.12-.4-.12-.45-.17-.12-.58.12-.24.33-.75.28-.41.35-.24-.07-3.78.18-.19.05-.41-.23-.34-.05-.53.23-.29v-1.87l-.75-.82-.28-.46-.28-.24.05-.7.18-.29.28-.22.4-.19.4-.12.05-.22.4-.24.28-.12.52-.05.38-.24.47-.05.52.46.38.36.07.46.52.12.22-.36.47-.29.67-.29.52-.29.57-.12.47-.17h.5l.52.24.35-.19.33.41.52.48.28-.07.45.17.4.24.05.29.4.48.57.75.18.7-.23.34.28.48-.05,2.27-.35.87-.05,1.16.22.41.07.82-.28.46-.07.48.12.39.28.48.4.22.45.29.3.24v.58Z"/><path class="f" d="M196.62,132.04l-.22,1.28v.94l-.35.75-.57.75-.8.36-.57.12-.33.41-.8.05-1.3.17-.52-.17-1.25-.05-.57-.24-.52-.12-.45-.7-.23-.75-.23-.53-.05-.75.17-.65.35-.22.33-.31.17.12h.47l.45.58.28.36.23.46.22.53.47.05.5.48.68.1.47.36.62-.05.28-.82.28-.36.07-1.11.1-.29-.33-.34v-.41l-.4-.12-.92-.53-.78-.17-1.2-.53-.68-.46-.52-.41-.4-.29-.33-.7-.12-.58-.12-.53-.22-.29-.07-.7.12-.75.45-.82v-.41l.47-.34v-.36l.57-.58.33-.05.68-.46.4-.31.85-.05h.87l.62.24.68.05.52.07.17.22.52.41.45.36.23.75.28.75-.12.82-.52.53-.52.22-.62-.17-.57-.46-.45-.46-.18-.48-.5-.46-.63-.29-.33-.17-.35.17h-.33l-.23.53-.17.58.17.41.17.75.45.65.58.29.5.17.63.29,1.25.46.45.24.52.58.63.53.38,1.21.28.65Z"/></g><g id="e"><path class="f" d="M133.79,65.25c-5.41-.64-10.88.38-16.28-.55-2.55,0-5.09,0-7.64,0-1.25.54-2.5.54-3.75,0-.33,0-.66,0-1,0-1.25.54-2.49.53-3.74,0-.65,0-1.29,0-1.94,0-.56.44-1.38.28-1.9.82h0c-3.49,3-7.47,1.97-11.39,1.33-.46-.16-.91-.32-1.36-.53-.45-.14-.91-.27-1.36-.41-1.18-.36-2.39-.42-3.6-.36-.78.02-1.55.2-2.31.35-10.18.14-20.37.33-30.54-.37-.56,0-1.12,0-1.68,0-.28,0-.56,0-.83,0-1.39.87-2.93,1.07-4.51.92-1.51-.14-3.2.65-4.49-.59-1.45-1.41,1.62-2.25.6-3.69-.09-.13-.14-.28-.21-.42-2.17-2.17-.23-3.28,1.25-4.27,1.86-1.25,3.89-2.27,5.48.49,1.1,1.28,2.6.88,3.96.88,6.27,0,12.54-.06,18.81-.09,2.09-1.73,4.89-.58,7.12-1.75,1.24-.35,2.23.11,2.44,1.31.2,1.15-.66,1.94-1.72,2.39-9.37,1.14-18.77.21-28.15.54-1.56.06-3.43-1.01-4.73.85,2.91,2.07,5.99.13,8.98.12,19.61-.05,39.22.55,58.83.15,8.8-.18,17.61-.15,26.43.07.52.05,1.02.14,1.53.29,2.9.22,5.87,2.48,8.65-.33.08-.8-.07-1.58-.16-2.36-.03-.41.11-.77.39-1.07.62-.01,1.23-.03,1.85-.04,1.26,1.37-.19,3.32,1.03,4.7,0,0,.02.02.02.02.35,1.12,1.37,2.77-.8,2.77-4.17-.02-8.45,1.04-12.5-.86-.25-.1-.5-.2-.75-.31ZM114.85,31.55l.39.1.37-.14c.29-.29.47-.63.54-1.04-.03-.4-.15-.77-.37-1.11-.45-.39-1-.63-1.55-.84-.35-.18-.7-.34-1.05-.52-.17-.11-.34-.2-.52-.3-.36-.2-.73-.34-1.14-.41-.2.02-.41.04-.61.06-1.01.31-1.81.98-2.69,1.52-3.66,1.51-7.72,2.07-10.91,4.69-.46,3.32.99,5.29,4.24,5.98,1.97-.8,1.31-3.45,3.1-4.36.51-.32,1.07-.54,1.66-.67,1.23-.28,2.49-.48,3.6-1.12v-.05c1.33-1.46,3.24-1.3,4.92-1.79ZM122.23,58.88l-2.88-.04c-1.25-.56-2.5-.58-3.75.02l-4.78-.07c-.42-.21-.86-.41-1.29-.59-2.27-.85-4.66-.28-6.97-.58-.69-.13-1.36-.32-2.02-.58-.71-.3-1.43-.47-2.17-.08-.27.48-.36.99-.28,1.54,1.16,2.74,3.65,2.67,5.99,2.72,4.87.1,9.74.15,14.6,0,5.52-.17,10.95.43,16.35,1.39,1.24.05,2.48.34,3.73.16.45-.06.9-.18,1.33-.33.61-.23,1.2-.52,1.79-.8,1.07-.58,2.43-.69,3.12-1.9,0-.26-.02-.51-.07-.76-.62-.03-1.31-.26-1.85-.07-4.44,1.53-8.86.56-13.29.04-.63,0-1.27-.02-1.9-.02-1.89-.72-3.78-.67-5.67-.03ZM115.64,30.53c-.01.32-.02.65-.03.97,3.24-1.83,6.82-1.92,10.4-1.97.3-.39.32-.79.02-1.19-1.64-1.12-3.35-.91-5.17-.26,1.07-.66,2.25-.99,3.1-1.84.49-1.24.29-2.88,2.02-3.4h0c.23-.25.31-.5.24-.76-.07-.26-.14-.39-.21-.39-1.74-1.1-3.38-.65-4.78.55-2.49,2.11-5.36,2.38-8.41,2.03-1.49.79-3.22,1.51-1.05,3.42h.01c.37.24.67.57.96.9h0c.34.3.65.64,1.07.82.55.11,1.11.23,1.66.34.31.11.43.27.38.46-.06.21-.13.32-.21.32ZM113.85,40.75c-.13-.2-.2-.42-.22-.65-1.37-1.28-3.1-1.88-4.74-2.69-1.91-.95-.95-2.12.03-3.17-1.04-.71-2.18-.36-3.29-.33-2.24,2.96-1.88,3.71,3.07,6.33.38.18.78.33,1.17.48,1.15.36,2.27,1.13,3.56.46.14-.14.28-.29.42-.43ZM125.97,22.85c-.45,0-.91-.03-1.35.03-.76.11-1.68.3-1.8,1.12-.13.87.99.99,1.48,1.53.88,1.33,2.16,1.28,3.5,1.01.51-.18.91-.51,1.18-.98-.06-.24-.13-.47-.22-.69-1.01-.56-3.67,1.17-2.79-2.01ZM114.85,31.55c-1.97-.3-3.93-.59-4.92,1.79,1.84-.04,3.34-1.04,4.92-1.79ZM128.98,25.55c-.34.07-.69.13-1.03.2-.73.59-.86,1.35-.66,2.22.15.4.43.68.83.84.91-.92,2.52-1.66.86-3.26ZM146.8,58.94c.49,1.53-.4,3.37,1.03,4.7-.27-1.58.68-3.43-1.03-4.7ZM105.3,34.44c1.21-.07,2.41-.13,3.62-.2.34-.29.67-.57,1-.86-1.57.03-3.14.07-4.71.1-.15.17-.3.35-.45.52.18.15.35.29.53.43ZM126.17,28.81c-.1.23-.16.47-.16.72.87.24,1.55-.05,2.11-.72-.17-.18-.33-.35-.5-.53-.61-.2-1.14-.14-1.44.52ZM66.3,57.04c-.32.31-.64.62-.96.93,0,.27,0,.54,0,.81,1.72.03,3.43.08,5.15.1,1.19.02,2.15-.35,2.47-1.65-2.18-1.66-4.39-1.99-6.67-.19ZM68.2,29.52c.29.33.57.65.86.98-.29-.33-.57-.65-.86-.98ZM133.59,65.56c.32,0,.64,0,.95,0-.93-1.15-2.25-.9-3.47-.9-4.52,0-9.04.03-13.56.05,1.12,1.22,2.6.82,3.95.84,4.04.04,8.08.02,12.13.02ZM85.27,65.54c0,.32-.01.64-.02.97.37.27.64.62.95.95,3.48,0,6.95,0,10.43,0,.31-.64.62-1.28.93-1.92-4.1,1.35-8.19,1.38-12.29,0ZM109.87,64.7c-1.25,0-2.5,0-3.75,0,1.25,1.21,2.5,1.21,3.75,0ZM105.13,64.71c-1.25,0-2.5,0-3.74,0,1.25,1.2,2.5,1.2,3.74,0ZM99.45,64.72c-.78-.06-1.47.07-1.9.82.75.01,1.45-.12,1.9-.82ZM126.14,22.08c-.1.25-.16.5-.18.77.47.03.95.14,1.41.07,3.74-.58,6.38-4.19,10.44-3.87,3.92.32,6.99-1.39,9.82-3.82,1.33-1.14,2.99-.89,4.53-.83,3.21.12,6.09-.37,8.89-2.29,2.26-1.55,5.09-2.29,7.66-3.39-.46-.6-1.09-.85-1.81-.92-.92-.02-1.84-.04-2.75.18-.86.24-1.71.53-2.54.86-3.85,2.01-7.51,4.91-12.28,2.7-.49-.39-1.05-.59-1.68-.61-.39.04-.77.14-1.13.31-.34.18-.67.37-1.01.57-.18.07-.35.16-.52.23-1.13.43-2.31.29-3.48.34-.85.08-1.69.17-2.3.88-.92.06-1.84.11-2.76.17-.17.44-.1.85.21,1.21,1.71,1.29,3.8.56,5.74,1.03.51-.18-.16.79-.35.18,0,0-.15.04-.44.13-.43.13-.87.27-1.3.41-1.81.76-3.77.54-5.64.83-.42.08-.82.2-1.22.36-1.31.63-2.61,1.29-3.93,1.9-1.22.74-2.72,1.13-3.39,2.59ZM136.48,14.4c0-.32-.02-.64-.02-.97-2.48-.28-4.75.13-6.65,1.88-4.68,2.41-8.98,3.08-12.33,1.92-1.57-2.19-3.63-1.58-5.68-.97h0c-.29.32-.6.61-.94.88-.63.03-1.25.06-1.88.09-.31.4-.3.81,0,1.2,4.12.21,7.87,3,12.2,1.82.65-.07,1.29-.21,1.93-.38,1.6-.6,3.32-.54,4.97-.87.81-.2,1.56-.55,2.3-.93.36-.18.71-.39,1.04-.61.34-.2.68-.42,1.01-.64,1.2-.71,2.64-.96,3.71-1.92.11-.17.22-.34.33-.51ZM154.45,8.68c-1.55.63-2.89,1.76-4.63,1.95-.46.36-.49.76-.09,1.19,4.25.96,7.61-1.5,11.24-2.94.85-.23,1.74-.17,2.59-.41,1.01-.24,2.03-.57,3.01.1.71.05,1.43.09,2.14.14,0,0-.02,0-.02,0,.85-.73,1.79-1.3,2.87-1.63.79-.51,1.39-1.22,2.13-1.79.44-.38.8-.83.99-1.39.03-.41-.1-.75-.39-1.03-1.23.36-2.47.73-3.7,1.09-.19,0-.38,0-.57,0-.76.17-1.37.59-1.92,1.13-.56.46-.9,1.14-1.51,1.56-4.26-.63-8.19.75-12.14,2.03ZM174.3,2.88c.03.3.04.59.03.89.16.16.31.31.47.47.22.04.43.07.65.12,1.76-.28,3.51-.62,5.16-1.11-.23.65-2.03.06-1.58,1.54,2.94.72,5.11-1.1,7.46-2.29.54-.27,1.07-.74.85-1.49-.29-.99-1.4-1.22-1.87-.84-3.32,2.72-7.67.99-11.18,2.71ZM179.04,4.79c.62-.4,1.23-.8,2.54-1.65-2.57-.11-4.49-.98-6.24.84-.04.77.23,1.38.88,1.82.94-.34,1.88-.67,2.82-1.01ZM176.21,5.79c-.17-.66-.21-1.39-.88-1.82h0c-.55.58-1.4.39-2.02.8-.99.21-2.14.29-1.56,1.83,1.5.86,2.98,1.22,4.35-.26.02-.19.06-.38.13-.56ZM176.09,6.35c-1.45.09-2.9.17-4.34.26-1.33.26-2.55.68-3.06,2.11,1.91-.44,3.75-1.23,5.78-1.11.8.05,1.45-.37,1.62-1.26ZM166.6,6.65c.87.1,1.64,0,2-.96-.65-.42-1.25-.4-1.8.18,0,0,.02,0,.02,0-.02.27-.1.53-.22.77ZM68.72,53.09c-1.72-.06-3.43-.2-5.15-.16-2.43.06-2.5.33-1.03,3.07,2.66,1.12,5.44.37,8.16.52,1.88.11,3.63.51,5.3,1.31.47.07.95.06,1.41,0,.73-.04,1.44-.51,2.9.27-2.41.98-4.75.46-6.53,1.59-11.03.12-22.07.82-33.1-.28-1.56-.16-3.4-.22-2.85,2.36.52,1.94,1.9,2,3.62,1.91,16.39-.84,32.79-.15,49.18-.22,14.51-.06,29.03-.06,43.54-.28.58,0,1.16,0,1.74-.05.63-.28.81-.73.52-1.36-4.62-1.07-9.29-1.73-14.05-1.73-6.47-.01-12.94-.05-19.41-.12-2.04-.02-4.29.14-4.65-2.78-.13-.41-.33-.79-.59-1.13-.78-1.09-.77-2.56.47-2.71,3.02-.39,5.59-2.72,9.14-1.29,2.51,1.01,5.53-.13,8.29-.61.88-.49.85-1.29.44-1.97-.38-.64-1.03-1.12-1.57-1.65q-2.63-2.6-.92-5.84c-1.14-.82-2.71-.83-3.66-1.99h0c-2.6.3-4.73-3.3-7.59-.93-3.32-.44-4.09-3.01-4.75-5.68-.1-.16-.2-.33-.29-.5-.39-.43-.84-.81-1.27-1.2-.41-.45-.81-.91-1.21-1.37-2.01-2.38-4.5-.69-6.79-.82-1.14.14-2.21.52-3.27.95-5.17.8-7.5,5-10.32,8.62-.23.74-.17,1.43.29,2.08.43.25.9.37,1.4.37,4.03-.2,8.07-.65,12.08.26,3.21,1.87,6.8-.57,10.45.96-3.17,2.43-6.2,4.05-10.08,2.76-2.66-.04-5.33-.31-7.96.25-.44.14-.86.36-1.23.64-1.66,1.93-2.77,6.37-6.05.39-1.11,3.05-1.23,6.1-4.6,6.38ZM136.45,62.69c-29.88-.02-59.77-.05-89.65-.06-2.04,0-4.14-.13-6.11.27-1.44.29-1.96-.65-2.84-1.15-.22,1.72.29,2.58,2.27,2.63,2.7.06,5.21-.98,7.93-.94,11.35.15,22.7.09,34.05.07,2.07,0,4.08.27,6.09.72,3.81.84,7.5-.67,11.26-.67,12.29.02,24.58.14,36.87.23.24-.22.34-.46.3-.71-.04-.26-.09-.4-.16-.4ZM73.79,59.68c1.83.08,3.67.22,5.5.24,1.25.01,2.74-.16,2.82-1.69.1-1.86-1.48-2.01-2.92-2.03-.65,0-1.18.26-1.57.79-4.96-1.4-10.01-1.32-15.08-.99.92,1.55,2.55.51,3.75,1.04,2.23-.2,4.46-.37,6.67.19,2.21.17,1.32,1.38.82,2.45ZM136.45,62.69c-.05.37-.1.74-.14,1.11,0,0,.03-.01.03-.01,2.09.72,4.28.01,6.37.43,2.11.42,2.59-1.03,3.19-2.45.34-.95-.03-1.59-.88-2.03-1.29.33-2.79-.05-3.82,1.15-.35.28-.62.66-1.09.76l.08-.04c-.94,1.4-2.72,0-3.75,1.11l.03-.03ZM145.89,61.77c-1.16,1.38-2.54,2.07-4.45,1.89-1.68-.16-3.4.07-5.1.13,2.03,1.38,4.42.94,6.64,1.25,2.81.4,2.83.27,2.91-3.27ZM78.63,64.71c.62.86,1.24.87,1.87.01-.62,0-1.24,0-1.87-.01ZM84.31,64.75c.32.26.63.53.95.79-.32-.26-.63-.53-.95-.79ZM45.41,64.7c-.31.28-.62.57-.93.85.31-.28.62-.57.93-.85ZM122.23,58.88c1.89.01,3.78.02,5.67.03-1.88-1.4-3.77-1.39-5.67-.03ZM115.61,58.86c1.25,0,2.5-.01,3.75-.02-1.26-1.24-2.51-1.24-3.75.02ZM111.78,54.12c.35-.28.69-.56,1.04-.84-.35.28-.69.56-1.04.84ZM109.95,58.82l.44.04s.44-.06.44-.06c-.31-.28-.61-.55-.92-.83,0,0-.04.03-.04.03-.3.21-.39.4-.27.57.11.16.23.24.34.24ZM97.58,33.33c.75.13,1.94.63,2.18.34,2.43-2.95,6.57-1.87,9.28-4.06-.13-.16-.26-.32-.39-.49-1.46-.75-3.15-.91-4.57-1.76-1.78.43-3.49,1.11-5.24,1.65-1.07.81-.9,2.23-1.57,3.24-.11.42,0,.79.32,1.08h0ZM102.33,39c2.62-.44,4.95,1.53,7.59.93-1.24-1.18-3.13-1.25-4.3-2.63-.82-.98-1.11-1.8-.32-2.86,0,0-.26-.28-.26-.28-.31-.2-.62-.2-.92.02-1.58,1.25-2.93,2.58-1.78,4.83ZM111.75,27.7c-.99-1.49.2-2.07,1.15-2.75-.4-.93-1.2-1.34-2.1-1.65-1.45-.28-2.65.18-3.66,1.2-.23.33-.35.71-.36,1.07,1.08,1.23-1.61.8-.89,1.9.58,1.26,2.19.95,2.94,1.94,0,0,.2.19.2.19.91-.64,1.81-1.27,2.72-1.91ZM112.73,28.6c-.14-.49-.46-.81-.96-.91.32.3.64.61.96.91ZM113.81,29.42c-.36-.27-.72-.54-1.07-.81.2.49.55.76,1.07.81ZM115.64,30.53c.36-.17.46-.41.25-.66-.08-.09-.27-.08-.42-.11.05.26.11.52.17.78ZM104.12,34.17l.46.03s.46-.04.46-.05c.07-.22.13-.45.17-.67-.37.23-.73.46-1.1.69ZM99.36,57.11c-.41-1.2-1.04-2.37-.64-3.71-.14-.12-.28-.25-.42-.38-2.2,1.01-1.75,2.42-.59,3.94.21.05.42.11.63.16.34,0,.68,0,1.03-.01ZM136.42,62.72c1.31-.18,2.88.54,3.75-1.11-1.24.05-2.48.1-3.72.16,0,.32-.02.64-.03.96ZM101.42,58.81c-.35-.24-.7-.49-1.05-.73.35.24.7.49,1.05.73ZM140.09,61.65c.55,0,.9-.26,1.09-.76-.53.02-.89.27-1.09.76ZM110.89,23.95c.46.76,1.26.82,2.01,1,3.21,1.44,6.12.76,8.55-1.58,1.43-1.37,2.97-1.46,4.7-1.29,1.4-.33,2.72-.84,3.8-1.83-1.83-3.24-4.64-1.05-7.02-1.28-.55.05-1.1.11-1.65.16-2,1-4.24,1.49-6.03,2.91-.86.57-1.85.72-2.84.91-.62.16-1.17.43-1.51,1.01ZM126.17,28.81c.48-.17.96-.35,1.44-.52.39-.81.78-1.62.34-2.54-1.22-.08-2.43-.15-3.65-.23-2.36.15-3.94,1.9-5.9,3.29h7.76ZM109.92,39.93c.68,1.67,2.05,2.05,3.66,1.99.03-.26-.02-.51-.16-.73-1.29-.08-2.03-1.7-3.5-1.25ZM85.25,66.51c.32.32.63.63.95.95-.32-.32-.63-.63-.95-.95ZM73.92,24.84c.02.34.03.68.05,1.02.34.28.71.5,1.11.69,3.97.81,7.1-1.31,10.29-3.09,1.21-.68,2.2-1.73,3.73-1.02.36.22.73.4,1.1.59.2.08.39.15.59.23.43.07.84,0,1.22-.21.26-.38.27-.76.02-1.15-3.81-4.34-5.05-4.48-9.16-.81-2.57,2.3-5.53,3.54-8.95,3.76ZM92.04,21.89c-.03.29-.06.58-.08.88,1.12,1.42,2.61,1.24,4.13.99,2.98-1.28,6.25-1.87,9.01-3.71.99-.57,2.11-.89,3-1.64.3-.42.26-.82-.12-1.18-1.25,0-2.5,0-3.76,0-3.91,1.96-7.77,4.03-12.19,4.66ZM68.72,53.09q3.72-.3,4.68-4.55c.68.39.39,1.11.57,1.67.39,1.25.96,1.95,2.37,1.05,1.74-1.12,3.64-2.07,3.22-4.66-2.71-1.57-5.76-5.8-5.58-7.73.22-1.05-.34-1.7-1.11-2.26-1.11-.54-2.29-.38-3.46-.34-2.02.32-4.14-.16-6.08.77l.05-.06c-5.31,2.44-6.1,6.71-4.8,11.83.8,1.72,2.23,1.91,3.27.63,2.16-2.66,5.14-1.62,7.76-2.04,1.65-.26,2.48,1.16,1.94,2.72-.49,1.43-1.79,2.07-2.83,2.97ZM69.11,37.23l3.83.03c3.83.43,5.57-2.3,6.85-5.05,1.13-2.45-1.53-3.35-2.86-4.72-.64-.61-1.46-1-2.06-1.66-.3-.03-.6-.02-.9.03-.33,1.55-1.67,1.51-2.83,1.94-1.79.66-1.31,1.75-.18,2.75.17-.05.34-.11.5-.16.5-.1,1.28-.48.6.63-.26.23-.43.51-.51.84-.03.54.02,1.06.46,1.44v.02c.94,3.48-1.28,2.31-2.92,1.99-.6-.23-1.19-.42-1.82-.12-.4,1.59.45,2.06,1.84,2.05ZM58.58,48.8c.07-2.33.15-4.66.22-6.99.02-.67.45-1.56.93-1.25,3.41,2.21,2.42-.5,2.59-2.13.05-.52.7-.97,1.07-1.45-2.58-.47-3.36,2.62-5.62,2.86-.48.05-.54.77-.32,1.19,1.3,2.47-.35,5.35,1.14,7.78ZM64.12,50.94c1.55.6,2.96.77,4.27-.53q-2.28-.94-4.27.53ZM69.11,37.23c-.78-.54-1.52-1.1-1.84-2.05-1.72-.26-2.8.87-3.93,1.85,1.94-.5,3.8,1.52,5.77.2ZM69.09,35.3c.53.98,1.45,1.1,2.4,1.01.75-.07,1.68-.03,1.93-.95.31-1.13-.5-1.66-1.4-2.05-.17,1.85-1.5,2-2.93,1.99ZM72.01,33.29c-.04-.6-.07-1.19-.11-1.79-.22-.33-.48-.39-.8-.13-.11.84.06,1.54.9,1.93ZM71.11,31.37c.28-.02.54.03.8.13,0,0,.16-.15.16-.15.17-.67-.17-.96-.78-1.05,0,0-.32.24-.32.24-.01.29.04.56.15.82ZM111.79,16.26c1.97-.1,3.93-.19,5.68.97-1.47-2.33-2.46-2.5-5.68-.97ZM110.85,17.15c.31-.29.63-.59.94-.88-.31.29-.63.59-.94.88ZM107.98,17.23c.02.31.03.62.03.92.32.22.63.23.94-.01,0-.3,0-.61.03-.91-.33,0-.66,0-.99,0ZM161.14,7.85c-3.89.99-7.39,3.18-11.43,3.67-.35-.41-.63-.38-.83.14-.57.95-.73,1.58.78,1.75,4.72.54,8.8-.8,12.38-3.84.31-.2.42-.48.33-.84-.31-.43-.84-.56-1.23-.88ZM140.54,17.4c1.71-.68,3.42-1.36,5.13-2.04-3.11-1.56-6.18-.9-9.2-.96,0,0,.06.11.06.11-1.22.62-2.37,1.43-3.82,1.44-.34.22-.65.49-.93.79-.27.34-.38.72-.31,1.15.6.88,1.36.82,2.19.38h-.03c2.16-1.39,4.67-.01,6.9-.86ZM133.68,18.26c-.77-.2-1.61-.25-2.03-1.1-.31-.31-.62-.29-.93,0h0c-.47.66-1.34.45-1.89.9-1.95.38-4.02.04-5.9.89,2.27.83,5.01-.98,7.02,1.28,1.42-.34,2.67-.99,3.74-1.98ZM140.54,17.4c-2.33.03-4.8-1.04-6.9.87,2.3-.27,4.68.02,6.9-.87ZM145.95,12.51c-1.28.09-2.67-.44-3.74.73,1.3.02,2.69.54,3.74-.73ZM166.57,8.58c-.63-1.06-1.59-1.07-2.64-.82-.1.21-.2.42-.3.63.16.17.32.34.48.51l2.46-.31ZM148.88,11.66h.43s.4-.14.4-.14c0-.3.04-.6.12-.89-1.08-.02-2.22-.25-2.94.89.67.05,1.33.09,2,.14ZM162.04,8.74c0,.27,0,.55,0,.82.78.06,1.47-.18,2.07-.68-.13-.14-.26-.29-.39-.43-.62-.23-1.21-.31-1.68.29ZM146.86,11.54c-.31.32-.61.65-.92.97.31-.32.61-.65.92-.97ZM108.94,18.14c-.31,0-.63,0-.94.01-.95.4-2.12.05-2.97.84,1.62,1.9,3.57.96,5.43.63.56.17,1.12-.34,1.7-.05-.34.2-.71-.05-1.07.04-2.62.75-5.52.57-7.81,2.38-.13,2.05,1.94,1.68,2.84,2.61.34.2.71.32,1.1.39,1.26-.18,2.25-1.33,3.65-1.03.58-.06,1.16-.13,1.74-.19.87-.71,2.1-.07,2.96-.8,1.61-1.7,4.16-2.01,5.69-3.83-2.4.17-4.69.96-6.93-1.27-1.23-1.22-3.5.95-5.4.29ZM132.67,16.46c1.52-.19,3.02-.44,3.87-1.96-1.81.14-3.49.72-5.11,1.5.04.19.08.38.12.57.39.09.76.06,1.12-.11ZM128.82,18.07c.87.21,1.61.14,1.89-.89-.78-.01-1.43.24-1.89.89ZM130.72,17.17l.47.03s.47-.04.47-.04,0,.02,0,.02c.22-.16.31-.33.27-.53-.04-.21-.09-.31-.15-.31-.11-.11-.22-.22-.34-.34-.24.39-.47.77-.71,1.16ZM166.8,5.88c.6-.06,1.2-.12,1.8-.18.67-.58,1.33-1.16,2-1.73-1.64-.11-3.11.13-3.79,1.92ZM162.04,8.74c.56-.1,1.12-.19,1.68-.29.11-.22.18-.45.21-.7-.94-.21-1.87-.23-2.79.09.3.3.6.6.9.9ZM173.31,4.78c.85.18,1.55-.02,2.02-.8-.33-.07-.66-.14-1-.21-.34.33-.68.67-1.02,1ZM74.87,25.82c-.04.76-.05,1.5.8,1.87,2.95,1.86,6.07,3.3,9.58,3.74.95-.32,1.9-.64,2.85-.96.3-2.4,2.74-2.87,3.98-4.43.34-.58.44-1.2.27-1.86-.26-.66-.94-.85-1.41-1.28h0c-.34-.3-.65-.62-.85-1.03-1.32-1.84-2.96-1.83-4.35-.33-2.97,3.21-6.87,3.82-10.87,4.28ZM91.75,25.7c-.81.35-1.6.79-2.44,1.04-2.3.67-2.2,2.04-1.21,3.74,1.06-.08,2.29.16,3.16-.29,1.8-.93,2.45.46,3.43,1.29.17-.03.35-.06.52-.09.66-.24,1.26-.6,1.92-.86.5-.19.95-.46,1.3-.88,2.19.08,4.3-.11,5.94-1.84.64.39,1.2.3,1.67-.28.69-1.15,2.27-.36,3.22-1.6-.89-.11-1.6-.21-2.31-.3-1-.87-2.19-1.06-3.46-.95-2.25.32-4.09,2.18-6.55,1.76-.67,0-1.34.04-2.01.12-.62.08-1.28.15-1.77.51-2.47,1.81-.07-1.19-.95-.95-.16-.15-.31-.29-.46-.42ZM89.06,46.58c4.69,1.92,7.88-1.24,11.24-3.49,1.12-.75.23-1.77-.76-1.96-2.3-.44-4.69-.53-6.95.07-1.32.35-2.41.34-3.55-.29-2-.94-4.12-.28-6.17-.42-.98.51-.62,1.1-.12,1.71,2.84,1.37,6.08.79,8.97,1.94-.62.79-1.96.41-2.68,1.26-.28.4-.29.8.02,1.19ZM85.25,31.44c-.35-.72-.82-1.58-1.58-1.58-2.87-.03-5.27-1.7-8-2.16,4.51,4.12,4.48,4.08-.49,8.05-.72.58-1.27,1.32-2.24,1.51.31.59.61,1.18.92,1.77.16.12.32.24.49.35.16-.12.32-.24.48-.36,1.31,0,1.86-.96,2.45-1.89,1.88-2.97,4.34-5.16,7.97-5.7ZM73.86,39.03c-1.07.1-2.22-.26-3.48.74,2.24,2.55,7.24,3.28,5.58,8.12,1.86.68,2.43-1.01,3.6-1.29h0c.32-.26.43-.6.35-1-.36-.89-1.04-1.59-1.43-2.46-.48-.81-.16-1.94-1.03-2.6-.6-.1-1.18-.11-1.69.29-.3,0-.6.01-.91.03-.65-.44-.37-1.38-.99-1.84h0ZM79.58,45.69c0,.31-.01.61-.02.92,3.16,0,6.33-.01,9.5-.02-.01-.3-.03-.61-.03-.91-3.15-2-6.3-3.37-9.44.01ZM75.76,40.84l1.98.12c1.54,1.29,3.08,1.29,4.61-.01,2.23-.01,4.46-.02,6.69-.03-4.42-1.53-8.85-1.49-13.28-.07ZM97.58,33.33c0-.31,0-.62,0-.93-.27-.29-.59-.46-.98-.5-.19.04-.37.08-.56.13-.14.13-.27.27-.41.4.46.72,1.16.92,1.96.91ZM73.86,39.03c.03.78.17,1.49.99,1.84,0-.62-.02-1.23-.03-1.85-.32,0-.65,0-.97,0ZM94.69,31.48c.31.31.62.62.93.94,0,0,.09-.06.09-.06.2-.79-.11-1.11-.91-.96l-.11.08ZM77.63,56.99c.07.29.12.59.21.88.29.88.95,1.11,1.77.89.23-.06.55-.39.54-.59-.03-1.08-.91-.96-1.63-1.05-.3-.04-.6-.08-.9-.13,0,0,0,0,0,0ZM106.03,27.53c-.56.09-1.12.19-1.67.28.59,3.04,2.89,1.33,4.47,1.61.03-2.05-1.6-1.64-2.79-1.89ZM96.79,32.23c.26.04.52.09.77.16,2.21-.31,1.85-1.43.86-2.74-.53.02-1.06.05-1.58.07-1.02.82-.96,1.66-.05,2.51ZM103.32,25.55c1.21.03,2.42.05,3.63.08.08-.23.17-.44.29-.65,0,0-.31-.3-.31-.3-1.05-.83-2.17-.93-3.36-.33-.46.32-.55.72-.25,1.21ZM115.59,22.96c-1.05.01-2.12-.02-2.96.81,1.07.06,2.18.24,2.96-.81ZM90.94,22.9l.86,1.16c1.93.82,3.93,1.88,4.75-1.31-1.53-.17-3.06.94-4.6.02-.34.04-.68.09-1.02.13ZM90.09,21.87c.04.55.31.9.85,1.03-.04-.55-.32-.9-.85-1.03ZM96.56,22.75c-1.2,1.82-3.11,1.07-4.75,1.31-.02.55-.04,1.09-.06,1.64,0,0,.15.06.15.06.2.13.4.26.6.39.24.02.47.05.71.08,3.35-.67,7.26.79,9.92-2.57.08-.22.17-.44.25-.67,2.78-1.04,5.56-2.08,8.35-3.12,0-.2,0-.4.01-.6-2.23-.09-4.47-.18-6.7-.27-2.51,1.96-6.05,1.61-8.48,3.75ZM59.91,44.12c2.27,1.3,4.21.49,5.81,1.31.68.35,1.41-.45,1.32-1.41-.07-.77-.81-1.27-1.27-1.03-1.6.84-3.51.2-5.86,1.14ZM71.28,30.31c.26.35.52.7.78,1.05.81.46,1.68,1.01,2.3-.16.67-1.27-.14-2.1-1.2-2.45-1.22-.4-2.11,0-1.88,1.56ZM131.77,16.34c-.12.27-.16.55-.13.84.34-.24.68-.48,1.03-.72-.29-.13-.59-.17-.9-.12ZM103.28,24.76c1.22-.03,2.43-.05,3.65-.08-.23-2.57-2.2-1.49-3.55-1.69,0,0-.07-.04-.07-.04-.58.6-.64,1.21-.02,1.82ZM111.55,21.67c.33.07.62.21.89.18.46-.05.54-.28.22-.47-.12-.07-.31-.12-.44-.07-.23.08-.43.23-.67.36ZM111.74,19.26c.02.2.02.4-.01.6.47.06,1.23.13,1.22-.31,0-.48-.74-.37-1.21-.3ZM103.28,24.76c0-.61.02-1.21.02-1.82-1.94,1.5-4.1,2.07-6.56,1.91-1.32-.08-2.88-.62-3.85.94,1.78,1.81,3.84.09,5.78.52-.97-.04-2.1-.36-2.1,1.17,2.73,1.02,4.64-.8,6.75-1.94-.03-.26-.05-.53-.04-.79ZM96.57,27.5c.69-1.01,2.04-.45,3.44-1.7-2.75,0-4.94,0-7.13,0,0,0,0,0,0,0-.67,1.93,1.45.97,1.86,1.79.61-.03,1.21-.06,1.82-.09ZM94.76,27.59c-.62-.6-1.24-1.19-1.86-1.79-.33-.01-.66-.03-1-.04.09,1.7-1.56,1.92-3.29,2.89,2.89.93,4.32-1.1,6.14-1.06ZM96.79,32.23c.01-.84.03-1.68.05-2.51-1.12.03-1.67.74-2.05,1.68.3.32.61.64.91.96.36-.04.73-.08,1.09-.12ZM79.58,45.69c3.15-1.8,6.3.06,9.44-.01,2.2-.16,4.69.54,6.58-2.44-4.45-.29-8.26-1.68-12.32-1.33-1.72,1.03-4.04.17-5.57,1.78.26,1.01.95,1.61,1.87,2.01ZM77.72,43.67c1.98-.22,4.51,1.31,5.57-1.78-.31-.32-.62-.63-.93-.95-1.54,0-3.08,0-4.61.01-.68.9-.75,1.8-.02,2.71Z"/></g></g></svg>