<?xml version="1.0" encoding="UTF-8"?>
<svg id="Layer_2" data-name="Layer 2" xmlns="http://www.w3.org/2000/svg" viewBox="0 0 352.34 175.76">
  <defs>
    <style>
      .cls-1 {
        fill: #220d0d;
      }
    </style>
  </defs>
  <g id="Layer_1-2" data-name="Layer 1">
    <g>
      <path class="cls-1" d="M0,110.48c3.31-1.26,6.47-2.46,10.13-3.85.45-3.68,2.88-5.97,7.94-5.74,0-2.16-.1-4.07.04-5.97.08-1.13.48-2.25.86-3.33.03-.08,1.35,0,1.45.26.52,1.25.91,2.57,1.14,3.91.06.36-.86.81-.93,1.29-.17,1-.5,2.55,0,2.96.84.7,2.58,1.32,3.39.9,4.38-2.25,10.09-2.82,11.24-9.3.44-2.47,2.4-4.47,5.29-5.09,1.21-.26,2.32-1.05,3.42-1.7,3.01-1.76,5.83-2.54,9.19-.33,1.86,1.23,4.45,1.34,6.79,1.98,4.5-7.87-.29-16.17,1.13-24.5,2.52,1.11,4.27,1.88,6.24,2.75,1.03-1.65,1.86-3,2.78-4.49,1.27-.1,2.54-.18,3.81-.29,1.94-.17,3.78-.58,3.96-2.98.16-2.03-1.19-2.87-2.93-3.43-3.84-1.24-7.67-2.55-11.48-3.9-1.16-.41-2.23-1.04-3.97-1.87,3.44-1.97,6.51-2.23,9.46-1.35,3.48,1.03,6.71,1.39,10.2.02,1.76-.69,3.86-.49,6.06-.72-.46-2.98-2.57-3.41-4.42-3.96-2.12-.62-4.42-.72-6.41-1.58-1.07-.46-2.32-2.06-2.3-3.12.02-1.12,1.26-2.93,2.3-3.21,6.62-1.78,12.98-5.95,20.14-1.99.65-1.2,1.44-2.13,1.26-2.4-2.13-3.16.59-5.87.28-9.02,4.65-.56,5.86-3.54,5.85-7.69-.78-.51-1.75-1.01-2.56-1.71-2.26-1.96-2.25-3.27-.39-5.51,1.36-1.64,2.53-3.45,4.05-5.55,3.52.28,2.02,4.36,3.39,5.79,3.23.46,6.07.86,8.68,1.22.96,2.43,1.78,4.49,2.77,7-1,.38-2.21.64-3.16,1.28-.77.52-1.55,1.44-1.71,2.3-.09.47,1.02,1.45,1.76,1.71,1.18.41,2.5.41,3.92.61,1.57,4.7,4.11,7.79,9.67,5.58.41-.16,1.17.6,1.8.88,1.43.63,2.87,1.23,5,2.14.68,1.52.07,5.19,4.17,4.93,3.25-.2,7.01.76,7.63-4.49,2.9,3.82,3.01,8.47.39,13.03-1.29,2.25-2.06,4.3-.27,6.94,7.5-.94,10.85,3.91,13.31,10.87,1.47-1.01,2.9-1.72,3.96-2.79,3.3-3.33,3.63-3.35,6.28.56.2.3.47.55.4.47,2.2.34,3.97.72,5.77.88,3.45.32,6.91,1.1,9.88-1.85,1.54-1.53,3.29-1.14,4.88,1.49-5.2,2.52-8,8.11-14.2,9.07-1,.16-2.39,2-2.41,3.07-.01.86,1.67,2.3,2.8,2.53,3.05.62,6.19.8,9.31.98.83.05,1.78-.41,2.54-.86,2.15-1.3,4.22-2.72,6.78-4.39-1.53-.88-2.94-1.69-4.18-2.41,1.13-3.81,2.21-7.44,3.5-11.8.32,4.78,2.98,5.58,6.81,5.46,3.5-.11,4.57,3.49,6.19,5.76,2.59,3.63,2.31,3.67,6.6,2.65,2.23-.53,4.61-.47,5.67-.56,3.14,3.35,5.41,5.77,8.43,9,1.13-2.68,2.03-4.22,2.41-5.88.49-2.12,1.34-3.57,3.7-2.88,2.29.67,1.42,2.56,1.33,4.17-.11,1.92-.03,3.84-.03,5.7,4.25.77,3.56-3.17,5.85-4.5,1.87,1.03,4.02,3.72,6.48,1.67,1.63-1.36,2.43-3.72,3.92-6.16,2.51,4.65,6.14,5.04,10.37,3.59.81-.28,1.82-.21,2.69-.04,3.68.71,6.55-.26,8.44-4.11,3.39,3.44,7.02,1.82,10.74.91,3.73-.91,7.58-2.04,11.34-1.91,5.47.19,10.61-.67,15.76-2.23,2.63-.8,5.35-1.36,8.05-1.9,5.25-1.06,5.8-1.61,5.83-6.85.07-14.19.11-28.37.18-42.56,0-.33.28-.65.62-1.4,3.12.46,5.84,2.15,8.32,3.99,2.8,2.08,5.76,3.08,9.19,3.28,5.38.32,5.35.43,6.42,5.52.29,1.35.75,2.67,1.36,4.77-3.18-.5-5.83-.96-8.51-1.33-3.6-.5-7.21-1.03-10.83-1.33-1.87-.16-3.28.8-3.29,2.88-.04,9.91-.02,19.83-.02,29.93,2.04.22,3.4.37,4.6.5,1.34,2.71-.27,4.13-1.75,5.5-2.01,1.86-3.93,3.93-6.23,5.33-4.76,2.89-7.48,7.4-10.42,11.82-.58.88-1.5,1.55-2.31,2.25-.82.71-1.86,1.21-2.54,2.03-2.68,3.22-5.15,6.62-7.91,9.78-1.61,1.85-2.42,3.81-3.2,6.14-1,2.98-3.34,5.56-5.32,8.15-3.89,5.08-8.09,9.92-11.79,15.13-1.18,1.65-1.16,4.16-1.83,6.85-1.92.24-4.05.76-6.18.74-28.41-.22-56.83-.37-85.24-.87-8.26-.15-16.51-1.42-24.76-2.1-3.3-.27-6.63-.28-9.93-.55-12.46-1.04-25.05-1.33-37.34-3.42-15.28-2.6-30.56-.89-45.8-1.87-8.63-.55-17.24-1.53-25.87-2.17-6.62-.49-13.26-.66-19.88-1.14-6.6-.49-13.2-1.1-19.78-1.88-1.2-.14-2.76-1.14-3.31-2.18-1.17-2.23-1.79-4.74-2.9-7.9ZM124.91,40.85c-1.82.02-3.96-.53-4.31,2.13-.28,2.13,1.74,4.26,4,4.3,1.08.02,2.31-.03,3.21-.52.96-.53,2.23-1.61,2.24-2.47.02-.94-1.08-2.15-2-2.77-.84-.56-2.11-.47-3.14-.66ZM104.73,13.34c-.31,1.26-.74,2-.6,2.59.36,1.45.91,2.88,1.63,4.18.08.14,2.21-.34,2.65-1.02,1.17-1.79.23-3.44-1.17-4.73-.47-.43-1.25-.53-2.51-1.02ZM136.6,45.27c1.01.43,1.63.88,2.29.94,2.06.18,3.17-1.14,3.02-2.93-.1-1.2-1.19-2.31-1.83-3.46-.91.94-1.91,1.81-2.7,2.85-.4.52-.42,1.34-.78,2.61ZM69.14,71.02c-1.59-1.17-2.9-2.64-3.41-2.4-1.08.5-1.75,1.89-2.59,2.92.82.54,1.68,1.58,2.45,1.51,1.01-.1,1.95-1.05,3.55-2.03ZM162.64,70.46c2.66-2.13,2.48-3.79.54-5.75-2.28,1.63-2.34,3.26-.54,5.75Z"/>
      <path class="cls-1" d="M89.01,21.33c1.2,1.91,2.78,3.47.96,5.45-.42.46-2.5.29-2.86-.23-1.44-2.15-.11-3.65,1.89-5.22Z"/>
      <path class="cls-1" d="M195.19,54.4c.37,2.03.74,4.06,1.11,6.09"/>
      <path class="cls-1" d="M103.28,12.32c-.37,2.4-.74,4.8-1.11,7.2"/>
      <path class="cls-1" d="M19.12,93.15c.37.74,1.24,1.89,1.03,2.15-1.78,2.18-.91,4.44-.47,6.71"/>
      <path class="cls-1" d="M62.31,69.9c.55,1.85,1.11,3.69,1.66,5.54"/>
      <path class="cls-1" d="M116.57,7.89c-1.29.55-2.58,1.11-3.88,1.66"/>
      <path class="cls-1" d="M351.87,29.49c-.92-.74-1.85-1.48-2.77-2.21"/>
    </g>
    <g>
      <path d="M12.67,150.94c.5.12,1.16.19,2,.19.69,0,1.39.07,2.09.23.7.14,1.06.54,1.08,1.2,0,.35-.14.69-.39,1.02-.26.32-.5.54-.74.67-.19.09-.51.28-.99.54s-.79.39-.94.39h-.1c-.36,0-.62-.07-.79-.19-.15-.14-.43-.21-.79-.21h-.48c-.75,0-1.11,1.02-1.08,3.04s.1,3.41.22,4.13c.12.83.41,1.21.87,1.12s.82-.49,1.04-1.18c.21-.67.34-1.21.41-1.65s.48-.77,1.23-.98c.57-.14,1.11-.09,1.63.18.51.25.8.63.89,1.18.08.54.02,1.14-.17,1.78-.12.4-.17.72-.15.95.02.23,0,.53-.08.91-.1.54-.82,1.23-2.14,2.02-1.32.79-2.33,1.2-3.03,1.2-.33,0-.89-.21-1.68-.63-.79-.44-1.28-.74-1.49-.93-.46-.37-.79-.84-.96-1.42-.03-.07-.12-.4-.24-1.02s-.17-.95-.17-1c-.02-1.2.02-2.25.08-3.18s.1-1.95.1-3.06c0-.58.22-1.09-.19-1.46-.09-.05-.31-.14-.7-.23-.38-.09-.63-.14-.79-.14-.58,0-1.23-.04-1.97-.09s-1.1-.44-1.1-1.12v-.28c0-1.14.74-1.71,2.19-1.69s2.29-.33,2.48-1.02c.12-.4.15-.95.1-1.67-.05-.72.02-1.3.19-1.78.12-.37.43-.67.92-.93.51-.26,1.01-.4,1.49-.4.33,0,.72.19,1.18.58.46.37.7.69.7.93,0,.39-.09.79-.26,1.21-.17.4-.26.84-.26,1.28,0,.9.26,1.41.75,1.53Z"/>
      <path d="M26.11,152.15c1.37-.63,2.82-.95,4.37-.97h1.46c.43,0,1.03.11,1.8.3s1.27.42,1.47.69c.22.3.53.72.91,1.27s.56,1.04.56,1.48v1.6l-.22,1.72.02.21.24,2-.02.12v1c0,.21.21.44.6.7h1.25c.89.62,1.08,1.58.57,2.94-.5,1.34-1.3,2-2.4,2h-.1c-.99,0-1.59-.16-1.78-.49s-.39-.51-.6-.51h-.27c-.22,0-.51.12-.87.37-.34.23-.8.4-1.37.49-.34.07-.79.16-1.32.26-.53.12-.94.18-1.27.18-.12,0-.48-.05-1.08-.16-.6-.11-.94-.18-1.06-.23-.39-.12-.74-.19-.99-.23s-.5-.21-.74-.54c-.36-.49-.75-.93-1.15-1.32-.39-.39-.6-1.02-.6-1.92v-.21c0-.44.05-.98.14-1.63.1-.65.22-1.12.38-1.46.24-.54.58-.9,1.04-1.05.46-.16.7-.42.7-.79,0-.16-.27-.37-.84-.62-.57-.25-.84-.88-.84-1.92-.02-1.56.65-2.65,2.02-3.29ZM28.68,160.68c-.08-.14-.45-.09-1.1.14-.29.09-.58.25-.87.47s-.45.49-.45.83v.07c0,1.04.46,1.62,1.39,1.78.94.14,1.85.16,2.74.05.77-.09,1.56-.35,2.4-.79.84-.46,1.25-1.07,1.25-1.85v-.42c0-1-.69-1.25-2.04-.77s-2.14.7-2.4.7c-.53,0-.84-.07-.92-.21ZM27.69,144.26c.46-.32.96-.44,1.46-.37h.14c.46.05.79.16.98.35s.36.35.51.47c.09.09.14.14.15.18.03.02.14.12.29.3.21.28.31.32.56.6.29.26.48.44.57.53s.26.28.48.6c.09.16.24.37.45.65.21.26.31.51.31.7v.19c0,.51-.34.95-.6,1.23-.21.21-.58.3-.87.3h-.14c-.17,0-.41-.09-.7-.28-.29-.19-.5-.33-.6-.44-.14-.11-.39-.32-.75-.62-.36-.3-.7-.53-.99-.65-.22-.3-.36-.25-.58-.44-.19-.14-.33-.18-.67-.44-.46-.33-.68-.83-.68-1.51,0-.6.24-1.05.7-1.35ZM27.62,157.57h.8c.29,0,.72-.05,1.3-.16s1.1-.16,1.56-.16c.5,0,.99-.04,1.46-.11.46-.09.7-.39.7-.91,0-.62-.34-.91-1.01-.91-.39,0-.69.09-.89.26-.19.18-.45.26-.77.26-.29,0-.51-.14-.68-.42l.08-.69c-.7-.16-1.25.18-1.68,1-.15.33-.39.67-.68,1.02s-.45.58-.48.7c.1.07.21.11.29.11Z"/>
      <path d="M45.49,151.33s.45.07,1.22.21,1.18.21,1.22.21c.8.37,1.2.97,1.2,1.79,0,.28-.09.58-.26.91-.15.32-.24.47-.26.49l.24,1.53c.02.18-.04.4-.19.69-.14.28-.21.53-.21.72v.21c0,.23.07.46.19.67.14.19.21.51.21.93v1.02c0,.58-.19.81-.19,1.21,0,1,.5,1.55,1.51,1.63,1.01.09,1.78-.21,2.28-.88.36-.49,1.23-.91,1.8-1.49.46-.47.65-.84.58-1.11-.05-.28-.09-.79-.09-1.51,0-.3.02-.51.07-.63.05-.14.02-.37-.07-.67-.14-.3-.39-.69-.39-1.11,0-.3.22-.65.29-1.02-.27-.4-.82-.65-1.64-.7-.8-.07-1.22-.44-1.22-1.11,0-1.18.57-1.83,1.71-1.95,1.15-.12,2.21-.11,3.18.05,1.28.23,1.87.86,1.76,1.86s-.15,2.18-.15,3.57l.02.6c0,.69.38,1.04.39,1.51v.21c0,.33-.03.56-.12.72-.07.14-.1.37-.1.69l.02,1.32c0,.35.33.91.48,1.11.22.3.41.4.6.32s.43-.12.68-.11c.21.02.53.26.99.74s.68.76.68.86c0,.33-.41.88-1.23,1.65-.8.76-1.35,1.14-1.61,1.14h-.08c-.29,0-.5-.07-.62-.23-.12-.14-.31-.26-.55-.35-.12-.05-.36-.11-.7-.18-.33-.09-.58-.14-.74-.18-.8-.16-1.23-.37-1.28-.63-.05-.28-.5-.42-1.33-.42-.33,0-.79.23-1.4.67-.6.44-1.25.67-1.93.67-1.3,0-2.07-.02-2.29-.05-.22-.05-.72-.37-1.52-.98-.94-.72-1.4-1.95-1.4-3.69v-.83c0-.44.31-1.05.33-1.21l-.17-1.72-.07-2.43c-.04-.76-.31-1.21-.82-1.37s-.77-.53-.77-1.14c0-1.48.6-2.21,1.78-2.21Z"/>
      <path d="M82.46,145.6c.91-.02,1.73-.04,2.47-.04.39,0,.98.21,1.73.65.75.44,1.13.83,1.13,1.16,0,.28-.14.6-.43.95-.27.33-.39.65-.36.95l.22,2.44c.29.26.53.6,1.08.6.15,0,.62-.18,1.35-.51.75-.33,1.46-.51,2.09-.51.51,0,.82-.02.94-.05.12-.05.41.05.89.3.53.28.98.33,1.46.69.38.3.7.74.96,1.32.27.58.46,1.12.58,1.65.09.4.09.72.03.91s-.02.51.12.97c.05.21.15.51.31.88s.22.63.22.79c0,.58-.03,1.28-.12,2.11-.07.83-.12,1.55-.14,2.16-.05.76.33,1.11,1.13,1.05s1.2.28,1.22,1.04v.21c0,.63-.26,1.04-.77,1.23-.51.18-1.04.3-1.58.39-.36.07-.65.11-.87.12-.21,0-.46.05-.79.18-.67.25-1.22.37-1.61.37-.03,0-.34-.05-.91-.14-.57-.09-.91-.14-1.01-.19-.27-.05-.48-.21-.62-.51-.12-.3-.22-.6-.29-.86-.24-.83-.02-1.28.67-1.39.7-.11,1.25-.3,1.66-.6l.02-2.94c-.05-.83.07-1.25.07-2.02,0-.42-.03-.74-.1-.97-.05-.23-.09-.54-.09-.95-.02-.37-.26-.84-.7-1.39-.43-.56-.77-.9-.99-1.02-.7.35-1.44.84-2.07,1.11-.46.16-.79.35-.99.58-.21.21-.48.47-.82.77-.15.12-.36.46-.62,1.02-.26.54-.39.95-.39,1.18-.05.65.07.93-.09,1.51-.14.54-.21.98-.21,1.32,0,.3.17.7.53,1.23.36.51.65.77.87.77h.48c.33,0,.53-.02.65-.05.12-.05.33.02.6.18.41.23.62.51.62.88,0,.05-.12.33-.38.81-.24.47-.39.72-.45.77-.15.14-.46.18-.92.12-.45-.05-.82-.09-1.11-.09h-.07c-.38,0-.79.09-1.22.28-.43.19-.75.26-.96.21l-1.37-.23-.29.05c-.36,0-.62,0-.8.02-.19,0-.39-.16-.62-.49-.09-.11-.19-.32-.34-.65-.15-.33-.22-.6-.22-.79-.02-.44.19-.74.6-.88.41-.16.87-.23,1.37-.23.39-.28.57-.65.5-1.12l-.26-1.49.05-.4.22-2.32-.03-.51c0-1.07-.08-1.88-.1-2.94-.03-.44-.12-.84-.24-1.18-.12-.33-.19-.79-.19-1.35,0-.62.14-1.11.39-1.48.27-.37.41-.83.41-1.35,0-.65-.48-1.05-1.44-1.21-.96-.18-1.44-.74-1.44-1.69,0-.9.46-1.37,1.37-1.39Z"/>
      <path d="M117.79,163.54c-.63,1.12-1.11,1.81-1.46,2.04-.72.49-1.46.95-2.21,1.39-.75.42-1.71.63-2.88.63-.26,0-.77-.09-1.54-.28-.77-.18-1.27-.3-1.49-.39-.21-.07-.58-.33-1.11-.81-.53-.47-.87-.81-.99-.98-.58-.77-1.1-1.56-1.52-2.39s-.63-1.92-.63-3.29c0-1.14.24-2.25.74-3.3.5-1.05.98-1.92,1.47-2.6.5-.69,1.32-1.21,2.43-1.58,1.11-.37,2.26-.51,3.42-.39,2.48.3,4.37,1.09,5.63,2.37.46.49.67.98.62,1.46-.03.47-.05,1.09-.05,1.81,0,.39.05.69.15.88.1.19.19.44.24.74.09.58.12,1.25.12,2,0,.65-.31,1.55-.94,2.69ZM107.89,159.68c0,.37-.08.67-.26.9-.15.23-.24.44-.24.62,0,.33.34.62,1.04.86.27.11.58.42.94.97.5.72,1.37,1.09,2.65,1.09.75,0,1.28-.07,1.61-.21s.6-.53.8-1.14c.09-.25.26-.76.51-1.51.27-.77.41-1.27.41-1.49v-.07c0-.09-.07-.33-.22-.74-.15-.42-.24-.83-.29-1.2-.02-.16-.14-.44-.34-.83s-.34-.65-.43-.79c-.67-.95-1.82-1.42-3.46-1.42l-.27.04c-.15,0-.5.16-.99.46-.5.3-.82.49-1.01.6-.43.25-.62.58-.57,1.02.07.42.1.9.1,1.44v1.42ZM107.87,148.27l.75-.77c.29-.3.39-.44.65-.77.27-.23.57-.62.79-.84.12-.14.26-.26.39-.39.12-.07.17-.12.19-.16.43-.3.91-.44,1.44-.44h.24c.36,0,.63.09.79.26.05.09.12.16.21.21.1.05.19.12.26.21.02,0,.03,0,.03.02.14.19.22.18.43.37.15.28.27.4.53.62.26.25.41.4.5.49s.24.26.46.56c.09.14.22.33.41.6s.29.47.29.67v.18c0,.47-.41,1.04-.67,1.3-.08.09-.27.18-.55.25-.26.05-.46.09-.62.09h-.1c-.36,0-.84-.47-1.04-.67-.12-.11-.41-.49-.84-1.14-.19-.23-.33-.4-.43-.53l-.12.07c-.15.23-.53.67-1.16,1.32-.15.16-.33.35-.53.6s-.51.37-.92.37l-.38-.02c-.77.02-1.44-.6-1.44-1.42,0-.37.15-.7.45-1.02ZM109.4,170.13c.48-.53,1.06-.79,1.75-.79,1.63,0,2.4.6,2.69,1.86.08.93-.21,2.06-.96,2.48-.63.44-1.54.46-1.88.46l-.27-.05c-.55,0-1.03-.23-1.42-.7-.39-.46-.6-.93-.6-1.41,0-.7.24-1.32.7-1.85Z"/>
      <path d="M143.2,150.71c.26,0,.43.04.51.11.08.07.27.11.56.11h.29c.36,0,.67-.05.89-.16.24-.11.53-.16.89-.16.57,0,.99.14,1.25.44s.57.54.91.77c.31-.21.62-.44.91-.67.29-.23.75-.35,1.35-.35h3.03c.87,0,1.7.07,2.48.19.79.12,1.18.63,1.18,1.53v.49c0,.51-.24.79-.72.84-.46.05-.89.14-1.27.26-.65.23-.99.44-1.03.65-.03.19-.15.58-.34,1.16-.15.44-.33.58-.45,1.16-.12.54-.1.91-.26,1.35-.15.4-.36.67-.51,1.09-.15.4-.19.84-.33,1.27-.63,1.63-1.04,3.08-1.8,4.61-.22.46-.43.81-.6,1.04s-.5.44-.96.6c-.94.37-1.61.11-1.99-.77-.19-.33-.24-.69-.39-1.11-.21-.4-.43-.63-.56-1.04-.17-.47-.29-.86-.38-1.2s-.22-.72-.43-1.16c-.41-.83-.72-1.3-1.01-2.23-.12-.37-.26-.77-.44-1.25-.19-.47-.31-.86-.38-1.16-.5-2.06-1.03-2.95-1.59-2.71-.57.25-1.1.09-1.58-.49-.29-.33-.36-.72-.22-1.16.15-.44.31-.83.5-1.14.14-.23.45-.42.94-.62.5-.19.92-.3,1.32-.3h.21ZM147.73,155.44c0,.19-.05.33-.15.4-.1.05-.15.16-.15.32v.21c0,.07.09.25.24.53.17.28.29.56.36.86.05.26.09.56.1.91.03.35.19.53.48.51.17,0,.39-.21.65-.62s.43-.74.48-.97c.15-.58.24-1.37.24-2.36,0-.37-.12-.6-.36-.7-.24-.12-.39-.28-.45-.47-.15-.37-.19-.62-.1-.77s-.07-.39-.46-.69c-.07.74-.29,1.23-.65,1.49s-.53.44-.53.54c0,.33.31.53.31.79Z"/>
      <path d="M169.84,159.96c-.31,0-.53.04-.69.11-.14.07-.34.11-.6.11-.34,0-.57-.09-.68-.25-.1-.16-.43-.19-.99-.07-.7.16-.86.6-.48,1.34.24.54.56.95.96,1.21.39.26.86.53,1.35.83.48.26,1.06.4,1.73.4.67-.02,1.2-.21,1.56-.58.33-.33.65-.74.98-1.23.33-.51.8-.76,1.4-.76.48,0,1.01.11,1.58.32.58.21.87.56.87,1.07v.42c0,.69-.24,1.23-.74,1.6-.48.37-.94.69-1.39.98-.05.04-.62.28-1.66.72s-1.59.65-1.63.65h-1.51c-.29-.02-.7.02-1.23.11-.58.09-.94.04-1.08-.18-.14-.23-.41-.42-.84-.58-.43-.19-.99-.58-1.69-1.18-.69-.62-1.15-1.12-1.39-1.53-.74-1.23-1.11-2.76-1.13-4.57-.02-1.83.36-3.34,1.13-4.52.29-.46.7-1.02,1.2-1.69.5-.67.98-1.12,1.44-1.37,1.54-.79,3.06-.95,4.55-.51.84.25,1.57.46,2.23.63.67.16,1.32.47,1.95.91.45.33.67.62.67.86.02.25.15.56.43.93.15.19.36.49.63.86.29.37.43.7.43,1v.39c0,.49-.27.63-.39.98-.15.42-.07.76-.27,1.12-.22.39-.53.58-.92.6s-.77.09-1.15.25c-.36.12-.65.3-.89.51-.24.19-.63.3-1.18.3-.5,0-.96.12-1.28.11-.41-.07-.62-.32-1.16-.32h-.1ZM166.47,147.21l.75-.77c.29-.3.39-.44.65-.77.27-.23.56-.62.79-.84.12-.14.26-.26.39-.39.12-.07.17-.12.19-.16.43-.3.91-.44,1.44-.44h.24c.36,0,.63.09.79.26.05.09.12.16.21.21.1.05.19.12.26.21.02,0,.03,0,.03.02.14.19.22.18.43.37.15.28.27.4.53.62.26.25.41.4.5.49.09.09.24.26.46.56.08.14.22.33.41.6s.29.47.29.67v.18c0,.47-.41,1.04-.67,1.3-.09.09-.27.18-.55.25-.26.05-.46.09-.62.09h-.1c-.36,0-.84-.47-1.04-.67-.12-.11-.41-.49-.84-1.14-.19-.23-.33-.4-.43-.53l-.12.07c-.15.23-.53.67-1.16,1.32-.15.16-.33.35-.53.6-.21.25-.51.37-.92.37l-.38-.02c-.77.02-1.44-.6-1.44-1.42,0-.37.15-.7.45-1.02ZM166.48,156.13c0,.47.17.72.5.72l.21-.07,2.84.14c.41.05.8-.28,1.37-.28.34,0,.6.07.79.19.19.12.41.19.69.19.26,0,.39-.11.39-.3,0-.3-.15-.6-.46-.93-.29-.33-.58-.54-.86-.63-.39-.14-.67-.39-.8-.72-.14-.35-.41-.53-.82-.53-.27,0-.6.14-.99.42-.39.26-.67.47-.86.6-.19.16-.58.26-1.15.32-.57.05-.84.26-.84.67v.21ZM168.02,169.31c.48-.53,1.06-.79,1.75-.79,1.63,0,2.4.6,2.69,1.86.09.93-.21,2.06-.96,2.48-.63.44-1.54.46-1.88.46l-.27-.05c-.55,0-1.03-.23-1.42-.7-.39-.46-.6-.93-.6-1.41,0-.7.24-1.32.7-1.85Z"/>
      <path d="M209.37,150.94c.5.12,1.16.19,2,.19.69,0,1.39.07,2.09.23.7.14,1.06.54,1.08,1.2,0,.35-.14.69-.39,1.02-.26.32-.5.54-.74.67-.19.09-.51.28-.99.54s-.79.39-.94.39h-.1c-.36,0-.62-.07-.79-.19-.15-.14-.43-.21-.79-.21h-.48c-.75,0-1.11,1.02-1.08,3.04s.1,3.41.22,4.13c.12.83.41,1.21.87,1.12s.82-.49,1.04-1.18c.21-.67.34-1.21.41-1.65s.48-.77,1.23-.98c.57-.14,1.11-.09,1.63.18.51.25.8.63.89,1.18.08.54.02,1.14-.17,1.78-.12.4-.17.72-.15.95.02.23,0,.53-.08.91-.1.54-.82,1.23-2.14,2.02-1.32.79-2.33,1.2-3.03,1.2-.33,0-.89-.21-1.68-.63-.79-.44-1.28-.74-1.49-.93-.46-.37-.79-.84-.96-1.42-.03-.07-.12-.4-.24-1.02s-.17-.95-.17-1c-.02-1.2.02-2.25.08-3.18s.1-1.95.1-3.06c0-.58.22-1.09-.19-1.46-.09-.05-.31-.14-.7-.23-.38-.09-.63-.14-.79-.14-.58,0-1.23-.04-1.97-.09s-1.1-.44-1.1-1.12v-.28c0-1.14.74-1.71,2.19-1.69s2.29-.33,2.48-1.02c.12-.4.15-.95.1-1.67-.05-.72.02-1.3.19-1.78.12-.37.43-.67.92-.93.51-.26,1.01-.4,1.49-.4.33,0,.72.19,1.18.58.46.37.7.69.7.93,0,.39-.09.79-.26,1.21-.17.4-.26.84-.26,1.28,0,.9.26,1.41.75,1.53Z"/>
      <path d="M228.36,159.96c-.31,0-.53.04-.69.11-.14.07-.34.11-.6.11-.34,0-.57-.09-.68-.25-.1-.16-.43-.19-.99-.07-.7.16-.86.6-.48,1.34.24.54.56.95.96,1.21.39.26.86.53,1.35.83.48.26,1.06.4,1.73.4.67-.02,1.2-.21,1.56-.58.33-.33.65-.74.98-1.23.33-.51.8-.76,1.4-.76.48,0,1.01.11,1.58.32.58.21.87.56.87,1.07v.42c0,.69-.24,1.23-.74,1.6-.48.37-.94.69-1.39.98-.05.04-.62.28-1.66.72s-1.59.65-1.63.65h-1.51c-.29-.02-.7.02-1.23.11-.58.09-.94.04-1.08-.18-.14-.23-.41-.42-.84-.58-.43-.19-.99-.58-1.69-1.18-.69-.62-1.15-1.12-1.39-1.53-.74-1.23-1.11-2.76-1.13-4.57-.02-1.83.36-3.34,1.13-4.52.29-.46.7-1.02,1.2-1.69.5-.67.98-1.12,1.44-1.37,1.54-.79,3.06-.95,4.55-.51.84.25,1.57.46,2.23.63.67.16,1.32.47,1.95.91.45.33.67.62.67.86.02.25.15.56.43.93.15.19.36.49.63.86.29.37.43.7.43,1v.39c0,.49-.27.63-.39.98-.15.42-.07.76-.27,1.12-.22.39-.53.58-.92.6s-.77.09-1.15.25c-.36.12-.65.3-.89.51-.24.19-.63.3-1.18.3-.5,0-.96.12-1.28.11-.41-.07-.62-.32-1.16-.32h-.1ZM224.99,147.21l.75-.77c.29-.3.39-.44.65-.77.27-.23.56-.62.79-.84.12-.14.26-.26.39-.39.12-.07.17-.12.19-.16.43-.3.91-.44,1.44-.44h.24c.36,0,.63.09.79.26.05.09.12.16.21.21.1.05.19.12.26.21.02,0,.03,0,.03.02.14.19.22.18.43.37.15.28.27.4.53.62.26.25.41.4.5.49.09.09.24.26.46.56.08.14.22.33.41.6s.29.47.29.67v.18c0,.47-.41,1.04-.67,1.3-.09.09-.27.18-.55.25-.26.05-.46.09-.62.09h-.1c-.36,0-.84-.47-1.04-.67-.12-.11-.41-.49-.84-1.14-.19-.23-.33-.4-.43-.53l-.12.07c-.15.23-.53.67-1.16,1.32-.15.16-.33.35-.53.6-.21.25-.51.37-.92.37l-.38-.02c-.77.02-1.44-.6-1.44-1.42,0-.37.15-.7.45-1.02ZM225.01,156.13c0,.47.17.72.5.72l.21-.07,2.84.14c.41.05.8-.28,1.37-.28.34,0,.6.07.79.19.19.12.41.19.69.19.26,0,.39-.11.39-.3,0-.3-.15-.6-.46-.93-.29-.33-.58-.54-.86-.63-.39-.14-.67-.39-.8-.72-.14-.35-.41-.53-.82-.53-.27,0-.6.14-.99.42-.39.26-.67.47-.86.6-.19.16-.58.26-1.15.32-.57.05-.84.26-.84.67v.21Z"/>
      <path d="M241.28,152.96c0-.56.29-.97.86-1.23.58-.26,1.11-.39,1.59-.4h.6c.6,0,1.04.25,1.32.72.29.47.63.7,1.03.69.24,0,.84-.26,1.81-.81.98-.54,1.92-.81,2.81-.81.5,0,1.06.09,1.69.28.63.18,1.11.37,1.44.56.22.16.55.53.94,1.07.41.54.65.95.74,1.23.33,1.18.22,2.41.22,3.6,0,.4-.02.72-.07.93-.05.21-.1.51-.15.88-.12.63.15,1.12.15,1.85l-.12,1.6c.29.44.8.74,1.54.9.74.16,1.11.65,1.11,1.51,0,1.11-.46,1.67-1.39,1.69s-1.87.04-2.82.04c-1.59.02-2.59-.02-2.95-.07s-1.08-.37-2.19-.91c-1.11.62-1.9.95-2.36.97-.46.02-1.47.04-3.05.04h-.07c-.79,0-1.47-.07-2.05-.23-.56-.16-.96-.56-1.16-1.2-.33-.9-.12-1.42.58-1.58.72-.16,1.27-.35,1.63-.62,0-.63.07-1.09.21-1.35.14-.28.21-.67.21-1.16s.07-1,.07-1.3c-.07-.4-.17-.76-.17-1.34,0-.33.24-.79.26-1.12.02-.33-.19-.76-.19-1.2,0-.51.02-.86.05-1.05.05-.19-.17-.44-.65-.74-.29-.16-.6-.28-.94-.37-.34-.09-.51-.37-.51-.86v-.19ZM250.37,164.3c.43-.44.89-.74,1.42-.88.46-.12.75-.46.87-1,.14-.56.21-1.12.21-1.71l-.08-3.64v-.19c0-.44-.1-.91-.33-1.39-.21-.49-.58-.74-1.15-.74h-.1c-.57,0-1.13.18-1.66.53-.53.35-.91.69-1.15,1.02-.46.65-.8,1-1.04,1.09-.22.09-.44.65-.67,1.72-.03.16-.03.83.02,2,.05,1.18.15,1.83.27,1.95.27.39.68.7,1.23.95.12.07.38.25.75.53.39.28.58.42.58.42.12,0,.39-.23.82-.67Z"/>
      <path d="M279.53,147.35c0-.62.33-1.02.98-1.25.65-.23,1.28-.35,1.88-.37h.5c.84,0,1.78.26,2.45.18.91-.11,1.63,0,2.17.32.67.4,1.03.93,1.1,1.62.02.25.03.69.07,1.32s.05,1.04.03,1.2l-.36,3.15c-.05.19-.02.67.09,1.44.12.76.17,1.32.19,1.67,0,.62.17.97.31,1.41.09.39.09.65-.03.81-.12.14-.17.32-.17.51,0,.23.03.39.1.49.07.09.1.26.1.51v.21l-.38,2.62v.21c0,.33.15.49.48.49.72,0,1.78-.07,3.18-.19,1.42-.14,2.16.3,2.21,1.32.02.46-.15.88-.5,1.25s-.72.6-1.13.69c-.53.09-1.03.04-1.56.19-.5.19-.79.37-1.42.37-.26,0-.53-.07-.82-.21-.27-.12-.56-.16-.89-.11-.5.09-.79.12-.87.12-.08.02-.36.02-.84.02-.62,0-1.32.02-2.12.07s-1.52.04-2.17-.09c-.39-.07-.75-.09-1.08-.05-.31.05-.62-.04-.91-.26-.48-.33-.72-.83-.72-1.48,0-.53.22-.9.65-1.12.45-.23.94-.37,1.51-.39.51,0,1.01-.11,1.47-.3.46-.21.96-.32,1.49-.32.43-.65.6-1.04.55-1.14-.05-.12-.07-.62-.07-1.48,0-.49.22-.74.21-1.21l-.34-3.32h.14l.08-4.45c0-.3-.26-.76-.21-1.02l.12-.9c-.19-.25-.6-.46-1.23-.63-.63-.18-1.15-.26-1.54-.26-.46,0-.74.05-.86.18-.1.12-.39.04-.87-.25-.62-.35-.94-.77-.96-1.25v-.3Z"/>
      <path d="M300.72,151.33s.45.07,1.22.21,1.18.21,1.22.21c.8.37,1.2.97,1.2,1.79,0,.28-.09.58-.26.91-.15.32-.24.47-.26.49l.24,1.53c.02.18-.04.4-.19.69-.14.28-.21.53-.21.72v.21c0,.23.07.46.19.67.14.19.21.51.21.93v1.02c0,.58-.19.81-.19,1.21,0,1,.5,1.55,1.51,1.63,1.01.09,1.78-.21,2.28-.88.36-.49,1.23-.91,1.8-1.49.46-.47.65-.84.58-1.11-.05-.28-.09-.79-.09-1.51,0-.3.02-.51.07-.63.05-.14.02-.37-.07-.67-.14-.3-.39-.69-.39-1.11,0-.3.22-.65.29-1.02-.27-.4-.82-.65-1.64-.7-.8-.07-1.22-.44-1.22-1.11,0-1.18.57-1.83,1.71-1.95,1.15-.12,2.21-.11,3.18.05.5.09.87.25,1.16.46.24-.12.39-.3.46-.53.12-.26-.03-.54-.43-.81-.39-.28-.58-.69-.57-1.23.05-.58.26-1.02.63-1.32.56-.35,1.18-.37,1.61-.32.5.05.94.3,1.35.7.41.4.6.83.58,1.23-.05.95-.17,1.62-.36,2.02-.19.39-.43.79-.72,1.2-.29.33-.63.62-1.03.86-.29.18-.62.28-1.01.32-.05.84-.09,1.79-.09,2.85l.02.6c0,.69.38,1.04.39,1.51v.21c0,.33-.03.56-.12.72-.07.14-.1.37-.1.69l.02,1.32c0,.35.33.91.48,1.11.22.3.41.4.6.32s.43-.12.68-.11c.21.02.53.26.99.74s.68.76.68.86c0,.33-.41.88-1.23,1.65-.8.76-1.35,1.14-1.61,1.14h-.08c-.29,0-.5-.07-.62-.23-.12-.14-.31-.26-.55-.35-.12-.05-.36-.11-.7-.18-.33-.09-.58-.14-.74-.18-.8-.16-1.23-.37-1.28-.63-.05-.28-.5-.42-1.33-.42-.33,0-.79.23-1.4.67-.6.44-1.25.67-1.93.67-1.3,0-2.07-.02-2.29-.05-.22-.05-.72-.37-1.52-.98-.94-.72-1.4-1.95-1.4-3.69v-.83c0-.44.31-1.05.33-1.21l-.17-1.72-.07-2.43c-.04-.76-.31-1.21-.82-1.37s-.77-.53-.77-1.14c0-1.48.6-2.21,1.78-2.21ZM305.14,147.37c-.38.02-.75-.18-1.04-.54-.24-.35-.38-.7-.38-1.09s.14-.79.41-1.14c.26-.35.48-.62.68-.77.15-.12.51-.3.91-.46.43-.21.86-.33,1.11-.33h.15c.48,0,.98-.02,1.37.19.29.16.62.35.92.56.19.18.34.42.41.49.1.11.17.3.31.62.03.11.1.26.21.47.12.26.19.51.21.72v.3c0,.37-.1.69-.31.93-.14.18-.22.3-.31.44-.24.37-.67.67-1.16.88-.09.05-.19.14-.21.23-.05.16.02-.04-.02.21-.14.7-.48,1.2-1.22,1.14-.79-.02-1.16-.23-1.16-1.04l-.07-.35c0-.42.09-.84.31-1.14.07-.11.14-.19.17-.3.05-.18.22-.37.34-.51.12-.14.31-.25.53-.28.09-.04.17-.11.27-.18l-.02.02c.05-.05.17-.21.26-.32.05-.09-.26-.32-.26-.37h-.07c-.26-.11-.14-.05-.31-.19-.12-.11-.21-.14-.27-.14-.02,0-.1.04-.15.12v-.02c-.03.05-.05.18-.07.37-.02.32-.05.58-.12.77-.1.21-.36.4-.7.54-.26.11-.53.16-.7.16h-.04Z"/>
      <path d="M323.6,152.15c1.37-.63,2.82-.95,4.37-.97h1.46c.43,0,1.03.11,1.8.3s1.27.42,1.47.69c.22.3.53.72.91,1.27s.56,1.04.56,1.48v1.6l-.22,1.72.02.21.24,2-.02.12v1c0,.21.21.44.6.7h1.25c.89.62,1.08,1.58.57,2.94-.5,1.34-1.3,2-2.4,2h-.1c-.99,0-1.59-.16-1.78-.49s-.39-.51-.6-.51h-.27c-.22,0-.51.12-.87.37-.34.23-.8.4-1.37.49-.34.07-.79.16-1.32.26-.53.12-.94.18-1.27.18-.12,0-.48-.05-1.08-.16-.6-.11-.94-.18-1.06-.23-.39-.12-.74-.19-.99-.23s-.5-.21-.74-.54c-.36-.49-.75-.93-1.15-1.32-.39-.39-.6-1.02-.6-1.92v-.21c0-.44.05-.98.14-1.63.1-.65.22-1.12.38-1.46.24-.54.58-.9,1.04-1.05.46-.16.7-.42.7-.79,0-.16-.27-.37-.84-.62-.57-.25-.84-.88-.84-1.92-.02-1.56.65-2.65,2.02-3.29ZM326.17,160.68c-.08-.14-.45-.09-1.1.14-.29.09-.58.25-.87.47s-.45.49-.45.83v.07c0,1.04.46,1.62,1.39,1.78.94.14,1.85.16,2.74.05.77-.09,1.56-.35,2.4-.79.84-.46,1.25-1.07,1.25-1.85v-.42c0-1-.69-1.25-2.04-.77s-2.14.7-2.4.7c-.53,0-.84-.07-.92-.21ZM325.11,157.57h.8c.29,0,.72-.05,1.3-.16s1.1-.16,1.56-.16c.5,0,.99-.04,1.46-.11.46-.09.7-.39.7-.91,0-.62-.34-.91-1.01-.91-.39,0-.69.09-.89.26-.19.18-.45.26-.77.26-.29,0-.51-.14-.68-.42l.08-.69c-.7-.16-1.25.18-1.68,1-.15.33-.39.67-.68,1.02s-.45.58-.48.7c.1.07.21.11.29.11Z"/>
    </g>
  </g>
</svg>