<?xml version="1.0" encoding="UTF-8"?>
<svg id="Layer_2" data-name="Layer 2" xmlns="http://www.w3.org/2000/svg" viewBox="0 0 225.42 106.01">
  <defs>
    <style>
      .cls-1 {
        fill: #220d0d;
      }
    </style>
  </defs>
  <g id="Layer_1-2" data-name="Layer 1">
    <g>
      <path class="cls-1" d="M59.47,39.47c3.68,2.84,7.25,2.79,10.29,1.59,3.83-1.5,5.13-6.21,5.56-9.71.74-6.07,4.02-8.87,8.53-11.18,5.85-3,8.06-2.17,10.6,4.54,1.63-.33,3.34-.67,4.34-.87,2.54,4.99,4.28,10.19,7.42,14.14,5.22,6.58,10.36,13.43,17.4,18.1,1.02.67,2.94,1.54,3.43,1.09,3.19-2.96,6.82-5.83,8.86-9.61,1.28-2.38-1.92-4.51-4.4-5.43-8.47-3.12-12.69-10.35-15.87-18.51-.42-1.09.06-2.57.16-4.67,2.44-.12,4.67-.28,6.9-.33,12.66-.25,25.32-.43,37.98-.74,2.08-.05,4.38-.1,6.17-1.04,6.44-3.4,13.02-2.96,19.76-1.7,1.63.3,3.35.23,5.01.14,4.62-.25,9.31-1.26,13.85-.76,6.11.67,11.99-.69,17.97-1.03.66-.04,1.28-.86,2-1.38-3.19-2.86-10.85-4.29-14.77-3.68-4.74.73-9.58,1.11-14.36.99-1.83-.04-3.94-1.51-5.36-2.96-2.47-2.52-5.11-3.73-8.51-3.47-5.93.45-11.71-.08-17.48-2.08-2.9-1-6.27-.55-9.43-.62-7.38-.15-14.77-.37-22.15-.27-4.79.06-9.66-.41-14.15,2.46-1.45.93-3.7.56-5.58.57-12.88.04-25.76.13-38.63-.05-4.21-.06-7.98.48-10.93,3.97-.28.33-.59.79-.95.87-8.03,1.77-15.82,5.66-24.37,3.11-1.78-.53-3.74-.96-5.53-.73-8.8,1.12-17.6,2.31-26.34,3.81C.29,15.17-.78,16.74.43,23.47c.74,4.1,2.23,8.06,3.38,12.08,4.53-.42,9.24-.13,13.54-1.42,6.85-2.05,13.41-5.18,20.12-7.76,1.56-.6,3.27-1.23,4.87-1.13,5.53.35,10.29-1.93,15.04-4.4,4.55-2.37,7-.91,6.48,4.37-.3,3.03-1.69,5.94-2.62,8.89-.52,1.67-1.1,3.32-1.79,5.36Z"/>
      <path class="cls-1" d="M219.73,10.8c1.27.45,2.53.9,3.8,1.35"/>
    </g>
    <g>
      <path d="M26.19,89.03c-.62-.3-.84-1.23-.65-2.81.12-1.2.36-1.9.7-2.11.34-.21.84-.62,1.47-1.21.91-.86,2.28-1.3,4.11-1.35.65,0,1.04,0,1.2-.02s.53.05,1.1.18c.08.02.48.07,1.21.14.74.05,1.13.09,1.2.09h.21c.46,0,.77-.02.96-.07s.48.07.84.35c.12.11.33.28.65.53.33.23.5.44.5.6v.11c0,.16-.15.42-.44.79s-.45.97-.43,1.83c0,.54-.08,1.04-.24,1.51s-.48.7-.94.7c-.36,0-.72-.16-1.1-.46-.36-.32-.62-.6-.75-.84-.36-.49-.56-.81-.65-.95-.07-.16-.38-.37-.94-.65-1.3.65-2.12.74-2.45.3-.33-.46-.62-.69-.91-.69-.26,0-.63.23-1.04.3-.39.12-.6.4-.6.81v.19c0,.74.53,1.18,1.59,1.32,1.08.14,1.92.19,2.53.18.15,0,.48.11.94.3s.82.33,1.06.39c.55.16.84.33.87.53.05.18.17.47.36.91.33,0,.36-.11.7-.11h.1c.43,0,.89.32,1.35.95.46.62.7,1.18.7,1.67v.21c0,.37-.29.7-.36,1-.15.4-.09.79-.21,1.12-.08.23-.26.51-.51.84-.26.33-.44.6-.58.76-.39.47-1.04.7-1.95.72-.57.02-.96.12-1.18.32s-.5.28-.79.28c-.6,0-1.1-.05-1.49-.16-.39-.09-.84-.14-1.35-.14-.53.02-.94-.09-1.22-.32-.27-.25-.67-.37-1.16-.37-.29,0-.55.11-.8.32-.24.19-.57.3-.96.3h-.5c-.29,0-.5-.18-.65-.53-.15-.37-.22-.7-.22-1,0-.49.29-.97.29-1.51l-.02-.39c0-.4-.02-.88-.07-1.42-.05-.54-.03-.95.05-1.25.19-.58.46-.84.82-.83.38.02.57-.14.57-.44,0-.33-.31-.63-.92-.91ZM28.11,90.84s.14.44.43,1.28c.29.83.46,1.27.5,1.3.38.58.72.86,1.03.86.31-.02.74.09,1.3.3.8.3,1.27.42,1.4.37s.65-.09,1.54-.09c.53,0,1.03-.05,1.52-.16.5-.12.74-.44.74-.97,0-.44-.07-.93-.19-1.48s-.22-.98-.31-1.35l-1.68.02-1.85.05c-.09.04-.45-.02-1.1-.16-.65-.16-1.01-.25-1.1-.28-.74-.26-1.68-.14-2.24,0v.3Z"/>
      <path d="M46.28,81.58s.45.07,1.22.21,1.18.21,1.22.21c.8.37,1.2.97,1.2,1.79,0,.28-.09.58-.26.91-.15.32-.24.47-.26.49l.24,1.53c.02.18-.04.4-.19.69-.14.28-.21.53-.21.72v.21c0,.23.07.46.19.67.14.19.21.51.21.93v1.02c0,.58-.19.81-.19,1.21,0,1,.5,1.55,1.51,1.63,1.01.09,1.78-.21,2.28-.88.36-.49,1.23-.91,1.8-1.49.46-.47.65-.84.58-1.11-.05-.28-.09-.79-.09-1.51,0-.3.02-.51.07-.63.05-.14.02-.37-.07-.67-.14-.3-.39-.69-.39-1.11,0-.3.22-.65.29-1.02-.27-.4-.82-.65-1.64-.7-.8-.07-1.22-.44-1.22-1.11,0-1.18.57-1.83,1.71-1.95,1.15-.12,2.21-.11,3.18.05,1.28.23,1.87.86,1.76,1.86s-.15,2.18-.15,3.57l.02.6c0,.69.38,1.04.39,1.51v.21c0,.33-.03.56-.12.72-.07.14-.1.37-.1.69l.02,1.32c0,.35.33.91.48,1.11.22.3.41.4.6.32s.43-.12.68-.11c.21.02.53.26.99.74.46.47.68.76.68.86,0,.33-.41.88-1.23,1.65-.8.76-1.35,1.14-1.61,1.14h-.08c-.29,0-.5-.07-.62-.23-.12-.14-.31-.26-.55-.35-.12-.05-.36-.11-.7-.18-.33-.09-.58-.14-.74-.18-.8-.16-1.23-.37-1.28-.63-.05-.28-.5-.42-1.33-.42-.33,0-.79.23-1.4.67-.6.44-1.25.67-1.93.67-1.3,0-2.07-.02-2.29-.05-.22-.05-.72-.37-1.52-.98-.94-.72-1.4-1.95-1.4-3.69v-.83c0-.44.31-1.05.33-1.21l-.17-1.72-.07-2.43c-.03-.76-.31-1.21-.82-1.37s-.77-.53-.77-1.14c0-1.48.6-2.21,1.78-2.21ZM56.48,77.57c-.34.26-.48.3-.67.44-.22.19-.36.14-.58.44-.29.12-.63.35-.99.65-.36.3-.62.51-.75.62-.1.11-.31.25-.6.44s-.53.28-.7.28h-.14c-.29,0-.67-.09-.87-.3-.26-.28-.6-.72-.6-1.23v-.19c0-.19.1-.44.31-.7.21-.28.36-.49.45-.65.22-.32.38-.51.46-.6.09-.09.29-.26.58-.53.26-.28.36-.32.56-.6.15-.18.26-.28.27-.3l.17-.18c.15-.12.33-.28.51-.47s.51-.3.98-.35h.14c.5-.07.99.05,1.46.37.46.3.7.76.7,1.35,0,.69-.22,1.18-.68,1.51Z"/>
      <path d="M66.48,83.21c0-.56.29-.97.86-1.23.58-.26,1.11-.39,1.59-.4h.6c.6,0,1.04.25,1.32.72.29.47.63.7,1.03.69.24,0,.84-.26,1.81-.81.98-.54,1.92-.81,2.81-.81.5,0,1.06.09,1.69.28.63.18,1.11.37,1.44.56.22.16.55.53.94,1.07.41.54.65.95.74,1.23.33,1.18.22,2.41.22,3.6,0,.4-.02.72-.07.93-.05.21-.1.51-.15.88-.12.63.15,1.12.15,1.85l-.12,1.6c.29.44.8.74,1.54.9.74.16,1.11.65,1.11,1.51,0,1.11-.46,1.67-1.39,1.69s-1.87.04-2.82.04c-1.59.02-2.59-.02-2.95-.07s-1.08-.37-2.19-.91c-1.11.62-1.9.95-2.36.97-.46.02-1.47.04-3.05.04h-.07c-.79,0-1.47-.07-2.05-.23-.56-.16-.96-.56-1.16-1.2-.33-.9-.12-1.42.58-1.58.72-.16,1.27-.35,1.63-.62,0-.63.07-1.09.21-1.35.14-.28.21-.67.21-1.16s.07-1,.07-1.3c-.07-.4-.17-.76-.17-1.34,0-.33.24-.79.26-1.12.02-.33-.19-.76-.19-1.2,0-.51.02-.86.05-1.05.05-.19-.17-.44-.65-.74-.29-.16-.6-.28-.94-.37-.34-.09-.51-.37-.51-.86v-.19ZM75.57,94.55c.43-.44.89-.74,1.42-.88.46-.12.75-.46.87-1,.14-.56.21-1.12.21-1.71l-.08-3.64v-.19c0-.44-.1-.91-.33-1.39-.21-.49-.58-.74-1.15-.74h-.1c-.57,0-1.13.18-1.66.53-.53.35-.91.69-1.15,1.02-.46.65-.8,1-1.04,1.09-.22.09-.44.65-.67,1.72-.03.16-.03.83.02,2,.05,1.18.15,1.83.27,1.95.27.39.68.7,1.23.95.12.07.38.25.75.53.39.28.58.42.58.42.12,0,.39-.23.82-.67Z"/>
      <path d="M89.84,84.55c.56-.56,1.03-1.02,1.39-1.39,1.01-1.07,2.33-1.62,3.96-1.62h.21c.53,0,1.32.35,2.26.4.39.02.68.19,1.23.05.41-.07.55-.26,1.03-.26h.19c.74,0,1.61.18,2.62.53,1.01.33,1.52.86,1.52,1.58v.09c0,.65-.19,1.23-.58,1.74-.39.49-.87.76-1.47.81-1.11.09-1.73.25-1.83.47-.09.21-.24.81-.46,1.79-.31,1.32-.92,2.25-1.87,2.76-.34.19-.91.4-1.7.65-.77.23-1.22.49-1.32.79h1.28c.43,0,.99.05,1.68.18.68.11,1.18.23,1.49.39.48.23.94.23,1.42.49.36.19.7.46,1.17.72.33.19.65.49.99.9.34.4.55.83.63,1.25.09.51.05,1.23.24,1.67.15.33.46.9.46,1.32,0,.51-.46.98-1.39,1.41-.92.42-1.59.76-2,.98-.5.25-1.25.46-2.28.62-1.03.18-1.88.26-2.58.26h-2.65c-.33,0-.99-.21-1.99-.62-.98-.4-1.63-.69-1.95-.81-.43-.18-.91-.6-1.42-1.28-.5-.69-.75-1.32-.75-1.93v-.49c0-.76.19-1.34.58-1.76s.6-.74.6-.95v-.09c0-.47-.39-.84-.39-1.53v-.11c0-1.37.27-2.25.82-2.64.55-.4.82-.76.82-1.09,0-.19-.1-.4-.29-.63s-.29-.51-.31-.88c-.05-.76-.17-1.21-.17-1.83-.02-.74.26-1.39.82-1.95ZM90.42,97.8c0,.19.1.44.31.74.21.3.38.51.5.63.31.26.55.4.72.4.19.02.46.02.82.02.12,0,.46.07.99.19.55.12.96.23,1.22.28.02,0,.36-.02,1.06-.05.7-.02,1.15-.04,1.35-.04.63,0,1.37-.51,2.07-.58.31-.05.67-.16,1.06-.33.39-.16.6-.4.6-.7v-.11c0-.44-.53-.84-.75-1.2-.21-.28-.34-.47-.43-.6-.07-.12-.31-.23-.7-.28-.67-.12-1.21-.23-1.63-.33-.46-.11-.82-.12-1.04-.07-.22.05-.46.07-.75.05l-1.39-.25s-.38.11-1.1.3-1.13.32-1.22.33c-.33.16-.7.32-1.11.49s-.6.47-.58.88v.21ZM91.27,93.26c.51.12.98.14,1.37.05.41-.09.91-.21,1.49-.37-.22-.33-.68-.51-1.39-.51h-.1c-.19,0-.43.05-.74.18-.31.11-.51.19-.63.25v.4ZM92.71,89.17c.15.09.43.23.8.44s.65.32.8.32h.09c.63,0,1.25-.21,1.85-.62.6-.42.91-.91.91-1.49v-.62c0-.3-.14-.44-.41-.44-.26,0-.5-.16-.68-.47v-.97c0-.37-.15-.54-.48-.54h-1.87c-.22,0-.58.37-1.06,1.12-.48.74-.72,1.32-.72,1.72,0,.74.26,1.25.77,1.55Z"/>
      <path d="M131.6,94.74c.53.14.79.58.79,1.32,0,.69-.48,1.11-1.44,1.27-.24.04-.67.09-1.3.14-.62.07-1.01.11-1.2.11-.65,0-1.47-.11-2.47-.32-.98-.23-1.47-.62-1.47-1.18v-.11c0-.62.39-1.07,1.2-1.34.8-.28,1.32-.77,1.58-1.48.15-.4.24-.76.24-1.05.02-.32.14-.7.36-1.16.21-.42.34-.74.41-.97.08-.23.21-.6.36-1.09.41-1.41.46-3.18.87-4.73.17-.67.39-1.37.68-2.11s.45-1.51.45-2.34l.05-.11-.26-1.71c-.05-.37.33-.77,1.11-1.23.79-.46,1.34-.7,1.66-.72.53,0,1.01.25,1.47.74.46.47.8.88,1.06,1.21.24.33.39.93.48,1.79.09.86.17,1.56.26,2.11.05.56.21,1.14.43,1.74.24.58.36,1.25.36,2s.17,1.46.5,2.02c.33.54.5,1.09.5,1.62,0,.62-.05.98-.17,1.11-.1.12,0,.44.33.93.33.62.39,1.35.67,2.06.26.67.8,1,1.64,1,.84-.02,1.27.44,1.27,1.34v.4c0,.81-.41,1.21-1.25,1.21-.34,0-.62-.04-.84-.12-.22-.09-.53-.12-.94-.07-.8.09-1.28.23-1.99.32-.48.09-1.04-.04-1.7-.35-.63-.33-.96-.76-.96-1.27v-.11c0-.49.26-.86.79-1.12.53-.26.79-.81.79-1.6,0-.44-.55-.74-1.63-.88-1.08-.16-1.92-.23-2.5-.23-.27,0-.51.26-.7.79s-.27.88-.27,1.04c0,.6.26.97.79,1.11ZM133.96,88.64c.33-.3.48-.6.48-.88v-.11c-.02-.12-.1-.37-.29-.77-.19-.4-.31-.69-.38-.86-.09-.23-.15-.54-.21-.98-.03-.44-.07-.81-.12-1.09l-.41-.11c-.1.21-.21.67-.33,1.35-.1.69-.15,1.16-.15,1.46-.02.4-.05.91-.14,1.53-.09.6.15.9.72.9.24,0,.51-.14.82-.44Z"/>
      <path d="M155.79,85.51c0,.12.14.32.43.62.29.28.51.56.63.84.27.63.45,1.12.79,1.71.7,1.11,1.37,1.85,2,3.09l.89-.11c.33-.05.48.18.48.7v.19c0,.23-.03.37-.08.42-.05.05-.09.18-.09.4v.11c0,.49.5.79,1.51.9,1.01.09,1.52.49,1.52,1.2v.11c0,.69-.53,1.12-1.59,1.34-1.04.19-1.92.3-2.62.3-.62.02-1.08.05-1.39.11-.31.05-.72.04-1.21-.09-.45-.11-.84-.26-1.18-.49s-.65-.33-.94-.33h-.39c-.33,0-.79.16-1.39.46-.6.3-1.32.46-2.16.46-1.35,0-2.77.09-4.13.09-.48,0-.92-.19-1.35-.6-.41-.4-.62-.84-.62-1.3v-.11c0-.53.36-.98,1.06-1.39.7-.4,1.17-.97,1.39-1.72.24-.81.39-1.6.46-2.39.08-.79.12-1.71.12-2.78v-1.6c0-.37-.07-.63-.21-.79-.12-.16-.19-.37-.19-.65v-.39c0-.26.09-.51.24-.76.17-.25.26-.6.26-1.07,0-.09-.02-.47-.07-1.12-.04-.67-.05-1.05-.05-1.16-.09-.33-.29-.49-.65-.47-.34.02-.67-.09-.99-.3-.15-.09-.43-.25-.79-.46-.36-.21-.53-.4-.53-.6v-.32c0-.56.36-.98,1.06-1.28.72-.3,1.39-.44,2-.44l.38.09,2.07-.09h1.18c.36,0,.74.21,1.16.65.43.42.8.7,1.1.84.26-.16.7-.42,1.37-.77.67-.35,1.2-.53,1.59-.53.55,0,1.15.3,1.85.3.55,0,1.1-.3,1.58-.3.51,0,1.08.09,1.71.28.63.19.96.53.96,1.02v.11c0,.32-.29.62-.89.91-.6.3-1.03.49-1.3.58-.57.23-.94.46-1.13.65-.26.26-.46.42-.58.46-.12.02-.29.12-.53.32-.24.18-.75.91-1.56,2.21-.79,1.3-1.18,2.13-1.18,2.46v.49ZM152.69,83.44c.62-.65.99-1.11,1.13-1.35.12-.19.43-.74.92-1.63s.74-1.44.74-1.6c-.29-.07-.7-.09-.96-.21s-.6-.49-.82-.49c-.09,0-.26.12-.51.35s-.57.39-.96.46c-.7.14-1.06.58-1.06,1.3-.02.32-.09,1.09-.21,2.32-.12,1.21-.02,1.83.31,1.83s.8-.32,1.42-.97ZM152.01,91.24c.24.21.36.42.36.63,0,1.11.1,1.71.31,1.79.21.09.63.35,1.27.83.51.4.98.39,1.37-.02.15-.16.33-.35.55-.54.22-.21.34-.46.34-.76,0-.26-.17-.7-.51-1.3-.34-.6-.58-1.02-.72-1.27-.45-.7-.72-1.02-.82-.97-.08.05-.26-.44-.5-1.51-.14,0-.31-.11-.31-.11-.6.02-1.03.35-1.3.97-.26.62-.45,1.16-.57,1.67.12.18.29.37.53.58Z"/>
    </g>
  </g>
</svg>