<?xml version="1.0" encoding="UTF-8"?>
<svg id="Layer_2" data-name="Layer 2" xmlns="http://www.w3.org/2000/svg" viewBox="0 0 239.22 121.99">
  <defs>
    <style>
      .cls-1 {
        fill: #220d0d;
      }
    </style>
  </defs>
  <g id="Layer_1-2" data-name="Layer 1">
    <g>
      <path class="cls-1" d="M13.24,50.9c1.2-7.25,6.12-8.63,11.8-10.09,13.53-3.46,27.09-2.36,40.12-2.31.84,1.05,1.18,1.34,1.35,1.7.71,1.5-.28,4.33,2.8,3.96,2.58-.31,2.19-2.69,2.59-4.46.23-1.01.5-2,.87-3.46,5.67-.46,11.35-.55,16.89-1.48,4.54-.76,8.34-.78,10.58,4.06,1.74-.51,3.13-1.28,4.51-1.26,2.72.05,5.41.37,6.9,3.39,2.49,5.05,5.31,9.93,7.73,15,.85,1.77.93,3.91,1.35,5.85,1.47,1.67,3.02,3.43,4.87,5.53-2.17,1.57-3.64,2.63-4.96,3.58.72,8.12,5.14,13.88,10.28,12.91,5.47-1.04,7.35-2.18,7.21-13.42-5.55-.72-6.92-4.44-6.33-9.5.36-3.13-1.08-5.5-3.96-6.44-2.54-.83-3.74-2.38-4.54-4.74-.54-1.57-1.27-3.31-2.47-4.36-3.61-3.16-1.68-7.49-2.62-11.18-.53-2.08,2.71-3.5,4.62-2.02,1.08.84,1.48,2.53,2.52,3.47,1.64,1.48,3.41,3.13,5.42,3.77,1.17.37,3.3-.74,4.27-1.83.59-.66.16-2.76-.45-3.86-1.51-2.71-3.79-3.73-7.17-4.05-4.41-.43-8.75-2.21-12.97-3.82-1.3-.49-2.08-2.33-3.68-4.26,2.15-.63,3.42-1.3,4.7-1.33,5.28-.13,10.56-.06,15.84-.08,1.48,0,3.1.3,4.4-.2,4.25-1.63,7.57-.53,11.77,1.27,5,2.14,11.13,1.69,16.79,2.22,1.45.13,3.46,1.07,4.2-1.82-4.63-1.41-9.92,1.45-14.43-1.73,1.51-3.67,4.33-2.92,6.66-2.94,13.52-.08,27.03-.12,40.55-.06,9.91.04,19.83.28,29.74.39,1.9.02,3.9.25,5.65-.28,1.11-.33,2.55-1.88,2.57-2.9.02-1.05-1.34-2.45-2.45-3.07-.99-.56-2.46-.35-3.72-.34-23.23.25-46.45.58-69.68.77-6.52.05-13.04-.27-19.56-.43-.84-.02-1.82.12-2.5-.25-7.36-4-15.31-1.83-22.99-2.11-3.68-.13-6.61-.46-8.25-4.18-.41-.94-1.21-1.72-1.89-2.53-1.71-2.05-3.94-2.38-5.23-.1-2.25,3.96-5.73,3.75-9.35,3.7-1.27-.02-2.53,0-3.8,0-5.7,0-11.45-.45-17.1.11-6.15.61-9.47-5.13-14.92-5.72-2.46,2.37-4.92,4.74-7.84,7.57.2.7.97,2.11.87,3.45-.09,1.18-1.14,2.29-1.77,3.43-1.05-.78-2.47-1.36-3.05-2.4-.91-1.64-1.24-3.6-1.8-5.37-3.59.74-4.07,2.81-3.96,4.98.11,2.09.51,4.2,1.06,6.23.7,2.56,2.57,3.28,4.82,2.09q5.07-2.67,7.83,2.66c2.55,0,5.24-.03,7.93.01,1.9.03,4.12-.11,4.41,2.47.27,2.4-1.12,4.59-3.44,4.46-5.91-.34-11.05,2.35-16.57,3.47-6.81,1.38-13.6,2.9-20.39,4.37-1.03.22-2.5,1.09-2.98.7-5.05-4.15-9.23.84-13.82,1.18-2.45.19-2.43.49-4.96,4.49,2.69,2.26,3.85,6.39,9.11,7.13Z"/>
      <path class="cls-1" d="M34.52,37.02c-3.57,1.13-7.69.15-10.88,3.06-.59.54-2.44-.32-3.71-.53"/>
      <path class="cls-1" d="M120.76,29.41c1.48.85,2.96,1.69,4.44,2.54"/>
      <path class="cls-1" d="M151.2,19.9c5.59,3.72,11.68,2.77,17.76,1.9"/>
      <path class="cls-1" d="M51.01,15.46c-1.48.42-2.96.85-4.44,1.27"/>
    </g>
    <g>
      <path d="M4.28,105.01c-.62-.3-.84-1.23-.65-2.81.12-1.2.36-1.9.7-2.11.34-.21.84-.62,1.47-1.21.91-.86,2.28-1.3,4.11-1.35.65,0,1.04,0,1.2-.02s.53.05,1.1.18c.08.02.48.07,1.21.14.74.05,1.13.09,1.2.09h.21c.46,0,.77-.02.96-.07s.48.07.84.35c.12.11.33.28.65.53.33.23.5.44.5.6v.11c0,.16-.15.42-.44.79s-.45.97-.43,1.83c0,.54-.08,1.04-.24,1.51s-.48.7-.94.7c-.36,0-.72-.16-1.1-.46-.36-.32-.62-.6-.75-.84-.36-.49-.56-.81-.65-.95-.07-.16-.38-.37-.94-.65-1.3.65-2.12.74-2.45.3-.33-.46-.62-.69-.91-.69-.26,0-.63.23-1.04.3-.39.12-.6.4-.6.81v.19c0,.74.53,1.18,1.59,1.32,1.08.14,1.92.19,2.53.18.15,0,.48.11.94.3s.82.33,1.06.39c.55.16.84.33.87.53.05.18.17.47.36.91.33,0,.36-.11.7-.11h.1c.43,0,.89.32,1.35.95.46.62.7,1.18.7,1.67v.21c0,.37-.29.7-.36,1-.15.4-.09.79-.21,1.12-.08.23-.26.51-.51.84-.26.33-.44.6-.58.76-.39.47-1.04.7-1.95.72-.57.02-.96.12-1.18.32s-.5.28-.79.28c-.6,0-1.1-.05-1.49-.16-.39-.09-.84-.14-1.35-.14-.53.02-.94-.09-1.22-.32-.27-.25-.67-.37-1.16-.37-.29,0-.55.11-.8.32-.24.19-.57.3-.96.3h-.5c-.29,0-.5-.18-.65-.53-.15-.37-.22-.7-.22-1,0-.49.29-.97.29-1.51l-.02-.39c0-.4-.02-.88-.07-1.42-.05-.54-.03-.95.05-1.25.19-.58.46-.84.82-.83.38.02.57-.14.57-.44,0-.33-.31-.63-.92-.91ZM6.2,106.82s.14.44.43,1.28c.29.83.46,1.27.5,1.3.38.58.72.86,1.03.86.31-.02.74.09,1.3.3.8.3,1.27.42,1.4.37s.65-.09,1.54-.09c.53,0,1.03-.05,1.52-.16.5-.12.74-.44.74-.97,0-.44-.07-.93-.19-1.48s-.22-.98-.31-1.35l-1.68.02-1.85.05c-.09.04-.45-.02-1.1-.16-.65-.16-1.01-.25-1.1-.28-.74-.26-1.68-.14-2.24,0v.3Z"/>
      <path d="M24.36,97.56s.45.07,1.22.21,1.18.21,1.22.21c.8.37,1.2.97,1.2,1.79,0,.28-.09.58-.26.91-.15.32-.24.47-.26.49l.24,1.53c.02.18-.04.4-.19.69-.14.28-.21.53-.21.72v.21c0,.23.07.46.19.67.14.19.21.51.21.93v1.02c0,.58-.19.81-.19,1.21,0,1,.5,1.55,1.51,1.63,1.01.09,1.78-.21,2.28-.88.36-.49,1.23-.91,1.8-1.49.46-.47.65-.84.58-1.11-.05-.28-.09-.79-.09-1.51,0-.3.02-.51.07-.63.05-.14.02-.37-.07-.67-.14-.3-.39-.69-.39-1.11,0-.3.22-.65.29-1.02-.27-.4-.82-.65-1.64-.7-.8-.07-1.22-.44-1.22-1.11,0-1.18.57-1.83,1.71-1.95,1.15-.12,2.21-.11,3.18.05,1.28.23,1.87.86,1.76,1.86s-.15,2.18-.15,3.57l.02.6c0,.69.38,1.04.39,1.51v.21c0,.33-.03.56-.12.72-.07.14-.1.37-.1.69l.02,1.32c0,.35.33.91.48,1.11.22.3.41.4.6.32s.43-.12.68-.11c.21.02.53.26.99.74.46.47.68.76.68.86,0,.33-.41.88-1.23,1.65-.8.76-1.35,1.14-1.61,1.14h-.08c-.29,0-.5-.07-.62-.23-.12-.14-.31-.26-.55-.35-.12-.05-.36-.11-.7-.18-.33-.09-.58-.14-.74-.18-.8-.16-1.23-.37-1.28-.63-.05-.28-.5-.42-1.33-.42-.33,0-.79.23-1.4.67-.6.44-1.25.67-1.93.67-1.3,0-2.07-.02-2.29-.05-.22-.05-.72-.37-1.52-.98-.94-.72-1.4-1.95-1.4-3.69v-.83c0-.44.31-1.05.33-1.21l-.17-1.72-.07-2.43c-.03-.76-.31-1.21-.82-1.37s-.77-.53-.77-1.14c0-1.48.6-2.21,1.78-2.21ZM34.57,93.55c-.34.26-.48.3-.67.44-.22.19-.36.14-.58.44-.29.12-.63.35-.99.65-.36.3-.62.51-.75.62-.1.11-.31.25-.6.44s-.53.28-.7.28h-.14c-.29,0-.67-.09-.87-.3-.26-.28-.6-.72-.6-1.23v-.19c0-.19.1-.44.31-.7.21-.28.36-.49.45-.65.22-.32.38-.51.46-.6.09-.09.29-.26.58-.53.26-.28.36-.32.56-.6.15-.18.26-.28.27-.3l.17-.18c.15-.12.33-.28.51-.47s.51-.3.98-.35h.14c.5-.07.99.05,1.46.37.46.3.7.76.7,1.35,0,.69-.22,1.18-.68,1.51Z"/>
      <path d="M44.57,99.19c0-.56.29-.97.86-1.23.58-.26,1.11-.39,1.59-.4h.6c.6,0,1.04.25,1.32.72.29.47.63.7,1.03.69.24,0,.84-.26,1.81-.81.98-.54,1.92-.81,2.81-.81.5,0,1.06.09,1.69.28.63.18,1.11.37,1.44.56.22.16.55.53.94,1.07.41.54.65.95.74,1.23.33,1.18.22,2.41.22,3.6,0,.4-.02.72-.07.93-.05.21-.1.51-.15.88-.12.63.15,1.12.15,1.85l-.12,1.6c.29.44.8.74,1.54.9.74.16,1.11.65,1.11,1.51,0,1.11-.46,1.67-1.39,1.69s-1.87.04-2.82.04c-1.59.02-2.59-.02-2.95-.07s-1.08-.37-2.19-.91c-1.11.62-1.9.95-2.36.97-.46.02-1.47.04-3.05.04h-.07c-.79,0-1.47-.07-2.05-.23-.56-.16-.96-.56-1.16-1.2-.33-.9-.12-1.42.58-1.58.72-.16,1.27-.35,1.63-.62,0-.63.07-1.09.21-1.35.14-.28.21-.67.21-1.16s.07-1,.07-1.3c-.07-.4-.17-.76-.17-1.34,0-.33.24-.79.26-1.12.02-.33-.19-.76-.19-1.2,0-.51.02-.86.05-1.05.05-.19-.17-.44-.65-.74-.29-.16-.6-.28-.94-.37-.34-.09-.51-.37-.51-.86v-.19ZM53.66,110.53c.43-.44.89-.74,1.42-.88.46-.12.75-.46.87-1,.14-.56.21-1.12.21-1.71l-.08-3.64v-.19c0-.44-.1-.91-.33-1.39-.21-.49-.58-.74-1.15-.74h-.1c-.57,0-1.13.18-1.66.53-.53.35-.91.69-1.15,1.02-.46.65-.8,1-1.04,1.09-.22.09-.44.65-.67,1.72-.03.16-.03.83.02,2,.05,1.18.15,1.83.27,1.95.27.39.68.7,1.23.95.12.07.38.25.75.53.39.28.58.42.58.42.12,0,.39-.23.82-.67Z"/>
      <path d="M67.92,100.53c.56-.56,1.03-1.02,1.39-1.39,1.01-1.07,2.33-1.62,3.96-1.62h.21c.53,0,1.32.35,2.26.4.39.02.68.19,1.23.05.41-.07.55-.26,1.03-.26h.19c.74,0,1.61.18,2.62.53,1.01.33,1.52.86,1.52,1.58v.09c0,.65-.19,1.23-.58,1.74-.39.49-.87.76-1.47.81-1.11.09-1.73.25-1.83.47-.09.21-.24.81-.46,1.79-.31,1.32-.92,2.25-1.87,2.76-.34.19-.91.4-1.7.65-.77.23-1.22.49-1.32.79h1.28c.43,0,.99.05,1.68.18.68.11,1.18.23,1.49.39.48.23.94.23,1.42.49.36.19.7.46,1.17.72.33.19.65.49.99.9.34.4.55.83.63,1.25.09.51.05,1.23.24,1.67.15.33.46.9.46,1.32,0,.51-.46.98-1.39,1.41-.92.42-1.59.76-2,.98-.5.25-1.25.46-2.28.62-1.03.18-1.88.26-2.58.26h-2.65c-.33,0-.99-.21-1.99-.62-.98-.4-1.63-.69-1.95-.81-.43-.18-.91-.6-1.42-1.28-.5-.69-.75-1.32-.75-1.93v-.49c0-.76.19-1.34.58-1.76s.6-.74.6-.95v-.09c0-.47-.39-.84-.39-1.53v-.11c0-1.37.27-2.25.82-2.64.55-.4.82-.76.82-1.09,0-.19-.1-.4-.29-.63s-.29-.51-.31-.88c-.05-.76-.17-1.21-.17-1.83-.02-.74.26-1.39.82-1.95ZM68.51,113.78c0,.19.1.44.31.74.21.3.38.51.5.63.31.26.55.4.72.4.19.02.46.02.82.02.12,0,.46.07.99.19.55.12.96.23,1.22.28.02,0,.36-.02,1.06-.05.7-.02,1.15-.04,1.35-.04.63,0,1.37-.51,2.07-.58.31-.05.67-.16,1.06-.33.39-.16.6-.4.6-.7v-.11c0-.44-.53-.84-.75-1.2-.21-.28-.34-.47-.43-.6-.07-.12-.31-.23-.7-.28-.67-.12-1.21-.23-1.63-.33-.46-.11-.82-.12-1.04-.07-.22.05-.46.07-.75.05l-1.39-.25s-.38.11-1.1.3-1.13.32-1.22.33c-.33.16-.7.32-1.11.49s-.6.47-.58.88v.21ZM69.36,109.25c.51.12.98.14,1.37.05.41-.09.91-.21,1.49-.37-.22-.33-.68-.51-1.39-.51h-.1c-.19,0-.43.05-.74.18-.31.11-.51.19-.63.25v.4ZM70.8,105.15c.15.09.43.23.8.44s.65.32.8.32h.09c.63,0,1.25-.21,1.85-.62.6-.42.91-.91.91-1.49v-.62c0-.3-.14-.44-.41-.44-.26,0-.5-.16-.68-.47v-.97c0-.37-.15-.54-.48-.54h-1.87c-.22,0-.58.37-1.06,1.12-.48.74-.72,1.32-.72,1.72,0,.74.26,1.25.77,1.55Z"/>
      <path d="M107.96,95.48c.94-.26,1.64-.62,2.11-1.02.29-.25.5-.49.62-.74.12-.26.39-.56.82-.91.29-.23.56-.47.8-.74.26-.28.62-.42,1.11-.42h.1c.72,0,1.25.26,1.58.81.34.53.6,1.12.75,1.78.09.37.14,1.14.15,2.34.03,1.18.05,1.97.05,2.34l-.12,2.83c-.09,1.05-.12,2.27-.14,3.62,0,1.35.02,2.51.07,3.45.02.72.07,1.25.15,1.58.08.33.02.86-.17,1.6-.14.46-.29.93-.48,1.41-.19.47-.53.74-1.04.76-.6,0-1.1-.28-1.49-.83-.39-.56-.58-1.16-.58-1.78l.07-.6.09-5.87-.22-4.32v-1.21c0-.23-.05-.58-.17-1.07-.12-.51-.26-.76-.43-.76-.43,0-.91.18-1.44.53-.51.33-1.18.51-2,.51h-.19c-.38,0-.7-.18-.98-.54-.27-.37-.41-.77-.41-1.18-.02-.76.44-1.28,1.39-1.55Z"/>
      <path d="M126.79,98.97c-.72,0-1.08-.4-1.08-1.2v-.11c-.02-.95.19-1.72.62-2.3.45-.6.91-1.14,1.39-1.65.6-.62,1.22-1.02,1.85-1.21.65-.19,1.49-.3,2.5-.32,1.99,0,3.82.26,5.05,1.37.1.12.34.42.7.9.38.47.63.77.75.93.6.83.89,1.67.89,2.53v.19c0,.9-.15,1.67-.48,2.36-.33.67-.65,1.27-.98,1.79-.36.58-.87,1.02-1.52,1.32s-1.25.63-1.81,1.02c-.51.37-1.15.7-1.9.98-.75.26-1.28.65-1.61,1.14-.22.33-.46.53-.74.6-.26.07-.53.3-.8.67-.21.3-.41.58-.62.86-.19.26-.29.65-.29,1.14v.09c0,.44.26.63.79.54.53-.09.92-.14,1.16-.14h.1c.87,0,1.8.3,2.29.21.72-.12,1.51-.12,2.38.02.26.05.53.02.86-.09.33-.12.77-.14,1.35-.09.92.12,1.39.56,1.39,1.32v.11c0,.69-.33,1.09-.96,1.23-.12.04-.43.09-.92.16-.5.07-.8.11-.92.09-.24-.05-.58-.07-1.04-.09-.46-.02-.75-.02-.89,0-.67.16-.99.21-1.01.14,0-.05-.24-.09-.72-.09-.6,0-1.21.04-1.85.11-.34.05-.62.02-.84-.11s-.51-.19-.87-.19h-.87c-.57,0-.89.02-1.01.04-.12.02-.39-.12-.84-.44-.53-.33-.8-.95-.8-1.81,0-.51.22-1.21.67-2.09s.77-1.53.96-1.95c.05-.09.22-.37.55-.86s.53-.79.62-.88c.19-.25.41-.4.67-.47s.56-.33.92-.81c.12-.14.7-.46,1.75-.93,1.04-.49,1.73-.81,2.04-.95.63-.26,1.28-.6,1.92-.97.63-.39.96-1.04.96-1.93v-.81c0-.26-.21-.76-.63-1.46-.43-.72-.72-1.16-.89-1.32-.24-.21-.77-.4-1.61-.58-.82-.18-1.46-.23-1.88-.14-.43.09-.92.3-1.51.63s-.96.65-1.15.97c-.21.33-.38.83-.5,1.51-.12.69-.55,1.02-1.27,1.02h-.29Z"/>
      <path d="M157.96,111.31c-.29.19-.65.74-1.1,1.65-.5,0-.58.4-.26,1.23s.1,1.27-.7,1.32c-.17.09-.46.28-.87.58-.39.3-.67.54-.8.7-.51.49-.72.77-.6.83.12.07-.31.11-1.25.12h-.21c-.43,0-1.01-.09-1.71-.28s-1.04-.53-1.04-1.04v-.11c0-1.55.36-2.37,1.08-2.46.74-.09,1.1-.33,1.1-.76,0-.19-.26-.49-.75-.88-.5-.4-.82-.72-.96-.98-.09-.12-.27-.56-.6-1.35-.31-.79-.46-1.23-.46-1.32,0-.16.19-.58.58-1.25.39-.69.63-1.09.75-1.21.12-.12.51-.37,1.15-.77.65-.4,1.06-.62,1.25-.62h.1c.96,0,1.85.35,2.69,1.05s1.61,1.05,2.33,1.05c.46.33.7.74.7,1.21,0,.26-.07.4-.19.46-.12.04-.12.37.02.98.14,1.04.05,1.63-.24,1.83Z"/>
      <path d="M170.8,92.11l4.31-.18,1.88-.04c.19,0,.82.05,1.92.16,1.11.11,1.71.18,1.83.21.22.09.69.32,1.42.69.74.37,1.11.65,1.11.84v.11c0,.05-.22.33-.68.88-.46.54-.72.84-.8.91-.21.18-.51.42-.92.76-.39.32-.65.56-.77.72-.22.33-.36.79-.45,1.34-.07.54-.22.91-.45,1.07-.43.33-.72.56-.87.69-.15.12-.36.44-.65.98-.26.47-.36.88-.29,1.18s-.09.76-.48,1.37c-.27.46-.43.86-.45,1.21-.02.33-.05.81-.1,1.42-.07.47-.43.74-.58,1.02-.26.42-.17.79-.24,1.35-.12.54-.05.98-.12,1.48-.12.49-.31.83-.31,1.32v.11c0,.62.12,1.04.34,1.27.24.23.36.58.36,1.02,0,.3-.24.79-.74,1.44-.48.65-.86.98-1.11.98h-.51c-.39,0-.68-.19-.86-.6-.15-.4-.24-.81-.24-1.21-.02-1.18-.29-1.81-.29-2.5,0-.46.09-1.16.27-2.13.19-.97.33-1.78.43-2.41.05-.44.19-1.11.41-2.02.22-.93.41-1.65.57-2.2.15-.56.34-1.49.6-1.99.29-.54.62-.81,1.01-1.58.12-.23.39-.84.86-1.85.46-1,.7-1.6.7-1.81,0-.25-.38-.44-1.11-.56-.74-.14-1.18-.21-1.3-.19-.38.07-.87.23-1.49.46-.6.23-.94.35-1.01.35-.33,0-.55-.05-.67-.16s-.29-.16-.51-.16h-.21c-.45,0-.6.28-.48.83.14.54,0,.97-.43,1.25-.22.16-.53.37-.96.62-.43.23-.77.35-1.06.35-.33.02-.67-.19-.99-.62-.33-.44-.48-.83-.48-1.2-.02-.28.03-.95.12-1.99.1-1.05.22-1.67.34-1.85.48-.83,1.75-1.23,3.03-1.23l1.1.07Z"/>
      <path d="M191.82,98.03c.39,0,.74-.11.99-.3.27-.21.53-.32.79-.32.21,0,.55.04,1.03.09.48.05.8.11.99.16.29.09.55.21.74.39.21.18.5.26.89.26h.08c.22,0,.62-.12,1.2-.39s1.13-.42,1.64-.44c.5,0,1.08.19,1.75.58.67.37,1.11.74,1.37,1.09.48.69.72,1.25.74,1.71.02.46-.02,1.2-.1,2.2h.1l-.29,2.51s.07.63.19,1.81c.14,1.18.22,1.79.24,1.88.21.65.55,1.11,1.03,1.39s.72.6.72.97c0,.56-.26,1-.75,1.34-.5.33-1.01.49-1.51.49h-.77c-.6,0-.82-.3-1.28-.3-.43,0-.77.09-1.06.25-.27.16-.82.16-1.64.02-.67-.12-1.2-.07-1.61.18s-.77.37-1.1.37c-.27,0-.5-.07-.67-.23s-.46-.25-.89-.28c-.45-.02-.77-.02-.98,0-.21.02-.51.02-.91.02-.75,0-1.4.09-1.88,0-.19-.02-.55-.05-1.08-.11-.51-.05-.8-.09-.87-.09-.53,0-1.03-.02-1.49-.05-.46-.05-.84-.26-1.15-.67-.31-.37-.39-.81-.24-1.32s.43-.86.86-1.02c.84-.32,1.18-.6,1.03-.86-.14-.26-.12-.83.03-1.69.02-.18.09-.76.19-1.74.12-.98.17-1.49.19-1.55l-.22-1.41c-.05-.26-.03-.49.05-.67.08-.19.08-.46,0-.79-.15-.44-.6-.47-.94-.76-.33-.23-.6-.51-.8-.84-.21-.33-.17-.74.08-1.21.58-1.11,1.28-1.49,2.12-1.16s1.73.49,2.71.49h.5ZM191.65,104.98c0,.42.14.69.43.81.29.11.45.35.46.72,0,.25-.07.42-.21.53-.12.09-.19.39-.19.88,0,.33-.31.77-.39,1l-.08.07.79.97.67-.42c.84,0,1.18-.35,1.06-1.05-.12-.72-.17-1.44-.17-2.18-.15-.26-.58-.53-.58-.81v-.09c0-.25.17-.44.53-.58s.55-.63.55-1.46c0-.26-.05-.51-.15-.72s-.15-.54-.15-.98c-.15-.07-.55-.4-.7-.4h-.19c-.22,0-.36.23-.43.7s-.15.83-.27,1.07c-.21.37-.41.54-.63.51-.22-.05-.33.3-.33,1.04v.4ZM200.61,105.89c0-.42.14-.37.21-.79.05-.23-.03-.35-.03-.84,0-.65.34-.97.5-1.62-.39-.74-.96-1.11-1.68-1.11h-.1c-.24,0-.53.14-.87.4-.33.26-.5.47-.5.63,0,.33.1.6.29.79.21.19.31.49.31.9l.02.21s-.1.35-.31,1.02c-.19.65-.29,1.09-.29,1.3v.51c0,.58.31.93.31,1.42,0,.42-.03.76-.12,1-.07.25.07.49.41.72l1.87-1.04c.05-.72.27-1.02.43-1.67.09-.37.03-.65-.15-.84-.19-.19-.27-.47-.27-.81v-.19Z"/>
      <path d="M212.95,98.03c.39,0,.74-.11.99-.3.27-.21.53-.32.79-.32.21,0,.55.04,1.03.09.48.05.8.11.99.16.29.09.55.21.74.39.21.18.5.26.89.26h.08c.22,0,.62-.12,1.2-.39s1.13-.42,1.64-.44c.5,0,1.08.19,1.75.58.67.37,1.11.74,1.37,1.09.48.69.72,1.25.74,1.71.02.46-.02,1.2-.1,2.2h.1l-.29,2.51s.07.63.19,1.81c.14,1.18.22,1.79.24,1.88.21.65.55,1.11,1.03,1.39s.72.6.72.97c0,.56-.26,1-.75,1.34-.5.33-1.01.49-1.51.49h-.77c-.6,0-.82-.3-1.28-.3-.43,0-.77.09-1.06.25-.27.16-.82.16-1.64.02-.67-.12-1.2-.07-1.61.18s-.77.37-1.1.37c-.27,0-.5-.07-.67-.23s-.46-.25-.89-.28c-.45-.02-.77-.02-.98,0-.21.02-.51.02-.91.02-.75,0-1.4.09-1.88,0-.19-.02-.55-.05-1.08-.11-.51-.05-.8-.09-.87-.09-.53,0-1.03-.02-1.49-.05-.46-.05-.84-.26-1.15-.67-.31-.37-.39-.81-.24-1.32s.43-.86.86-1.02c.84-.32,1.18-.6,1.03-.86-.14-.26-.12-.83.03-1.69.02-.18.09-.76.19-1.74.12-.98.17-1.49.19-1.55l-.22-1.41c-.05-.26-.03-.49.05-.67.08-.19.08-.46,0-.79-.15-.44-.6-.47-.94-.76-.33-.23-.6-.51-.8-.84-.21-.33-.17-.74.08-1.21.58-1.11,1.28-1.49,2.12-1.16s1.73.49,2.71.49h.5ZM212.78,104.98c0,.42.14.69.43.81.29.11.45.35.46.72,0,.25-.07.42-.21.53-.12.09-.19.39-.19.88,0,.33-.31.77-.39,1l-.08.07.79.97.67-.42c.84,0,1.18-.35,1.06-1.05-.12-.72-.17-1.44-.17-2.18-.15-.26-.58-.53-.58-.81v-.09c0-.25.17-.44.53-.58s.55-.63.55-1.46c0-.26-.05-.51-.15-.72s-.15-.54-.15-.98c-.15-.07-.55-.4-.7-.4h-.19c-.22,0-.36.23-.43.7s-.15.83-.27,1.07c-.21.37-.41.54-.63.51-.22-.05-.33.3-.33,1.04v.4ZM221.74,105.89c0-.42.14-.37.21-.79.05-.23-.03-.35-.03-.84,0-.65.34-.97.5-1.62-.39-.74-.96-1.11-1.68-1.11h-.1c-.24,0-.53.14-.87.4-.33.26-.5.47-.5.63,0,.33.1.6.29.79.21.19.31.49.31.9l.02.21s-.1.35-.31,1.02c-.19.65-.29,1.09-.29,1.3v.51c0,.58.31.93.31,1.42,0,.42-.03.76-.12,1-.07.25.07.49.41.72l1.87-1.04c.05-.72.27-1.02.43-1.67.09-.37.03-.65-.15-.84-.19-.19-.27-.47-.27-.81v-.19Z"/>
    </g>
  </g>
</svg>