<?xml version="1.0" encoding="UTF-8"?>
<svg id="Layer_2" data-name="Layer 2" xmlns="http://www.w3.org/2000/svg" viewBox="0 0 180.15 168.96">
  <defs>
    <style>
      .cls-1 {
        fill: #220d0d;
      }
    </style>
  </defs>
  <g id="Layer_1-2" data-name="Layer 1">
    <g>
      <path d="M32.86,102.83c.48.12,1.13.19,1.95.19.67,0,1.35.07,2.03.22.68.14,1.03.53,1.05,1.16,0,.34-.13.67-.38.99-.25.31-.48.53-.72.65-.18.09-.5.27-.97.53s-.77.38-.92.38h-.1c-.35,0-.6-.07-.77-.19-.15-.14-.42-.21-.77-.21h-.47c-.73,0-1.08.99-1.05,2.96.03,1.97.1,3.32.22,4.02.12.8.4,1.18.85,1.09.45-.09.8-.48,1.01-1.15.2-.65.33-1.18.4-1.61.07-.43.47-.75,1.2-.96.55-.14,1.08-.08,1.58.17.5.24.78.62.87,1.15.08.53.02,1.11-.17,1.73-.12.39-.17.7-.15.92.02.22,0,.51-.08.89-.1.53-.8,1.2-2.08,1.97-1.28.77-2.26,1.16-2.95,1.16-.32,0-.87-.21-1.63-.62-.77-.43-1.25-.72-1.45-.91-.45-.36-.77-.82-.93-1.38-.03-.07-.12-.39-.23-.99-.12-.6-.17-.92-.17-.97-.02-1.16.02-2.19.08-3.09.07-.91.1-1.9.1-2.97,0-.56.22-1.06-.18-1.42-.08-.05-.3-.14-.68-.22-.37-.09-.62-.14-.77-.14-.57,0-1.2-.03-1.91-.09s-1.07-.43-1.07-1.09v-.27c0-1.11.72-1.66,2.13-1.64s2.23-.32,2.41-.99c.12-.39.15-.92.1-1.62s.02-1.26.18-1.73c.12-.36.42-.65.9-.91.5-.26.98-.39,1.45-.39.32,0,.7.19,1.15.56.45.36.68.67.68.91,0,.38-.08.77-.25,1.18-.17.39-.25.82-.25,1.25,0,.87.25,1.37.73,1.49Z"/>
      <path d="M51.32,111.59c-.3,0-.52.03-.67.1-.13.07-.33.1-.58.1-.33,0-.55-.08-.67-.24-.1-.15-.42-.19-.96-.07-.68.15-.83.58-.47,1.3.23.53.55.92.93,1.18.38.26.83.51,1.32.8.47.26,1.03.39,1.68.39.65-.02,1.17-.21,1.52-.56.32-.32.63-.72.95-1.2.32-.5.78-.73,1.37-.73.47,0,.98.1,1.53.31.57.21.85.55.85,1.04v.41c0,.67-.23,1.2-.72,1.56-.47.36-.92.67-1.35.96-.05.03-.6.27-1.61.7-1.02.43-1.55.63-1.58.63h-1.46c-.28-.02-.68.02-1.2.1-.57.08-.92.03-1.05-.17-.13-.22-.4-.41-.82-.56-.42-.19-.96-.56-1.65-1.14-.67-.6-1.12-1.09-1.35-1.49-.72-1.2-1.08-2.68-1.1-4.44-.02-1.78.35-3.25,1.1-4.39.28-.44.68-.99,1.17-1.64.48-.65.95-1.09,1.4-1.33,1.5-.77,2.98-.92,4.43-.5.82.24,1.53.44,2.16.62.65.15,1.28.46,1.9.89.43.32.65.6.65.84.02.24.15.55.42.91.15.19.35.48.62.84.28.36.42.68.42.97v.38c0,.48-.27.62-.38.96-.15.41-.07.74-.27,1.09-.22.38-.52.56-.9.58-.38.02-.75.09-1.12.24-.35.12-.63.29-.87.5-.23.19-.62.29-1.15.29-.48,0-.93.12-1.25.1-.4-.07-.6-.31-1.13-.31h-.1ZM48.04,99.2l.73-.75c.28-.29.38-.43.63-.75.27-.22.55-.6.77-.82.12-.14.25-.26.38-.38.12-.07.17-.12.18-.15.42-.29.88-.43,1.4-.43h.23c.35,0,.62.09.77.26.05.09.12.15.2.21.1.05.18.12.25.21.02,0,.03,0,.03.02.13.19.22.17.42.36.15.27.27.39.52.6.25.24.4.39.48.48.08.09.23.26.45.55.08.14.22.32.4.58.18.26.28.46.28.65v.17c0,.46-.4,1.01-.65,1.26-.08.09-.27.17-.53.24-.25.05-.45.09-.6.09h-.1c-.35,0-.82-.46-1.02-.65-.12-.1-.4-.48-.82-1.11-.18-.22-.32-.39-.42-.51l-.12.07c-.15.22-.52.65-1.13,1.28-.15.15-.32.34-.52.58-.2.24-.5.36-.9.36l-.37-.02c-.75.02-1.4-.58-1.4-1.38,0-.36.15-.68.43-.99ZM48.06,107.87c0,.46.17.7.48.7l.2-.07,2.76.14c.4.05.78-.27,1.33-.27.33,0,.58.07.77.19.18.12.4.19.67.19.25,0,.38-.1.38-.29,0-.29-.15-.58-.45-.91-.28-.32-.57-.53-.83-.62-.38-.14-.65-.38-.78-.7-.13-.34-.4-.51-.8-.51-.27,0-.58.14-.97.41-.38.26-.65.46-.83.58-.18.15-.57.26-1.12.31-.55.05-.82.26-.82.65v.21Z"/>
      <path d="M63.87,104.79c0-.55.28-.94.83-1.2.57-.26,1.08-.38,1.55-.39h.58c.58,0,1.02.24,1.28.7.28.46.62.68,1,.67.23,0,.82-.26,1.76-.79s1.86-.79,2.73-.79c.48,0,1.03.09,1.65.27.62.17,1.08.36,1.4.55.22.15.53.51.92,1.04.4.53.63.92.72,1.2.32,1.15.22,2.34.22,3.5,0,.39-.02.7-.07.91s-.1.5-.15.85c-.12.62.15,1.09.15,1.79l-.12,1.55c.28.43.78.72,1.5.87.72.15,1.08.63,1.08,1.47,0,1.08-.45,1.62-1.35,1.64-.9.02-1.81.03-2.75.03-1.55.02-2.51-.02-2.86-.07-.35-.05-1.05-.36-2.13-.89-1.08.6-1.85.92-2.3.94-.45.02-1.43.03-2.96.03h-.07c-.77,0-1.43-.07-2-.22-.55-.15-.93-.55-1.13-1.16-.32-.87-.12-1.38.57-1.54.7-.15,1.23-.34,1.58-.6,0-.62.07-1.06.2-1.32.13-.27.2-.65.2-1.13s.07-.97.07-1.26c-.07-.39-.17-.74-.17-1.3,0-.33.23-.77.25-1.09.02-.33-.18-.74-.18-1.16,0-.5.02-.84.05-1.03.05-.19-.17-.43-.63-.72-.28-.15-.58-.27-.92-.36s-.5-.36-.5-.84v-.19ZM72.71,115.82c.42-.43.87-.72,1.38-.85.45-.12.73-.44.85-.97.13-.55.2-1.09.2-1.66l-.08-3.54v-.19c0-.43-.1-.89-.32-1.35-.2-.48-.57-.72-1.12-.72h-.1c-.55,0-1.1.17-1.62.51s-.88.67-1.12.99c-.45.63-.78.97-1.02,1.06-.22.09-.43.63-.65,1.67-.03.15-.03.8.02,1.95.05,1.15.15,1.78.27,1.9.27.38.67.68,1.2.92.12.07.37.24.73.51.38.27.57.41.57.41.12,0,.38-.22.8-.65Z"/>
      <path d="M101.06,99.34c0-.6.32-.99.95-1.21.63-.22,1.25-.34,1.83-.36h.48c.82,0,1.73.26,2.38.17.88-.1,1.58,0,2.11.31.65.39,1,.91,1.07,1.57.02.24.03.67.07,1.28s.05,1.01.03,1.16l-.35,3.06c-.05.19-.02.65.08,1.4.12.73.17,1.28.18,1.62,0,.6.17.94.3,1.37.08.38.08.63-.03.79-.12.14-.17.31-.17.5,0,.22.03.38.1.48.07.08.1.26.1.5v.21l-.37,2.55v.21c0,.32.15.48.47.48.7,0,1.73-.07,3.1-.19,1.38-.14,2.1.29,2.15,1.28.02.44-.15.85-.48,1.21-.33.36-.7.58-1.1.67-.52.08-1,.03-1.51.19-.48.19-.77.36-1.38.36-.25,0-.52-.07-.8-.21-.27-.12-.55-.15-.87-.1-.48.08-.77.12-.85.12-.08.02-.35.02-.82.02-.6,0-1.28.02-2.06.07-.78.05-1.48.03-2.11-.09-.38-.07-.73-.08-1.05-.05-.3.05-.6-.03-.88-.26-.47-.32-.7-.8-.7-1.44,0-.51.22-.87.63-1.09.43-.22.92-.36,1.46-.38.5,0,.98-.1,1.43-.29.45-.21.93-.31,1.45-.31.42-.63.58-1.01.53-1.11-.05-.12-.07-.6-.07-1.44,0-.48.22-.72.2-1.18l-.33-3.23h.13l.08-4.32c0-.29-.25-.73-.2-.99l.12-.87c-.18-.24-.58-.44-1.2-.62-.62-.17-1.12-.26-1.5-.26-.45,0-.72.05-.83.17-.1.12-.38.03-.85-.24-.6-.34-.92-.75-.93-1.21v-.29Z"/>
      <path d="M121.67,103.2s.43.07,1.18.21,1.15.21,1.18.21c.78.36,1.17.94,1.17,1.74,0,.27-.08.56-.25.89-.15.31-.23.46-.25.48l.23,1.49c.02.17-.03.39-.18.67-.13.27-.2.51-.2.7v.21c0,.22.07.44.18.65.13.19.2.5.2.91v.99c0,.56-.18.79-.18,1.18,0,.97.48,1.5,1.46,1.59.98.08,1.73-.21,2.21-.85.35-.48,1.2-.89,1.75-1.45.45-.46.63-.82.57-1.08-.05-.27-.08-.77-.08-1.47,0-.29.02-.5.07-.62.05-.14.02-.36-.07-.65-.13-.29-.38-.67-.38-1.08,0-.29.22-.63.28-.99-.27-.39-.8-.63-1.6-.68-.78-.07-1.18-.43-1.18-1.08,0-1.15.55-1.78,1.67-1.9s2.15-.1,3.1.05c.48.09.85.24,1.13.44.23-.12.38-.29.45-.51.12-.26-.03-.53-.42-.79-.38-.27-.57-.67-.55-1.2.05-.56.25-.99.62-1.28.55-.34,1.15-.36,1.56-.31.48.05.92.29,1.32.68s.58.8.57,1.2c-.05.92-.17,1.57-.35,1.97-.18.38-.42.77-.7,1.16-.28.32-.62.6-1,.84-.28.17-.6.27-.98.31-.05.82-.08,1.74-.08,2.77l.02.58c0,.67.37,1.01.38,1.47v.21c0,.33-.03.55-.12.7-.07.14-.1.36-.1.67l.02,1.28c0,.34.32.89.47,1.08.22.29.4.39.58.31.18-.08.42-.12.67-.1.2.02.52.26.97.72.45.46.67.74.67.84,0,.32-.4.85-1.2,1.61-.78.73-1.31,1.11-1.56,1.11h-.08c-.28,0-.48-.07-.6-.22-.12-.14-.3-.26-.53-.34-.12-.05-.35-.1-.68-.17-.32-.09-.57-.14-.72-.17-.78-.15-1.2-.36-1.25-.62-.05-.27-.48-.41-1.3-.41-.32,0-.77.22-1.37.65-.58.43-1.22.65-1.88.65-1.26,0-2.01-.02-2.23-.05-.22-.05-.7-.36-1.48-.96-.92-.7-1.37-1.9-1.37-3.59v-.8c0-.43.3-1.03.32-1.18l-.17-1.67-.07-2.36c-.03-.73-.3-1.18-.8-1.33s-.75-.51-.75-1.11c0-1.44.58-2.15,1.73-2.15ZM125.97,99.36c-.37.02-.73-.17-1.02-.53-.23-.34-.37-.68-.37-1.06s.13-.77.4-1.11c.25-.34.47-.6.67-.75.15-.12.5-.29.88-.44.42-.21.83-.32,1.08-.32h.15c.47,0,.95-.02,1.33.19.28.15.6.34.9.55.18.17.33.41.4.48.1.1.17.29.3.6.03.1.1.26.2.46.12.26.18.5.2.7v.29c0,.36-.1.67-.3.91-.13.17-.22.29-.3.43-.23.36-.65.65-1.13.85-.08.05-.18.14-.2.22-.05.15.02-.03-.02.21-.13.68-.47,1.16-1.18,1.11-.77-.02-1.13-.22-1.13-1.01l-.07-.34c0-.41.08-.82.3-1.11.07-.1.13-.19.17-.29.05-.17.22-.36.33-.5.12-.14.3-.24.52-.27.08-.03.17-.1.27-.17l-.02.02c.05-.05.17-.21.25-.31.05-.09-.25-.31-.25-.36h-.07c-.25-.1-.13-.05-.3-.19-.12-.1-.2-.14-.27-.14-.02,0-.1.03-.15.12v-.02c-.03.05-.05.17-.07.36-.02.31-.05.56-.12.75-.1.21-.35.39-.68.53-.25.1-.52.15-.68.15h-.03Z"/>
      <path d="M143.91,104.01c1.33-.62,2.75-.92,4.25-.94h1.42c.42,0,1,.1,1.75.29.75.19,1.23.41,1.43.67.22.29.52.7.88,1.23s.55,1.01.55,1.44v1.55l-.22,1.67.02.21.23,1.95-.02.12v.97c0,.21.2.43.58.68h1.22c.87.6,1.05,1.54.55,2.85-.48,1.3-1.26,1.95-2.33,1.95h-.1c-.96,0-1.55-.15-1.73-.48-.18-.33-.38-.5-.58-.5h-.27c-.22,0-.5.12-.85.36-.33.22-.78.39-1.33.48-.33.07-.77.15-1.28.26-.52.12-.92.17-1.23.17-.12,0-.47-.05-1.05-.15s-.92-.17-1.03-.22c-.38-.12-.72-.19-.97-.22-.25-.03-.48-.21-.72-.53-.35-.48-.73-.91-1.12-1.28s-.58-.99-.58-1.86v-.21c0-.43.05-.96.13-1.59.1-.63.22-1.09.37-1.42.23-.53.57-.87,1.02-1.03.45-.15.68-.41.68-.77,0-.15-.27-.36-.82-.6-.55-.24-.82-.85-.82-1.86-.02-1.52.63-2.58,1.96-3.2ZM146.41,112.3c-.08-.14-.43-.09-1.07.14-.28.08-.57.24-.85.46-.28.22-.43.48-.43.8v.07c0,1.01.45,1.57,1.35,1.73.92.14,1.8.15,2.66.05.75-.09,1.52-.34,2.33-.77.82-.44,1.21-1.04,1.21-1.79v-.41c0-.97-.67-1.21-1.98-.75-1.32.46-2.08.68-2.33.68-.52,0-.82-.07-.9-.21ZM145.38,109.27h.78c.28,0,.7-.05,1.27-.15.57-.1,1.07-.15,1.51-.15.48,0,.97-.03,1.42-.1.45-.08.68-.38.68-.89,0-.6-.33-.89-.98-.89-.38,0-.67.09-.87.26-.18.17-.43.26-.75.26-.28,0-.5-.14-.67-.41l.08-.67c-.68-.15-1.22.17-1.63.97-.15.33-.38.65-.67.99s-.43.56-.47.68c.1.07.2.1.28.1Z"/>
      <path d="M10.67,157.3c.58-.15.88-.26.92-.27.15-.05.4-.19.75-.39s.58-.36.72-.46c.37-.31.75-.79,1.13-1.42.38-.65.77-.97,1.13-.97h.3c.45,0,.87.21,1.25.63.38.41.58.85.58,1.32v.12c0,.72-.32,1.37-.95,1.97-.63.58-1.15,1.04-1.53,1.38-1.1.97-2.55,1.45-4.33,1.45-.9,0-1.86-.21-2.91-.6-1.05-.39-1.78-.85-2.21-1.37-.28-.32-.42-.77-.73-1.03-.38-.27-.63-.63-.78-1.08-.15-.46-.35-.87-.58-1.23-.22-.36-.33-.85-.33-1.45,0-1.79.05-3.13.17-3.96.12-.84.63-1.81,1.57-2.91.65-.75,1.53-1.33,2.63-1.73.42-.15,1-.29,1.73-.43.75-.15,1.38-.22,1.93-.22h.2c.55,0,1.18.17,1.86.5.7.33,1.21.63,1.55.89.47.46.65.84,1.18,1.23.55.44.83,1.01.87,1.69,0,1.11-.28,1.81-.85,2.12-.57.29-1.37.44-2.41.44h-.2c-.75,0-1.23-.22-1.45-.65-.32-.55-.85-.89-.85-1.32,0-.21.03-.32.1-.38.07-.05.1-.15.1-.31,0-.26-.1-.39-.28-.39-.32,0-.5.08-.57.24-.07.15-.32.27-.77.36-.42.1-.63.24-.63.41s-.18.33-.53.48c-.65.27-.97.6-.98.99-.02.38-.13.92-.35,1.64-.38,1.21-.18,2.26.57,3.09.23.26.55.63.93,1.11.4.48.8.72,1.2.72.02,0,.3-.07.88-.22Z"/>
      <path d="M23.27,139.63c.88-.02,1.68-.03,2.4-.03.38,0,.95.21,1.68.63.73.43,1.1.8,1.1,1.13,0,.27-.13.58-.42.92-.27.33-.38.63-.35.92l.22,2.38c.28.26.52.58,1.05.58.15,0,.6-.17,1.31-.5.73-.32,1.42-.5,2.03-.5.5,0,.8-.02.92-.05.12-.05.4.05.87.29.52.27.95.32,1.42.67.37.29.68.72.93,1.28.27.56.45,1.09.57,1.61.08.39.08.7.03.89-.05.19-.02.5.12.94.05.21.15.5.3.85.15.36.22.62.22.77,0,.56-.03,1.25-.12,2.05-.07.8-.12,1.5-.13,2.1-.05.74.32,1.08,1.1,1.03.78-.05,1.17.27,1.18,1.01v.21c0,.62-.25,1.01-.75,1.2-.5.17-1.02.29-1.53.38-.35.07-.63.1-.85.12-.2,0-.45.05-.77.17-.65.24-1.18.36-1.56.36-.03,0-.33-.05-.88-.14-.55-.09-.88-.14-.98-.19-.27-.05-.47-.21-.6-.5-.12-.29-.22-.58-.28-.84-.23-.8-.02-1.25.65-1.35.68-.1,1.21-.29,1.61-.58l.02-2.85c-.05-.8.07-1.21.07-1.96,0-.41-.03-.72-.1-.94-.05-.22-.08-.53-.08-.92-.02-.36-.25-.82-.68-1.35-.42-.55-.75-.87-.97-.99-.68.34-1.4.82-2.01,1.08-.45.15-.77.34-.97.56-.2.21-.47.46-.8.75-.15.12-.35.44-.6.99-.25.53-.38.92-.38,1.14-.05.63.07.91-.08,1.47-.13.53-.2.96-.2,1.28,0,.29.17.68.52,1.2.35.5.63.75.85.75h.47c.32,0,.52-.02.63-.05.12-.05.32.02.58.17.4.22.6.5.6.85,0,.05-.12.33-.37.79-.23.46-.38.7-.43.75-.15.14-.45.17-.9.12-.43-.05-.8-.09-1.08-.09h-.07c-.37,0-.77.09-1.18.27-.42.19-.73.26-.93.21l-1.33-.22-.28.05c-.35,0-.6,0-.78.02-.18,0-.38-.15-.6-.48-.08-.1-.18-.31-.33-.63-.15-.32-.22-.58-.22-.77-.02-.43.18-.72.58-.85.4-.15.85-.22,1.33-.22.38-.27.55-.63.48-1.09l-.25-1.45.05-.39.22-2.26-.03-.5c0-1.04-.08-1.83-.1-2.85-.03-.43-.12-.82-.23-1.14-.12-.33-.18-.77-.18-1.32,0-.6.13-1.08.38-1.44.27-.36.4-.8.4-1.32,0-.63-.47-1.03-1.4-1.18-.93-.17-1.4-.72-1.4-1.64,0-.87.45-1.33,1.33-1.35Z"/>
      <path d="M57.62,157.08c-.62,1.09-1.08,1.76-1.42,1.98-.7.48-1.42.92-2.15,1.35-.73.41-1.67.62-2.8.62-.25,0-.75-.09-1.5-.27-.75-.17-1.23-.29-1.45-.38-.2-.07-.57-.33-1.08-.79-.52-.46-.85-.79-.96-.96-.57-.75-1.07-1.52-1.48-2.32-.42-.8-.62-1.86-.62-3.2,0-1.11.23-2.19.72-3.21.48-1.03.95-1.86,1.43-2.53.48-.67,1.28-1.18,2.36-1.54,1.08-.36,2.2-.5,3.33-.38,2.41.29,4.25,1.06,5.48,2.31.45.48.65.96.6,1.42-.03.46-.05,1.06-.05,1.76,0,.38.05.67.15.85.1.19.18.43.23.72.08.56.12,1.21.12,1.95,0,.63-.3,1.5-.92,2.61ZM47.99,153.32c0,.36-.08.65-.25.87-.15.22-.23.43-.23.6,0,.33.33.6,1.02.84.27.1.57.41.92.94.48.7,1.33,1.06,2.58,1.06.73,0,1.25-.07,1.56-.21s.58-.51.78-1.11c.08-.24.25-.74.5-1.47.27-.75.4-1.23.4-1.45v-.07c0-.08-.07-.32-.22-.72-.15-.41-.23-.8-.28-1.16-.02-.15-.13-.43-.33-.8-.2-.38-.33-.63-.42-.77-.65-.92-1.76-1.38-3.36-1.38l-.27.03c-.15,0-.48.15-.97.44-.48.29-.8.48-.98.58-.42.24-.6.56-.55.99.07.41.1.87.1,1.4v1.38ZM47.98,142.23l.73-.75c.28-.29.38-.43.63-.75.27-.22.55-.6.77-.82.12-.14.25-.26.38-.38.12-.07.17-.12.18-.15.42-.29.88-.43,1.4-.43h.23c.35,0,.62.08.77.26.05.09.12.15.2.21.1.05.18.12.25.21.02,0,.03,0,.03.02.07.08.13.15.18.19.02.02.05.03.1.07.05-.15.13-.32.28-.51.2-.27.35-.48.43-.63.22-.31.37-.5.45-.58.08-.09.28-.26.57-.51.25-.27.35-.31.55-.58.15-.17.25-.27.27-.29l.17-.17c.15-.12.32-.27.5-.46.18-.19.5-.29.95-.34h.13c.48-.07.97.05,1.42.36.45.29.68.74.68,1.32,0,.67-.22,1.14-.67,1.47-.33.26-.47.29-.65.43-.22.19-.35.14-.57.43-.28.12-.62.34-.97.63-.35.29-.6.5-.73.6-.1.1-.3.24-.58.43-.23.15-.43.24-.58.27.08.12.2.27.33.46.18.26.28.46.28.65v.17c0,.46-.4,1.01-.65,1.26-.08.08-.27.17-.53.24-.25.05-.45.08-.6.08h-.1c-.35,0-.82-.46-1.02-.65-.12-.1-.4-.48-.82-1.11-.18-.22-.32-.39-.42-.51l-.12.07c-.15.22-.52.65-1.13,1.28-.15.15-.32.34-.52.58-.2.24-.5.36-.9.36l-.37-.02c-.75.02-1.4-.58-1.4-1.38,0-.36.15-.68.43-.99Z"/>
      <path d="M63.87,146.79c0-.55.28-.94.83-1.2.57-.26,1.08-.38,1.55-.39h.58c.58,0,1.02.24,1.28.7.28.46.62.68,1,.67.23,0,.82-.26,1.76-.79.95-.53,1.86-.79,2.73-.79.48,0,1.03.08,1.65.27.62.17,1.08.36,1.4.55.22.15.53.51.92,1.04.4.53.63.92.72,1.2.32,1.15.22,2.34.22,3.5,0,.39-.02.7-.07.91s-.1.5-.15.85c-.12.62.15,1.09.15,1.79l-.12,1.55c.28.43.78.72,1.5.87.72.15,1.08.63,1.08,1.47,0,1.08-.45,1.62-1.35,1.64-.9.02-1.81.03-2.75.03-1.55.02-2.51-.02-2.86-.07-.35-.05-1.05-.36-2.13-.89-1.08.6-1.85.92-2.3.94-.45.02-1.43.03-2.96.03h-.07c-.77,0-1.43-.07-2-.22-.55-.15-.93-.55-1.13-1.16-.32-.87-.12-1.38.57-1.54.7-.15,1.23-.34,1.58-.6,0-.62.07-1.06.2-1.32.13-.27.2-.65.2-1.13s.07-.97.07-1.26c-.07-.39-.17-.74-.17-1.3,0-.33.23-.77.25-1.09.02-.33-.18-.74-.18-1.16,0-.5.02-.84.05-1.03.05-.19-.17-.43-.63-.72-.28-.15-.58-.27-.92-.36-.33-.08-.5-.36-.5-.84v-.19ZM72.71,157.82c.42-.43.87-.72,1.38-.85.45-.12.73-.44.85-.97.13-.55.2-1.09.2-1.66l-.08-3.54v-.19c0-.43-.1-.89-.32-1.35-.2-.48-.57-.72-1.12-.72h-.1c-.55,0-1.1.17-1.62.51s-.88.67-1.12.99c-.45.63-.78.97-1.02,1.06-.22.09-.43.63-.65,1.67-.03.15-.03.8.02,1.95.05,1.15.15,1.78.27,1.9.27.38.67.68,1.2.92.12.07.37.24.73.51.38.27.57.41.57.41.12,0,.38-.22.8-.65Z"/>
      <path d="M86.58,148.09c.55-.55,1-.99,1.35-1.35.98-1.04,2.26-1.57,3.85-1.57h.2c.52,0,1.28.34,2.2.39.38.02.67.19,1.2.05.4-.07.53-.26,1-.26h.18c.72,0,1.57.17,2.55.51.98.33,1.48.84,1.48,1.54v.09c0,.63-.18,1.2-.57,1.69-.38.48-.85.74-1.43.79-1.08.09-1.68.24-1.78.46-.08.21-.23.79-.45,1.74-.3,1.28-.9,2.19-1.81,2.68-.33.19-.88.39-1.65.63-.75.22-1.18.48-1.28.77h1.25c.42,0,.97.05,1.63.17.67.1,1.15.22,1.45.38.47.22.92.22,1.38.48.35.19.68.44,1.13.7.32.19.63.48.97.87.33.39.53.8.62,1.21.08.5.05,1.2.23,1.62.15.33.45.87.45,1.28,0,.5-.45.96-1.35,1.37-.9.41-1.55.73-1.95.96-.48.24-1.21.44-2.21.6-1,.17-1.83.26-2.51.26h-2.58c-.32,0-.96-.21-1.93-.6-.95-.39-1.58-.67-1.9-.79-.42-.17-.88-.58-1.38-1.25-.48-.67-.73-1.28-.73-1.88v-.48c0-.74.18-1.3.57-1.71s.58-.72.58-.92v-.09c0-.46-.38-.82-.38-1.49v-.1c0-1.33.27-2.19.8-2.56.53-.39.8-.74.8-1.06,0-.19-.1-.39-.28-.62-.18-.22-.28-.5-.3-.85-.05-.74-.17-1.18-.17-1.78-.02-.72.25-1.35.8-1.9ZM87.15,160.98c0,.19.1.43.3.72.2.29.37.5.48.62.3.26.53.39.7.39.18.02.45.02.8.02.12,0,.45.07.97.19.53.12.93.22,1.18.27.02,0,.35-.02,1.03-.05.68-.02,1.12-.03,1.32-.03.62,0,1.33-.5,2.01-.56.3-.05.65-.15,1.03-.33.38-.15.58-.39.58-.68v-.1c0-.43-.52-.82-.73-1.16-.2-.27-.33-.46-.42-.58-.07-.12-.3-.22-.68-.27-.65-.12-1.18-.22-1.58-.32-.45-.1-.8-.12-1.02-.07-.22.05-.45.07-.73.05l-1.35-.24s-.37.1-1.07.29c-.7.19-1.1.31-1.18.32-.32.15-.68.31-1.08.48-.4.17-.58.46-.57.85v.21ZM87.98,156.57c.5.12.95.14,1.33.05.4-.09.88-.21,1.45-.36-.22-.32-.67-.5-1.35-.5h-.1c-.18,0-.42.05-.72.17-.3.1-.5.19-.62.24v.39ZM89.38,152.59c.15.08.42.22.78.43.37.21.63.31.78.31h.08c.62,0,1.21-.21,1.8-.6.58-.41.88-.89.88-1.45v-.6c0-.29-.13-.43-.4-.43-.25,0-.48-.15-.67-.46v-.94c0-.36-.15-.53-.47-.53h-1.81c-.22,0-.57.36-1.03,1.09-.47.72-.7,1.28-.7,1.67,0,.72.25,1.21.75,1.5Z"/>
      <path d="M121.26,139.63c.88-.02,1.68-.03,2.4-.03.38,0,.95.21,1.68.63.73.43,1.1.8,1.1,1.13,0,.27-.13.58-.42.92-.27.33-.38.63-.35.92l.22,2.38c.28.26.52.58,1.05.58.15,0,.6-.17,1.31-.5.73-.32,1.42-.5,2.03-.5.5,0,.8-.02.92-.05.12-.05.4.05.87.29.52.27.95.32,1.42.67.37.29.68.72.93,1.28.27.56.45,1.09.57,1.61.08.39.08.7.03.89-.05.19-.02.5.12.94.05.21.15.5.3.85.15.36.22.62.22.77,0,.56-.03,1.25-.12,2.05-.07.8-.12,1.5-.13,2.1-.05.74.32,1.08,1.1,1.03.78-.05,1.17.27,1.18,1.01v.21c0,.62-.25,1.01-.75,1.2-.5.17-1.02.29-1.53.38-.35.07-.63.1-.85.12-.2,0-.45.05-.77.17-.65.24-1.18.36-1.56.36-.03,0-.33-.05-.88-.14-.55-.09-.88-.14-.98-.19-.27-.05-.47-.21-.6-.5-.12-.29-.22-.58-.28-.84-.23-.8-.02-1.25.65-1.35.68-.1,1.21-.29,1.61-.58l.02-2.85c-.05-.8.07-1.21.07-1.96,0-.41-.03-.72-.1-.94-.05-.22-.08-.53-.08-.92-.02-.36-.25-.82-.68-1.35-.42-.55-.75-.87-.97-.99-.68.34-1.4.82-2.01,1.08-.45.15-.77.34-.97.56-.2.21-.47.46-.8.75-.15.12-.35.44-.6.99-.25.53-.38.92-.38,1.14-.05.63.07.91-.08,1.47-.13.53-.2.96-.2,1.28,0,.29.17.68.52,1.2.35.5.63.75.85.75h.47c.32,0,.52-.02.63-.05.12-.05.32.02.58.17.4.22.6.5.6.85,0,.05-.12.33-.37.79-.23.46-.38.7-.43.75-.15.14-.45.17-.9.12-.43-.05-.8-.09-1.08-.09h-.07c-.37,0-.77.09-1.18.27-.42.19-.73.26-.93.21l-1.33-.22-.28.05c-.35,0-.6,0-.78.02-.18,0-.38-.15-.6-.48-.08-.1-.18-.31-.33-.63-.15-.32-.22-.58-.22-.77-.02-.43.18-.72.58-.85.4-.15.85-.22,1.33-.22.38-.27.55-.63.48-1.09l-.25-1.45.05-.39.22-2.26-.03-.5c0-1.04-.08-1.83-.1-2.85-.03-.43-.12-.82-.23-1.14-.12-.33-.18-.77-.18-1.32,0-.6.13-1.08.38-1.44.27-.36.4-.8.4-1.32,0-.63-.47-1.03-1.4-1.18-.93-.17-1.4-.72-1.4-1.64,0-.87.45-1.33,1.33-1.35Z"/>
      <path d="M143.91,146.01c1.33-.62,2.75-.92,4.25-.94h1.42c.42,0,1,.1,1.75.29.75.19,1.23.41,1.43.67.22.29.52.7.88,1.23.37.53.55,1.01.55,1.44v1.55l-.22,1.67.02.21.23,1.95-.02.12v.97c0,.21.2.43.58.68h1.22c.87.6,1.05,1.54.55,2.85-.48,1.3-1.26,1.95-2.33,1.95h-.1c-.96,0-1.55-.15-1.73-.48-.18-.33-.38-.5-.58-.5h-.27c-.22,0-.5.12-.85.36-.33.22-.78.39-1.33.48-.33.07-.77.15-1.28.26-.52.12-.92.17-1.23.17-.12,0-.47-.05-1.05-.15s-.92-.17-1.03-.22c-.38-.12-.72-.19-.97-.22-.25-.03-.48-.21-.72-.53-.35-.48-.73-.91-1.12-1.28s-.58-.99-.58-1.86v-.21c0-.43.05-.96.13-1.59.1-.63.22-1.09.37-1.42.23-.53.57-.87,1.02-1.03.45-.15.68-.41.68-.77,0-.15-.27-.36-.82-.6-.55-.24-.82-.85-.82-1.86-.02-1.52.63-2.58,1.96-3.2ZM146.41,154.3c-.08-.14-.43-.09-1.07.14-.28.08-.57.24-.85.46-.28.22-.43.48-.43.8v.07c0,1.01.45,1.57,1.35,1.73.92.14,1.8.15,2.66.05.75-.09,1.52-.34,2.33-.77.82-.44,1.21-1.04,1.21-1.79v-.41c0-.97-.67-1.21-1.98-.75-1.32.46-2.08.68-2.33.68-.52,0-.82-.07-.9-.21ZM145.38,151.27h.78c.28,0,.7-.05,1.27-.15.57-.1,1.07-.15,1.51-.15.48,0,.97-.03,1.42-.1.45-.08.68-.38.68-.89,0-.6-.33-.89-.98-.89-.38,0-.67.09-.87.26-.18.17-.43.26-.75.26-.28,0-.5-.14-.67-.41l.08-.67c-.68-.15-1.22.17-1.63.97-.15.33-.38.65-.67.99s-.43.56-.47.68c.1.07.2.1.28.1ZM146.28,162.69c.47-.51,1.03-.77,1.7-.77,1.58,0,2.33.58,2.61,1.81.08.91-.2,2-.93,2.41-.62.43-1.5.44-1.83.44l-.27-.05c-.53,0-1-.22-1.38-.68-.38-.44-.58-.91-.58-1.37,0-.68.23-1.28.68-1.79Z"/>
      <path d="M165.96,145.66c.38,0,.72-.1.97-.29.27-.21.52-.31.77-.31.2,0,.53.03,1,.08.47.05.78.1.96.15.28.08.53.21.72.38.2.17.48.26.87.26h.08c.22,0,.6-.12,1.17-.38.57-.26,1.1-.41,1.6-.43.48,0,1.05.19,1.7.56.65.36,1.08.72,1.33,1.06.47.67.7,1.21.72,1.66s-.02,1.16-.1,2.14h.1l-.28,2.44s.07.62.18,1.76c.13,1.15.22,1.74.23,1.83.2.63.53,1.08,1,1.35.47.27.7.58.7.94,0,.55-.25.97-.73,1.3-.48.32-.98.48-1.46.48h-.75c-.58,0-.8-.29-1.25-.29-.42,0-.75.09-1.03.24-.27.15-.8.15-1.6.02-.65-.12-1.17-.07-1.56.17s-.75.36-1.07.36c-.27,0-.48-.07-.65-.22-.17-.15-.45-.24-.87-.27-.43-.02-.75-.02-.95,0-.2.02-.5.02-.88.02-.73,0-1.36.09-1.83,0-.18-.02-.53-.05-1.05-.1-.5-.05-.78-.08-.85-.08-.52,0-1-.02-1.45-.05-.45-.05-.82-.26-1.12-.65-.3-.36-.38-.79-.23-1.28.15-.5.42-.84.83-.99.82-.31,1.15-.58,1-.84-.13-.26-.12-.8.03-1.64.02-.17.08-.73.18-1.69.12-.96.17-1.45.18-1.5l-.22-1.37c-.05-.26-.03-.48.05-.65.08-.19.08-.44,0-.77-.15-.43-.58-.46-.92-.73-.32-.22-.58-.5-.78-.82-.2-.33-.17-.72.08-1.18.57-1.08,1.25-1.45,2.06-1.13.82.33,1.68.48,2.63.48h.48ZM165.79,152.42c0,.41.13.67.42.79.28.1.43.34.45.7,0,.24-.07.41-.2.51-.12.09-.18.38-.18.85,0,.33-.3.75-.38.97l-.08.07.77.94.65-.41c.82,0,1.15-.34,1.03-1.03-.12-.7-.17-1.4-.17-2.12-.15-.26-.57-.51-.57-.79v-.08c0-.24.17-.43.52-.56s.53-.62.53-1.42c0-.26-.05-.5-.15-.7s-.15-.53-.15-.96c-.15-.07-.53-.39-.68-.39h-.18c-.22,0-.35.22-.42.68-.07.46-.15.8-.27,1.04-.2.36-.4.53-.62.5-.22-.05-.32.29-.32,1.01v.39ZM174.5,153.3c0-.41.13-.36.2-.77.05-.22-.03-.34-.03-.82,0-.63.33-.94.48-1.57-.38-.72-.93-1.08-1.63-1.08h-.1c-.23,0-.52.14-.85.39-.32.26-.48.46-.48.62,0,.33.1.58.28.77.2.19.3.48.3.87l.02.21s-.1.34-.3.99c-.18.63-.28,1.06-.28,1.26v.5c0,.56.3.91.3,1.38,0,.41-.03.74-.12.97-.07.24.07.48.4.7l1.81-1.01c.05-.7.27-.99.42-1.62.08-.36.03-.63-.15-.82-.18-.19-.27-.46-.27-.79v-.19Z"/>
    </g>
    <path class="cls-1" d="M65.45,68.65c-6.84.99-12.9,1.8-18.94,2.8-1.5.25-2.93,1.05-4.35,1.7-3.61,1.64-7.16,3.42-10.81,4.99-3.42,1.47-6.14-.41-8.7-2.25-1.31.58-2.5,1.11-4.18,1.86-.13-1.25-.53-2.26-.21-2.6,3.25-3.42,6.05-8.16,10.08-9.77,7.3-2.92,10.04-9.26,14.21-14.64.48-.62.82-1.35,1.32-1.96.23-.28.67-.39,1.02-.58.39.08.83.07,1.15.26,2.12,1.27,3.25,4.62,6.33,3.74,3.19-.91,6.85-1.77,9.16-3.89,4.68-4.3,10.74-5.54,15.96-8.54,1.02-.59,2.45-.66,3.23-1.44,5.89-5.88,13.67-8.16,20.99-11.37,1.01-.45,1.62-1.74,2.58-2.4,2.29-1.56,4.55-3.91,7.06-4.27,7.78-1.13,13.62-6.03,20.14-9.5,6.18-3.29,5.96-3.71,6.36-10.64,3.25-.91,4.04,2.78,6.34,3.45,2.26.66,4.62.99,6.31,1.33,1.81,3.86,3.35,7.15,5.03,10.72-2.43,2.15-5.36,1.06-7.59,0-3.97-1.88-6.76-.52-9.87,1.73-2,1.45-4.51,2.19-6.77,3.29-2.12,1.04-4.98,1.6-6.15,3.31-2.65,3.88-6.94,5.05-10.42,7.47-1.52,1.06-3.71,1.13-5.52,1.84-2.18.85-5.26,1.31-6.25,2.97-3.69,6.1-10.65,6.13-15.79,9.4-.97.62-2.57.63-3.13,1.43-4.37,6.4-11.91,7.63-18.02,11.13-4.08,2.34-4.57,2.75-2.15,7.05.56,1,.99,2.07,1.61,3.38ZM19.12,77.21c.91-1.33,1.82-2.66,2.72-3.99M44.91,48.05c-.05.6-.1,1.19-.14,1.79"/>
  </g>
</svg>