<?xml version="1.0" encoding="UTF-8"?>
<svg id="Layer_2" data-name="Layer 2" xmlns="http://www.w3.org/2000/svg" viewBox="0 0 287.99 105.23">
  <defs>
    <style>
      .cls-1 {
        fill: #220d0d;
      }
    </style>
  </defs>
  <g id="Layer_1-2" data-name="Layer 1">
    <g>
      <path class="cls-1" d="M121.57,3.23c.66-.52,2.11-1.41,1.89.32-.18,1.45-2.66.8-.32,2.82,1.33-2.01,1.83-.2,3.18-.02,1.9.24,5.25-.6,5.35,1.92l2.23-1.87.93.81.61-1.46c1.27.25,3.58,0,5.05,0-.27,2.22.74.84,1.77.81,1.24-.04,7.72-.1,8.36.07,1.5.41,1.6,2.01,2.28,2.25.79.28,3.12-1.17,4.27-1.27,8.35-.72,22.19-.53,30.63.02.66.04,2.23.73,3.15.63.04.08.64.12.62.31-.16,1.47-5.06.86-6.3.95-9.44-.7-20.49.06-29.99.62-1.79.11-.66,1.58-.92,2.53-2.8-.81-2.38,1.16-2.52,1.26-.67.49-14.09-.57-16.4-.63,2.62-.6,8.63-2.75,9.77,0,1.61-2.06,4.35-1.08,6.63-1.26v-3.16s-26.5,0-26.5,0v3.79c-.17-.02-.55-.04-.63,0v-3.79c-1.52.52-2.49.27-3.78-.63.06-.4-.06-.86,0-1.26.16-1.05.46-1.72.63-2.52.08-.36-.04-.85,0-1.26Z"/>
      <path class="cls-1" d="M190.95,10.17l.58.35.06,4.07h1.89s-.63-1.89-.63-1.89c.63-.04,1.26.03,1.89,0,3.6-.18,8.43-.5,11.99,0,.45.06,2.08,1.51,3.15,1.26-.12.12.08.91,0,1.26-4.92.16-11.19-.16-16.72-.05-4.3.08-9.04,1.31-13.56.69-.03.42.03.84,0,1.26-1.54.01-3.16-.64-3.78-.63-5.63.08-10.89.2-16.4.63-1.63.13-3.18.53-4.42.63-.53.04-1.31-.12-2.52,0,.19-1.23.16-2.06-1.25-1.9-.16-.55.56-.51.62-.62,1.23.42,1.06-.9,1.59-1.1.24-.09,4.74-.83,4.99-.8.92.11-.32,2.11.98,1.9-.06-1.94-.36-1.79,1.27-1.89-.35,1.9.97,1.22,2.18,1.26,3.58.12,7.2.04,10.79.04,1.94,0,2.59-1.43,3.12.61l2.21-1.91c3.38-.03,7.91.42,11.07.02.65-.08.69-.02.91-.65.2-.57-.14-1.8,0-2.52Z"/>
      <path class="cls-1" d="M69.21,7.02c.26-.07.6-1.16,1.01-1.27,2.09-.55,1.26.64,1.51,1.27.23.58.35.91,1.01,1.09,2.64.74,9.55-.74,12.23-1.73,7.7-.15,15.47.73,23.02.69,2.79-.01,6.76-1.41,9.49-1.39.92,0,1.37,2.26,3.45,1.33-.06.4.06.86,0,1.26s.06.86,0,1.26c-1.22-.48-2.91-1-4.2-1.03-11.11-.21-21.99.63-33.01,1.03-4.61.17-9.27-.12-13.88,0-.05-.35-.51-.85-.63-1.26-.1-.34.06-.86,0-1.26Z"/>
      <path class="cls-1" d="M224.39,6.39c1.35-.1,4.73-.69,5.32-.66.48.03-.07,2.35,2.41.63.39-.27.42-1.11.91-1.22,2.45-.53,6.46.27,9.25-.69,1.21.27.32,2.45.4,2.57-.81,1.82-3.4.96-5.34,1.3-.59.1-.91.58-.97.59l-3.4-.57-14.27,1.83v1.26c-1.02-.88-.81-1.93-2.74-1.87-.76.02-6.71.53-4.83,2.5h-.63c-.61-2-2.08-2.93,0-5.04-2.38.45-4.78,1.3-7.24,1.25-1.9-.04-.17-.9-.33-1.89.41-.05.85.03,1.26,0,6.93-.46,12.67.57,20.19,0Z"/>
      <path class="cls-1" d="M135.44,13.33c2.31.06,15.73,1.12,16.4.63l.61.31c-.23.3-.43.62-.61.95-.06.11-.78.07-.62.62,1.42-.16,1.45.68,1.25,1.9-.21.02-.42-.02-.63,0-3.5-2.08-10.04-1.43-14.22-1.26-1.21.05-2.53-.65-2.18,1.26-1.78-.11-3.89-.09-5.68,0,.38-1.82-1.05-1.32-2.23-1.28-2.92.1-2.04,1.04-2.5,1.19-.33.1-2.75-.72-3.47-.53-.52-.78-.57-1.62-.63-2.52-.03-.38-.05-.89,0-1.26,2.38,1.7,2.72,0,3.78-.63.08-.04.45-.02.63,0,3.67.47,6.32.52,10.09.63Z"/>
      <path class="cls-1" d="M135.44,34.14c.13,1.23-.08,2.55,0,3.79h-1.89s.31-2.52.31-2.52c-1.03,2.21-3.41,2.03-5.36,3.77-.62-.62-.57-.63-.67-1.51-.39-3.47-.14-9.36.03-13,.03-.7-.44-2.06.62-1.89.22,1.79-.84,4.73,1.26,5.67l-.56-5.61,5.32-.12c.98,1.95-.19,4.14-.09,5.94.09,1.81.87,4,1.02,5.47Z"/>
      <path class="cls-1" d="M67.32,15.85c.37.09.97,1.35,2.2,1.29.48-.02.26-1.25.32-1.29.83-.61,17.7,1.8,20.47,1.92,6.55.29,27.13-1.37,31.25-.03.13.04.61.69,1.23.97.57.25,1.67-.29,1.97-.07.73.55.4,1.92.59,2.25-.17-.04-.39-.99-1.13-1.22-6.61-2.01-22.5-.26-30.73-.67-17.22-.85-31.42-1.68-48.88-1.27-.05-.31-.34-.6-.63-.63-.22-2.24.53-.72,1.62-.68,4.28.15,19.54-1.12,21.72-.58Z"/>
      <path class="cls-1" d="M265.39,13.33c-.65.63-1.06,1.16-1.9,1.58l1.9.32c-10.24,2.13-15.5,4.68-26.8,3.77-7.74-.62-16.69-4.21-24.56-3.09-1.71.24-3.57,1.62-4.58,1.7-.87.07-2.5-1.06-4.27-1.16-8.52-.46-17.23.6-25.58.66.02-.42-.03-.84,0-1.26,4.52.62,9.26-.6,13.56-.69,5.52-.11,11.8.21,16.72.05,2.72-.09,6.16-.74,9.12-.66s7.51,1.66,10.02,1.71,1.74-1.79,3.57-1.68l-.63,1.88c1.69.61,1-1.13,1.67-1.27,1.34-.29,3.19.2,4.64.02l-1.89,1.88,5.04.63-.93-1.9c3.05,1.63,5.33,1.1,8.51,1.27,1.55.09,2.27-.59,2.84,1.26,1.33-2.83,3.15-2.47,6-3.15,2.42-.58,4.08-.23,6.31-2.52.43.17.96.11,1.26.63Z"/>
      <path class="cls-1" d="M252.14,3.23c.11.37.65.99.63,1.26,0,.12-.7.53-.53,1.39.24,1.25,1.63,2.59,1.17,4.28,1.61-.8,1.89-.18,1.89-1.89h4.41s-1.89-2.52-1.89-2.52c5.48.92,11.54,2.2,17.03,2.52,2.71.16,5.48-.09,8.2,0,.68.98.59,2.04.63,3.15.01.42,0,.84,0,1.26-.2.03-.42-.02-.63,0,.35-1.9-.97-1.22-2.18-1.26-3.05-.1-6.13,0-9.18,0l1.89-1.26c-5.86.33-12.2-.46-18.01,0-1.94.15-1.62-.31-1.55,1.89-.4-.06-.85.04-1.26,0-.15-1.2.11-2.56,0-3.78-1.92.47-6.62,1.18-8.19.63-.74-6.15.97-4.28,5.36-4.76.67-.07,1.29-.88,1.58-.92.21-.03.42.02.63,0Z"/>
      <path class="cls-1" d="M168.24,32.88c-1.08,2.68-.93,2.25-3.15.63.07,2.19.8,4.04.62,6.31-1.37-2.61-2.33-.77-3.79.32l3.79.94c-.21.47-2.69.92-2.52,3.15,1.71.54,3.6-1.57,4.42.64-.95.96-7.75.97-8.27.26-1.33-1.84,1.29-9.96,1.33-12.88,2.53-.14,5.21.51,7.56-.63.04.41-.03.84,0,1.26Z"/>
      <path class="cls-1" d="M142.38,1.34c.6,0,3.48-1.45,4.96-.54.82.51.57,4.17.72,4.32.25.25,5.37.04,6.65,1.87l33.09.03v.63c-8.44-.56-22.28-.74-30.63-.02-1.15.1-3.48,1.55-4.27,1.27-.68-.24-.78-1.84-2.28-2.25-.64-.17-7.12-.11-8.36-.07-1.03.03-2.03,1.41-1.77-.81.88,0,5.05.25,5.05-.32l-5.05-.95c1.36-.7,2.43-.96,2.44-2.78l-.55-.38Z"/>
      <path class="cls-1" d="M121.57,4.5c-.17.81-.47,1.48-.63,2.52-2.08.93-2.53-1.33-3.45-1.33-2.73-.02-6.7,1.37-9.49,1.39-7.55.04-15.33-.84-23.02-.69-1.26.02-2.53-.05-3.78,0,13.11-3.08,26.95-1.5,40.37-1.89Z"/>
      <path class="cls-1" d="M24.42,6.39c4.12-.04,13.1,2.25,16.02.57,1.08-.62,4.26-6.05,4.16.07l-.94.63c-.43.56-.17,1.4-.32,1.89-.06.2-.61.45-.63.63l-3.78-.64-.32,1.9c-.52-.6-1.08-1.12-1.91-1.25-2.93-.43-8.4-.52-11.66-.64.34-1.26,2.08-.89,1.89-1.89-1.89.61-4.27-.57-5.67-.64.53-1,2.14-.62,3.15-.63Z"/>
      <path class="cls-1" d="M45.24,7.02c.38,1.19.88.99,1.85.97,6.88-.18,13.38-.76,20.22.29v1.26c-7.65,1-16.34,1.08-23.97,0,.15-.49-.11-1.33.32-1.89l.94-.63c.21-.02.42.03.63,0Z"/>
      <path class="cls-1" d="M204.2,6.39c-.42.03-.85-.05-1.26,0s-1.16.54-1.89.63c-3.16-1.44-7.32-.26-10.72-.63-.25.92.35,1.26.63,1.89-.92.1-2.49-.59-3.15-.63v-.63c3.34.79,1.1-2.26,2.17-3.83.53-.78,11.26-.93,12.55-.49,1.27.43,1.69,2.41,1.68,3.68Z"/>
      <path class="cls-1" d="M128.5,19c.21.01.42,0,.63,0,.08,0,.7.62,1.52.66,2.18.09,5.79-.63,7.31.6-3.66,1.68-2.67,7.5-2.52,11.05.03.77-.48,2.35.62,2.2l-.03-9.21c-.2-.83.37-1.08.67-1.51-.13,3.47.17,6.98.02,10.45-.04.81-.64,1.42-.65,1.53l-.63-.63c-.15-1.47-.93-3.66-1.02-5.47-.09-1.8,1.08-3.99.09-5.94l-5.32.12.56,5.61c-2.1-.94-1.04-3.88-1.26-5.67-1.06-.17-.59,1.19-.62,1.89-.65-1.36-1.78-2.51-2.52-3.78.37.08,1.19-2,3.15-1.89Z"/>
      <path class="cls-1" d="M37.67,16.48c1.03.02,2.14-.1,3.15,0,.62.06,1.88.5,3.15.63.29.03.58.32.63.63-3.38.08-6.34-.78-9.81-.65-3.78.14-17.27,1.77-20.51,2.83-3.11,1.02-5.01,8.23-10.69,3.5.84-.65,1.67-.23,2.52,0,3.61.95.54-.15,1.66-.62.5-.21,1.32.01,1.87-.62.38-.44-.27-2.41.26-3.17,6.47.2,15.54-2.14,22.4-2.52,1.77-.1,3.59-.04,5.36,0Z"/>
      <path class="cls-1" d="M271.7,11.43c3.04,0,6.13-.1,9.18,0,1.21.04,2.53-.64,2.18,1.26-5.81.68-11.76,1.3-17.66,2.52l-1.9-.32c.84-.42,1.25-.95,1.9-1.58.37-.36,1.29-.51,1.26-1.25l-1.89-.64c2.3-.07,4.64,0,6.94,0Z"/>
      <path class="cls-1" d="M251.51,3.23c-.29.04-.9.85-1.58.92-4.39.47-6.1-1.4-5.36,4.76-.53-.18-.51-1.2-.87-1.65-.29-.38-.99-.2-1.02-.24-.08-.11.81-2.3-.4-2.57-2.79.96-6.8.15-9.25.69-.48.11-.51.95-.91,1.22-2.48,1.72-1.93-.6-2.41-.63-.6-.04-3.97.55-5.32.66,6.1-1.23,12.4-3.21,18.62-3.77,2.42-.22,6.27-.4,8.51.62Z"/>
      <path class="cls-1" d="M169.51,27.84c.17.56.55.99.63,1.26.06.19-.04.43,0,.63-1,1-1.76-.54-2.55-.36-1.53.35-1.75,2.22-2.24,2.25-.97.07-3.08-.93-4.67,0-.42-2.62-2.08-2.69-4.41-2.53v-.94c.15-.43.59-.29.63-.32.79,1.74,2.36-.37,3.15-.63,3.93-1.28,3.91.38,5.36.38.15,0,2.62-1.05,2.72-1.16.46-.57-.42-1.95.75-1.74-.45,1.4.35,2.21.64,3.15Z"/>
      <path class="cls-1" d="M151.84,17.74c-.08,0-.64.59-1.52.66-2.79.22-8.61-.65-10.71-.07-.61.17-.54,1.8-1.02,2.56-.23-.18-.41-.45-.63-.63-1.51-1.24-5.12-.51-7.31-.6-.83-.03-1.44-.65-1.52-.66,2.61-1.79,6,.27,8.83,0,.44-1.96-1.33-1.19-2.52-1.26-.35-1.91.96-1.21,2.18-1.26,4.18-.17,10.72-.81,14.22,1.26Z"/>
      <path class="cls-1" d="M168.24,36.67c.03,2.02.49,7.07-.63,8.2-.81-2.2-2.71-.1-4.42-.64-.16-2.23,2.31-2.68,2.52-3.15.1-.22-.03-.87,0-1.26.18-2.27-.55-4.12-.62-6.31,2.21,1.62,2.07,2.05,3.15-.63.11,1.23-.02,2.54,0,3.78Z"/>
      <path class="cls-1" d="M9.91,1.34c-.87,3.2,1.85,3.5,4.42,3.78,3.15.35,7.24-.02,10.09,1.26-1.01,0-2.63-.37-3.15.63-.63-.03-1.27.04-1.89,0-2.59-1.2-6.12-.67-8.84-1.57-2.92-.97-4.27-3.98-7.56-4.11C5.23-.66,7.56-.22,9.91,1.34Z"/>
      <path class="cls-1" d="M19.38,7.02c-1.9-.11-5.28.47-7.86-.06-3.16-.65-6.54-5.17-8.54-1.2l-1.26-1.89c.49-1.22-.37-1.07,1.26-2.52,3.29.13,4.64,3.15,7.56,4.11,2.72.9,6.26.37,8.84,1.57Z"/>
      <path class="cls-1" d="M2.98,5.76c-.24.48-.57,1.93-.63,2.52-.22,1.98-.2,5.58,0,7.57l-1.26,2.52C-.46,12.8-.44,9.19,1.71,3.87l1.26,1.89Z"/>
      <path class="cls-1" d="M159.41,17.11c-.04,1.68.06,3.37,0,5.05-.06,1.68-.4,2.01-.63,3.15-.8-1.53-1.97-2.62-3.78-2.53,1.61-1.88,1.73-3.15,0-5.04,1.23-.1,2.79-.5,4.42-.63Z"/>
      <path class="cls-1" d="M2.34,15.85c.09.86.55,1.66.64,2.52l2.19-1.89c1.19,2.1,1.75,2.31,4.11,2.52-.75.39-1.3,1.5-1.89,1.89l-3.78-1.89-1.27,3.15c-.91-1.53-.85-2.29-1.26-3.78l1.26-2.52Z"/>
      <path class="cls-1" d="M274.85,8.28c-5.5-.33-11.55-1.6-17.03-2.52-1.91-.32-3.33-1.36-5.05-.63v-.63c.01-.27-.52-.89-.63-1.26l22.71,5.05Z"/>
      <path class="cls-1" d="M136.07,34.77c-.08,1.12,1.45,3.49-.63,4.74-1.1.66-5.99.63-6.94-.32,1.95-1.74,4.33-1.56,5.36-3.77l-.31,2.5h1.89c-.08-1.23.13-2.55,0-3.78l.63.63Z"/>
      <path class="cls-1" d="M135.44.71c.25.36.37.96.63,1.26-2.63.25-3.85,1.57-1.26,3.15.2.12.4.59.63.63l-.61,1.46-.93-.81-2.23,1.87c-.09-2.52-3.45-1.68-5.35-1.92-1.35-.17-1.85-1.98-3.18.02-2.34-2.02.13-1.38.32-2.82.22-1.73-1.23-.84-1.89-.32.02-.28-.09-1.19,0-1.26.1-.07,2.42-.08,2.5,0,.16.17-.14,1.4.05,2,.84,2.56,8.19,2.41,8.71.74.74-2.4-1.39-3.48,2.61-4.01Z"/>
      <path class="cls-1" d="M69.21,7.02c.06.4-.1.93,0,1.26-.61-.06-1.3.09-1.89,0-6.84-1.06-13.35-.47-20.22-.29-.97.03-1.48.22-1.85-.97,6.26-.76,18.96,1.38,23.97,0Z"/>
      <path class="cls-1" d="M170.14,29.73v.63c-2.54,2.52-.25,3.66-1.89,6.31-.02-1.24.11-2.56,0-3.78-.04-.42.03-.85,0-1.26-2.36,1.14-5.03.49-7.56.63,0-.2.03-.44,0-.63,1.59-.93,3.7.07,4.67,0,.49-.04.72-1.91,2.24-2.25.79-.18,1.55,1.36,2.55.36Z"/>
      <path class="cls-1" d="M81.19,6.39c1.26-.05,2.53.02,3.78,0-2.68.99-9.6,2.46-12.23,1.73-.67-.19-.79-.52-1.01-1.09,3.19.09,6.27-.51,9.46-.63Z"/>
      <path class="cls-1" d="M179.6,20.27c-.43,4.9.24,6.91-5.01,8.56-2.39.75-2.35-.55-4.45,1.54v-.63c-.04-.2.06-.44,0-.63-.02-.4.63-.59.63-.63,5.69.02,8.69-2.19,7.57-8.2.21.12.89-.08,1.26,0Z"/>
      <path class="cls-1" d="M136.7.71c1.09,2.41,4.6,4.12,5.05.63.21,0,.42,0,.63,0l.55.38c0,1.82-1.08,2.08-2.44,2.78-.94-.28-1.9.54-2.52.63-.22-1.73-1.03-2.14-1.89-3.15-.26-.3-.38-.9-.63-1.26.4-.05.85.02,1.26,0Z"/>
      <path class="cls-1" d="M283.05,8.28c1.21.04,3.05-.26,4.02-.03.78.19.27.97.4,1.29-.79,2.38-1.38,2.04-3.78,1.89-.04-1.12.05-2.17-.63-3.15Z"/>
      <path class="cls-1" d="M138.6,20.9c-.68,1.09-1.59,1.46-1.89,1.89s-.87.68-.67,1.51l.03,9.21c-1.1.15-.59-1.43-.62-2.2-.14-3.54-1.14-9.36,2.52-11.05.23.18.4.45.63.63Z"/>
      <path class="cls-1" d="M179.6,17.11c-.05,1.04.09,2.12,0,3.15-.37-.08-1.05.12-1.26,0-1.01-.59.18-1.59-2.52-.63v-3.15c.63,0,2.24.64,3.78.63Z"/>
      <path class="cls-1" d="M7.39,20.9c-1.15.75-1.08-.96-1.26,2.52-.86-.23-1.68-.65-2.52,0-.55-.46-.82-.52-1.26-1.26l1.27-3.15,3.78,1.89Z"/>
      <path class="cls-1" d="M141.75,1.34c-.45,3.49-3.96,1.78-5.05-.63,2.06-.08,3.8.61,5.05.63Z"/>
      <path class="cls-1" d="M283.68,12.7c0-.42.01-.84,0-1.26,2.4.14,3,.49,3.78-1.89,1.7,4.19-1.04,2.73-3.78,3.15Z"/>
      <path class="cls-1" d="M160.04,27.2c-.8.26-2.36,2.37-3.15.63.7-.61,1.83-.76,2.23-1.24.38-.46-.36-1.17-.34-1.28.23-1.14.57-1.47.63-3.15,1.26,1.09.43,3.47.63,5.05Z"/>
      <path class="cls-1" d="M14.33,5.13c-2.56-.28-5.29-.59-4.42-3.78,1.76,1.17,2.26,3.02,4.42,3.78Z"/>
      <path class="cls-1" d="M185.28,9.54c1.3.1,3.73,1.25,5.68.63-.14.72.2,1.96,0,2.52h-36.59c.27-.95-.86-2.42.92-2.53,9.5-.57,20.55-1.33,29.99-.62Z"/>
      <path class="cls-1" d="M125.35,12.7v-3.79s26.5,0,26.5,0v3.16c-2.28.17-5.03-.81-6.63,1.26-1.14-2.75-7.15-.6-9.77,0-3.78-.11-6.43-.16-10.09-.63Z"/>
      <path class="cls-1" d="M201.05,7.02c-1.19.15-2.56-.12-3.78,0l3.78,1.25c-.39-.05-8.5-.41-6.3,1.26h11.98c-4.08.81-8.01.72-12.29.63l.31,2.53c-.63.03-1.27-.03-1.89,0l.63,1.88h-1.89s-.06-4.06-.06-4.06l-.58-.35c-1.95.62-4.38-.53-5.68-.63,1.23-.09,6.13.51,6.3-.95.02-.19-.58-.22-.62-.31-.28-.63-.88-.97-.63-1.89,3.4.37,7.56-.81,10.72.63Z"/>
      <path class="cls-1" d="M190.95,12.7c-.22.63-.26.56-.91.65-3.16.41-7.69-.04-11.07-.02-6.02.05-12.28-.37-18.29,0-1.63.1-1.33-.06-1.27,1.89-1.31.21-.06-1.79-.98-1.9-.25-.03-4.75.71-4.99.8-.53.2-.36,1.51-1.59,1.1.19-.33.39-.65.61-.95l-.61-.31c.14-.1-.28-2.07,2.52-1.26h36.59Z"/>
      <path class="cls-1" d="M120.93,8.28c1.3.9,2.26,1.15,3.78.63v3.79c-1.07.62-1.4,2.33-3.78.63.4-2.68,2.38.19,1.89-3.16l-1.5.44-.39-.43c.04-.2-.03-.43,0-.63.06-.4-.06-.86,0-1.26Z"/>
      <path class="cls-1" d="M140.49,4.5l5.05.95c0,.56-4.18.31-5.05.32-1.47,0-3.78.25-5.05,0-.23-.04-.43-.51-.63-.63,1.02-.09,2.16.14,3.15,0,.62-.09,1.58-.91,2.52-.63Z"/>
      <path class="cls-1" d="M175.81,16.48v3.15c-1.59.56-1.19,1.02-1.73,1.25-.61.26-1.62-.14-2.06.01-.31.1-1.06.45-1.26.63-1.54,1.35-1.27,4.42-1.26,6.31-.29-.94-1.09-1.76-.64-3.15-1.18-.2-.29,1.17-.75,1.74-.09.12-2.57,1.16-2.72,1.16-1.44,0-1.42-1.66-5.36-.38-.2-1.58.63-3.96-.63-5.05.06-1.68-.04-3.37,0-5.05,5.51-.43,10.78-.55,16.4-.63Z"/>
      <path class="cls-1" d="M220.6,12.07c.21,0,.42,0,.63,0,3.3.03,4.34,1.53,8.2,1.26,1.93-.13,2.53-.09,4.42,0,4.83.23,9.7.91,14.51,1.26l.63,2.52c-3.18-.18-5.46.36-8.51-1.27l.93,1.9-5.04-.63,1.89-1.88c-1.44.18-3.3-.3-4.64-.02-.66.14.03,1.88-1.67,1.27l.63-1.88c-1.83-.11-1.15,1.73-3.57,1.68s-7.07-1.63-10.02-1.71-6.4.57-9.12.66c.08-.35-.12-1.14,0-1.26.55-.57,1.58,1.23.63-1.89h.63c2.39,1.44,7.2-.03,9.46,0Z"/>
      <path class="cls-1" d="M202.94,6.39c.16.99-1.57,1.84.33,1.89,2.46.05,4.85-.8,7.24-1.25-2.08,2.11-.61,3.04,0,5.04.95,3.12-.08,1.33-.63,1.89-1.08.25-2.7-1.2-3.15-1.26,2.08.46,1.09-1.66,1.26-3.15-.4.03-.89-.08-1.26,0h-11.98c-2.2-1.68,5.91-1.32,6.3-1.27l-3.78-1.25c1.22-.12,2.6.15,3.78,0,.74-.09,1.46-.58,1.89-.63Z"/>
      <path class="cls-1" d="M206.72,9.54c.37-.07.85.04,1.26,0-.17,1.5.82,3.61-1.26,3.15-3.55-.5-8.38-.18-11.99,0l-.31-2.53c4.28.09,8.21.19,12.29-.63Z"/>
      <path class="cls-1" d="M178.97,13.33l-2.21,1.91c-.53-2.04-1.18-.61-3.12-.61-3.58,0-7.21.08-10.79-.04-1.21-.04-2.53.64-2.18-1.26,6.01-.37,12.27.05,18.29,0Z"/>
      <path class="cls-1" d="M120.93,9.54c-.03.21.04.43,0,.63-.13.73-1.13,1.87-.63,3.15-.49.56-12.79-.34-14.84-.32-3.32.04-6.8.37-10.39.32.56-1.93-2.58-1.38-3.54-1.31-2.1.17-1.43,1.28-1.89,1.34s-7.93-1.76-5.93-3.82c11.02-.4,21.9-1.24,33.01-1.03,1.29.02,2.98.54,4.2,1.03Z"/>
      <path class="cls-1" d="M83.72,9.54c-2,2.06,5.47,3.88,5.93,3.82s-.21-1.17,1.89-1.34c.96-.08,4.09-.62,3.54,1.31-2.34-.03-4.75.63-6.57.58-3.73-.12-9.41-2.85-13.62-.58-1.54-.13-4.12-.6-5.05-.63-.1-1.02.14-2.17,0-3.15,4.61-.12,9.27.17,13.88,0Z"/>
      <path class="cls-1" d="M69.21,8.28c.12.41.58.91.63,1.26.14.98-.1,2.14,0,3.15-.21,0-.42,0-.63,0-.63-.02-1.26,0-1.89,0v-4.42c.59.09,1.28-.06,1.89,0Z"/>
      <path class="cls-1" d="M242.68,7.02s.73-.14,1.02.24c.35.46.33,1.47.87,1.65,1.58.55,6.27-.16,8.19-.63.12,1.23-.14,2.59,0,3.78.05.41-.07.88,0,1.26-.45-.65-10.12.07-11.7.02-2.27-.07-5.19-1.66-7.23-.02-1.89-.09-2.48-.13-4.42,0,.26-2.52-1.99.2-3.78-1.58-.77-.76-.74-1.18-.64-2.2h10.4c.65-.07.9-.63.95-.63.06,0,.39-.49.97-.59,1.93-.34,4.52.52,5.34-1.3Z"/>
      <path class="cls-1" d="M236.37,8.91c-.06,0-.31.56-.95.62h-10.4c-.1,1.04-.13,1.45.64,2.21,1.79,1.77,4.04-.94,3.78,1.58-3.86.27-4.9-1.23-8.2-1.26-.39-2.95,3.08,1.07,2.52-1.89h-5.04s14.27-1.83,14.27-1.83l3.4.57Z"/>
      <path class="cls-1" d="M218.71,11.43c.65.56.94.81,1.89.63-2.26-.03-7.07,1.44-9.46,0-1.88-1.97,4.07-2.48,4.83-2.5,1.93-.06,1.71.99,2.74,1.87Z"/>
      <path class="cls-1" d="M218.71,10.17h5.04c.56,2.97-2.91-1.06-2.52,1.89-.21,0-.42,0-.63,0-.96.18-1.24-.07-1.89-.63v-1.26Z"/>
      <path class="cls-1" d="M74.89,13.33c12.82,1.07,24.31,1.85,37.51,1.24,2.83-.13,5.71.14,8.54.03.06.9.11,1.74.63,2.52v.63c-4.12-1.35-24.7.31-31.25.03-2.77-.12-19.64-2.53-20.47-1.92l-.63-2.52v-.63c.21,0,.42,0,.63,0,.92.03,3.51.5,5.05.63Z"/>
      <path class="cls-1" d="M120.93,10.17l.39.43,1.5-.44c.5,3.34-1.49.48-1.89,3.16-.05.37-.03.88,0,1.26-2.83.12-5.71-.16-8.54-.03-13.2.61-24.69-.17-37.51-1.24,4.21-2.27,9.89.46,13.62.58,1.81.06,4.23-.61,6.57-.58,3.59.04,7.07-.29,10.39-.32,2.05-.02,14.35.88,14.84.32-.49-1.29.5-2.42.63-3.15Z"/>
      <path class="cls-1" d="M121.57,17.11c.72-.18,3.14.64,3.47.53.46-.14-.42-1.09,2.5-1.19,1.18-.04,2.6-.54,2.23,1.28-.63.03-1.27-.03-1.89,0l.63,1.26c-1.96-.11-2.79,1.98-3.15,1.89-.19-.33.14-1.7-.59-2.25-.29-.22-1.4.32-1.97.07-.62-.28-1.1-.93-1.23-.97v-.63Z"/>
      <path class="cls-1" d="M129.77,17.74c1.79-.09,3.89-.11,5.68,0,1.19.07,2.96-.7,2.52,1.26-2.83.28-6.22-1.79-8.83,0-.21,0-.42.01-.63,0l-.63-1.26c.63-.04,1.26.02,1.89,0Z"/>
      <path class="cls-1" d="M67.32,14.59v1.26c-2.18-.54-17.44.73-21.72.58-1.09-.04-1.84-1.56-1.62.68-1.27-.13-2.54-.57-3.15-.63h1.89s0-1.89,0-1.89c2.58,1.77,2.59-.65,2.88-.66,5.22-.21,10.93.05,16.39,0,1.6-.02,4.34.97,5.33.66Z"/>
      <path class="cls-1" d="M69.21,13.33l.63,2.52c-.05.04.17,1.27-.32,1.29-1.24.06-1.83-1.2-2.2-1.29v-1.26c.11-.03.84-1.58,1.89-1.26Z"/>
      <path class="cls-1" d="M252.77,13.33c.5,2.74,2.86,2.24,5.05,1.26v.63c-2.85.68-4.66.32-6,3.15-.57-1.85-1.29-1.17-2.84-1.26l-.63-2.52c1.45.11,2.96-.07,4.41,0-.05-.39.1-1.11,0-1.26Z"/>
      <path class="cls-1" d="M254.03,12.07c-.08-2.21-.39-1.74,1.55-1.89,5.81-.46,12.14.33,18.01,0l-1.89,1.26c-2.3,0-4.64-.07-6.94,0-3.27.09-7.96,1.05-10.72.63Z"/>
      <path class="cls-1" d="M257.82,5.76l1.89,2.52h-4.41c0-.1-.85-.1-.37-.63.53-.58,1.81-.28,1.63-1.25-.65.19-1.58-.76-1.82-.57-.29.23.39,1.45-.69,1.18l-1.27-1.89c1.71-.73,3.14.31,5.05.63Z"/>
      <path class="cls-1" d="M252.77,5.13l1.27,1.89c1.08.27.4-.95.69-1.18.24-.19,1.17.75,1.82.57.18.97-1.1.67-1.63,1.25-.48.53.37.53.37.63,0,1.71-.28,1.09-1.89,1.89.46-1.7-.93-3.04-1.17-4.28-.17-.87.53-1.27.53-1.39v.63Z"/>
      <path class="cls-1" d="M165.72,41.08l-3.79-.94c1.46-1.09,2.42-2.93,3.79-.32-.03.4.1,1.04,0,1.26Z"/>
      <path class="cls-1" d="M24.42,9.54c.21,0,.42,0,.63,0,3.25.13,8.72.22,11.66.64.83.12,1.39.64,1.91,1.25l.32-1.9,3.78.64c-.15,1.44-.16,3.04,1.58,3.16,6.77-.13,13.48-.05,20.24.02,1.19.01,2.41-.66,2.79-.65.63,0,1.26-.02,1.89,0v.63c-1.06-.32-1.78,1.23-1.89,1.26-1,.31-3.73-.68-5.33-.66-5.46.06-11.18-.21-16.39,0-.28.01-.29,2.43-2.88.66-.84-.62.91-1.03-.81-1.1-4.74-.2-8.49.23-13.07.47-6.22-1.83-12.61.43-18.92,0-1.16-.59-3.61-3.29-2.53-4.41.59-.61,14.83-.08,17.03,0Z"/>
      <path class="cls-1" d="M19.38,7.02c.63.04,1.26-.03,1.89,0,1.41.06,3.78,1.25,5.67.64.2,1-1.55.62-1.89,1.89-.21,0-.42,0-.63,0-3.2-1.71-8.33.12-11.57-.63-.49-.11-.42-1.23-.69-1.21-.86.05-5.69,1.5-5.95,2.25-1.26,3.72.79,3.82,3.7,4.02,6.31.43,12.71-1.83,18.92,0-1.37.07-2.65.58-4.07.66-4.82.26-10.57-.59-15.19-.07-1.37.15-1.06,1-1.55,1.94-.28-.48-.68-1.71-.76-1.76-1.01-.67-3.97.53-3.05-4.14.13-.65,1.9.03,1.29-1.66l-3.16-.63c.06-.59.39-2.05.63-2.52,2-3.97,5.37.55,8.54,1.2,2.58.53,5.97-.05,7.86.06Z"/>
      <path class="cls-1" d="M67.32,9.54v3.15c-.38,0-1.6.67-2.79.65-6.75-.07-13.47-.15-20.24-.02-1.74-.11-1.73-1.72-1.58-3.16.02-.18.57-.43.63-.63,7.63,1.08,16.32,1,23.97,0Z"/>
      <path class="cls-1" d="M28.84,13.96c4.58-.23,8.33-.66,13.07-.47,1.72.07-.03.48.81,1.1v1.9s-1.89,0-1.89,0c-1.01-.1-2.12.02-3.15,0-.11-1.73-.27-1.58-1.75-1.5-2.52.14-4.99,1.17-7.47,1.42-3.86.39-8.02.37-11.91.71-1.43.12-7.55,1.49-7.87,1.26-.08-.06-.32-1.33-.65-1.89.49-.94.18-1.79,1.55-1.94,4.62-.52,10.37.33,15.19.07,1.43-.08,2.71-.59,4.07-.66Z"/>
      <path class="cls-1" d="M2.34,8.28l3.16.63c.61,1.69-1.16,1.01-1.29,1.66-.91,4.67,2.05,3.48,3.05,4.14.08.05.48,1.28.76,1.76.33.56.57,1.83.65,1.89.32.24,6.44-1.13,7.87-1.26,3.89-.34,8.04-.31,11.91-.71,2.48-.25,4.95-1.28,7.47-1.42,1.49-.08,1.64-.23,1.75,1.5-1.77-.04-3.59-.09-5.36,0-6.86.38-15.92,2.72-22.4,2.52-.21,0-.42.02-.63,0-2.36-.21-2.92-.42-4.11-2.52l-2.19,1.89c-.09-.86-.55-1.66-.64-2.52-.2-1.99-.22-5.59,0-7.57Z"/>
      <path class="cls-1" d="M9.91,19c-.53.76.12,2.73-.26,3.17-.55.63-1.37.41-1.87.62-1.12.47,1.96,1.58-1.66.62.18-3.48.11-1.77,1.26-2.52.59-.39,1.14-1.5,1.89-1.89.21.02.42,0,.63,0Z"/>
      <path class="cls-1" d="M264.76,11.43l1.89.64c.03.75-.89.9-1.26,1.25-.3-.52-.83-.46-1.26-.63-1.34-.53-2.07-1.63-2.79.57l-6.04-.56c.37,1.41,3.1-.05,3.78,1.57l-1.26.31c-2.19.98-4.54,1.48-5.05-1.26-.07-.38.05-.86,0-1.26.41.04.86-.06,1.26,0,2.77.42,7.45-.54,10.72-.63Z"/>
      <path class="cls-1" d="M170.77,25.94c-.04.87.04,2.07,0,2.52,0,.04-.65.23-.63.63-.08-.27-.46-.7-.63-1.26,0-1.89-.28-4.96,1.26-6.31-.05,1.47.07,2.95,0,4.42Z"/>
      <path class="cls-1" d="M264.13,12.7c-2.22,2.29-3.88,1.94-6.31,2.52v-.63l1.26-.31c-.68-1.62-3.41-.17-3.78-1.57l6.04.56c.72-2.2,1.46-1.1,2.79-.57Z"/>
      <path class="cls-1" d="M136.07,1.97c.86,1.01,1.67,1.42,1.89,3.15-.99.14-2.13-.09-3.15,0-2.58-1.58-1.37-2.91,1.26-3.15Z"/>
      <path class="cls-1" d="M172.03,20.9c-.75,2.98,1.04,3.94,1.89,6.3l-3.15-1.26c.07-1.46-.05-2.95,0-4.42.2-.18.95-.53,1.26-.63Z"/>
      <path class="cls-1" d="M252.77,13.33c.1.14-.05.87,0,1.26-1.46-.07-2.96.11-4.41,0-4.81-.35-9.68-1.03-14.51-1.26,2.03-1.64,4.96-.05,7.23.02,1.58.05,11.25-.68,11.7-.02Z"/>
      <path class="cls-1" d="M9.91,13.96c-2.91-.2-4.96-.29-3.7-4.02.25-.75,5.09-2.19,5.95-2.25.27-.02.2,1.1.69,1.21,3.24.76,8.37-1.07,11.57.63-2.21-.08-16.44-.61-17.03,0-1.09,1.12,1.36,3.82,2.53,4.41Z"/>
    </g>
    <g>
      <path d="M123.08,76.78c0-.69.56-1.05,1.69-1.11,1.13-.07,2.04-.11,2.72-.11.5,0,.77.19,1.37.19.31,0,.53-.04.69-.09.15-.07.38-.11.7-.11l.19.07,2.36-.18c.56-.05,1.28.16,2.17.62.91.44,1.54.79,1.92,1.04.29.21.74.76,1.33,1.65.6.88.89,1.56.89,2.04v.39c0,1.02-.24,1.76-.7,2.23-.46.46-.79,1.09-.98,1.92.27.54.6.95.96,1.21.38.25.63.54.79.91.12.33.34.81.65,1.44.33.63.48,1.09.48,1.37v.11c0,.63-.27,1.48-.82,2.51-.53,1.04-.99,1.67-1.37,1.92-.75.51-1.47.88-2.16,1.12-.75.26-1.06.44-.94.51.14.07-.36.11-1.49.11l-.39.07-5.82-.05c-1.11,0-1.95.04-2.76-.3-.41-.16-.82-.25-1.23-.3s-.62-.46-.62-1.23c-.02-.74.58-1.09,1.8-1.07,1.22.02,1.83-.18,1.83-.54,0-.3-.05-.53-.17-.72s-.15-.4-.1-.65c.07-.49.33-.81.46-1.35.22-.98.07-2.18.14-3.22l-.05-3.45v-.39c0-.58.03-.95.08-1.11.07-.16.05-.54-.05-1.16-.07-.33-.12-.74-.14-1.23-.02-.51-.09-.84-.21-1.04-.39-.51-1.04-.74-1.92-.7s-1.32-.37-1.32-1.23v-.11ZM130.16,87.05l-.19-.07c-.5,0-.75.23-.77.67-.02.44-.02.81-.02,1.14,0,.65-.04,1.11-.1,1.37s-.03.76.09,1.48c.09.58.14,1.07.14,1.44s.36.56,1.06.56c.53,0,.94-.25,1.28-.25l1.87.23c.56.09,1.11-.04,1.66-.33.55-.32.84-.74.89-1.28.05-.49.14-.79.27-.88.14-.11.24-.32.33-.63.02-.05,0-.3-.05-.72s-.07-.76-.07-1c0-.3-.22-.56-.67-.81-.43-.26-.75-.46-.96-.62-.14-.09-.57-.18-1.28-.3-.7-.12-1.15-.18-1.3-.14l-2.17.14ZM136.12,80.76c-.15-.49-.43-.97-.84-1.42-.39-.47-.86-.72-1.39-.76-.8-.02-1.42.05-2.09-.07-.21-.02-.57-.09-1.08-.18s-.77-.14-.77-.14c-.26.02-.44.14-.56.39-.12.25-.22.46-.31.62.05.28.17.58.33.88.17.3.26.54.26.74v.83c0,.26-.07.47-.19.63-.12.16-.19.4-.19.77v.09c0,.44.6.84.87,1l1.08.12c.57.09,1.18.02,1.88-.18.7-.21,1.27-.37,1.71-.49l.77-.26c.15-.07.29-.32.41-.72.17-.81.21-1.42.1-1.85Z"/>
      <path d="M156.81,83.73l-.33,5.34v.21c0,.53.14.79.39.79h.21c.84,0,1.78-.26,2.38.07.7.42,1.06.97,1.08,1.63,0,.37-.21.62-.62.72-.41.11-.79.18-1.13.23-.5.09-.87.21-1.1.37-.22.16-.56.23-.99.23-.26.37-.36.93-.34,1.67.02.72.05,1.44.07,2.14,0,.9-.19,1.48-.56,1.74-.38.26-1.01.39-1.88.39-.39,0-.63-.21-.72-.62s-.14-.81-.12-1.2l.33-3.41v-.11c-.02-.83-.62-1.18-1.81-1.05s-2.07.18-2.62.18h-1.08c-.15.02-.48-.02-1.01-.09-.51-.09-.84-.14-.99-.19-.6-.09-.94-.51-1.03-1.25-.12-.67.02-1.28.39-1.83.38-.54.67-1.04.87-1.44.24-.47.48-1.02.7-1.65.22-.65.46-1.16.7-1.55.68-1.12.96-2.02,1.59-3.13.33-.58.58-1.05.8-1.39.22-.35.46-.9.74-1.63.29-.74.51-1.28.69-1.64.19-.37.48-.86.91-1.48.24-.32.7-.63,1.37-.95.67-.33,1.23-.26,1.68.18.7.79,1.46,1.76,1.46,3.23v.11c0,.63-.21.84-.19,1.32l.17,4.04ZM149.2,89.42c0,.6.46.9,1.39.9h.77c.46,0,.91-.04,1.33-.11.43-.07.65-.33.65-.81l-.09-.32.12-2.41.12-.02-.58-4.03c-.21.07-.58.54-1.13,1.41s-.87,1.41-.99,1.67c-.26.54-.17,1.25-.56,2-.15.3-.38.56-.63.83-.26.25-.39.51-.39.77v.11Z"/>
      <path d="M181.43,84.68c.22.58.34,1.21.36,1.86,0,.28-.1.83-.33,1.65-.21.83-.34,1.39-.43,1.72-.21.81-.41,1.34-.62,1.6-.19.25-.39.69-.58,1.3-.19.58-.38,1.05-.57,1.42-.15.32-.34.49-.53.54-.19.04-.39.18-.62.4-.21.23-.62.53-1.25.9s-1.11.56-1.46.56h-.6c-1.13,0-1.92-.05-2.35-.14-.43-.11-1.03-.33-1.8-.67-1.28-.54-1.9-1.3-2.64-2.44-.7-1.09-1.25-2.21-1.61-3.39-.12-.37-.27-1.09-.45-2.14-.15-1.07-.24-1.83-.24-2.3v-.81c0-.62.12-1.2.34-1.76.24-.56.45-1.18.6-1.83.17-.76.33-1.34.45-1.74.14-.4.44-.86.92-1.35.8-.81,1.63-1.48,2.48-2,.86-.54,2.07-.81,3.63-.83h.7c.99,0,1.88.3,2.69.9.24.19.58.46,1.03.79s.75.6.94.79c.33.37.46.77.43,1.21-.02.44.14.93.5,1.49.33.56.5,1.02.55,1.35s.09.83.09,1.51c0,.33.12.81.34,1.39ZM173.9,79.28c0,.19-.12.3-.38.3-.19,0-.34-.14-.5-.4l.12-.7h-.33c-.48,0-.96.21-1.42.65s-.75.84-.87,1.23c-.34,1.05-.92,1.93-1.34,2.78.09.49.39,1.02.31,1.44-.09.56-.51.9-.51,1.39v.09c0,.44.02.93.07,1.44.05.51.17.91.36,1.18.14.23.31.6.53,1.07s.38.74.46.83c.38.46.62.67.7.63s.26.32.51,1.04c.08.3.34.54.75.72.43.18.8.26,1.16.26h.87c1.73,0,2.55-.81,3.12-2.07.27-.62.34-1.21.68-1.93.26-.49.72-1.14.72-1.86,0-.35-.19-.76-.55-1.2s-.55-.9-.55-1.34.12-.76.34-.88c.24-.12.36-.37.36-.72v-.21c0-.33-.1-.76-.31-1.3s-.41-.88-.6-1.02c-.33.02-.34.11-.67.11-.45,0-.63-.23-.57-.67s-.1-.81-.5-1.07c-.09-.05-.43-.19-1.04-.42-.62-.25-.94-.37-.96-.37-.1,0-.24.11-.39.32.26.4.39.63.39.7Z"/>
    </g>
  </g>
</svg>