<?xml version="1.0" encoding="UTF-8"?>
<svg id="Layer_2" data-name="Layer 2" xmlns="http://www.w3.org/2000/svg" viewBox="0 0 326.87 144.31">
  <defs>
    <style>
      .cls-1 {
        fill: #220d0d;
      }

      .cls-2 {
        fill: #efe4d1;
      }
    </style>
  </defs>
  <g id="Layer_1-2" data-name="Layer 1">
    <g>
      <path class="cls-1" d="M283.09,24.06c-4.27,4.52-3.93,9.69-2.72,14.98,1.28,5.59-.15,8.06-5.8,7.11-8.6-1.44-16.44-.31-24.02,3.72-.36.19-.87.41-1.19.3-4.62-1.63-6.91,1.41-8.82,4.92-5.09-2.9-8.27-6.23-7.98-12.17.18-3.69-.5-7.43-1.64-11.32-.41,3.4-.09,7.12-1.41,10.1-1.45,3.27-4.43,5.87-7.08,9.17-.25,0-1.11.19-1.85-.03-6.12-1.87-12.16-4.03-18.34-5.67-5.48-1.45-6.66-2.53-7.38-8.33-.15-1.17-.86-2.27-1.65-4.22-2.6,3.27-1.96,6.06-2.05,8.63-.07,1.87-.3,3.53-2.55,3.52-2.4,0-3.13-1.57-3.06-3.83.24-7.36.57-14.72.47-22.08-.04-2.84-1.07-5.68-1.84-8.47-.14-.51-1.23-.76-2.66-1.58v35.72c-3.85.24-6.83.18-10.18-1.2-3.67-1.52-8.02-1.44-12.08-1.96-6.39-.83-7.97-2.36-9.29-8.52-.24-1.12-1.54-2.71-2.51-2.84-2.2-.29-2.67,1.47-2.45,3.39.16,1.43.27,2.86.4,4.23-4.78,1.42-5.48,1.15-6.02-2.29-.97-6.16-1.89-12.33-3.39-18.63-.59,4.04-1.19,8.08-1.85,12.55-6.58.33-13.24,3.26-17.48-5.46-2.74,5.19-6.54,4.52-10.57,3.52-9.99-2.49-20.13-3.38-30.43-3.94-6.44-.35-13.09-1.42-19.48-2.95-2.01-.48-3.52-3.02-5.62-4.95-2.87,4.27-7.27,3.14-11.58,2.98-5.79-.22-11.59-.05-17.72-.05-2.06-2.81,2.68-5.66.35-9.2-1.63-2.48-1.48-6.13-3.26-9.23-.61,4.57-1.22,9.13-1.83,13.69q-2.84-.13-3.41-4.24c-1.66,1.66-2.97,3.76-4.86,4.67-2.12,1.03-4.75.99-8.29,1.62,1.83,2.89,2.88,5.1,4.42,6.89,5.3,6.16,11.33,11.71,13.44,20.11.56,2.23,2.97,3.96,4.4,6.01,3.67,5.28,7.28,10.6,10.89,15.93.7,1.04,1.69,2.12,1.84,3.28,1.18,9.43,8.58,15.12,13.4,22.33,1.01,1.5,3.36,2.43,5.27,2.92,2.2.56,4.6.42,6.91.41,44.42-.22,88.85-.33,133.26-.78,11.12-.11,22.22-1.35,33.33-2.01,5.67-.33,11.35-.47,17.01-.79,16.78-.94,33.56-1.96,50.35-2.87,4.41-.24,8.85-.52,13.24-.23,4.82.32,9.22-.71,13.23-3.12,1.89-1.14,3.75-2.8,4.87-4.67,2.66-4.47-.7-8.36-1.8-12.47-1.2-4.49-4.05-6.62-9.44-6.83-.42-.02-1.01.25-1.23.06-5.52-4.93-14.99-3.36-18.69-11.42-.54-1.17-2.14-2.34-3.43-2.59-4.7-.91-5.09-4.2-5.28-8.03-.2-4.16-.78-8.3-1.31-12.44-.05-.43-.87-.76-1.6-1.36Z"/>
      <path class="cls-1" d="M9,12.54c3.05-4,1.2-6.98.76-9.9-1.48,2.86-2.36,5.75-.76,9.9Z"/>
      <path class="cls-1" d="M183.12,47.49c.21,1.26.42,2.53.63,3.79"/>
      <path class="cls-1" d="M137.64,23.49c-.63.21-1.82.44-1.81.63.09,2.95.34,5.9.55,8.85"/>
      <path class="cls-1" d="M19.5,8.96c-.21,2.11-.42,4.21-.63,6.32"/>
    </g>
    <g>
      <path class="cls-2" d="M74.18,119.14c.5.12,1.18.2,2.03.2.7,0,1.41.07,2.12.23.71.14,1.08.55,1.09,1.21,0,.36-.14.7-.4,1.03-.26.32-.5.55-.75.68-.19.09-.52.29-1.01.55-.49.27-.8.39-.96.39h-.1c-.37,0-.62-.07-.8-.2-.16-.14-.43-.21-.8-.21h-.49c-.76,0-1.13,1.03-1.09,3.08.04,2.05.1,3.46.23,4.19.12.84.42,1.23.89,1.14s.83-.5,1.06-1.19c.21-.68.35-1.23.42-1.68.07-.45.49-.78,1.25-1,.57-.14,1.13-.09,1.65.18.52.25.82.64.9,1.19.09.55.02,1.16-.17,1.8-.12.41-.17.73-.16.96.02.23,0,.54-.09.93-.1.55-.83,1.25-2.17,2.05-1.34.8-2.36,1.21-3.07,1.21-.33,0-.9-.21-1.7-.64-.8-.45-1.3-.75-1.51-.94-.47-.37-.8-.86-.97-1.44-.04-.07-.12-.41-.24-1.03-.12-.62-.17-.96-.17-1.02-.02-1.21.02-2.28.09-3.23.07-.94.1-1.98.1-3.1,0-.59.23-1.1-.19-1.48-.09-.05-.31-.14-.71-.23-.38-.09-.64-.14-.8-.14-.59,0-1.25-.04-2-.09-.75-.05-1.11-.45-1.11-1.14v-.29c0-1.16.75-1.73,2.22-1.71,1.48.02,2.33-.34,2.52-1.03.12-.41.16-.96.1-1.69s.02-1.32.19-1.8c.12-.37.43-.68.94-.94.52-.27,1.02-.41,1.51-.41.33,0,.73.2,1.2.59.47.37.71.69.71.94,0,.39-.09.8-.26,1.23-.17.41-.26.86-.26,1.3,0,.91.26,1.43.76,1.55Z"/>
      <path class="cls-2" d="M87.8,120.37c1.39-.64,2.87-.96,4.43-.98h1.48c.43,0,1.04.11,1.82.3.78.2,1.29.43,1.49.69.23.3.54.73.92,1.28.38.55.57,1.05.57,1.5v1.62l-.23,1.75.02.21.24,2.03-.02.12v1.02c0,.21.21.45.61.71h1.27c.9.62,1.09,1.6.57,2.98-.5,1.35-1.32,2.03-2.43,2.03h-.1c-1.01,0-1.62-.16-1.81-.5-.19-.34-.4-.52-.61-.52h-.28c-.23,0-.52.12-.89.37-.35.23-.82.41-1.39.5-.35.07-.8.16-1.34.27-.54.12-.96.18-1.28.18-.12,0-.49-.05-1.09-.16-.61-.11-.96-.18-1.08-.23-.4-.12-.75-.2-1.01-.23-.26-.04-.5-.21-.75-.55-.36-.5-.76-.94-1.16-1.34-.4-.39-.61-1.03-.61-1.94v-.21c0-.45.05-1,.14-1.66.1-.66.22-1.14.38-1.48.24-.55.59-.91,1.06-1.07.47-.16.71-.43.71-.8,0-.16-.28-.37-.85-.62-.57-.25-.85-.89-.85-1.94-.02-1.59.66-2.69,2.05-3.33ZM90.4,129.02c-.09-.14-.45-.09-1.11.14-.3.09-.59.25-.89.48-.29.23-.45.5-.45.84v.07c0,1.05.47,1.64,1.41,1.8.96.14,1.88.16,2.78.05.78-.09,1.58-.36,2.43-.8.85-.46,1.27-1.09,1.27-1.87v-.43c0-1.02-.69-1.27-2.07-.78-1.37.48-2.17.71-2.43.71-.54,0-.85-.07-.94-.21ZM89.4,112.37c.47-.32.97-.45,1.48-.37h.14c.47.05.8.16.99.36.19.2.36.36.52.48.09.09.14.14.16.18.04.02.14.12.29.3.21.29.31.32.57.61.29.27.49.45.57.53.09.09.26.29.49.61.09.16.24.37.45.66.21.27.31.52.31.71v.2c0,.52-.35.96-.61,1.25-.21.21-.59.3-.88.3h-.14c-.17,0-.42-.09-.71-.29s-.5-.34-.61-.45c-.14-.11-.4-.32-.76-.62-.37-.3-.71-.53-1.01-.66-.23-.3-.37-.25-.59-.45-.19-.14-.33-.18-.68-.45-.47-.34-.7-.84-.7-1.53,0-.61.24-1.07.71-1.37ZM89.33,125.86h.82c.29,0,.73-.05,1.32-.16.59-.11,1.11-.16,1.58-.16.5,0,1.01-.04,1.48-.11.47-.09.71-.39.71-.93,0-.62-.35-.93-1.02-.93-.4,0-.69.09-.9.27-.19.18-.45.27-.78.27-.29,0-.52-.14-.69-.43l.09-.7c-.71-.16-1.27.18-1.7,1.02-.16.34-.4.68-.7,1.03s-.45.59-.49.71c.1.07.21.11.29.11Z"/>
      <path class="cls-2" d="M107.45,119.53s.45.07,1.23.21c.78.14,1.2.21,1.23.21.82.37,1.22.98,1.22,1.82,0,.29-.09.59-.26.93-.16.32-.24.48-.26.5l.24,1.55c.02.18-.04.41-.19.69-.14.29-.21.53-.21.73v.21c0,.23.07.46.19.68.14.2.21.52.21.94v1.03c0,.59-.19.82-.19,1.23,0,1.02.5,1.57,1.53,1.66,1.03.09,1.81-.21,2.31-.89.36-.5,1.25-.93,1.82-1.51.47-.48.66-.86.59-1.12-.05-.29-.09-.8-.09-1.53,0-.3.02-.52.07-.64.05-.14.02-.37-.07-.68-.14-.3-.4-.7-.4-1.12,0-.3.23-.66.3-1.03-.28-.41-.83-.66-1.67-.71-.82-.07-1.23-.45-1.23-1.12,0-1.19.57-1.85,1.74-1.98,1.16-.12,2.24-.11,3.23.05,1.3.23,1.89.87,1.79,1.89s-.16,2.21-.16,3.62l.02.61c0,.69.38,1.05.4,1.53v.21c0,.34-.04.57-.12.73-.07.14-.1.37-.1.69l.02,1.34c0,.36.33.93.49,1.12.23.3.42.41.61.32.19-.09.43-.12.7-.11.21.02.54.27,1.01.75.47.48.69.77.69.87,0,.34-.42.89-1.25,1.68-.82.77-1.37,1.16-1.63,1.16h-.09c-.29,0-.5-.07-.62-.23-.12-.14-.31-.27-.56-.36-.12-.05-.36-.11-.71-.18-.33-.09-.59-.14-.75-.18-.82-.16-1.25-.37-1.3-.64-.05-.29-.5-.43-1.35-.43-.33,0-.8.23-1.42.68-.61.45-1.27.68-1.96.68-1.32,0-2.1-.02-2.33-.05-.23-.05-.73-.37-1.54-1-.96-.73-1.42-1.98-1.42-3.74v-.84c0-.45.31-1.07.33-1.23l-.17-1.75-.07-2.46c-.03-.77-.31-1.23-.83-1.39-.52-.16-.78-.53-.78-1.16,0-1.5.61-2.25,1.81-2.25Z"/>
      <path class="cls-2" d="M147.16,118.91c.26,0,.43.04.52.11.09.07.28.11.57.11h.29c.37,0,.68-.05.9-.16.24-.11.54-.16.9-.16.57,0,1.01.14,1.27.45.26.3.57.55.92.78.31-.21.62-.45.92-.68.3-.23.76-.36,1.37-.36h3.07c.89,0,1.72.07,2.52.2.8.12,1.2.64,1.2,1.55v.5c0,.52-.24.8-.73.86-.47.05-.9.14-1.29.27-.66.23-1.01.45-1.04.66-.04.2-.16.59-.35,1.18-.16.45-.33.59-.45,1.18-.12.55-.1.93-.26,1.37-.16.41-.37.68-.52,1.1-.16.41-.19.86-.33,1.28-.64,1.66-1.06,3.12-1.82,4.67-.23.46-.43.82-.61,1.05-.17.23-.5.45-.97.61-.96.37-1.63.11-2.01-.78-.19-.34-.24-.7-.4-1.12-.21-.41-.43-.64-.57-1.05-.17-.48-.29-.87-.38-1.21-.09-.34-.23-.73-.43-1.18-.42-.84-.73-1.32-1.02-2.26-.12-.37-.26-.78-.45-1.27-.19-.48-.31-.87-.38-1.18-.5-2.08-1.04-2.99-1.61-2.74s-1.11.09-1.6-.5c-.3-.34-.36-.73-.23-1.18.16-.45.31-.84.5-1.16.14-.23.45-.43.96-.62.5-.2.94-.3,1.34-.3h.21ZM151.77,123.71c0,.2-.05.34-.16.41-.1.05-.16.16-.16.32v.21c0,.07.09.25.24.54.17.29.29.57.36.87.05.27.09.57.1.93.03.36.19.53.49.52.17,0,.4-.21.66-.62.26-.41.43-.75.49-.98.16-.59.24-1.39.24-2.39,0-.37-.12-.61-.37-.71-.24-.12-.4-.29-.45-.48-.16-.37-.19-.62-.1-.78s-.07-.39-.47-.69c-.07.75-.3,1.25-.66,1.51s-.54.45-.54.55c0,.34.31.53.31.8Z"/>
      <path class="cls-2" d="M168.55,120.37c1.39-.64,2.87-.96,4.43-.98h1.48c.43,0,1.04.11,1.82.3.78.2,1.29.43,1.49.69.23.3.54.73.92,1.28.38.55.57,1.05.57,1.5v1.62l-.23,1.75.02.21.24,2.03-.02.12v1.02c0,.21.21.45.61.71h1.27c.9.62,1.09,1.6.57,2.98-.5,1.35-1.32,2.03-2.43,2.03h-.1c-1.01,0-1.62-.16-1.81-.5s-.4-.52-.61-.52h-.28c-.23,0-.52.12-.88.37-.35.23-.82.41-1.39.5-.35.07-.8.16-1.34.27-.54.12-.96.18-1.29.18-.12,0-.49-.05-1.09-.16s-.96-.18-1.08-.23c-.4-.12-.75-.2-1.01-.23-.26-.04-.5-.21-.75-.55-.37-.5-.76-.94-1.16-1.34s-.61-1.03-.61-1.94v-.21c0-.45.05-1,.14-1.66.1-.66.23-1.14.38-1.48.24-.55.59-.91,1.06-1.07.47-.16.71-.43.71-.8,0-.16-.28-.37-.85-.62-.57-.25-.85-.89-.85-1.94-.02-1.59.66-2.69,2.05-3.33ZM171.15,129.02c-.09-.14-.45-.09-1.11.14-.29.09-.59.25-.89.48-.29.23-.45.5-.45.84v.07c0,1.05.47,1.64,1.41,1.8.96.14,1.88.16,2.78.05.78-.09,1.58-.36,2.43-.8.85-.46,1.27-1.09,1.27-1.87v-.43c0-1.02-.69-1.27-2.07-.78s-2.17.71-2.43.71c-.54,0-.85-.07-.94-.21ZM169.3,115.9l.76-.78c.29-.3.4-.45.66-.78.28-.23.57-.62.8-.86.12-.14.26-.27.4-.39.12-.07.17-.12.19-.16.43-.3.92-.45,1.46-.45h.24c.37,0,.64.09.8.27.05.09.12.16.21.21.1.05.19.12.26.21.02,0,.04,0,.04.02.14.2.23.18.43.37.16.29.28.41.54.62.26.25.42.41.5.5s.24.27.47.57c.09.14.23.34.42.61s.29.48.29.68v.18c0,.48-.42,1.05-.68,1.32-.09.09-.28.18-.55.25-.26.05-.47.09-.62.09h-.1c-.36,0-.85-.48-1.06-.68-.12-.11-.42-.5-.85-1.16-.19-.23-.33-.41-.43-.53l-.12.07c-.16.23-.54.68-1.18,1.34-.16.16-.33.36-.54.61-.21.25-.52.37-.94.37l-.38-.02c-.78.02-1.46-.61-1.46-1.44,0-.37.16-.71.45-1.03ZM170.08,125.86h.82c.29,0,.73-.05,1.32-.16s1.11-.16,1.58-.16c.5,0,1.01-.04,1.48-.11.47-.09.71-.39.71-.93,0-.62-.35-.93-1.02-.93-.4,0-.7.09-.9.27-.19.18-.45.27-.78.27-.3,0-.52-.14-.69-.43l.09-.7c-.71-.16-1.27.18-1.7,1.02-.16.34-.4.68-.7,1.03-.29.36-.45.59-.49.71.1.07.21.11.29.11ZM171.02,137.77c.49-.53,1.08-.8,1.77-.8,1.65,0,2.43.61,2.73,1.89.09.94-.21,2.09-.97,2.51-.64.45-1.56.46-1.91.46l-.28-.05c-.55,0-1.04-.23-1.44-.71-.4-.46-.61-.94-.61-1.43,0-.71.24-1.34.71-1.87Z"/>
      <path class="cls-2" d="M187.26,121.19c0-.57.29-.98.87-1.25.59-.27,1.13-.39,1.61-.41h.61c.61,0,1.06.25,1.34.73.3.48.64.71,1.04.69.24,0,.85-.27,1.84-.82.99-.55,1.95-.82,2.85-.82.5,0,1.08.09,1.72.29.64.18,1.13.37,1.46.57.23.16.56.53.96,1.09.42.55.66.96.75,1.25.33,1.19.23,2.44.23,3.65,0,.41-.02.73-.07.94s-.1.52-.16.89c-.12.64.16,1.14.16,1.87l-.12,1.62c.3.45.82.75,1.56.91s1.13.66,1.13,1.53c0,1.12-.47,1.69-1.41,1.71s-1.89.04-2.87.04c-1.61.02-2.62-.02-2.99-.07s-1.09-.37-2.22-.93c-1.13.62-1.93.96-2.4.98-.47.02-1.49.04-3.09.04h-.07c-.8,0-1.49-.07-2.08-.23-.57-.16-.97-.57-1.18-1.21-.33-.91-.12-1.44.59-1.6.73-.16,1.29-.36,1.65-.62,0-.64.07-1.11.21-1.37.14-.29.21-.68.21-1.18s.07-1.02.07-1.32c-.07-.41-.17-.77-.17-1.35,0-.34.24-.8.26-1.14s-.19-.77-.19-1.21c0-.52.02-.87.05-1.07.05-.2-.17-.45-.66-.75-.29-.16-.61-.29-.96-.37-.35-.09-.52-.37-.52-.87v-.2ZM196.48,132.69c.43-.45.9-.75,1.44-.89.47-.12.76-.46.89-1.02.14-.57.21-1.14.21-1.73l-.09-3.69v-.2c0-.45-.1-.93-.33-1.41-.21-.5-.59-.75-1.16-.75h-.1c-.57,0-1.15.18-1.68.54s-.92.69-1.16,1.03c-.47.66-.82,1.02-1.06,1.11-.23.09-.45.66-.68,1.75-.04.16-.04.84.02,2.03.05,1.19.16,1.85.28,1.98.28.39.69.71,1.25.96.12.07.38.25.76.53.4.29.59.43.59.43.12,0,.4-.23.83-.68Z"/>
      <path class="cls-2" d="M235.68,119.14c.5.12,1.18.2,2.03.2.69,0,1.41.07,2.12.23.71.14,1.08.55,1.09,1.21,0,.36-.14.7-.4,1.03-.26.32-.5.55-.75.68-.19.09-.52.29-1.01.55-.49.27-.8.39-.96.39h-.1c-.36,0-.62-.07-.8-.2-.16-.14-.43-.21-.8-.21h-.49c-.76,0-1.13,1.03-1.09,3.08.03,2.05.1,3.46.23,4.19.12.84.42,1.23.89,1.14s.83-.5,1.06-1.19c.21-.68.35-1.23.42-1.68.07-.45.49-.78,1.25-1,.57-.14,1.13-.09,1.65.18.52.25.82.64.9,1.19.09.55.02,1.16-.17,1.8-.12.41-.17.73-.16.96.02.23,0,.54-.09.93-.1.55-.83,1.25-2.17,2.05s-2.36,1.21-3.07,1.21c-.33,0-.9-.21-1.7-.64-.8-.45-1.3-.75-1.51-.94-.47-.37-.8-.86-.97-1.44-.03-.07-.12-.41-.24-1.03-.12-.62-.17-.96-.17-1.02-.02-1.21.02-2.28.09-3.23.07-.94.11-1.98.11-3.1,0-.59.22-1.1-.19-1.48-.09-.05-.31-.14-.71-.23-.38-.09-.64-.14-.8-.14-.59,0-1.25-.04-2-.09-.75-.05-1.11-.45-1.11-1.14v-.29c0-1.16.75-1.73,2.22-1.71,1.48.02,2.33-.34,2.52-1.03.12-.41.16-.96.1-1.69s.02-1.32.19-1.8c.12-.37.43-.68.94-.94.52-.27,1.02-.41,1.51-.41.33,0,.73.2,1.2.59.47.37.71.69.71.94,0,.39-.09.8-.26,1.23-.17.41-.26.86-.26,1.3,0,.91.26,1.43.76,1.55Z"/>
      <path class="cls-2" d="M249.3,120.37c1.39-.64,2.86-.96,4.43-.98h1.48c.43,0,1.04.11,1.82.3.78.2,1.29.43,1.49.69.23.3.54.73.92,1.28s.57,1.05.57,1.5v1.62l-.23,1.75.02.21.24,2.03-.02.12v1.02c0,.21.21.45.61.71h1.27c.9.62,1.09,1.6.57,2.98-.5,1.35-1.32,2.03-2.43,2.03h-.11c-1.01,0-1.61-.16-1.8-.5-.19-.34-.4-.52-.61-.52h-.28c-.22,0-.52.12-.88.37-.35.23-.82.41-1.39.5-.35.07-.8.16-1.34.27-.54.12-.96.18-1.29.18-.12,0-.49-.05-1.09-.16s-.96-.18-1.08-.23c-.4-.12-.75-.2-1.01-.23-.26-.04-.5-.21-.75-.55-.37-.5-.76-.94-1.16-1.34-.4-.39-.61-1.03-.61-1.94v-.21c0-.45.05-1,.14-1.66.1-.66.23-1.14.38-1.48.24-.55.59-.91,1.06-1.07.47-.16.71-.43.71-.8,0-.16-.28-.37-.85-.62-.57-.25-.85-.89-.85-1.94-.02-1.59.66-2.69,2.05-3.33ZM251.9,129.02c-.09-.14-.45-.09-1.11.14-.29.09-.59.25-.89.48-.29.23-.45.5-.45.84v.07c0,1.05.47,1.64,1.41,1.8.96.14,1.88.16,2.78.05.78-.09,1.58-.36,2.43-.8.85-.46,1.27-1.09,1.27-1.87v-.43c0-1.02-.7-1.27-2.07-.78-1.37.48-2.17.71-2.43.71-.54,0-.85-.07-.94-.21ZM250.83,125.86h.82c.29,0,.73-.05,1.32-.16.59-.11,1.11-.16,1.58-.16.5,0,1.01-.04,1.48-.11.47-.09.71-.39.71-.93,0-.62-.35-.93-1.02-.93-.4,0-.69.09-.9.27-.19.18-.45.27-.78.27-.3,0-.52-.14-.7-.43l.09-.7c-.71-.16-1.27.18-1.7,1.02-.16.34-.4.68-.69,1.03-.29.36-.45.59-.49.71.1.07.21.11.29.11ZM252.55,115.47c-.38.02-.76-.18-1.06-.55-.24-.36-.38-.71-.38-1.11s.14-.8.42-1.16c.26-.36.49-.62.69-.78.16-.12.52-.3.92-.46.43-.21.87-.34,1.13-.34h.16c.49,0,.99-.02,1.39.2.29.16.62.36.94.57.19.18.35.43.42.5.1.11.17.3.31.62.04.11.1.27.21.48.12.27.19.52.21.73v.3c0,.37-.1.69-.31.94-.14.18-.22.3-.31.45-.24.37-.68.68-1.18.89-.09.05-.19.14-.21.23-.05.16.02-.04-.02.21-.14.71-.49,1.21-1.23,1.16-.8-.02-1.18-.23-1.18-1.05l-.07-.36c0-.43.09-.86.31-1.16.07-.11.14-.2.17-.3.05-.18.22-.37.35-.52s.31-.25.54-.29c.09-.04.17-.11.28-.18l-.02.02c.05-.05.17-.21.26-.32.05-.09-.26-.32-.26-.37h-.07c-.26-.11-.14-.05-.31-.2-.12-.11-.21-.14-.28-.14-.02,0-.1.04-.16.12v-.02c-.03.05-.05.18-.07.37-.02.32-.05.59-.12.78-.1.21-.37.41-.71.55-.26.11-.54.16-.71.16h-.04Z"/>
      <path class="cls-2" d="M274.11,124.38c.12-.8-.1-1.19-.68-1.16-.57.02-1.13.04-1.7.04-.76,0-1.23-.3-1.88-.46-.37-.09-.7-.18-.96-.27-.26-.09-.38-.37-.38-.82v-.41c0-.34.19-.64.57-.94.4-.3.76-.46,1.13-.46.85,0,1.53.18,2.34.02.61-.09,1.35-.11,2.22-.04.52.05,1.16.29,1.94.7.78.39,1.18.8,1.18,1.23v.52c0,.23-.07.45-.19.62-.12.18-.17.41-.17.71,0,.37.05,1.16.05,1.75,0,.66.1,1.23.29,1.71.21.48.31.93.31,1.34,0,.29-.03.48-.1.57-.07.09-.1.25-.1.46,0,.52.07.98.21,1.35.14.37.21.78.21,1.21.31.21.47.3.49.27.02-.05.19-.07.5-.07h2.6c.35,0,.83.23,1.46.71.62.46.94.77.94.93,0,.27-.19.53-.57.8-.38.27-.68.46-.89.57-.59.27-.9.43-.94.46-.02.04-.42.04-1.18-.02-.64-.04-1.09-.05-1.36-.05-.26.02-.64.05-1.16.14-.23.02-.64,0-1.25-.07-.59-.05-1.06-.09-1.42-.09h-.1c-.75,0-2.14.04-4.17.12-2.01.09-3.02-.32-3.02-1.23,0-1.34.54-2.03,1.6-2.05.49,0,1.04-.04,1.67-.09.64-.07,1.18-.14,1.62-.23.5-.07.75-.37.76-.91.02-.54.04-1.12.04-1.75,0-.69.09-1.19.02-1.67-.03-.16-.07-.46-.12-.91-.03-.45-.05-.75-.05-.91l.24-1.62ZM273.5,114.31c.5-.55,1.11-.84,1.82-.84,1.72,0,2.54.62,2.83,1.96.05.48-.02.98-.17,1.5s-.43.87-.83,1.1c-.33.23-.71.37-1.11.43-.4.04-.7.05-.87.05l-.3-.05c-.57,0-1.06-.25-1.49-.73-.42-.48-.62-.98-.62-1.5,0-.73.24-1.37.75-1.92Z"/>
    </g>
    <g>
      <path d="M73.99,119.37c.5.12,1.16.19,2,.19.68,0,1.39.07,2.09.23.7.14,1.06.54,1.08,1.2,0,.35-.14.69-.39,1.02-.26.32-.5.54-.74.67-.19.09-.51.28-.99.54s-.79.39-.94.39h-.1c-.36,0-.62-.07-.79-.19-.15-.14-.43-.21-.79-.21h-.48c-.75,0-1.11,1.02-1.08,3.04.03,2.02.1,3.41.22,4.13.12.83.41,1.21.87,1.12.46-.09.82-.49,1.04-1.18.21-.67.34-1.21.41-1.65s.48-.77,1.23-.98c.56-.14,1.11-.09,1.63.18.51.25.8.63.89,1.18s.02,1.14-.17,1.78c-.12.4-.17.72-.15.95s0,.53-.09.91c-.1.54-.82,1.23-2.14,2.02s-2.33,1.2-3.03,1.2c-.33,0-.89-.21-1.68-.63-.79-.44-1.28-.74-1.49-.93-.46-.37-.79-.84-.96-1.42-.03-.07-.12-.4-.24-1.02-.12-.62-.17-.95-.17-1-.02-1.2.02-2.25.09-3.18s.1-1.95.1-3.06c0-.58.22-1.09-.19-1.46-.09-.05-.31-.14-.7-.23-.38-.09-.63-.14-.79-.14-.58,0-1.23-.04-1.97-.09-.74-.05-1.1-.44-1.1-1.12v-.28c0-1.14.74-1.71,2.19-1.69,1.46.02,2.29-.33,2.48-1.02.12-.4.15-.95.1-1.67s.02-1.3.19-1.78c.12-.37.43-.67.92-.93.51-.26,1.01-.4,1.49-.4.33,0,.72.19,1.18.58.46.37.7.69.7.93,0,.39-.08.79-.26,1.21-.17.4-.26.84-.26,1.28,0,.9.26,1.41.75,1.53Z"/>
      <path d="M87.44,120.58c1.37-.63,2.82-.95,4.37-.97h1.46c.43,0,1.03.11,1.8.3s1.27.42,1.47.69c.22.3.53.72.91,1.27s.56,1.04.56,1.48v1.6l-.22,1.72.02.21.24,2-.02.12v1c0,.21.21.44.6.7h1.25c.89.62,1.08,1.58.56,2.94-.5,1.34-1.3,2-2.4,2h-.1c-.99,0-1.59-.16-1.78-.49s-.39-.51-.6-.51h-.27c-.22,0-.51.12-.87.37-.34.23-.8.4-1.37.49-.34.07-.79.16-1.32.26-.53.12-.94.18-1.27.18-.12,0-.48-.05-1.08-.16-.6-.11-.94-.18-1.06-.23-.39-.12-.74-.19-.99-.23s-.5-.21-.74-.54c-.36-.49-.75-.93-1.15-1.32-.39-.39-.6-1.02-.6-1.92v-.21c0-.44.05-.98.14-1.63.1-.65.22-1.12.38-1.46.24-.54.58-.9,1.04-1.05.46-.16.7-.42.7-.79,0-.16-.27-.37-.84-.62s-.84-.88-.84-1.92c-.02-1.56.65-2.65,2.02-3.29ZM90.01,129.11c-.09-.14-.45-.09-1.1.14-.29.09-.58.25-.87.47s-.44.49-.44.83v.07c0,1.04.46,1.62,1.39,1.78.94.14,1.85.16,2.74.05.77-.09,1.56-.35,2.4-.79.84-.46,1.25-1.07,1.25-1.85v-.42c0-1-.68-1.25-2.04-.77-1.35.47-2.14.7-2.4.7-.53,0-.84-.07-.92-.21ZM89.01,112.69c.46-.32.96-.44,1.46-.37h.14c.46.05.79.16.98.35.19.19.36.35.51.47.09.09.14.14.15.18.03.02.14.12.29.3.21.28.31.32.56.6.29.26.48.44.57.53s.26.28.48.6c.09.16.24.37.45.65.21.26.31.51.31.7v.19c0,.51-.34.95-.6,1.23-.21.21-.58.3-.87.3h-.14c-.17,0-.41-.09-.7-.28s-.5-.33-.6-.44c-.14-.11-.39-.32-.75-.62s-.7-.53-.99-.65c-.22-.3-.36-.25-.58-.44-.19-.14-.32-.18-.67-.44-.46-.33-.68-.83-.68-1.51,0-.6.24-1.05.7-1.35ZM88.94,126h.8c.29,0,.72-.05,1.3-.16s1.1-.16,1.56-.16c.5,0,.99-.04,1.46-.11.46-.09.7-.39.7-.91,0-.62-.34-.91-1.01-.91-.39,0-.68.09-.89.26-.19.18-.45.26-.77.26-.29,0-.51-.14-.68-.42l.08-.69c-.7-.16-1.25.18-1.68,1-.15.33-.39.67-.68,1.02s-.44.58-.48.7c.1.07.21.11.29.11Z"/>
      <path d="M106.82,119.76s.45.07,1.21.21c.77.14,1.18.21,1.22.21.8.37,1.2.97,1.2,1.79,0,.28-.08.58-.26.91-.15.32-.24.47-.26.49l.24,1.53c.02.18-.03.4-.19.69-.14.28-.21.53-.21.72v.21c0,.23.07.46.19.67.14.19.21.51.21.93v1.02c0,.58-.19.81-.19,1.21,0,1,.5,1.55,1.51,1.63s1.78-.21,2.28-.88c.36-.49,1.23-.91,1.8-1.49.46-.47.65-.84.58-1.11-.05-.28-.08-.79-.08-1.51,0-.3.02-.51.07-.63.05-.14.02-.37-.07-.67-.14-.3-.39-.69-.39-1.11,0-.3.22-.65.29-1.02-.27-.4-.82-.65-1.64-.7-.8-.07-1.21-.44-1.21-1.11,0-1.18.56-1.83,1.71-1.95s2.21-.11,3.18.05c1.28.23,1.87.86,1.76,1.86-.1,1-.15,2.18-.15,3.57l.02.6c0,.69.38,1.04.39,1.51v.21c0,.33-.03.56-.12.72-.07.14-.1.37-.1.69l.02,1.32c0,.35.33.91.48,1.11.22.3.41.4.6.32.19-.09.43-.12.69-.11.21.02.53.26.99.74.46.47.69.76.69.86,0,.33-.41.88-1.23,1.65-.8.76-1.35,1.14-1.61,1.14h-.09c-.29,0-.5-.07-.62-.23-.12-.14-.31-.26-.55-.35-.12-.05-.36-.11-.7-.18-.33-.09-.58-.14-.74-.18-.8-.16-1.23-.37-1.29-.63-.05-.28-.5-.42-1.33-.42-.33,0-.79.23-1.4.67-.6.44-1.25.67-1.94.67-1.3,0-2.07-.02-2.29-.05-.22-.05-.72-.37-1.52-.98-.94-.72-1.4-1.95-1.4-3.69v-.83c0-.44.31-1.05.32-1.21l-.17-1.72-.07-2.43c-.03-.76-.31-1.21-.82-1.37s-.77-.53-.77-1.14c0-1.48.6-2.21,1.78-2.21Z"/>
      <path d="M146,119.14c.26,0,.43.04.51.11.09.07.27.11.57.11h.29c.36,0,.67-.05.89-.16.24-.11.53-.16.89-.16.57,0,.99.14,1.25.44s.56.54.91.77c.31-.21.62-.44.91-.67s.75-.35,1.35-.35h3.03c.87,0,1.7.07,2.48.19.79.12,1.18.63,1.18,1.53v.49c0,.51-.24.79-.72.84-.46.05-.89.14-1.27.26-.65.23-.99.44-1.03.65-.03.19-.15.58-.34,1.16-.15.44-.33.58-.45,1.16-.12.54-.1.91-.26,1.35-.15.4-.36.67-.51,1.09-.15.4-.19.84-.33,1.27-.63,1.63-1.04,3.08-1.8,4.61-.22.46-.43.81-.6,1.04-.17.23-.5.44-.96.6-.94.37-1.61.11-1.99-.77-.19-.33-.24-.69-.39-1.11-.21-.4-.43-.63-.57-1.04-.17-.47-.29-.86-.38-1.2s-.22-.72-.43-1.16c-.41-.83-.72-1.3-1.01-2.23-.12-.37-.26-.77-.45-1.25-.19-.47-.31-.86-.38-1.16-.5-2.06-1.03-2.95-1.59-2.71-.56.25-1.1.09-1.57-.49-.29-.33-.36-.72-.22-1.16.15-.44.31-.83.5-1.14.14-.23.45-.42.94-.62.5-.19.92-.3,1.32-.3h.21ZM150.53,123.87c0,.19-.05.33-.15.4-.1.05-.15.16-.15.32v.21c0,.07.08.25.24.53.17.28.29.56.36.86.05.26.09.56.1.91.03.35.19.53.48.51.17,0,.39-.21.65-.62.26-.4.43-.74.48-.97.15-.58.24-1.37.24-2.36,0-.37-.12-.6-.36-.7-.24-.12-.39-.28-.45-.47-.15-.37-.19-.62-.1-.77s-.07-.39-.46-.69c-.07.74-.29,1.23-.65,1.49s-.53.44-.53.54c0,.33.31.53.31.79Z"/>
      <path d="M167.09,120.58c1.37-.63,2.82-.95,4.37-.97h1.46c.43,0,1.03.11,1.8.3.77.19,1.27.42,1.47.69.22.3.53.72.91,1.27s.57,1.04.57,1.48v1.6l-.22,1.72.02.21.24,2-.02.12v1c0,.21.21.44.6.7h1.25c.89.62,1.08,1.58.56,2.94-.5,1.34-1.3,2-2.4,2h-.1c-.99,0-1.59-.16-1.78-.49-.19-.33-.39-.51-.6-.51h-.27c-.22,0-.51.12-.87.37-.34.23-.8.4-1.37.49-.34.07-.79.16-1.32.26-.53.12-.94.18-1.27.18-.12,0-.48-.05-1.08-.16s-.94-.18-1.06-.23c-.39-.12-.74-.19-.99-.23-.26-.04-.5-.21-.74-.54-.36-.49-.75-.93-1.15-1.32s-.6-1.02-.6-1.92v-.21c0-.44.05-.98.14-1.63.1-.65.22-1.12.38-1.46.24-.54.58-.9,1.04-1.05.46-.16.7-.42.7-.79,0-.16-.27-.37-.84-.62-.56-.25-.84-.88-.84-1.92-.02-1.56.65-2.65,2.02-3.29ZM169.66,129.11c-.09-.14-.45-.09-1.1.14-.29.09-.58.25-.87.47s-.45.49-.45.83v.07c0,1.04.46,1.62,1.39,1.78.94.14,1.85.16,2.74.05.77-.09,1.56-.35,2.4-.79.84-.46,1.25-1.07,1.25-1.85v-.42c0-1-.68-1.25-2.04-.77s-2.14.7-2.4.7c-.53,0-.84-.07-.92-.21ZM167.83,116.17l.75-.77c.29-.3.39-.44.65-.77.27-.23.56-.62.79-.84.12-.14.26-.26.39-.39.12-.07.17-.12.19-.16.43-.3.91-.44,1.44-.44h.24c.36,0,.63.09.79.26.05.09.12.16.21.21.1.05.19.12.26.21.02,0,.03,0,.03.02.14.19.22.18.43.37.15.28.27.4.53.62.26.25.41.4.5.49s.24.26.46.56c.09.14.22.33.41.6s.29.47.29.67v.18c0,.47-.41,1.04-.67,1.3-.09.09-.27.18-.55.25-.26.05-.46.09-.62.09h-.1c-.36,0-.84-.47-1.04-.67-.12-.11-.41-.49-.84-1.14-.19-.23-.33-.4-.43-.53l-.12.07c-.15.23-.53.67-1.16,1.32-.15.16-.32.35-.53.6s-.51.37-.92.37l-.38-.02c-.77.02-1.44-.6-1.44-1.42,0-.37.15-.7.45-1.02ZM168.6,126h.8c.29,0,.72-.05,1.3-.16.58-.11,1.1-.16,1.56-.16.5,0,.99-.04,1.46-.11.46-.09.7-.39.7-.91,0-.62-.34-.91-1.01-.91-.39,0-.68.09-.89.26-.19.18-.45.26-.77.26-.29,0-.51-.14-.68-.42l.08-.69c-.7-.16-1.25.18-1.68,1-.15.33-.39.67-.68,1.02s-.45.58-.48.7c.1.07.21.11.29.11ZM169.52,137.74c.48-.53,1.06-.79,1.75-.79,1.63,0,2.4.6,2.69,1.86.09.93-.21,2.06-.96,2.48-.63.44-1.54.46-1.88.46l-.27-.05c-.55,0-1.03-.23-1.42-.7-.39-.46-.6-.93-.6-1.41,0-.7.24-1.32.7-1.85Z"/>
      <path d="M185.55,121.39c0-.56.29-.97.86-1.23.58-.26,1.11-.39,1.59-.4h.6c.6,0,1.04.25,1.32.72.29.47.63.7,1.03.69.24,0,.84-.26,1.81-.81.98-.54,1.92-.81,2.81-.81.5,0,1.06.09,1.69.28.63.18,1.11.37,1.44.56.22.16.55.53.94,1.07.41.54.65.95.74,1.23.33,1.18.22,2.41.22,3.6,0,.4-.02.72-.07.93-.05.21-.1.51-.15.88-.12.63.15,1.12.15,1.85l-.12,1.6c.29.44.8.74,1.54.9.74.16,1.11.65,1.11,1.51,0,1.11-.46,1.67-1.39,1.69-.92.02-1.87.04-2.82.04-1.59.02-2.59-.02-2.95-.07s-1.08-.37-2.19-.91c-1.11.62-1.9.95-2.36.97s-1.47.04-3.05.04h-.07c-.79,0-1.47-.07-2.05-.23-.56-.16-.96-.56-1.16-1.2-.33-.9-.12-1.42.58-1.58.72-.16,1.27-.35,1.63-.62,0-.63.07-1.09.21-1.35.14-.28.21-.67.21-1.16s.07-1,.07-1.3c-.07-.4-.17-.76-.17-1.34,0-.33.24-.79.26-1.12.02-.33-.19-.76-.19-1.2,0-.51.02-.86.05-1.05.05-.19-.17-.44-.65-.74-.29-.16-.6-.28-.94-.37-.34-.09-.51-.37-.51-.86v-.19ZM194.64,132.73c.43-.44.89-.74,1.42-.88.46-.12.75-.46.87-1,.14-.56.21-1.12.21-1.71l-.09-3.64v-.19c0-.44-.1-.91-.32-1.39-.21-.49-.58-.74-1.15-.74h-.1c-.56,0-1.13.18-1.66.53-.53.35-.91.69-1.15,1.02-.46.65-.8,1-1.04,1.09-.22.09-.45.65-.67,1.72-.04.16-.04.83.02,2s.15,1.83.27,1.95c.27.39.68.7,1.23.95.12.07.38.25.75.53.39.28.58.42.58.42.12,0,.39-.23.82-.67Z"/>
      <path d="M233.31,119.37c.5.12,1.16.19,2,.19.68,0,1.39.07,2.09.23.7.14,1.06.54,1.08,1.2,0,.35-.14.69-.39,1.02-.26.32-.5.54-.74.67-.19.09-.51.28-.99.54-.48.26-.79.39-.94.39h-.1c-.36,0-.62-.07-.79-.19-.15-.14-.43-.21-.79-.21h-.48c-.75,0-1.11,1.02-1.08,3.04.04,2.02.1,3.41.22,4.13.12.83.41,1.21.87,1.12.46-.09.82-.49,1.04-1.18.21-.67.34-1.21.41-1.65.07-.44.48-.77,1.23-.98.57-.14,1.11-.09,1.63.18.51.25.8.63.89,1.18s.02,1.14-.17,1.78c-.12.4-.17.72-.15.95s0,.53-.08.91c-.1.54-.82,1.23-2.14,2.02s-2.33,1.2-3.03,1.2c-.33,0-.89-.21-1.68-.63-.79-.44-1.28-.74-1.49-.93-.46-.37-.79-.84-.96-1.42-.03-.07-.12-.4-.24-1.02-.12-.62-.17-.95-.17-1-.02-1.2.02-2.25.08-3.18.07-.93.1-1.95.1-3.06,0-.58.22-1.09-.19-1.46-.08-.05-.31-.14-.7-.23-.38-.09-.63-.14-.79-.14-.58,0-1.23-.04-1.97-.09s-1.1-.44-1.1-1.12v-.28c0-1.14.74-1.71,2.19-1.69s2.29-.33,2.48-1.02c.12-.4.15-.95.1-1.67s.02-1.3.19-1.78c.12-.37.43-.67.92-.93.51-.26,1.01-.4,1.49-.4.33,0,.72.19,1.18.58.46.37.7.69.7.93,0,.39-.09.79-.26,1.21-.17.4-.26.84-.26,1.28,0,.9.26,1.41.75,1.53Z"/>
      <path d="M246.75,120.58c1.37-.63,2.83-.95,4.37-.97h1.46c.43,0,1.03.11,1.8.3s1.27.42,1.47.69c.22.3.53.72.91,1.27.38.54.57,1.04.57,1.48v1.6l-.22,1.72.02.21.24,2-.02.12v1c0,.21.21.44.6.7h1.25c.89.62,1.08,1.58.57,2.94-.5,1.34-1.3,2-2.4,2h-.1c-.99,0-1.59-.16-1.78-.49s-.39-.51-.6-.51h-.27c-.22,0-.51.12-.87.37-.34.23-.8.4-1.37.49-.34.07-.79.16-1.32.26-.53.12-.94.18-1.27.18-.12,0-.48-.05-1.08-.16-.6-.11-.94-.18-1.06-.23-.39-.12-.74-.19-.99-.23s-.5-.21-.74-.54c-.36-.49-.75-.93-1.15-1.32-.39-.39-.6-1.02-.6-1.92v-.21c0-.44.05-.98.14-1.63.1-.65.22-1.12.38-1.46.24-.54.58-.9,1.04-1.05s.7-.42.7-.79c0-.16-.27-.37-.84-.62s-.84-.88-.84-1.92c-.02-1.56.65-2.65,2.02-3.29ZM249.32,129.11c-.09-.14-.45-.09-1.1.14-.29.09-.58.25-.87.47s-.45.49-.45.83v.07c0,1.04.46,1.62,1.39,1.78.94.14,1.85.16,2.74.05.77-.09,1.56-.35,2.4-.79.84-.46,1.25-1.07,1.25-1.85v-.42c0-1-.69-1.25-2.04-.77-1.35.47-2.14.7-2.4.7-.53,0-.84-.07-.92-.21ZM248.25,126h.8c.29,0,.72-.05,1.3-.16s1.1-.16,1.56-.16c.5,0,.99-.04,1.46-.11.46-.09.7-.39.7-.91,0-.62-.34-.91-1.01-.91-.39,0-.69.09-.89.26-.19.18-.45.26-.77.26-.29,0-.51-.14-.68-.42l.09-.69c-.7-.16-1.25.18-1.68,1-.15.33-.39.67-.69,1.02s-.45.58-.48.7c.1.07.21.11.29.11ZM249.95,115.75c-.38.02-.75-.18-1.04-.54-.24-.35-.38-.7-.38-1.09s.14-.79.41-1.14c.26-.35.48-.62.69-.77.15-.12.51-.3.91-.46.43-.21.86-.33,1.11-.33h.15c.48,0,.98-.02,1.37.19.29.16.62.35.92.56.19.18.34.42.41.49.1.11.17.3.31.62.03.11.1.26.21.47.12.26.19.51.21.72v.3c0,.37-.1.69-.31.93-.14.18-.22.3-.31.44-.24.37-.67.67-1.16.88-.09.05-.19.14-.21.23-.05.16.02-.04-.02.21-.14.7-.48,1.2-1.22,1.14-.79-.02-1.16-.23-1.16-1.04l-.07-.35c0-.42.09-.84.31-1.14.07-.11.14-.19.17-.3.05-.18.22-.37.34-.51.12-.14.31-.25.53-.28.08-.04.17-.11.27-.18l-.02.02c.05-.05.17-.21.26-.32.05-.09-.26-.32-.26-.37h-.07c-.26-.11-.14-.05-.31-.19-.12-.11-.21-.14-.27-.14-.02,0-.1.04-.15.12v-.02c-.03.05-.05.18-.07.37-.02.32-.05.58-.12.77-.1.21-.36.4-.7.54-.26.11-.53.16-.7.16h-.03Z"/>
      <path d="M271.22,124.54c.12-.79-.1-1.18-.67-1.14-.56.02-1.11.04-1.68.04-.75,0-1.22-.3-1.85-.46-.36-.09-.68-.18-.94-.26-.26-.09-.38-.37-.38-.81v-.4c0-.33.19-.63.57-.93.39-.3.75-.46,1.11-.46.84,0,1.51.18,2.31.02.6-.09,1.33-.11,2.19-.04.51.05,1.15.28,1.92.69.77.39,1.16.79,1.16,1.21v.51c0,.23-.07.44-.19.62-.12.18-.17.4-.17.7,0,.37.05,1.14.05,1.72,0,.65.1,1.21.29,1.69.21.47.31.91.31,1.32,0,.28-.03.47-.1.56s-.1.25-.1.46c0,.51.07.97.21,1.34.14.37.21.77.21,1.2.31.21.46.3.48.26.02-.05.19-.07.5-.07h2.57c.34,0,.82.23,1.44.7.62.46.92.76.92.91,0,.26-.19.53-.57.79-.38.26-.67.46-.87.56-.58.26-.89.42-.92.46-.02.04-.41.04-1.16-.02-.63-.04-1.08-.05-1.33-.05-.26.02-.63.05-1.15.14-.22.02-.63,0-1.23-.07-.58-.05-1.04-.09-1.4-.09h-.1c-.74,0-2.11.04-4.11.12-1.99.09-2.98-.32-2.98-1.21,0-1.32.53-2,1.57-2.02.48,0,1.03-.04,1.64-.09.63-.07,1.17-.14,1.59-.23.5-.07.74-.37.75-.9s.03-1.11.03-1.72c0-.69.09-1.18.02-1.65-.04-.16-.07-.46-.12-.9-.03-.44-.05-.74-.05-.9l.24-1.6ZM270.62,114.6c.5-.54,1.1-.83,1.8-.83,1.69,0,2.5.62,2.79,1.93.05.47-.02.97-.17,1.48-.15.51-.43.86-.82,1.09-.33.23-.7.37-1.1.42-.39.04-.69.05-.86.05l-.29-.05c-.57,0-1.04-.25-1.47-.72-.41-.47-.62-.97-.62-1.48,0-.72.24-1.35.74-1.9Z"/>
    </g>
  </g>
</svg>