<?xml version="1.0" encoding="UTF-8"?>
<svg id="Layer_2" data-name="Layer 2" xmlns="http://www.w3.org/2000/svg" viewBox="0 0 206.02 144.07">
  <defs>
    <style>
      .cls-1 {
        fill: #220d0d;
      }
    </style>
  </defs>
  <g id="Layer_1-2" data-name="Layer 1">
    <g>
      <path d="M9.79,120.67c.53-.22,1.01-.34,1.43-.34l2.03-.02c.55,0,1.23.39,2.05,1.2.82.79,1.32,1.4,1.48,1.83.12.39.35,1.3.73,2.72.38,1.42.57,2.26.53,2.51-.28,2.07-.97,3.59-2.03,4.6-.4.39-.6.68-.58.89.02.19-.32.44-1.01.77-.48.22-.87.41-1.13.53-.25.12-.75.17-1.46.17h-.18c-.52,0-.98-.09-1.42-.24-.43-.15-.73-.24-.88-.24-.77,0-1.15.26-1.15.75v.41c0,.32.18.68.57,1.08.38.41.73.65,1.02.74.25.05.68.19,1.3.44.63.26.95.48.95.67,0,.29-.35.65-1.03,1.09s-1.27.67-1.73.68c-.25,0-.63-.02-1.15-.05-.52-.03-.8-.05-.85-.03-.15.02-.52.07-1.08.19-.55.12-.83.19-.83.19-.75,0-1.42-.19-2.01-.56-.58-.36-.55-.89.1-1.55.58-.62,1.12-.92,1.58-.91.47.02.7-.63.7-1.96-.02-.43.03-.82.12-1.16.08-.36.1-.74.03-1.13-.15-.75-.07-1.69-.07-2.51,0-.77-.1-1.52-.1-2.46,0-.8-.3-1.4-.3-2.36,0-.29.03-.51.1-.67.07-.15.1-.38.1-.7v-.68c0-.6-.25-.89-.75-.89-.5-.02-.9-.12-1.22-.34-.27-.17-.43-.53-.5-1.09-.05-.56.07-.96.38-1.16.22-.15.63-.26,1.25-.31.62-.07,1.1-.14,1.42-.21.38-.07.87,0,1.42.19.57.19.98.27,1.25.27.1,0,.42-.1.95-.33ZM8.27,129.64c.02.38,0,.7-.08.96-.08.26.12.48.6.65.47.21.68.39.67.55-.02.15.17.34.55.6.65,0,1.18.09,1.57.24.38.15.67.24.82.24.43,0,.87-.21,1.3-.6.43-.41.75-.79.93-1.15,0-.02.07-.58.22-1.73.15-1.15.23-1.74.23-1.83,0-.26-.08-.77-.25-1.52-.15-.77-.32-1.2-.47-1.3-.18-.14-.57-.39-1.13-.79-.55-.39-.9-.6-1.05-.62-.6-.02-1,.17-1.2.53-.18.36-.57.58-1.13.7-.52.1-.97.27-1.32.5-.35.22-.5.67-.45,1.32l.2,3.25Z"/>
      <path d="M23.27,114.74c.88-.02,1.68-.03,2.4-.03.38,0,.95.21,1.68.63.73.43,1.1.8,1.1,1.13,0,.27-.13.58-.42.92-.27.33-.38.63-.35.92l.22,2.38c.28.26.52.58,1.05.58.15,0,.6-.17,1.31-.5.73-.32,1.42-.5,2.03-.5.5,0,.8-.02.92-.05.12-.05.4.05.87.29.52.27.95.32,1.42.67.37.29.68.72.93,1.28.27.56.45,1.09.57,1.61.08.39.08.7.03.89-.05.19-.02.5.12.94.05.21.15.5.3.85.15.36.22.62.22.77,0,.56-.03,1.25-.12,2.05-.07.8-.12,1.5-.13,2.1-.05.74.32,1.08,1.1,1.03.78-.05,1.17.27,1.18,1.01v.21c0,.62-.25,1.01-.75,1.2-.5.17-1.02.29-1.53.38-.35.07-.63.1-.85.12-.2,0-.45.05-.77.17-.65.24-1.18.36-1.56.36-.03,0-.33-.05-.88-.14-.55-.09-.88-.14-.98-.19-.27-.05-.47-.21-.6-.5-.12-.29-.22-.58-.28-.84-.23-.8-.02-1.25.65-1.35.68-.1,1.21-.29,1.61-.58l.02-2.85c-.05-.8.07-1.21.07-1.96,0-.41-.03-.72-.1-.94-.05-.22-.08-.53-.08-.92-.02-.36-.25-.82-.68-1.35-.42-.55-.75-.87-.97-.99-.68.34-1.4.82-2.01,1.08-.45.15-.77.34-.97.56-.2.21-.47.46-.8.75-.15.12-.35.44-.6.99-.25.53-.38.92-.38,1.14-.05.63.07.91-.08,1.47-.13.53-.2.96-.2,1.28,0,.29.17.68.52,1.2.35.5.63.75.85.75h.47c.32,0,.52-.02.63-.05.12-.05.32.02.58.17.4.22.6.5.6.85,0,.05-.12.33-.37.79-.23.46-.38.7-.43.75-.15.14-.45.17-.9.12-.43-.05-.8-.09-1.08-.09h-.07c-.37,0-.77.09-1.18.27-.42.19-.73.26-.93.21l-1.33-.22-.28.05c-.35,0-.6,0-.78.02-.18,0-.38-.15-.6-.48-.08-.1-.18-.31-.33-.63-.15-.32-.22-.58-.22-.77-.02-.43.18-.72.58-.85.4-.15.85-.22,1.33-.22.38-.27.55-.63.48-1.09l-.25-1.45.05-.39.22-2.26-.03-.5c0-1.04-.08-1.83-.1-2.85-.03-.43-.12-.82-.23-1.14-.12-.33-.18-.77-.18-1.32,0-.6.13-1.08.38-1.44.27-.36.4-.8.4-1.32,0-.63-.47-1.03-1.4-1.18-.93-.17-1.4-.72-1.4-1.64,0-.87.45-1.33,1.33-1.35Z"/>
      <path d="M45.93,121.11c1.33-.62,2.75-.92,4.25-.94h1.42c.42,0,1,.1,1.75.29.75.19,1.23.41,1.43.67.22.29.52.7.88,1.23.37.53.55,1.01.55,1.44v1.55l-.22,1.67.02.21.23,1.95-.02.12v.97c0,.21.2.43.58.68h1.22c.87.6,1.05,1.54.55,2.85-.48,1.3-1.26,1.95-2.33,1.95h-.1c-.96,0-1.55-.15-1.73-.48-.18-.33-.38-.5-.58-.5h-.27c-.22,0-.5.12-.85.36-.33.22-.78.39-1.33.48-.33.07-.77.15-1.28.26-.52.12-.92.17-1.23.17-.12,0-.47-.05-1.05-.15s-.92-.17-1.03-.22c-.38-.12-.72-.19-.97-.22-.25-.03-.48-.21-.72-.53-.35-.48-.73-.91-1.12-1.28s-.58-.99-.58-1.86v-.21c0-.43.05-.96.13-1.59.1-.63.22-1.09.37-1.42.23-.53.57-.87,1.02-1.03.45-.15.68-.41.68-.77,0-.15-.27-.36-.82-.6-.55-.24-.82-.85-.82-1.86-.02-1.52.63-2.58,1.96-3.2ZM48.43,129.4c-.08-.14-.43-.09-1.07.14-.28.08-.57.24-.85.46-.28.22-.43.48-.43.8v.07c0,1.01.45,1.57,1.35,1.73.92.14,1.8.15,2.66.05.75-.09,1.52-.34,2.33-.77.82-.44,1.21-1.04,1.21-1.79v-.41c0-.97-.67-1.21-1.98-.75-1.32.46-2.08.68-2.33.68-.52,0-.82-.07-.9-.21ZM47.39,126.38h.78c.28,0,.7-.05,1.27-.15.57-.1,1.07-.15,1.51-.15.48,0,.97-.03,1.42-.1.45-.08.68-.38.68-.89,0-.6-.33-.89-.98-.89-.38,0-.67.09-.87.26-.18.17-.43.26-.75.26-.28,0-.5-.14-.67-.41l.08-.67c-.68-.15-1.22.17-1.63.97-.15.33-.38.65-.67.99s-.43.56-.47.68c.1.07.2.1.28.1ZM54.02,116.23c-.33.26-.47.29-.65.43-.22.19-.35.14-.57.43-.28.12-.62.34-.97.63-.35.29-.6.5-.73.6-.1.1-.3.24-.58.43-.28.19-.52.27-.68.27h-.13c-.28,0-.65-.09-.85-.29-.25-.27-.58-.7-.58-1.2v-.19c0-.19.1-.43.3-.68.2-.27.35-.48.43-.63.22-.31.37-.5.45-.58.08-.08.28-.26.57-.51.25-.27.35-.31.55-.58.15-.17.25-.27.27-.29l.17-.17c.15-.12.32-.27.5-.46.18-.19.5-.29.95-.34h.13c.48-.07.97.05,1.42.36.45.29.68.73.68,1.32,0,.67-.22,1.15-.67,1.47Z"/>
      <path d="M78.16,132.19c-.62,1.09-1.08,1.76-1.42,1.98-.7.48-1.42.92-2.15,1.35-.73.41-1.67.62-2.8.62-.25,0-.75-.09-1.5-.27-.75-.17-1.23-.29-1.45-.38-.2-.07-.57-.33-1.08-.79-.52-.46-.85-.79-.96-.96-.57-.75-1.07-1.52-1.48-2.32-.42-.8-.62-1.86-.62-3.2,0-1.11.23-2.19.72-3.21.48-1.03.95-1.86,1.43-2.53.48-.67,1.28-1.18,2.36-1.54,1.08-.36,2.2-.5,3.33-.38,2.41.29,4.25,1.06,5.48,2.31.45.48.65.96.6,1.42-.03.46-.05,1.06-.05,1.76,0,.38.05.67.15.85.1.19.18.43.23.72.08.56.12,1.21.12,1.95,0,.63-.3,1.5-.92,2.61ZM68.54,128.43c0,.36-.08.65-.25.87-.15.22-.23.43-.23.6,0,.33.33.6,1.02.84.27.1.57.41.92.94.48.7,1.33,1.06,2.58,1.06.73,0,1.25-.07,1.56-.21s.58-.51.78-1.11c.08-.24.25-.74.5-1.47.27-.75.4-1.23.4-1.45v-.07c0-.08-.07-.32-.22-.72-.15-.41-.23-.8-.28-1.16-.02-.15-.13-.43-.33-.8-.2-.38-.33-.63-.42-.77-.65-.92-1.76-1.38-3.36-1.38l-.27.03c-.15,0-.48.15-.97.44-.48.29-.8.48-.98.58-.42.24-.6.56-.55.99.07.41.1.87.1,1.4v1.38Z"/>
      <path d="M104.96,118.3c.92-.26,1.6-.6,2.05-.99.28-.24.48-.48.6-.72.12-.26.38-.55.8-.89.28-.22.55-.46.78-.72.25-.27.6-.41,1.08-.41h.1c.7,0,1.21.26,1.53.79.33.51.58,1.09.73,1.73.08.36.13,1.11.15,2.27.03,1.14.05,1.91.05,2.27l-.12,2.75c-.08,1.03-.12,2.2-.13,3.52,0,1.32.02,2.44.07,3.35.02.7.07,1.21.15,1.54.08.32.02.84-.17,1.55-.13.44-.28.91-.47,1.37-.18.46-.52.72-1.02.74-.58,0-1.07-.27-1.45-.8-.38-.55-.57-1.13-.57-1.73l.07-.58.08-5.71-.22-4.2v-1.18c0-.22-.05-.56-.17-1.04-.12-.5-.25-.74-.42-.74-.42,0-.88.17-1.4.51-.5.33-1.15.5-1.95.5h-.18c-.37,0-.68-.17-.95-.53-.27-.36-.4-.75-.4-1.14-.02-.74.43-1.25,1.35-1.5Z"/>
      <path d="M136.24,124.09c.22.56.33,1.18.35,1.81,0,.27-.1.8-.32,1.61-.2.8-.33,1.35-.42,1.67-.2.79-.4,1.3-.6,1.56-.18.24-.38.67-.57,1.26-.18.56-.37,1.03-.55,1.38-.15.31-.33.48-.52.53-.18.03-.38.17-.6.39-.2.22-.6.51-1.22.87-.62.36-1.08.55-1.42.55h-.58c-1.1,0-1.86-.05-2.28-.14-.42-.1-1-.33-1.75-.65-1.25-.53-1.85-1.26-2.56-2.38-.68-1.06-1.21-2.15-1.56-3.3-.12-.36-.27-1.06-.43-2.08-.15-1.04-.23-1.78-.23-2.24v-.79c0-.6.12-1.16.33-1.71.23-.55.43-1.14.58-1.78.17-.73.32-1.3.43-1.69.13-.39.43-.84.9-1.32.78-.79,1.58-1.44,2.41-1.95.83-.53,2.01-.79,3.53-.8h.68c.97,0,1.83.29,2.61.87.23.19.57.44,1,.77.43.32.73.58.92.77.32.36.45.75.42,1.18-.02.43.13.91.48,1.45.32.55.48.99.53,1.32.05.32.08.8.08,1.47,0,.32.12.79.33,1.35ZM128.92,118.84c0,.19-.12.29-.37.29-.18,0-.33-.14-.48-.39l.12-.68h-.32c-.47,0-.93.21-1.38.63-.45.43-.73.82-.85,1.2-.33,1.03-.9,1.88-1.3,2.7.08.48.38.99.3,1.4-.08.55-.5.87-.5,1.35v.08c0,.43.02.91.07,1.4.05.5.17.89.35,1.15.13.22.3.58.52,1.04.22.46.37.72.45.8.37.44.6.65.68.62.08-.03.25.31.5,1.01.08.29.33.53.73.7.42.17.78.26,1.13.26h.85c1.68,0,2.48-.79,3.03-2.02.27-.6.33-1.18.67-1.88.25-.48.7-1.11.7-1.81,0-.34-.18-.73-.53-1.16-.35-.43-.53-.87-.53-1.3s.12-.73.33-.85c.23-.12.35-.36.35-.7v-.21c0-.33-.1-.74-.3-1.26-.2-.53-.4-.85-.58-.99-.32.02-.33.1-.65.1-.43,0-.62-.22-.55-.65.07-.43-.1-.79-.48-1.04-.08-.05-.42-.19-1.02-.41-.6-.24-.92-.36-.93-.36-.1,0-.23.1-.38.31.25.39.38.62.38.68Z"/>
      <path d="M156.78,124.09c.22.56.33,1.18.35,1.81,0,.27-.1.8-.32,1.61-.2.8-.33,1.35-.42,1.67-.2.79-.4,1.3-.6,1.56-.18.24-.38.67-.57,1.26-.18.56-.37,1.03-.55,1.38-.15.31-.33.48-.52.53-.18.03-.38.17-.6.39-.2.22-.6.51-1.22.87-.62.36-1.08.55-1.42.55h-.58c-1.1,0-1.86-.05-2.28-.14-.42-.1-1-.33-1.75-.65-1.25-.53-1.85-1.26-2.56-2.38-.68-1.06-1.21-2.15-1.56-3.3-.12-.36-.27-1.06-.43-2.08-.15-1.04-.23-1.78-.23-2.24v-.79c0-.6.12-1.16.33-1.71.23-.55.43-1.14.58-1.78.17-.73.32-1.3.43-1.69.13-.39.43-.84.9-1.32.78-.79,1.58-1.44,2.41-1.95.83-.53,2.01-.79,3.53-.8h.68c.97,0,1.83.29,2.61.87.23.19.57.44,1,.77.43.32.73.58.92.77.32.36.45.75.42,1.18-.02.43.13.91.48,1.45.32.55.48.99.53,1.32.05.32.08.8.08,1.47,0,.32.12.79.33,1.35ZM149.46,118.84c0,.19-.12.29-.37.29-.18,0-.33-.14-.48-.39l.12-.68h-.32c-.47,0-.93.21-1.38.63-.45.43-.73.82-.85,1.2-.33,1.03-.9,1.88-1.3,2.7.08.48.38.99.3,1.4-.08.55-.5.87-.5,1.35v.08c0,.43.02.91.07,1.4.05.5.17.89.35,1.15.13.22.3.58.52,1.04.22.46.37.72.45.8.37.44.6.65.68.62.08-.03.25.31.5,1.01.08.29.33.53.73.7.42.17.78.26,1.13.26h.85c1.68,0,2.48-.79,3.03-2.02.27-.6.33-1.18.67-1.88.25-.48.7-1.11.7-1.81,0-.34-.18-.73-.53-1.16-.35-.43-.53-.87-.53-1.3s.12-.73.33-.85c.23-.12.35-.36.35-.7v-.21c0-.33-.1-.74-.3-1.26-.2-.53-.4-.85-.58-.99-.32.02-.33.1-.65.1-.43,0-.62-.22-.55-.65.07-.43-.1-.79-.48-1.04-.08-.05-.42-.19-1.02-.41-.6-.24-.92-.36-.93-.36-.1,0-.23.1-.38.31.25.39.38.62.38.68Z"/>
      <path d="M165.96,120.77c.38,0,.72-.1.97-.29.27-.21.52-.31.77-.31.2,0,.53.03,1,.08.47.05.78.1.96.15.28.08.53.21.72.38.2.17.48.26.87.26h.08c.22,0,.6-.12,1.17-.38.57-.26,1.1-.41,1.6-.43.48,0,1.05.19,1.7.56.65.36,1.08.72,1.33,1.06.47.67.7,1.21.72,1.66s-.02,1.16-.1,2.14h.1l-.28,2.44s.07.62.18,1.76c.13,1.15.22,1.74.23,1.83.2.63.53,1.08,1,1.35.47.27.7.58.7.94,0,.55-.25.97-.73,1.3-.48.32-.98.48-1.46.48h-.75c-.58,0-.8-.29-1.25-.29-.42,0-.75.09-1.03.24-.27.15-.8.15-1.6.02-.65-.12-1.17-.07-1.56.17s-.75.36-1.07.36c-.27,0-.48-.07-.65-.22-.17-.15-.45-.24-.87-.27-.43-.02-.75-.02-.95,0-.2.02-.5.02-.88.02-.73,0-1.36.09-1.83,0-.18-.02-.53-.05-1.05-.1-.5-.05-.78-.08-.85-.08-.52,0-1-.02-1.45-.05-.45-.05-.82-.26-1.12-.65-.3-.36-.38-.79-.23-1.28.15-.5.42-.84.83-.99.82-.31,1.15-.58,1-.84-.13-.26-.12-.8.03-1.64.02-.17.08-.73.18-1.69.12-.96.17-1.45.18-1.5l-.22-1.37c-.05-.26-.03-.48.05-.65.08-.19.08-.44,0-.77-.15-.43-.58-.46-.92-.73-.32-.22-.58-.5-.78-.82-.2-.33-.17-.72.08-1.18.57-1.08,1.25-1.45,2.06-1.13.82.33,1.68.48,2.63.48h.48ZM165.79,127.52c0,.41.13.67.42.79.28.1.43.34.45.7,0,.24-.07.41-.2.51-.12.09-.18.38-.18.85,0,.33-.3.75-.38.97l-.08.07.77.94.65-.41c.82,0,1.15-.34,1.03-1.03-.12-.7-.17-1.4-.17-2.12-.15-.26-.57-.51-.57-.79v-.08c0-.24.17-.43.52-.56s.53-.62.53-1.42c0-.26-.05-.5-.15-.7s-.15-.53-.15-.96c-.15-.07-.53-.39-.68-.39h-.18c-.22,0-.35.22-.42.68-.07.46-.15.8-.27,1.04-.2.36-.4.53-.62.5-.22-.05-.32.29-.32,1.01v.39ZM174.5,128.41c0-.41.13-.36.2-.77.05-.22-.03-.34-.03-.82,0-.63.33-.94.48-1.57-.38-.72-.93-1.08-1.63-1.08h-.1c-.23,0-.52.14-.85.39-.32.26-.48.46-.48.62,0,.33.1.58.28.77.2.19.3.48.3.87l.02.21s-.1.34-.3.99c-.18.63-.28,1.06-.28,1.26v.5c0,.56.3.91.3,1.38,0,.41-.03.74-.12.97-.07.24.07.48.4.7l1.81-1.01c.05-.7.27-.99.42-1.62.08-.36.03-.63-.15-.82-.18-.19-.27-.46-.27-.79v-.19Z"/>
      <path d="M186.5,120.77c.38,0,.72-.1.97-.29.27-.21.52-.31.77-.31.2,0,.53.03,1,.08.47.05.78.1.96.15.28.08.53.21.72.38.2.17.48.26.87.26h.08c.22,0,.6-.12,1.17-.38.57-.26,1.1-.41,1.6-.43.48,0,1.05.19,1.7.56.65.36,1.08.72,1.33,1.06.47.67.7,1.21.72,1.66s-.02,1.16-.1,2.14h.1l-.28,2.44s.07.62.18,1.76c.13,1.15.22,1.74.23,1.83.2.63.53,1.08,1,1.35.47.27.7.58.7.94,0,.55-.25.97-.73,1.3-.48.32-.98.48-1.46.48h-.75c-.58,0-.8-.29-1.25-.29-.42,0-.75.09-1.03.24-.27.15-.8.15-1.6.02-.65-.12-1.17-.07-1.56.17s-.75.36-1.07.36c-.27,0-.48-.07-.65-.22-.17-.15-.45-.24-.87-.27-.43-.02-.75-.02-.95,0-.2.02-.5.02-.88.02-.73,0-1.36.09-1.83,0-.18-.02-.53-.05-1.05-.1-.5-.05-.78-.08-.85-.08-.52,0-1-.02-1.45-.05-.45-.05-.82-.26-1.12-.65-.3-.36-.38-.79-.23-1.28.15-.5.42-.84.83-.99.82-.31,1.15-.58,1-.84-.13-.26-.12-.8.03-1.64.02-.17.08-.73.18-1.69.12-.96.17-1.45.18-1.5l-.22-1.37c-.05-.26-.03-.48.05-.65.08-.19.08-.44,0-.77-.15-.43-.58-.46-.92-.73-.32-.22-.58-.5-.78-.82-.2-.33-.17-.72.08-1.18.57-1.08,1.25-1.45,2.06-1.13.82.33,1.68.48,2.63.48h.48ZM186.33,127.52c0,.41.13.67.42.79.28.1.43.34.45.7,0,.24-.07.41-.2.51-.12.09-.18.38-.18.85,0,.33-.3.75-.38.97l-.08.07.77.94.65-.41c.82,0,1.15-.34,1.03-1.03-.12-.7-.17-1.4-.17-2.12-.15-.26-.57-.51-.57-.79v-.08c0-.24.17-.43.52-.56s.53-.62.53-1.42c0-.26-.05-.5-.15-.7s-.15-.53-.15-.96c-.15-.07-.53-.39-.68-.39h-.18c-.22,0-.35.22-.42.68-.07.46-.15.8-.27,1.04-.2.36-.4.53-.62.5-.22-.05-.32.29-.32,1.01v.39ZM195.04,128.41c0-.41.13-.36.2-.77.05-.22-.03-.34-.03-.82,0-.63.33-.94.48-1.57-.38-.72-.93-1.08-1.63-1.08h-.1c-.23,0-.52.14-.85.39-.32.26-.48.46-.48.62,0,.33.1.58.28.77.2.19.3.48.3.87l.02.21s-.1.34-.3.99c-.18.63-.28,1.06-.28,1.26v.5c0,.56.3.91.3,1.38,0,.41-.03.74-.12.97-.07.24.07.48.4.7l1.81-1.01c.05-.7.27-.99.42-1.62.08-.36.03-.63-.15-.82-.18-.19-.27-.46-.27-.79v-.19Z"/>
    </g>
    <path class="cls-1" d="M44.36,21.65c.36,6.18.53,13.39,1.36,20.51.25,2.16,2.34,4.12,3.95,6.77-.78,1.31-1.73,3.13-2.89,4.81-2.96,4.28-6.13,8.43-9.01,12.76-2.95,4.43-1.96,7.76,2.75,10.06.84.41,2.2.39,2.57,1.02,2.86,4.81,7.57,4.1,12.09,4.69,5.03.65,9.91,2.36,14.9,3.42,13.33,2.85,26.86,2.82,40.35,1.96,4.03-.26,7.89-2.54,11.92-3.56,3.65-.93,7.4-1.74,11.14-2,8.13-.56,13.57-5.06,17.8-11.45.64-.97.91-2.68.53-3.76-1.63-4.55-3.07-9.22-6.81-12.73-1.85-1.74-3.26-3.96-5.06-6.19,3.09-1.64,5.53-2.95,7.99-4.24,4.29-2.25,6.13-7.22,3.95-11.46-3.6-6.99-8.43-13.03-15.18-17.22-1.68-1.04-3.97-1.43-6-1.49-5.84-.16-10.56-2.66-15-6.17-1.21-.96-2.97-1.92-4.4-1.81-4.82.38-9.01-1.1-13.01-3.44-5.13-3.01-10.01-2.99-14.84.7-1.5,1.14-3.43,1.73-4.86,2.93-3.17,2.66-6.68,3.34-10.66,2.73-2.55-.39-4.7.46-6.87,2.02-5.03,3.62-10.33,6.89-16.74,11.1ZM64.34,61.84c4.27-2.05,8.5-2.02,12.76-1.04,3.27.75,6.55,1.52,9.77,2.44.85.24,1.52,1.09,3.08,2.26-9.76,2.01-17.51-2.09-25.62-3.66ZM107.12,14.78c2-1.12,4.03-2.22,5.88.85-2.32,1.66-4.17,1.49-5.88-.85ZM159.2,41.96c.79-.27,1.61-.83,2.38-.78,8.61.64,17.33.66,25.26,5.03,1.67.92,4.01.78,6.05.86,3.41.13,6.83-.01,10.25.08,1.66.04,3.06.69,2.86,2.73-.18,1.93-1.59,2.6-3.25,2.37-2.81-.38-5.86-.45-8.29-1.69-2.68-1.37-4.85.49-6.98.06-2.41-.48-4.5-3.4-6.78-3.45-5.32-.13-10.53.45-15.02-3.36-.71-.61-2.22-.24-3.35-.41-1.03-.15-2.04-.41-3.06-.61-.03-.28-.05-.55-.08-.83ZM158.23,42.71h9.72M185.09,47.28c-.95-.76-1.91-1.52-2.86-2.28M189.09,48.43h4M139.6,36.63c.79-.27,1.61-.83,2.38-.78,8.61.64,17.33.66,25.26,5.03,1.67.92,4.01.78,6.05.86,3.41.13,6.83-.01,10.25.08,1.66.04,3.06.69,2.86,2.73-.18,1.93-1.59,2.6-3.25,2.37-2.81-.38-5.86-.45-8.29-1.69-2.68-1.37-4.85.49-6.98.06-2.41-.48-4.5-3.4-6.78-3.45-5.32-.13-10.53.45-15.02-3.36-.71-.61-2.22-.24-3.35-.41-1.03-.15-2.04-.41-3.06-.61-.03-.28-.05-.55-.08-.83Z"/>
  </g>
</svg>