<?xml version="1.0" encoding="UTF-8"?>
<svg id="Layer_2" data-name="Layer 2" xmlns="http://www.w3.org/2000/svg" viewBox="0 0 287.18 182.67">
  <defs>
    <style>
      .cls-1 {
        fill: #220d0d;
      }
    </style>
  </defs>
  <g id="Layer_1-2" data-name="Layer 1">
    <g>
      <path d="M3.57,132.52c-.51-.25-.7-1.03-.54-2.34.1-1,.3-1.58.58-1.76s.7-.51,1.23-1.01c.76-.72,1.9-1.08,3.42-1.13.54,0,.87,0,1-.01s.44.04.91.15c.07.01.4.06,1.01.12.61.04.94.07,1,.07h.17c.38,0,.64-.01.8-.06.16-.04.4.06.7.29.1.09.27.23.54.44.27.19.41.37.41.5v.09c0,.13-.13.35-.37.66-.24.31-.37.81-.36,1.52,0,.45-.07.86-.2,1.26-.13.4-.4.59-.79.59-.3,0-.6-.13-.91-.38-.3-.26-.51-.5-.63-.7-.3-.41-.47-.67-.54-.79-.06-.13-.31-.31-.78-.54-1.08.54-1.77.62-2.04.25-.27-.38-.51-.57-.76-.57-.21,0-.53.19-.87.25-.33.1-.5.34-.5.67v.16c0,.62.44.98,1.33,1.1.9.12,1.6.16,2.11.15.13,0,.4.09.79.25s.69.28.88.32c.46.13.7.28.73.44.04.15.14.4.3.76.27,0,.3-.09.58-.09h.09c.36,0,.74.26,1.13.79.38.51.59.98.59,1.39v.18c0,.31-.24.59-.3.83-.13.34-.07.66-.17.94-.07.19-.21.42-.43.7-.21.28-.37.5-.48.63-.33.4-.87.59-1.63.6-.47.01-.8.1-.98.26s-.41.23-.66.23c-.5,0-.91-.04-1.24-.13-.33-.07-.7-.12-1.13-.12-.44.01-.79-.07-1.01-.26-.23-.21-.56-.31-.97-.31-.24,0-.46.09-.67.26-.2.16-.47.25-.8.25h-.41c-.24,0-.41-.15-.54-.44-.13-.31-.19-.59-.19-.83,0-.41.24-.81.24-1.26l-.02-.32c0-.34-.01-.73-.06-1.19s-.03-.79.04-1.04c.16-.48.38-.7.69-.69.31.01.47-.12.47-.37,0-.28-.26-.53-.77-.76ZM5.17,134.03s.11.37.36,1.07c.24.69.38,1.05.41,1.08.31.48.6.72.86.72.26-.01.61.07,1.08.25.67.25,1.06.35,1.17.31.12-.04.54-.07,1.29-.07.44,0,.86-.04,1.27-.13.41-.1.61-.37.61-.81,0-.37-.06-.78-.16-1.23s-.19-.82-.26-1.13h-1.4s-1.54.06-1.54.06c-.07.03-.37-.01-.91-.13-.54-.13-.84-.21-.91-.23-.61-.22-1.4-.12-1.87,0v.25Z"/>
      <path d="M20.3,126.31s.37.06,1.01.18c.64.12.98.18,1.01.18.67.31,1,.81,1,1.49,0,.23-.07.48-.21.76-.13.26-.2.4-.21.41l.2,1.27c.01.15-.03.34-.16.57-.11.23-.17.44-.17.6v.18c0,.19.06.38.16.56.11.16.17.42.17.78v.85c0,.48-.16.67-.16,1.01,0,.83.41,1.29,1.26,1.36s1.48-.18,1.9-.73c.3-.41,1.03-.76,1.5-1.25.38-.4.54-.7.48-.92-.04-.23-.07-.66-.07-1.26,0-.25.02-.42.06-.53.04-.12.01-.31-.06-.56-.11-.25-.33-.57-.33-.92,0-.25.19-.54.24-.85-.23-.34-.69-.54-1.37-.59-.67-.06-1.01-.37-1.01-.92,0-.98.47-1.52,1.43-1.63.96-.1,1.84-.09,2.65.04,1.07.19,1.55.72,1.47,1.55s-.13,1.82-.13,2.97l.02.5c0,.57.31.86.33,1.26v.18c0,.28-.03.47-.1.6-.06.12-.09.31-.09.57v1.1c.01.29.29.76.41.92.19.25.34.34.5.26.16-.07.36-.1.57-.09.17.01.44.22.83.62s.57.63.57.72c0,.28-.34.73-1.03,1.38-.67.63-1.13.95-1.34.95h-.07c-.24,0-.41-.06-.51-.19-.1-.12-.26-.22-.46-.29-.1-.04-.3-.09-.59-.15-.27-.07-.48-.12-.61-.15-.67-.13-1.03-.31-1.07-.53-.04-.23-.41-.35-1.11-.35-.27,0-.66.19-1.17.56-.5.37-1.04.56-1.61.56-1.08,0-1.73-.01-1.91-.04-.19-.04-.6-.31-1.27-.82-.79-.6-1.17-1.63-1.17-3.08v-.69c0-.37.26-.88.27-1.01l-.14-1.44-.06-2.02c-.03-.63-.26-1.01-.68-1.14s-.64-.44-.64-.95c0-1.23.5-1.85,1.48-1.85ZM28.81,122.97c-.29.22-.4.25-.55.37-.19.16-.3.12-.49.37-.24.1-.53.29-.83.54-.3.25-.51.42-.63.51-.09.09-.26.21-.5.37-.24.16-.44.23-.58.23h-.11c-.24,0-.56-.07-.73-.25-.21-.23-.5-.6-.5-1.03v-.16c0-.16.09-.37.26-.59.17-.23.3-.41.37-.54.19-.26.31-.42.38-.5.07-.07.24-.22.48-.44.21-.23.3-.26.47-.5.13-.15.21-.23.23-.25l.14-.15c.13-.1.27-.23.43-.4.16-.16.43-.25.81-.29h.11c.41-.06.83.04,1.21.31.38.25.59.63.59,1.13,0,.57-.19.98-.57,1.26Z"/>
      <path d="M37.14,127.67c0-.47.24-.81.71-1.03.48-.22.93-.32,1.33-.34h.5c.5,0,.87.21,1.1.6.24.4.53.59.86.57.2,0,.7-.22,1.51-.67.81-.45,1.6-.67,2.34-.67.41,0,.88.07,1.41.23.53.15.93.31,1.2.47.19.13.46.44.79.89.34.45.54.79.61,1.03.27.98.19,2.01.19,3,0,.34-.02.6-.06.78-.04.18-.08.42-.13.73-.1.53.13.94.13,1.54l-.1,1.33c.24.37.67.62,1.29.75s.93.54.93,1.26c0,.92-.39,1.39-1.16,1.41-.77.01-1.55.03-2.35.03-1.33.01-2.15-.01-2.46-.06-.3-.04-.9-.31-1.83-.76-.93.51-1.58.79-1.97.81s-1.23.03-2.54.03h-.06c-.66,0-1.23-.06-1.71-.19-.47-.13-.8-.47-.97-1-.27-.75-.1-1.19.49-1.32.6-.13,1.05-.29,1.36-.51,0-.53.06-.91.17-1.13.12-.23.17-.56.17-.97s.06-.83.06-1.08c-.06-.34-.14-.63-.14-1.11,0-.28.2-.66.21-.94.01-.28-.16-.63-.16-1,0-.42.02-.72.04-.88.04-.16-.14-.37-.54-.62-.24-.13-.5-.23-.79-.31s-.43-.31-.43-.72v-.16ZM44.72,137.12c.36-.37.74-.62,1.18-.73.38-.1.63-.38.73-.83.12-.47.17-.94.17-1.42l-.07-3.03v-.16c0-.37-.09-.76-.27-1.16-.17-.41-.49-.62-.96-.62h-.08c-.47,0-.94.15-1.38.44s-.76.57-.96.85c-.39.54-.67.83-.87.91-.19.07-.37.54-.56,1.44-.03.13-.03.69.01,1.67.04.98.13,1.52.23,1.63.23.32.57.59,1.03.79.1.06.31.21.63.44.33.23.48.35.48.35.1,0,.33-.19.69-.56Z"/>
      <path d="M56.6,128.79c.47-.47.86-.85,1.16-1.16.84-.89,1.94-1.35,3.3-1.35h.17c.44,0,1.1.29,1.88.34.33.01.57.16,1.03.04.34-.06.46-.22.86-.22h.16c.61,0,1.34.15,2.18.44.84.28,1.27.72,1.27,1.32v.07c0,.54-.16,1.03-.49,1.45-.33.41-.73.63-1.23.67-.93.07-1.44.21-1.53.4-.07.18-.2.67-.39,1.49-.26,1.1-.77,1.88-1.55,2.3-.29.16-.76.34-1.41.54-.64.19-1.01.41-1.1.66h1.07c.36,0,.83.04,1.4.15.57.09.98.19,1.24.32.4.19.78.19,1.18.41.3.16.59.38.97.6.27.16.54.41.83.75s.46.69.53,1.04c.07.42.04,1.03.2,1.39.13.28.38.75.38,1.1,0,.42-.38.82-1.16,1.17-.77.35-1.33.63-1.67.82-.41.21-1.04.38-1.9.51-.86.15-1.57.22-2.15.22h-2.21c-.27,0-.83-.18-1.65-.51-.81-.34-1.36-.57-1.63-.67-.36-.15-.76-.5-1.18-1.07-.41-.57-.63-1.1-.63-1.61v-.41c0-.63.16-1.11.49-1.46s.5-.62.5-.79v-.07c0-.4-.33-.7-.33-1.27v-.09c0-1.14.23-1.88.69-2.2.46-.34.69-.63.69-.91,0-.16-.09-.34-.24-.53-.16-.19-.24-.42-.26-.73-.04-.63-.14-1.01-.14-1.52-.01-.62.21-1.16.68-1.63ZM57.09,139.83c0,.16.09.37.26.62.17.25.31.42.41.53.26.22.46.34.6.34.16.01.38.01.69.01.1,0,.38.06.83.16.46.1.8.19,1.01.23.01,0,.3-.01.88-.04.58-.01.96-.03,1.13-.03.53,0,1.14-.42,1.73-.48.26-.04.56-.13.88-.28.33-.13.5-.34.5-.59v-.09c0-.37-.44-.7-.63-1-.17-.23-.29-.4-.36-.5-.06-.1-.26-.19-.58-.23-.56-.1-1.01-.19-1.36-.28-.38-.09-.69-.1-.87-.06s-.38.06-.63.04l-1.16-.21s-.31.09-.91.25c-.6.16-.94.26-1.01.28-.27.13-.58.26-.93.41-.34.15-.5.4-.48.73v.18ZM57.8,136.05c.43.1.81.12,1.14.04.34-.07.76-.18,1.24-.31-.19-.28-.57-.42-1.16-.42h-.09c-.16,0-.36.04-.61.15-.26.09-.43.16-.53.21v.34ZM59,132.64c.13.07.36.19.67.37s.54.26.67.26h.07c.53,0,1.04-.18,1.54-.51.5-.35.76-.76.76-1.25v-.51c0-.25-.12-.37-.34-.37-.21,0-.41-.13-.57-.4v-.81c0-.31-.13-.45-.4-.45h-1.55c-.19,0-.49.31-.88.94-.4.62-.6,1.1-.6,1.44,0,.62.21,1.04.64,1.29Z"/>
      <path d="M92.38,126.62c.46-.19.87-.29,1.23-.29h1.74c.47-.01,1.05.32,1.75,1.01.7.67,1.13,1.2,1.27,1.57.1.34.3,1.11.63,2.33s.48,1.93.46,2.15c-.24,1.77-.83,3.08-1.74,3.94-.34.34-.51.59-.5.76.01.16-.27.38-.87.66-.41.19-.74.35-.97.45-.21.1-.64.15-1.25.15h-.16c-.44,0-.84-.07-1.21-.21s-.63-.21-.76-.21c-.66,0-.98.22-.98.64v.35c0,.28.16.59.49.92.33.35.63.56.87.63.21.04.59.16,1.11.38.54.22.81.41.81.57,0,.25-.3.56-.88.94-.58.38-1.08.57-1.48.59-.21,0-.54-.01-.98-.04-.44-.03-.69-.04-.73-.03-.13.01-.44.06-.93.16-.47.1-.71.16-.71.16-.64,0-1.21-.16-1.73-.48-.5-.31-.47-.76.09-1.33.5-.53.96-.79,1.36-.78.4.01.6-.54.6-1.68-.02-.37.03-.7.1-1,.07-.31.09-.63.03-.97-.13-.64-.06-1.45-.06-2.15,0-.66-.09-1.3-.09-2.11,0-.69-.26-1.2-.26-2.02,0-.25.03-.44.09-.57s.09-.32.09-.6v-.59c0-.51-.21-.76-.64-.76-.43-.01-.77-.1-1.04-.29-.23-.15-.37-.45-.43-.94-.04-.48.06-.82.33-1,.18-.13.54-.22,1.07-.26.53-.06.94-.12,1.21-.18.33-.06.74,0,1.21.16.49.16.84.23,1.07.23.09,0,.36-.09.81-.28ZM91.08,134.31c.01.32,0,.6-.07.82-.07.22.1.41.51.56.4.18.59.34.57.47-.01.13.14.29.47.51.56,0,1.01.07,1.34.21s.57.21.7.21c.37,0,.74-.18,1.11-.51.37-.35.64-.67.8-.98,0-.01.06-.5.19-1.48.13-.98.2-1.49.2-1.57,0-.22-.07-.66-.21-1.3-.13-.66-.27-1.03-.4-1.11-.16-.12-.48-.34-.97-.67-.47-.34-.77-.51-.9-.53-.51-.01-.86.15-1.03.45-.16.31-.48.5-.97.6-.44.09-.83.23-1.13.42-.3.19-.43.57-.38,1.13l.17,2.78Z"/>
      <path d="M103.94,121.54c.76-.01,1.44-.03,2.05-.03.33,0,.81.18,1.44.54.63.37.94.69.94.97,0,.23-.11.5-.36.79-.23.28-.33.54-.3.79l.19,2.04c.24.22.44.5.9.5.13,0,.51-.15,1.13-.42.63-.28,1.21-.42,1.74-.42.43,0,.68-.01.79-.04.1-.04.34.04.74.25.44.23.81.28,1.21.57.31.25.59.62.8,1.1.23.48.39.94.49,1.38.07.34.07.6.03.76s-.01.42.1.81c.04.18.13.42.26.73s.19.53.19.66c0,.48-.03,1.07-.1,1.76-.06.69-.1,1.29-.12,1.8-.04.63.27.92.94.88.67-.04,1,.23,1.01.86v.18c0,.53-.21.86-.64,1.03-.43.15-.87.25-1.31.32-.3.06-.54.09-.73.1-.17,0-.38.04-.66.15-.56.21-1.01.31-1.34.31-.03,0-.29-.04-.76-.12s-.76-.12-.84-.16c-.23-.04-.4-.18-.51-.42-.1-.25-.19-.5-.24-.72-.2-.69-.01-1.07.56-1.16.58-.09,1.04-.25,1.38-.5l.02-2.45c-.04-.69.06-1.04.06-1.68,0-.35-.03-.62-.09-.81-.04-.19-.07-.45-.07-.79-.02-.31-.21-.7-.59-1.16-.36-.47-.64-.75-.83-.85-.58.29-1.2.7-1.72.92-.39.13-.66.29-.83.48-.17.18-.4.4-.69.64-.13.1-.3.38-.51.85-.21.45-.33.79-.33.98-.04.54.06.78-.07,1.26-.12.45-.17.82-.17,1.1,0,.25.14.59.44,1.03.3.42.54.64.73.64h.4c.27,0,.44-.01.54-.04.1-.04.27.01.5.15.34.19.51.42.51.73,0,.04-.1.28-.31.67-.2.4-.33.6-.37.64-.13.12-.38.15-.77.1-.37-.04-.69-.07-.93-.07h-.06c-.31,0-.66.07-1.01.23s-.63.22-.8.18l-1.14-.19-.24.04c-.3,0-.51,0-.67.01-.16,0-.33-.13-.51-.41-.07-.09-.16-.26-.29-.54s-.19-.5-.19-.66c-.01-.37.16-.62.5-.73.34-.13.73-.19,1.14-.19.33-.23.47-.54.41-.94l-.21-1.25.04-.34.19-1.93-.03-.42c0-.89-.07-1.57-.09-2.45-.03-.37-.1-.7-.2-.98-.1-.28-.16-.66-.16-1.13,0-.51.12-.92.33-1.23.23-.31.34-.69.34-1.13,0-.54-.4-.88-1.2-1.01-.8-.15-1.2-.62-1.2-1.41,0-.75.39-1.14,1.14-1.16Z"/>
      <path d="M133.37,136.49c-.53.94-.93,1.51-1.21,1.7-.6.41-1.21.79-1.84,1.16-.63.35-1.43.53-2.4.53-.21,0-.64-.07-1.29-.23-.64-.15-1.05-.25-1.24-.32-.17-.06-.48-.28-.93-.67-.44-.4-.73-.67-.83-.82-.49-.64-.91-1.3-1.27-1.99-.36-.69-.53-1.6-.53-2.74,0-.95.2-1.88.61-2.75s.81-1.6,1.23-2.17c.41-.57,1.1-1.01,2.03-1.32.93-.31,1.88-.42,2.85-.32,2.07.25,3.64.91,4.69,1.98.38.41.56.82.51,1.22-.03.4-.04.91-.04,1.51,0,.32.04.57.13.73.08.16.16.37.2.62.07.48.1,1.04.1,1.67,0,.54-.26,1.29-.79,2.24ZM125.12,133.27c0,.31-.07.56-.21.75-.13.19-.2.37-.2.51,0,.28.29.51.87.72.23.09.48.35.79.81.41.6,1.14.91,2.21.91.63,0,1.07-.06,1.34-.18.27-.12.5-.44.67-.95.07-.21.21-.63.43-1.26.23-.64.34-1.05.34-1.25v-.06c0-.07-.06-.28-.19-.62-.13-.35-.2-.69-.24-1-.01-.13-.11-.37-.29-.69s-.29-.54-.36-.66c-.55-.79-1.51-1.19-2.88-1.19l-.23.03c-.13,0-.41.13-.83.38-.41.25-.68.41-.84.5-.36.21-.51.48-.47.85.06.35.09.75.09,1.2v1.19ZM125.68,120.92c.38-.26.8-.37,1.21-.31h.11c.39.04.66.13.81.29.16.16.3.29.43.4.07.07.11.12.13.15.03.01.11.1.24.25.17.23.26.26.47.5.24.22.4.37.47.44.07.07.21.23.4.5.07.13.2.31.37.54.17.22.26.42.26.59v.16c0,.42-.29.79-.5,1.03-.17.18-.48.25-.73.25h-.12c-.14,0-.34-.07-.58-.23s-.41-.28-.5-.37c-.11-.09-.33-.26-.63-.51-.3-.25-.59-.44-.83-.54-.19-.25-.3-.21-.48-.37-.16-.12-.27-.15-.56-.37-.38-.28-.57-.69-.57-1.26,0-.5.2-.88.58-1.13Z"/>
      <path d="M138.74,127.67c0-.47.24-.81.71-1.03.48-.22.93-.32,1.33-.34h.5c.5,0,.87.21,1.1.6.24.4.53.59.86.57.2,0,.7-.22,1.51-.67.81-.45,1.6-.67,2.34-.67.41,0,.88.07,1.41.23.53.15.93.31,1.2.47.19.13.46.44.79.89.34.45.54.79.61,1.03.27.98.19,2.01.19,3,0,.34-.01.6-.06.78s-.09.42-.13.73c-.1.53.13.94.13,1.54l-.1,1.33c.24.37.67.62,1.28.75s.93.54.93,1.26c0,.92-.38,1.39-1.16,1.41-.77.01-1.55.03-2.35.03-1.33.01-2.15-.01-2.45-.06-.3-.04-.9-.31-1.83-.76-.93.51-1.58.79-1.97.81-.39.01-1.23.03-2.54.03h-.06c-.66,0-1.23-.06-1.71-.19-.47-.13-.8-.47-.97-1-.27-.75-.1-1.19.48-1.32.6-.13,1.06-.29,1.36-.51,0-.53.06-.91.17-1.13.11-.23.17-.56.17-.97s.06-.83.06-1.08c-.06-.34-.14-.63-.14-1.11,0-.28.2-.66.21-.94.02-.28-.16-.63-.16-1,0-.42.01-.72.04-.88.04-.16-.14-.37-.54-.62-.24-.13-.5-.23-.78-.31-.29-.07-.43-.31-.43-.72v-.16ZM146.31,137.12c.36-.37.74-.62,1.18-.73.39-.1.63-.38.73-.83.11-.47.17-.94.17-1.42l-.07-3.03v-.16c0-.37-.09-.76-.27-1.16-.17-.41-.48-.62-.96-.62h-.09c-.47,0-.94.15-1.38.44-.44.29-.76.57-.96.85-.38.54-.67.83-.87.91-.19.07-.37.54-.56,1.44-.03.13-.03.69.01,1.67s.13,1.52.23,1.63c.23.32.57.59,1.03.79.1.06.31.21.63.44.33.23.49.35.49.35.1,0,.33-.19.68-.56Z"/>
      <path d="M158.2,128.79c.47-.47.86-.85,1.16-1.16.84-.89,1.94-1.35,3.29-1.35h.17c.44,0,1.1.29,1.88.34.33.01.57.16,1.03.04.34-.06.46-.22.86-.22h.16c.62,0,1.34.15,2.18.44.84.28,1.27.72,1.27,1.32v.07c0,.54-.16,1.03-.48,1.45-.33.41-.73.63-1.23.67-.93.07-1.44.21-1.53.4-.07.18-.2.67-.38,1.49-.26,1.1-.77,1.88-1.55,2.3-.29.16-.76.34-1.41.54-.64.19-1.01.41-1.1.66h1.07c.36,0,.83.04,1.4.15.57.09.98.19,1.24.32.4.19.79.19,1.19.41.3.16.58.38.97.6.27.16.54.41.83.75s.46.69.53,1.04c.07.42.04,1.03.2,1.39.13.28.39.75.39,1.1,0,.42-.39.82-1.16,1.17s-1.33.63-1.67.82c-.41.21-1.04.38-1.9.51-.86.15-1.57.22-2.15.22h-2.21c-.27,0-.83-.18-1.66-.51-.81-.34-1.36-.57-1.62-.67-.36-.15-.76-.5-1.19-1.07-.41-.57-.63-1.1-.63-1.61v-.41c0-.63.16-1.11.48-1.46s.5-.62.5-.79v-.07c0-.4-.33-.7-.33-1.27v-.09c0-1.14.23-1.88.68-2.2.46-.34.69-.63.69-.91,0-.16-.09-.34-.24-.53s-.24-.42-.26-.73c-.04-.63-.14-1.01-.14-1.52-.01-.62.21-1.16.69-1.63ZM158.68,139.83c0,.16.09.37.26.62.17.25.31.42.41.53.26.22.46.34.6.34.16.01.39.01.69.01.1,0,.38.06.83.16.46.1.8.19,1.01.23.02,0,.3-.01.88-.04.59-.01.96-.03,1.13-.03.53,0,1.14-.42,1.73-.48.26-.04.56-.13.88-.28.33-.13.5-.34.5-.59v-.09c0-.37-.44-.7-.63-1-.17-.23-.29-.4-.36-.5-.06-.1-.26-.19-.59-.23-.56-.1-1.01-.19-1.36-.28-.38-.09-.68-.1-.87-.06s-.38.06-.63.04l-1.15-.21s-.31.09-.91.25-.94.26-1.01.28c-.27.13-.59.26-.93.41-.34.15-.5.4-.49.73v.18ZM159.4,136.05c.43.1.81.12,1.14.04.34-.07.76-.18,1.24-.31-.18-.28-.57-.42-1.15-.42h-.09c-.16,0-.36.04-.61.15-.26.09-.43.16-.53.21v.34ZM160.6,132.64c.13.07.36.19.67.37.31.18.54.26.67.26h.07c.53,0,1.04-.18,1.54-.51.5-.35.76-.76.76-1.25v-.51c0-.25-.11-.37-.34-.37-.21,0-.41-.13-.57-.4v-.81c0-.31-.13-.45-.4-.45h-1.55c-.19,0-.48.31-.88.94-.4.62-.6,1.1-.6,1.44,0,.62.21,1.04.64,1.29Z"/>
      <path d="M190.18,126.05c0-.83-.26-1.32-.79-1.45s-.94-.32-1.24-.56c-.56-.42-.59-.82-.06-1.19.53-.38,1.06-.57,1.58-.57h1.07c.48,0,.97.15,1.47.42.5.28.74.66.74,1.16,0,.28-.1.51-.29.69-.19.16-.29.34-.29.5v.32c0,.34.07.59.2.78.13.19.2.44.21.75,0,.22-.16.51-.16.94v.32l.03.83c-.01.28,0,.47.03.6.04.12.03.31-.04.59-.13.41-.26.56-.26,1.08,0,.12.06.29.17.51.33-.07.69-.32,1.04-.73.36-.42.64-.78.83-1.05.33-.54.46-1.05.38-1.57-.07-.51.1-.89.54-1.17.4-.23.9-.32,1.48-.26.59.04,1.19.07,1.79.06.57,0,1.14.03,1.72.07.59.04.88.35.88.94v.09c0,.59-.4.97-1.21,1.16-.8.19-1.43.38-1.9.6-.44.21-.71.35-.81.42-.1.07-.26.31-.47.72-.16.31-.37.53-.63.64-.24.12-.37.37-.37.75s.14.69.41.97c.29.28.51.57.69.85.33.63.6,1.35.93,1.99.33.72,1.01,1.1,2.03,1.13,1.01.01,1.53.37,1.54,1.03v.25c0,.56-.3.83-.91.83h-.57c-.37.01-1.06.04-2.04.09s-1.65,0-2.01-.1c-.67-.21-.91-.67-.71-1.39.1-.4.29-.56.54-.47.27.07.5-.07.7-.45-.24-.51-.46-.73-.63-.66-.17.07-.41-.25-.74-.97-.1-.19-.29-.53-.56-1.01-.27-.48-.5-.72-.71-.72-.07,0-.36.31-.87.94-.5.62-.76,1.05-.76,1.33,0,.83.06,1.23.16,1.22.11-.01.44-.04.98-.06.1,0,.36.16.74.5s.58.62.58.86c0,.51-.26.79-.79.85-.51.06-.97.09-1.35.09h-2.46c-.4,0-.77-.03-1.13-.07-.34-.04-.51-.37-.51-.94,0-.78.3-1.17.9-1.22s.9-.4.9-1.05v-.18c-.01-.22,0-.59.02-1.1.03-.51.04-.82.03-.95-.04-.22-.08-.57-.13-1.08-.03-.51-.03-.89,0-1.14.04-.28.06-.63.07-1.08s.03-.82.07-1.13c.01-.25-.03-.56-.12-.94s-.13-.73-.13-1.07v-.25c0-.26.03-.45.07-.59.06-.13.09-.32.09-.6v-.09Z"/>
      <path d="M205.53,121.54c.76-.01,1.44-.03,2.05-.03.33,0,.81.18,1.44.54.63.37.94.69.94.97,0,.23-.11.5-.36.79-.23.28-.33.54-.3.79l.19,2.04c.24.22.44.5.9.5.13,0,.51-.15,1.13-.42.63-.28,1.21-.42,1.74-.42.43,0,.69-.01.79-.04.1-.04.34.04.74.25.44.23.81.28,1.21.57.31.25.58.62.8,1.1.23.48.38.94.48,1.38.07.34.07.6.03.76s-.01.42.1.81c.04.18.13.42.26.73.13.31.18.53.18.66,0,.48-.03,1.07-.1,1.76-.06.69-.1,1.29-.11,1.8-.04.63.27.92.94.88s1,.23,1.01.86v.18c0,.53-.21.86-.64,1.03-.43.15-.87.25-1.31.32-.3.06-.54.09-.73.1-.17,0-.38.04-.66.15-.56.21-1.01.31-1.34.31-.03,0-.29-.04-.76-.12-.47-.07-.76-.12-.84-.16-.23-.04-.4-.18-.51-.42-.1-.25-.19-.5-.24-.72-.2-.69-.01-1.07.56-1.16.59-.09,1.04-.25,1.38-.5v-2.45c-.03-.69.07-1.04.07-1.68,0-.35-.03-.62-.08-.81-.04-.19-.07-.45-.07-.79-.01-.31-.21-.7-.58-1.16-.36-.47-.64-.75-.83-.85-.59.29-1.2.7-1.73.92-.38.13-.66.29-.83.48-.17.18-.4.4-.68.64-.13.1-.3.38-.51.85-.21.45-.33.79-.33.98-.04.54.06.78-.07,1.26-.11.45-.17.82-.17,1.1,0,.25.14.59.44,1.03.3.42.54.64.73.64h.4c.27,0,.44-.01.54-.04.1-.04.27.01.5.15.34.19.51.42.51.73,0,.04-.1.28-.31.67-.2.4-.33.6-.37.64-.13.12-.39.15-.77.1-.37-.04-.68-.07-.93-.07h-.06c-.31,0-.66.07-1.01.23-.36.16-.63.22-.8.18l-1.14-.19-.24.04c-.3,0-.51,0-.67.01-.16,0-.33-.13-.51-.41-.07-.09-.16-.26-.29-.54-.13-.28-.19-.5-.19-.66-.02-.37.16-.62.5-.73.34-.13.73-.19,1.14-.19.33-.23.47-.54.41-.94l-.21-1.25.04-.34.19-1.93-.03-.42c0-.89-.07-1.57-.09-2.45-.03-.37-.1-.7-.2-.98s-.16-.66-.16-1.13c0-.51.11-.92.33-1.23.23-.31.34-.69.34-1.13,0-.54-.4-.88-1.2-1.01-.8-.15-1.2-.62-1.2-1.41,0-.75.38-1.14,1.14-1.16Z"/>
      <path d="M234.96,136.49c-.53.94-.93,1.51-1.21,1.7-.6.41-1.21.79-1.84,1.16-.63.35-1.43.53-2.4.53-.21,0-.64-.07-1.28-.23-.64-.15-1.06-.25-1.24-.32-.17-.06-.48-.28-.93-.67-.44-.4-.73-.67-.83-.82-.48-.64-.91-1.3-1.27-1.99s-.53-1.6-.53-2.74c0-.95.2-1.88.61-2.75s.81-1.6,1.23-2.17,1.1-1.01,2.03-1.32,1.88-.42,2.85-.32c2.07.25,3.64.91,4.69,1.98.39.41.56.82.51,1.22-.03.4-.04.91-.04,1.51,0,.32.04.57.13.73s.16.37.2.62c.07.48.1,1.04.1,1.67,0,.54-.26,1.29-.79,2.24ZM226.72,133.27c0,.31-.07.56-.21.75-.13.19-.2.37-.2.51,0,.28.29.51.87.72.23.09.49.35.79.81.41.6,1.14.91,2.21.91.63,0,1.07-.06,1.34-.18s.5-.44.67-.95c.07-.21.21-.63.43-1.26.23-.64.34-1.05.34-1.25v-.06c0-.07-.06-.28-.19-.62-.13-.35-.2-.69-.24-1-.02-.13-.12-.37-.29-.69-.17-.32-.29-.54-.36-.66-.56-.79-1.51-1.19-2.88-1.19l-.23.03c-.13,0-.41.13-.83.38s-.69.41-.84.5c-.36.21-.51.48-.47.85.06.35.09.75.09,1.2v1.19ZM226.7,123.76l.63-.64c.24-.25.33-.37.54-.64.23-.19.47-.51.66-.7.1-.12.21-.22.33-.32.1-.06.14-.1.16-.13.36-.25.76-.37,1.2-.37h.2c.3,0,.53.07.66.22.04.07.1.13.17.18.09.04.16.1.21.18.01,0,.03,0,.03.01.12.16.19.15.36.31.13.23.23.34.44.51.21.21.34.34.41.41.07.07.2.22.39.47.07.12.19.28.34.5s.24.4.24.56v.15c0,.4-.34.86-.56,1.08-.07.07-.23.15-.46.21-.21.04-.38.07-.51.07h-.08c-.3,0-.7-.4-.87-.56-.1-.09-.34-.41-.7-.95-.16-.19-.27-.34-.36-.44l-.1.06c-.13.19-.44.56-.97,1.1-.13.13-.27.29-.44.5-.17.21-.43.31-.77.31h-.31c-.64,0-1.2-.51-1.2-1.2,0-.31.13-.59.37-.85Z"/>
      <path d="M240.33,127.67c0-.47.24-.81.71-1.03.48-.22.93-.32,1.33-.34h.5c.5,0,.87.21,1.1.6.24.4.53.59.86.57.2,0,.7-.22,1.51-.67.81-.45,1.6-.67,2.34-.67.41,0,.88.07,1.41.23.53.15.93.31,1.2.47.19.13.46.44.79.89.34.45.54.79.61,1.03.27.98.19,2.01.19,3,0,.34-.01.6-.06.78s-.09.42-.13.73c-.1.53.13.94.13,1.54l-.1,1.33c.24.37.67.62,1.28.75s.93.54.93,1.26c0,.92-.38,1.39-1.16,1.41-.77.01-1.55.03-2.35.03-1.33.01-2.15-.01-2.45-.06-.3-.04-.9-.31-1.83-.76-.93.51-1.58.79-1.97.81-.39.01-1.23.03-2.54.03h-.06c-.66,0-1.23-.06-1.71-.19-.47-.13-.8-.47-.97-1-.27-.75-.1-1.19.48-1.32.6-.13,1.06-.29,1.36-.51,0-.53.06-.91.17-1.13.11-.23.17-.56.17-.97s.06-.83.06-1.08c-.06-.34-.14-.63-.14-1.11,0-.28.2-.66.21-.94.02-.28-.16-.63-.16-1,0-.42.01-.72.04-.88.04-.16-.14-.37-.54-.62-.24-.13-.5-.23-.78-.31-.29-.07-.43-.31-.43-.72v-.16ZM247.91,137.12c.36-.37.74-.62,1.18-.73.39-.1.63-.38.73-.83.11-.47.17-.94.17-1.42l-.07-3.03v-.16c0-.37-.09-.76-.27-1.16-.17-.41-.48-.62-.96-.62h-.09c-.47,0-.94.15-1.38.44-.44.29-.76.57-.96.85-.38.54-.67.83-.87.91-.19.07-.37.54-.56,1.44-.03.13-.03.69.01,1.67s.13,1.52.23,1.63c.23.32.57.59,1.03.79.1.06.31.21.63.44.33.23.49.35.49.35.1,0,.33-.19.68-.56Z"/>
      <path d="M259.79,128.79c.47-.47.86-.85,1.16-1.16.84-.89,1.94-1.35,3.3-1.35h.17c.44,0,1.1.29,1.88.34.33.01.57.16,1.03.04.34-.06.46-.22.86-.22h.16c.61,0,1.34.15,2.18.44.84.28,1.27.72,1.27,1.32v.07c0,.54-.16,1.03-.49,1.45-.33.41-.73.63-1.23.67-.93.07-1.44.21-1.53.4-.07.18-.2.67-.39,1.49-.26,1.1-.77,1.88-1.55,2.3-.29.16-.76.34-1.41.54-.64.19-1.01.41-1.1.66h1.07c.36,0,.83.04,1.4.15.57.09.98.19,1.24.32.4.19.78.19,1.18.41.3.16.59.38.97.6.27.16.54.41.83.75s.46.69.53,1.04c.07.42.04,1.03.2,1.39.13.28.38.75.38,1.1,0,.42-.38.82-1.16,1.17-.77.35-1.33.63-1.67.82-.41.21-1.04.38-1.9.51-.86.15-1.57.22-2.15.22h-2.21c-.27,0-.83-.18-1.65-.51-.81-.34-1.36-.57-1.63-.67-.36-.15-.76-.5-1.18-1.07-.41-.57-.63-1.1-.63-1.61v-.41c0-.63.16-1.11.49-1.46s.5-.62.5-.79v-.07c0-.4-.33-.7-.33-1.27v-.09c0-1.14.23-1.88.69-2.2.46-.34.69-.63.69-.91,0-.16-.09-.34-.24-.53-.16-.19-.24-.42-.26-.73-.04-.63-.14-1.01-.14-1.52-.01-.62.21-1.16.68-1.63ZM260.28,139.83c0,.16.09.37.26.62.17.25.31.42.41.53.26.22.46.34.6.34.16.01.38.01.69.01.1,0,.38.06.83.16.46.1.8.19,1.01.23.01,0,.3-.01.88-.04.58-.01.96-.03,1.13-.03.53,0,1.14-.42,1.73-.48.26-.04.56-.13.88-.28.33-.13.5-.34.5-.59v-.09c0-.37-.44-.7-.63-1-.17-.23-.29-.4-.36-.5-.06-.1-.26-.19-.58-.23-.56-.1-1.01-.19-1.36-.28-.38-.09-.69-.1-.87-.06s-.38.06-.63.04l-1.16-.21s-.31.09-.91.25c-.6.16-.94.26-1.01.28-.27.13-.58.26-.93.41-.34.15-.5.4-.48.73v.18ZM260.99,136.05c.43.1.81.12,1.14.04.34-.07.76-.18,1.24-.31-.19-.28-.57-.42-1.16-.42h-.09c-.16,0-.36.04-.61.15-.26.09-.43.16-.53.21v.34ZM262.19,132.64c.13.07.36.19.67.37s.54.26.67.26h.07c.53,0,1.04-.18,1.54-.51.5-.35.76-.76.76-1.25v-.51c0-.25-.12-.37-.34-.37-.21,0-.41-.13-.57-.4v-.81c0-.31-.13-.45-.4-.45h-1.55c-.19,0-.49.31-.88.94-.4.62-.6,1.1-.6,1.44,0,.62.21,1.04.64,1.29Z"/>
      <path d="M113.54,162.01c-.79,0-1.1-.42-.94-1.26.13-.75.44-1.05.88-1.46.33-.29.83-.57,1.53-.83.7-.28,1.36-.41,1.94-.41.5,0,1.18.1,2.08.31.9.21,1.51.41,1.83.62.36.25.69.75,1.01,1.48s.5,1.41.5,2.02v.59c.01.56-.17,1.13-.56,1.71s-.57,1-.57,1.25c0,.6.17.95.5,1.07s.59.4.76.82c.1.25.26.64.44,1.22.2.56.3.97.3,1.25,0,.51-.14,1.2-.44,2.07-.29.85-.54,1.41-.76,1.67-.23.28-.41.5-.57.67-.16.18-.3.42-.43.75-.2.44-.37.69-.53.73s-.46.13-.93.26c-.3.07-.43.31-.71.48-.3.18-.56.15-.88.34-.4.22-.64.37-.73.44-.09.09-.41.21-.97.35-.59.13-1.27.51-1.88.51-.34,0-.88-.03-1.21.01-.3.01-.66.22-1,.26-.7,0-1.05-.42-1.05-1.27v-.09c-.01-.69.26-1.11.84-1.26.58-.13,1.17-.22,1.77-.25.16-.03.44-.09.84-.18.41-.09.68-.16.81-.23.44-.21.64-.31.6-.32-.03-.01.27-.1.9-.23.43-.07.91-.29,1.44-.63.53-.34.91-.64,1.14-.92.14-.16.4-.63.79-1.38s.58-1.26.58-1.52c0-.42-.11-.79-.34-1.1-.21-.31-.4-.6-.53-.86-.13-.22-.21-.37-.26-.45s-.23-.15-.53-.16c-.3-.03-.53-.07-.67-.15-.13-.07-.31-.12-.56-.12h-.83c-.24.01-.5-.01-.76-.06-.26-.04-.38-.28-.38-.69-.02-1,.46-1.51,1.38-1.52.94-.01,1.67-.42,2.18-1.22.5-.78.53-1.58.06-2.4-.47-.83-1.08-1.25-1.85-1.25-.07,0-.49.04-1.24.15-.76.09-1.14.13-1.17.13-.38.16-.7.4-.91.67-.21.28-.47.41-.77.41h-.14Z"/>
      <path d="M131.5,157.77l3.59-.15,1.57-.03c.16,0,.69.04,1.6.13.93.09,1.43.15,1.53.18.19.07.57.26,1.18.57s.93.54.93.7v.09s-.19.28-.57.73c-.39.45-.6.7-.67.76-.17.15-.43.35-.77.63-.33.26-.54.47-.64.6-.19.28-.3.66-.37,1.11-.06.45-.19.76-.37.89-.36.28-.6.47-.73.57-.13.1-.3.37-.54.82-.21.4-.3.73-.24.98s-.07.63-.4,1.14c-.23.38-.36.72-.37,1.01-.02.28-.04.67-.09,1.19-.06.4-.36.62-.49.85-.21.35-.14.66-.2,1.13-.1.45-.04.82-.1,1.23-.1.41-.26.69-.26,1.1v.09c0,.51.1.86.29,1.05.2.19.3.48.3.85,0,.25-.2.66-.61,1.2-.4.54-.71.82-.93.82h-.43c-.33,0-.57-.16-.71-.5-.13-.34-.2-.67-.2-1.01-.01-.98-.24-1.51-.24-2.08,0-.38.07-.97.23-1.77s.27-1.48.36-2.01c.04-.37.16-.92.34-1.68.19-.78.34-1.38.47-1.83.13-.47.29-1.25.5-1.66.24-.45.51-.67.84-1.32.1-.19.33-.7.71-1.54s.58-1.33.58-1.51c0-.21-.31-.37-.93-.47-.61-.12-.98-.18-1.09-.16-.31.06-.73.19-1.24.38-.5.19-.79.29-.84.29-.27,0-.46-.04-.56-.13s-.24-.13-.43-.13h-.17c-.37,0-.5.23-.4.69.11.45,0,.81-.36,1.04-.19.13-.44.31-.8.51-.36.19-.64.29-.88.29-.27.01-.56-.16-.83-.51-.27-.37-.4-.69-.4-1-.01-.23.03-.79.1-1.66.09-.88.19-1.39.29-1.54.4-.69,1.46-1.03,2.53-1.03l.91.06Z"/>
      <path d="M149.02,162.71c.33,0,.61-.09.83-.25.23-.18.44-.26.66-.26.17,0,.46.03.86.07.4.04.67.09.83.13.24.07.46.18.61.32.17.15.41.22.74.22h.07c.19,0,.51-.1,1-.32.48-.22.94-.35,1.37-.37.41,0,.9.16,1.46.48.56.31.93.62,1.14.91.4.57.6,1.04.62,1.42.01.38-.02,1-.09,1.83h.09l-.24,2.09s.06.53.16,1.51c.11.98.19,1.49.2,1.57.17.54.46.92.86,1.16.4.23.6.5.6.81,0,.47-.21.83-.63,1.11s-.84.41-1.26.41h-.64c-.5,0-.68-.25-1.07-.25-.36,0-.64.07-.88.21-.23.13-.68.13-1.37.01-.56-.1-1-.06-1.34.15-.34.21-.64.31-.91.31-.23,0-.41-.06-.56-.19s-.38-.21-.74-.23c-.37-.01-.64-.01-.81,0s-.43.01-.76.01c-.63,0-1.17.07-1.57,0-.16-.01-.46-.04-.9-.09-.43-.04-.67-.07-.73-.07-.44,0-.86-.01-1.24-.04-.38-.04-.7-.22-.96-.56-.26-.31-.33-.67-.2-1.1.13-.42.36-.72.71-.85.7-.26.98-.5.86-.72-.12-.22-.1-.69.03-1.41.02-.15.07-.63.16-1.45.1-.82.14-1.25.16-1.29l-.19-1.17c-.04-.22-.03-.41.04-.56.07-.16.07-.38,0-.66-.13-.37-.5-.4-.79-.63-.27-.19-.5-.42-.67-.7s-.14-.62.07-1.01c.48-.92,1.07-1.25,1.77-.97s1.44.41,2.25.41h.41ZM148.88,168.49c0,.35.12.57.36.67.24.09.37.29.38.6,0,.21-.06.35-.17.44-.1.07-.16.32-.16.73,0,.28-.26.64-.33.83l-.07.06.66.81.55-.35c.7,0,.99-.29.88-.88-.1-.6-.14-1.2-.14-1.82-.13-.22-.48-.44-.48-.67v-.07c0-.21.14-.37.44-.48.3-.12.46-.53.46-1.22,0-.22-.04-.42-.13-.6-.08-.18-.13-.45-.13-.82-.13-.06-.46-.34-.59-.34h-.16c-.19,0-.3.19-.36.59s-.13.69-.23.89c-.17.31-.34.45-.53.42-.19-.04-.27.25-.27.86v.34ZM156.34,169.26c0-.35.11-.31.17-.66.04-.19-.03-.29-.03-.7,0-.54.29-.81.41-1.35-.33-.62-.8-.92-1.4-.92h-.09c-.2,0-.44.12-.73.34-.27.22-.41.4-.41.53,0,.28.09.5.24.66.17.16.26.41.26.75v.18s-.07.29-.24.85c-.16.54-.24.91-.24,1.08v.42c0,.48.26.78.26,1.19,0,.35-.03.63-.1.83-.06.21.06.41.34.6l1.56-.86c.04-.6.23-.85.36-1.39.07-.31.03-.54-.13-.7-.16-.16-.23-.4-.23-.67v-.16Z"/>
      <path d="M166.63,162.71c.33,0,.61-.09.83-.25.23-.18.44-.26.66-.26.17,0,.46.03.86.07.4.04.67.09.83.13.24.07.46.18.61.32.17.15.41.22.74.22h.07c.19,0,.51-.1,1-.32.48-.22.94-.35,1.37-.37.41,0,.9.16,1.46.48.56.31.93.62,1.14.91.4.57.6,1.04.62,1.42.01.38-.02,1-.09,1.83h.09l-.24,2.09s.06.53.16,1.51c.11.98.19,1.49.2,1.57.17.54.46.92.86,1.16.4.23.6.5.6.81,0,.47-.21.83-.63,1.11s-.84.41-1.26.41h-.64c-.5,0-.68-.25-1.07-.25-.36,0-.64.07-.88.21-.23.13-.68.13-1.37.01-.56-.1-1-.06-1.34.15-.34.21-.64.31-.91.31-.23,0-.41-.06-.56-.19s-.38-.21-.74-.23c-.37-.01-.64-.01-.81,0s-.43.01-.76.01c-.63,0-1.17.07-1.57,0-.16-.01-.46-.04-.9-.09-.43-.04-.67-.07-.73-.07-.44,0-.86-.01-1.24-.04-.38-.04-.7-.22-.96-.56-.26-.31-.33-.67-.2-1.1.13-.42.36-.72.71-.85.7-.26.98-.5.86-.72-.12-.22-.1-.69.03-1.41.02-.15.07-.63.16-1.45.1-.82.14-1.25.16-1.29l-.19-1.17c-.04-.22-.03-.41.04-.56.07-.16.07-.38,0-.66-.13-.37-.5-.4-.79-.63-.27-.19-.5-.42-.67-.7s-.14-.62.07-1.01c.48-.92,1.07-1.25,1.77-.97s1.44.41,2.25.41h.41ZM166.49,168.49c0,.35.12.57.36.67.24.09.37.29.38.6,0,.21-.06.35-.17.44-.1.07-.16.32-.16.73,0,.28-.26.64-.33.83l-.07.06.66.81.55-.35c.7,0,.99-.29.88-.88-.1-.6-.14-1.2-.14-1.82-.13-.22-.48-.44-.48-.67v-.07c0-.21.14-.37.44-.48.3-.12.46-.53.46-1.22,0-.22-.04-.42-.13-.6-.08-.18-.13-.45-.13-.82-.13-.06-.46-.34-.59-.34h-.16c-.19,0-.3.19-.36.59s-.13.69-.23.89c-.17.31-.34.45-.53.42-.19-.04-.27.25-.27.86v.34ZM173.95,169.26c0-.35.11-.31.17-.66.04-.19-.03-.29-.03-.7,0-.54.29-.81.41-1.35-.33-.62-.8-.92-1.4-.92h-.09c-.2,0-.44.12-.73.34-.27.22-.41.4-.41.53,0,.28.09.5.24.66.17.16.26.41.26.75v.18s-.07.29-.24.85c-.16.54-.24.91-.24,1.08v.42c0,.48.26.78.26,1.19,0,.35-.03.63-.1.83-.06.21.06.41.34.6l1.56-.86c.04-.6.23-.85.36-1.39.07-.31.03-.54-.13-.7-.16-.16-.23-.4-.23-.67v-.16Z"/>
    </g>
    <path class="cls-1" d="M190.48,91.54c-7.59-.9-15.26.54-22.84-.77-3.57,0-7.14,0-10.71,0-1.75.76-3.5.75-5.25,0-.47,0-.93,0-1.4,0-1.75.76-3.5.74-5.25,0-.91,0-1.82,0-2.72,0-.79.62-1.93.39-2.66,1.14h0c-4.9,4.21-10.48,2.77-15.98,1.87-.65-.22-1.28-.45-1.91-.74-.64-.2-1.28-.38-1.91-.58-1.65-.51-3.35-.58-5.05-.51-1.1.02-2.17.28-3.24.5-14.28.2-28.57.47-42.84-.51-.79,0-1.57,0-2.36,0-.39,0-.78,0-1.17,0-1.95,1.22-4.11,1.5-6.33,1.3-2.12-.19-4.5.91-6.3-.83-2.03-1.97,2.27-3.15.84-5.18-.13-.18-.2-.39-.29-.59-3.05-3.04-.32-4.6,1.75-5.99,2.61-1.76,5.45-3.19,7.68.68,1.54,1.79,3.64,1.24,5.55,1.24,8.79,0,17.59-.08,26.38-.13,2.93-2.43,6.86-.82,9.98-2.46,1.74-.49,3.13.16,3.42,1.84.28,1.62-.92,2.72-2.42,3.35-13.14,1.6-26.33.29-39.48.76-2.19.08-4.81-1.42-6.64,1.19,4.08,2.9,8.41.18,12.59.17,27.51-.06,55.01.78,82.52.21,12.35-.25,24.71-.22,37.08.09.73.07,1.43.19,2.14.41,4.06.3,8.23,3.48,12.13-.46.12-1.12-.1-2.21-.22-3.32-.04-.58.15-1.08.55-1.5.87-.02,1.73-.04,2.6-.05,1.77,1.92-.26,4.66,1.44,6.59,0,0,.02.02.02.02.49,1.57,1.92,3.89-1.12,3.88-5.85-.02-11.85,1.45-17.53-1.21-.35-.14-.71-.29-1.06-.43ZM163.9,44.25l.54.14.52-.2c.41-.41.66-.89.76-1.46-.04-.57-.21-1.09-.52-1.56-.64-.55-1.4-.88-2.17-1.17-.49-.25-.98-.48-1.47-.73-.24-.15-.48-.27-.72-.42-.5-.28-1.03-.47-1.59-.58-.29.03-.57.06-.86.09-1.41.44-2.54,1.37-3.77,2.13-5.13,2.12-10.83,2.91-15.3,6.58-.65,4.66,1.4,7.42,5.94,8.39,2.76-1.12,1.83-4.84,4.35-6.12.72-.45,1.5-.76,2.34-.94,1.73-.39,3.49-.68,5.05-1.57v-.06c1.86-2.05,4.55-1.83,6.91-2.51ZM174.26,82.6c-1.35-.02-2.69-.03-4.04-.05-1.76-.78-3.51-.82-5.26.02-2.23-.03-4.47-.06-6.7-.1-.6-.3-1.2-.57-1.81-.83-3.19-1.19-6.53-.4-9.78-.81-.97-.18-1.91-.45-2.83-.82-1-.42-2-.65-3.04-.11-.38.68-.51,1.39-.39,2.16,1.63,3.84,5.12,3.74,8.4,3.81,6.82.14,13.66.21,20.48,0,7.74-.23,15.36.61,22.94,1.96,1.74.07,3.48.48,5.23.22.64-.09,1.26-.26,1.87-.47.85-.32,1.68-.73,2.51-1.12,1.5-.81,3.41-.96,4.37-2.66,0-.36-.03-.72-.09-1.07-.87-.05-1.83-.37-2.59-.11-6.22,2.15-12.43.78-18.64.05-.89-.01-1.78-.02-2.67-.03-2.65-1.01-5.3-.94-7.96-.05ZM165.01,42.83c-.01.45-.03.91-.04,1.36,4.55-2.56,9.56-2.69,14.58-2.77.41-.55.44-1.1.03-1.67-2.3-1.58-4.7-1.28-7.25-.36,1.5-.92,3.15-1.38,4.35-2.58.68-1.74.41-4.05,2.83-4.77h-.01c.32-.35.43-.7.34-1.06-.09-.36-.19-.55-.29-.55-2.44-1.54-4.74-.91-6.71.77-3.49,2.96-7.52,3.33-11.8,2.84-2.1,1.11-4.51,2.12-1.48,4.8h.02c.52.34.94.8,1.35,1.27h0c.47.42.91.89,1.51,1.15.78.16,1.55.32,2.33.48.43.16.61.37.54.64-.08.3-.18.44-.3.44ZM162.5,57.17c-.18-.28-.28-.58-.31-.91-1.92-1.79-4.36-2.63-6.65-3.77-2.68-1.33-1.33-2.97.05-4.45-1.45-1-3.06-.51-4.61-.47-3.14,4.16-2.63,5.2,4.31,8.88.53.25,1.09.47,1.64.68,1.62.51,3.18,1.58,4.99.64.2-.2.39-.41.59-.61ZM179.51,32.05c-.63,0-1.27-.05-1.89.04-1.07.15-2.36.43-2.52,1.57-.18,1.22,1.39,1.39,2.07,2.15,1.23,1.87,3.03,1.79,4.91,1.42.72-.25,1.27-.71,1.65-1.38-.08-.33-.18-.66-.3-.97-1.41-.79-5.14,1.64-3.91-2.82ZM163.9,44.25c-2.76-.42-5.51-.83-6.9,2.51,2.59-.06,4.68-1.46,6.9-2.51ZM183.72,35.84c-.48.09-.96.19-1.44.28-1.03.82-1.21,1.9-.93,3.11.22.56.61.96,1.17,1.18,1.27-1.3,3.54-2.33,1.21-4.58ZM208.72,82.68c.69,2.15-.56,4.73,1.44,6.59-.38-2.22.96-4.82-1.44-6.59ZM150.5,48.31c1.69-.09,3.39-.18,5.08-.27.47-.4.94-.8,1.41-1.2-2.2.05-4.4.09-6.61.14-.21.24-.42.49-.63.73.25.2.5.41.75.61ZM179.78,40.41c-.15.32-.22.66-.23,1.02,1.22.34,2.18-.06,2.96-1.01-.23-.25-.47-.49-.71-.74-.86-.28-1.59-.19-2.03.73ZM95.8,80.01c-.45.44-.9.87-1.35,1.31,0,.38,0,.76,0,1.14,2.41.05,4.82.11,7.23.14,1.67.02,3.02-.49,3.47-2.31-3.05-2.32-6.16-2.79-9.35-.27ZM98.46,41.41c.4.46.8.91,1.2,1.37-.4-.46-.8-.91-1.2-1.37ZM190.19,91.97c.45,0,.89,0,1.34,0-1.31-1.61-3.16-1.26-4.86-1.26-6.34,0-12.69.04-19.03.07,1.57,1.71,3.64,1.15,5.54,1.17,5.67.06,11.34.02,17.01.03ZM122.4,91.94c0,.45-.02.9-.02,1.35.51.37.9.87,1.33,1.33,4.88,0,9.75,0,14.63,0,.44-.9.87-1.79,1.31-2.69-5.75,1.89-11.49,1.93-17.24.01ZM156.92,90.77c-1.75,0-3.5,0-5.25,0,1.75,1.69,3.5,1.69,5.25,0ZM150.27,90.77c-1.75,0-3.5,0-5.25,0,1.75,1.68,3.5,1.68,5.25,0ZM142.3,90.79c-1.09-.09-2.06.1-2.66,1.15,1.06.02,2.03-.17,2.66-1.15ZM179.74,30.97c-.14.35-.22.71-.25,1.08.66.04,1.34.2,1.98.1,5.25-.81,8.95-5.88,14.64-5.43,5.5.44,9.81-1.95,13.78-5.36,1.86-1.6,4.19-1.24,6.36-1.17,4.5.16,8.54-.52,12.47-3.22,3.17-2.18,7.13-3.22,10.75-4.76-.64-.84-1.52-1.19-2.54-1.29-1.29-.03-2.59-.06-3.86.25-1.21.33-2.4.74-3.56,1.21-5.4,2.81-10.53,6.89-17.23,3.79-.69-.54-1.48-.83-2.35-.85-.55.05-1.09.2-1.59.44-.48.25-.95.53-1.41.8-.25.1-.49.23-.73.33-1.58.61-3.24.41-4.88.48-1.19.11-2.37.25-3.22,1.24-1.29.08-2.58.16-3.87.23-.24.62-.14,1.19.29,1.69,2.4,1.82,5.33.79,8.06,1.45.72-.25-.23,1.1-.49.26,0,0-.21.06-.61.18-.61.19-1.22.38-1.82.58-2.54,1.07-5.28.75-7.92,1.17-.59.11-1.15.28-1.71.5-1.84.89-3.66,1.81-5.51,2.66-1.72,1.04-3.82,1.58-4.76,3.64ZM194.25,20.2c-.01-.45-.02-.9-.03-1.36-3.47-.4-6.67.18-9.33,2.64-6.56,3.38-12.59,4.32-17.3,2.69-2.21-3.07-5.09-2.22-7.97-1.36h0c-.41.45-.85.86-1.32,1.24-.88.04-1.75.08-2.63.12-.43.57-.43,1.13.01,1.69,5.78.3,11.03,4.2,17.11,2.55.92-.1,1.82-.29,2.7-.53,2.25-.84,4.66-.76,6.98-1.22,1.14-.28,2.19-.77,3.23-1.31.51-.25.99-.55,1.47-.86.48-.28.95-.59,1.42-.9,1.69-.99,3.71-1.34,5.21-2.69.16-.24.31-.48.46-.72ZM219.46,12.18c-2.18.88-4.06,2.47-6.49,2.73-.65.51-.69,1.06-.13,1.67,5.97,1.35,10.68-2.11,15.77-4.12,1.19-.32,2.45-.24,3.63-.57,1.42-.34,2.84-.8,4.22.15,1,.06,2,.13,3,.19,0,0-.03,0-.03,0,1.2-1.02,2.52-1.82,4.03-2.28,1.1-.71,1.95-1.72,2.99-2.51.62-.54,1.12-1.16,1.39-1.95.05-.57-.14-1.05-.55-1.45-1.73.51-3.46,1.02-5.19,1.53-.27,0-.53,0-.8,0-1.07.24-1.93.83-2.69,1.58-.79.64-1.26,1.6-2.11,2.18-5.98-.88-11.49,1.06-17.03,2.84ZM247.3,4.04c.04.42.06.83.05,1.25.22.22.44.44.66.66.3.05.61.1.91.16,2.47-.39,4.92-.88,7.24-1.55-.32.91-2.84.08-2.21,2.15,4.12,1,7.16-1.55,10.46-3.21.76-.38,1.5-1.04,1.19-2.09-.4-1.39-1.97-1.71-2.62-1.17-4.66,3.81-10.76,1.39-15.69,3.8ZM253.95,6.72c.86-.56,1.73-1.13,3.56-2.32-3.6-.16-6.3-1.38-8.75,1.18-.05,1.07.33,1.94,1.23,2.55,1.32-.47,2.64-.94,3.96-1.41ZM249.99,8.13c-.24-.93-.3-1.95-1.23-2.55h-.01c-.78.81-1.97.55-2.84,1.12-1.38.3-3,.4-2.19,2.57,2.11,1.21,4.18,1.71,6.1-.36.02-.27.08-.53.18-.78ZM249.81,8.91c-2.03.12-4.06.24-6.09.36-1.87.36-3.57.95-4.29,2.96,2.68-.61,5.26-1.72,8.11-1.55,1.13.07,2.03-.52,2.28-1.77ZM236.49,9.33c1.22.15,2.3,0,2.8-1.34-.91-.59-1.75-.56-2.52.26,0,0,.03,0,.03,0-.03.38-.13.75-.31,1.09ZM99.2,74.47c-2.41-.08-4.82-.28-7.22-.22-3.41.09-3.5.46-1.44,4.3,3.73,1.58,7.63.51,11.45.73,2.63.15,5.09.71,7.44,1.84.66.09,1.33.08,1.98-.01,1.02-.05,2.02-.72,4.06.38-3.38,1.38-6.67.64-9.17,2.24-15.48.17-30.96,1.15-46.43-.4-2.19-.22-4.77-.31-4,3.32.73,2.73,2.67,2.81,5.07,2.68,23-1.18,46-.22,69-.31,20.35-.09,40.72-.08,61.08-.39.81.01,1.63,0,2.45-.07.89-.39,1.13-1.03.73-1.91-6.49-1.5-13.04-2.42-19.71-2.43-9.08-.02-18.16-.07-27.23-.17-2.87-.03-6.02.19-6.52-3.9-.19-.58-.46-1.11-.82-1.59-1.09-1.53-1.08-3.59.66-3.81,4.24-.54,7.84-3.82,12.81-1.81,3.52,1.42,7.75-.19,11.63-.86,1.23-.69,1.19-1.81.62-2.76-.54-.89-1.45-1.57-2.21-2.32q-3.69-3.64-1.29-8.19c-1.59-1.15-3.8-1.17-5.14-2.78h0c-3.65.43-6.64-4.64-10.65-1.3-4.66-.61-5.74-4.22-6.67-7.96-.14-.23-.28-.46-.41-.7-.55-.6-1.18-1.13-1.78-1.69-.58-.63-1.14-1.27-1.7-1.92-2.82-3.33-6.31-.97-9.52-1.15-1.6.2-3.1.73-4.59,1.33-7.25,1.12-10.52,7.01-14.48,12.09-.33,1.04-.23,2.01.41,2.91.61.35,1.27.52,1.97.52,5.66-.28,11.32-.91,16.94.37,4.5,2.62,9.55-.8,14.66,1.35-4.45,3.41-8.7,5.68-14.14,3.88-3.73-.06-7.47-.43-11.17.35-.62.2-1.2.51-1.73.89-2.33,2.7-3.89,8.93-8.48.54-1.55,4.28-1.72,8.56-6.45,8.96ZM194.2,87.95c-41.92-.03-83.84-.07-125.76-.08-2.86,0-5.8-.18-8.57.39-2.01.41-2.74-.91-3.99-1.61-.31,2.41.41,3.62,3.19,3.69,3.79.08,7.3-1.37,11.12-1.32,15.92.21,31.84.13,47.76.1,2.9,0,5.72.38,8.54,1,5.34,1.18,10.52-.94,15.8-.94,17.24.03,34.48.2,51.72.32.33-.31.47-.64.42-1-.05-.37-.13-.55-.22-.55ZM106.3,83.72c2.57.12,5.15.31,7.72.33,1.75.02,3.84-.23,3.96-2.37.14-2.61-2.08-2.82-4.1-2.85-.91-.01-1.65.36-2.2,1.11-6.95-1.96-14.04-1.86-21.15-1.39,1.28,2.18,3.58.72,5.26,1.46,3.13-.27,6.26-.52,9.35.27,3.1.24,1.85,1.93,1.15,3.44ZM194.2,87.95c-.07.52-.13,1.03-.2,1.55,0,0,.05-.02.05-.02,2.93,1.01,6,.02,8.93.6,2.96.59,3.64-1.45,4.47-3.44.47-1.33-.05-2.23-1.24-2.84-1.81.46-3.92-.06-5.36,1.62-.49.39-.88.92-1.54,1.07l.11-.06c-1.32,1.97-3.81,0-5.26,1.56l.04-.04ZM207.45,86.65c-1.63,1.93-3.56,2.9-6.24,2.65-2.36-.22-4.77.1-7.16.18,2.84,1.93,6.2,1.32,9.32,1.76,3.94.56,3.97.37,4.08-4.59ZM113.09,90.77c.87,1.2,1.74,1.21,2.62.02-.87,0-1.75-.01-2.62-.02ZM121.07,90.84c.44.37.89.74,1.33,1.11-.44-.37-.89-.74-1.33-1.11ZM66.49,90.77c-.44.4-.87.79-1.31,1.19.44-.4.87-.79,1.31-1.19ZM174.26,82.6c2.65.02,5.3.03,7.96.05-2.64-1.97-5.29-1.94-7.96-.05ZM164.96,82.57c1.75,0,3.51-.02,5.26-.02-1.76-1.74-3.52-1.74-5.26.02ZM159.6,75.92c.49-.39.97-.79,1.46-1.18-.49.39-.97.79-1.46,1.18ZM157.03,82.51l.62.05s.62-.08.62-.08c-.43-.39-.86-.77-1.29-1.16,0,0-.05.05-.05.05-.42.29-.55.56-.38.8.16.23.32.34.48.34ZM139.67,46.75c1.05.18,2.72.88,3.05.47,3.41-4.14,9.22-2.63,13.01-5.69-.18-.23-.36-.45-.54-.69-2.05-1.05-4.42-1.28-6.42-2.47-2.5.61-4.89,1.56-7.35,2.31-1.5,1.14-1.26,3.13-2.21,4.54-.16.6,0,1.1.45,1.52h0ZM146.34,54.72c3.68-.62,6.94,2.15,10.65,1.3-1.74-1.65-4.39-1.75-6.03-3.7-1.16-1.37-1.56-2.53-.45-4.01,0,0-.36-.4-.36-.4-.44-.29-.87-.28-1.3.03-2.22,1.75-4.11,3.62-2.5,6.78ZM159.56,38.86c-1.39-2.09.28-2.9,1.61-3.85-.56-1.3-1.69-1.88-2.94-2.31-2.03-.39-3.72.25-5.14,1.68-.32.46-.49.99-.5,1.5,1.51,1.72-2.26,1.12-1.26,2.67.81,1.76,3.07,1.33,4.13,2.72,0,0,.28.26.28.26,1.27-.89,2.55-1.79,3.82-2.68ZM160.93,40.12c-.2-.69-.64-1.13-1.35-1.28.45.43.9.85,1.35,1.28ZM162.44,41.27c-.5-.38-1-.76-1.51-1.14.27.68.78,1.06,1.51,1.14ZM165.01,42.83c.5-.24.65-.58.35-.93-.11-.13-.38-.11-.58-.16.07.36.15.73.24,1.09ZM148.85,47.94l.65.04s.65-.06.65-.06c.1-.31.19-.63.24-.94-.51.33-1.03.65-1.54.97ZM142.17,80.12c-.57-1.69-1.46-3.32-.9-5.2-.2-.17-.4-.35-.59-.54-3.08,1.42-2.45,3.4-.83,5.53.29.07.59.15.88.23.48,0,.96-.01,1.44-.02ZM194.16,87.98c1.83-.26,4.04.76,5.26-1.56-1.74.07-3.48.15-5.22.22-.01.45-.03.89-.04,1.34ZM145.07,82.51c-.49-.34-.99-.68-1.48-1.02.49.34.99.68,1.48,1.02ZM199.31,86.48c.77.01,1.27-.36,1.54-1.07-.74.02-1.25.38-1.54,1.07ZM158.34,33.6c.64,1.06,1.77,1.15,2.82,1.4,4.51,2.03,8.58,1.07,11.99-2.21,2-1.93,4.16-2.05,6.59-1.81,1.97-.46,3.81-1.17,5.32-2.57-2.56-4.54-6.51-1.47-9.84-1.8-.77.08-1.54.15-2.31.23-2.8,1.4-5.95,2.09-8.46,4.08-1.2.8-2.6,1.01-3.98,1.28-.87.23-1.64.61-2.12,1.42ZM179.78,40.41c.68-.24,1.35-.49,2.03-.73.55-1.13,1.1-2.27.47-3.56-1.71-.11-3.41-.21-5.12-.32-3.31.21-5.52,2.66-8.27,4.61h10.89ZM156.99,56.02c.95,2.34,2.87,2.87,5.14,2.79.05-.37-.03-.71-.22-1.03-1.81-.11-2.84-2.39-4.91-1.76ZM122.38,93.3c.44.44.89.89,1.33,1.33-.44-.44-.89-.89-1.33-1.33ZM106.49,34.84c.02.48.04.96.07,1.43.48.39,1,.71,1.55.97,5.57,1.13,9.96-1.84,14.43-4.34,1.7-.95,3.08-2.42,5.24-1.43.5.3,1.02.56,1.54.83.28.11.55.21.83.32.61.09,1.18,0,1.72-.3.37-.53.38-1.07.03-1.61-5.34-6.09-7.09-6.29-12.85-1.14-3.61,3.22-7.76,4.96-12.55,5.27ZM131.9,30.71c-.05.41-.08.82-.11,1.23,1.57,1.99,3.67,1.74,5.79,1.39,4.18-1.79,8.77-2.62,12.64-5.2,1.39-.79,2.96-1.25,4.21-2.31.42-.6.36-1.15-.16-1.65-1.76,0-3.51,0-5.27,0-5.48,2.74-10.9,5.65-17.1,6.54ZM99.2,74.47q5.22-.42,6.56-6.38c.95.55.55,1.56.8,2.35.55,1.76,1.35,2.74,3.33,1.47,2.45-1.57,5.11-2.9,4.52-6.53-3.8-2.21-8.08-8.14-7.83-10.85.31-1.47-.48-2.39-1.56-3.17-1.56-.76-3.22-.53-4.85-.48-2.83.45-5.81-.23-8.53,1.08l.07-.08c-7.46,3.42-8.56,9.41-6.74,16.59,1.13,2.42,3.13,2.67,4.59.88,3.03-3.73,7.21-2.28,10.88-2.86,2.32-.37,3.47,1.62,2.73,3.82-.68,2-2.51,2.91-3.97,4.17ZM99.73,52.23c1.79.01,3.59.03,5.38.04,5.38.61,7.82-3.23,9.61-7.09,1.59-3.43-2.15-4.7-4.01-6.62-.9-.85-2.05-1.4-2.89-2.33-.42-.04-.84-.02-1.26.05-.47,2.18-2.35,2.12-3.97,2.72-2.51.93-1.83,2.45-.26,3.86.24-.08.47-.15.7-.22.7-.13,1.8-.68.84.88-.37.33-.6.71-.71,1.17-.04.76.03,1.48.65,2.02v.02c1.32,4.88-1.79,3.25-4.1,2.79-.83-.33-1.67-.59-2.56-.17-.56,2.23.63,2.89,2.58,2.87ZM84.97,68.46c.1-3.27.21-6.54.31-9.81.03-.94.63-2.19,1.3-1.76,4.79,3.1,3.39-.7,3.63-2.99.08-.72.98-1.36,1.5-2.04-3.62-.66-4.71,3.67-7.89,4.01-.67.07-.75,1.09-.45,1.67,1.82,3.46-.49,7.51,1.6,10.91ZM92.74,71.45c2.18.84,4.16,1.08,5.99-.75q-3.19-1.32-5.99.75ZM99.73,52.23c-1.09-.75-2.13-1.55-2.58-2.87-2.42-.36-3.92,1.21-5.52,2.6,2.73-.7,5.33,2.13,8.1.28ZM99.71,49.52c.74,1.37,2.03,1.54,3.37,1.41,1.05-.1,2.35-.04,2.71-1.33.43-1.58-.7-2.32-1.96-2.88-.24,2.59-2.1,2.81-4.11,2.79ZM103.81,46.71c-.05-.84-.1-1.68-.15-2.51-.3-.47-.67-.55-1.12-.19-.15,1.17.08,2.16,1.27,2.7ZM102.54,44c.39-.03.76.04,1.12.19,0,0,.22-.21.22-.21.23-.94-.24-1.35-1.1-1.47,0,0-.44.33-.44.33-.01.4.05.79.2,1.16ZM159.62,22.82c2.76-.14,5.51-.27,7.97,1.36-2.06-3.27-3.45-3.51-7.97-1.36ZM158.29,24.05c.44-.41.88-.82,1.32-1.23-.44.41-.88.82-1.32,1.23ZM154.27,24.17c.03.43.04.86.04,1.3.44.31.88.32,1.32-.02,0-.43.01-.85.04-1.28-.46,0-.93,0-1.39,0ZM228.84,11.01c-5.45,1.39-10.36,4.46-16.04,5.15-.49-.57-.89-.54-1.17.19-.8,1.34-1.02,2.21,1.09,2.46,6.62.76,12.35-1.12,17.37-5.39.44-.28.59-.67.47-1.18-.44-.6-1.17-.79-1.73-1.23ZM199.95,24.41c2.4-.95,4.8-1.9,7.2-2.86-4.36-2.18-8.67-1.26-12.9-1.35,0,0,.09.15.09.15-1.71.87-3.32,2.01-5.36,2.02-.48.31-.92.68-1.3,1.11-.38.47-.54,1.01-.43,1.61.84,1.24,1.91,1.15,3.08.53l-.05.02c3.03-1.96,6.55-.03,9.68-1.22ZM190.32,25.62c-1.08-.28-2.27-.35-2.84-1.54-.44-.44-.87-.41-1.31,0h0c-.65.93-1.87.63-2.66,1.26-2.74.54-5.64.05-8.28,1.25,3.18,1.16,7.03-1.37,9.84,1.8,1.99-.48,3.75-1.38,5.25-2.78ZM199.95,24.41c-3.27.04-6.74-1.45-9.68,1.22,3.23-.38,6.56.03,9.68-1.22ZM207.54,17.55c-1.79.13-3.75-.61-5.24,1.03,1.82.02,3.78.75,5.24-1.03ZM236.46,12.03c-.89-1.49-2.24-1.5-3.7-1.16-.14.29-.28.59-.42.88.22.24.45.47.67.71,1.15-.14,2.3-.29,3.45-.43ZM211.64,16.35h.6s.57-.19.57-.19c0-.42.05-.84.16-1.25-1.51-.02-3.11-.35-4.13,1.25.93.06,1.87.13,2.8.19ZM230.1,12.26c0,.38,0,.77,0,1.15,1.1.08,2.06-.26,2.91-.95-.18-.2-.36-.41-.55-.61-.86-.32-1.69-.44-2.36.41ZM208.81,16.19c-.43.46-.86.91-1.28,1.37.43-.46.86-.91,1.28-1.37ZM155.62,25.45c-.44,0-.88.01-1.32.02-1.34.56-2.98.07-4.16,1.17,2.27,2.66,5.01,1.34,7.62.88.79.24,1.57-.48,2.38-.07-.48.28-.99-.07-1.5.06-3.68,1.05-7.75.8-10.96,3.33-.18,2.87,2.73,2.36,3.99,3.65.48.28,1,.45,1.55.54,1.77-.25,3.16-1.87,5.12-1.45.81-.09,1.63-.18,2.44-.26,1.21-.99,2.95-.09,4.15-1.13,2.26-2.39,5.84-2.82,7.98-5.38-3.37.24-6.58,1.35-9.72-1.78-1.72-1.71-4.91,1.33-7.57.41ZM188.9,23.1c2.14-.27,4.24-.62,5.43-2.75-2.54.2-4.9,1.01-7.17,2.11.06.27.11.53.17.8.54.13,1.07.08,1.57-.16ZM183.5,25.35c1.22.3,2.26.2,2.66-1.25-1.09-.02-2,.34-2.66,1.25ZM186.17,24.08l.65.05s.65-.05.65-.05-.01.02-.01.02c.31-.22.43-.47.39-.74-.05-.29-.12-.43-.21-.43-.16-.16-.32-.31-.48-.47-.33.54-.67,1.09-1,1.63ZM236.78,8.25c.84-.08,1.68-.17,2.52-.26.93-.81,1.87-1.62,2.8-2.43-2.3-.15-4.37.18-5.32,2.69ZM230.1,12.26c.79-.13,1.57-.27,2.36-.4.16-.31.26-.64.3-.98-1.32-.3-2.62-.32-3.92.13.42.42.84.84,1.26,1.26ZM245.91,6.7c1.19.26,2.17-.03,2.84-1.12-.47-.1-.93-.19-1.4-.29-.48.47-.96.94-1.44,1.41ZM107.82,36.23c-.06,1.06-.07,2.1,1.13,2.62,4.14,2.61,8.52,4.63,13.44,5.25,1.33-.45,2.66-.9,4-1.34.42-3.36,3.84-4.03,5.58-6.21.48-.82.62-1.69.39-2.61-.36-.92-1.32-1.19-1.97-1.8h0c-.48-.42-.91-.88-1.2-1.45-1.85-2.59-4.15-2.57-6.1-.46-4.17,4.51-9.63,5.36-15.25,6.01ZM131.5,36.05c-1.14.49-2.24,1.11-3.42,1.46-3.22.94-3.09,2.87-1.7,5.25,1.49-.11,3.21.22,4.43-.41,2.53-1.3,3.44.65,4.81,1.82.24-.04.48-.09.73-.13.92-.34,1.77-.85,2.69-1.21.71-.26,1.33-.65,1.82-1.23,3.08.12,6.04-.15,8.33-2.57.9.55,1.68.42,2.35-.4.97-1.61,3.19-.51,4.52-2.25-1.24-.16-2.24-.29-3.24-.42-1.41-1.22-3.07-1.49-4.86-1.34-3.16.45-5.74,3.06-9.19,2.47-.94,0-1.89.06-2.82.17-.87.11-1.79.2-2.49.72-3.46,2.53-.1-1.67-1.33-1.33-.22-.21-.43-.4-.64-.59ZM127.72,65.35c6.58,2.69,11.05-1.73,15.77-4.89,1.57-1.05.32-2.49-1.07-2.75-3.23-.61-6.57-.74-9.74.09-1.85.49-3.38.47-4.99-.41-2.81-1.31-5.77-.39-8.66-.58-1.37.71-.87,1.55-.17,2.39,3.99,1.92,8.53,1.11,12.58,2.72-.88,1.11-2.75.58-3.76,1.76-.4.56-.4,1.12.03,1.66ZM122.38,44.1c-.49-1-1.15-2.21-2.21-2.22-4.03-.04-7.39-2.39-11.22-3.03,6.33,5.77,6.29,5.72-.69,11.3-1.01.81-1.78,1.86-3.14,2.12.43.83.86,1.66,1.29,2.49.23.17.45.33.68.5.22-.17.45-.34.67-.51,1.84.01,2.61-1.35,3.44-2.65,2.64-4.17,6.08-7.24,11.18-7.99ZM106.41,54.75c-1.5.14-3.11-.36-4.88,1.04,3.14,3.57,10.16,4.6,7.82,11.39,2.62.95,3.41-1.42,5.06-1.81h0c.44-.37.61-.84.49-1.4-.51-1.24-1.45-2.23-2.01-3.45-.68-1.14-.22-2.72-1.44-3.64-.84-.14-1.66-.16-2.37.41-.42,0-.85.02-1.27.04-.92-.62-.52-1.94-1.39-2.58h0ZM114.43,64.09c0,.43-.02.86-.03,1.29,4.44,0,8.88-.02,13.32-.03-.02-.43-.04-.85-.05-1.28-4.42-2.8-8.84-4.73-13.25.02ZM109.07,57.29l2.78.16c2.16,1.8,4.32,1.81,6.47-.02,3.13-.01,6.26-.03,9.38-.04-6.2-2.15-12.41-2.09-18.63-.1ZM139.67,46.75c0-.44-.01-.87-.01-1.31-.37-.41-.83-.65-1.38-.71-.26.06-.52.12-.79.18-.19.19-.38.38-.57.56.64,1.02,1.63,1.29,2.76,1.27ZM106.4,54.75c.04,1.09.24,2.09,1.39,2.58-.01-.86-.02-1.73-.04-2.59-.45,0-.91,0-1.36,0ZM135.62,44.16c.43.44.87.88,1.3,1.31,0,0,.13-.09.13-.09.28-1.11-.15-1.56-1.28-1.34l-.15.12ZM111.69,79.95c.1.41.17.83.3,1.23.4,1.23,1.33,1.56,2.48,1.25.32-.09.77-.55.76-.83-.04-1.52-1.27-1.35-2.28-1.47-.42-.05-.84-.12-1.26-.18,0,0,0,0,0,0ZM151.54,38.62c-.78.13-1.57.26-2.35.4.83,4.26,4.05,1.87,6.27,2.26.04-2.88-2.25-2.3-3.92-2.65ZM138.58,45.22c.37.05.73.13,1.08.23,3.11-.44,2.6-2,1.2-3.85-.74.03-1.48.06-2.22.1-1.43,1.15-1.35,2.32-.07,3.52ZM147.73,35.85c1.7.04,3.39.07,5.09.11.11-.32.24-.62.4-.92,0,0-.43-.42-.43-.42-1.47-1.16-3.04-1.3-4.71-.47-.65.45-.77,1.02-.35,1.69ZM164.94,32.2c-1.48.02-2.98-.03-4.15,1.13,1.51.09,3.06.33,4.15-1.13ZM130.37,32.13c.4.54.81,1.08,1.21,1.62,2.71,1.16,5.51,2.63,6.67-1.84-2.15-.24-4.29,1.32-6.45.03-.48.06-.95.12-1.43.18ZM129.17,30.67c.05.77.44,1.27,1.2,1.45-.05-.77-.45-1.26-1.2-1.45ZM138.24,31.91c-1.68,2.56-4.37,1.5-6.67,1.84-.03.77-.05,1.53-.08,2.3,0,0,.21.09.21.09.28.18.56.36.84.54.33.03.66.07.99.11,4.7-.94,10.19,1.1,13.92-3.6.12-.31.23-.62.35-.93,3.9-1.46,7.81-2.92,11.71-4.38,0-.28.01-.56.02-.85-3.13-.13-6.27-.25-9.4-.38-3.53,2.75-8.49,2.26-11.89,5.27ZM86.83,61.9c3.18,1.83,5.9.68,8.15,1.84.96.49,1.97-.63,1.85-1.98-.1-1.08-1.14-1.79-1.78-1.45-2.24,1.17-4.93.28-8.22,1.6ZM102.78,42.51c.37.49.73.98,1.1,1.47,1.13.65,2.36,1.42,3.22-.22.94-1.78-.19-2.94-1.69-3.44-1.71-.57-2.96,0-2.64,2.19ZM187.64,22.93c-.16.38-.22.77-.18,1.17.48-.34.96-.67,1.44-1.01-.4-.18-.82-.24-1.26-.17ZM147.68,34.74c1.71-.04,3.41-.08,5.11-.12-.32-3.6-3.08-2.09-4.98-2.38,0,0-.1-.06-.1-.06-.82.84-.9,1.69-.03,2.55ZM159.27,30.4c.46.1.86.3,1.25.26.64-.07.75-.39.31-.67-.17-.1-.44-.16-.61-.1-.32.11-.6.32-.94.51ZM159.54,27.02c.03.28.03.57-.02.85.66.08,1.72.18,1.71-.43,0-.67-1.04-.53-1.69-.42ZM147.68,34.74c.01-.85.02-1.7.03-2.55-2.71,2.11-5.75,2.91-9.21,2.69-1.85-.12-4.04-.87-5.41,1.32,2.5,2.54,5.38.12,8.11.73-1.36-.06-2.95-.51-2.94,1.65,3.83,1.43,6.51-1.13,9.46-2.72-.05-.37-.06-.74-.05-1.11ZM138.27,38.57c.97-1.42,2.87-.64,4.83-2.38-3.86,0-6.93,0-10,0,0,0,0,0,0,0-.93,2.71,2.04,1.36,2.61,2.51.85-.04,1.7-.09,2.55-.13ZM135.71,38.7c-.87-.84-1.74-1.67-2.61-2.51-.47-.02-.93-.04-1.4-.06.13,2.39-2.19,2.7-4.61,4.05,4.05,1.31,6.05-1.55,8.61-1.49ZM138.58,45.22c.02-1.18.04-2.35.06-3.52-1.57.04-2.35,1.04-2.87,2.36.43.45.85.89,1.28,1.34.51-.06,1.02-.12,1.53-.17ZM114.43,64.09c4.41-2.53,8.83.08,13.25-.02,3.09-.22,6.58.76,9.23-3.43-6.24-.41-11.58-2.36-17.28-1.87-2.41,1.44-5.67.23-7.82,2.49.37,1.41,1.34,2.26,2.62,2.82ZM111.81,61.26c2.77-.31,6.33,1.84,7.82-2.49-.44-.44-.87-.89-1.31-1.33-2.16,0-4.31.01-6.47.02-.96,1.26-1.06,2.53-.03,3.81Z"/>
  </g>
</svg>